<svg width="248" height="251" viewBox="0 0 248 251" fill="none" xmlns="http://www.w3.org/2000/svg">
<path d="M52.5543 231.934C52.5012 231.095 52.4422 230.29 52.3773 229.52C52.1755 227.234 51.9118 225.24 51.6144 223.509C51.5666 223.219 51.5152 222.938 51.4639 222.664C51.4126 222.39 51.3612 222.123 51.3099 221.863C51.2585 221.603 51.2037 221.35 51.1506 221.105C51.016 220.489 50.8803 219.917 50.7434 219.386C50.6319 218.96 50.5221 218.562 50.4124 218.189C50.3575 218.002 50.3026 217.822 50.2495 217.647C50.0583 217.037 49.8725 216.503 49.6954 216.038C49.6707 215.971 49.6459 215.907 49.6211 215.843C48.952 214.125 48.4421 213.432 48.4421 213.432C47.8597 213.51 47.1251 213.588 46.286 213.664C45.4469 213.74 44.5069 213.816 43.5138 213.886C39.5291 214.175 34.6999 214.417 32.2995 214.535C29.9009 214.422 25.0717 214.182 21.087 213.886C20.0939 213.816 19.1539 213.74 18.3166 213.664C17.4793 213.588 16.7428 213.51 16.1604 213.432C15.9649 213.721 15.7915 214.024 15.6418 214.339L15.5851 214.454C15.5462 214.533 15.5055 214.618 15.4648 214.709L15.401 214.846C15.1638 215.366 14.8877 216.045 14.5956 216.904L14.5159 217.143C14.4085 217.468 14.2999 217.817 14.1902 218.189C14.1619 218.283 14.1353 218.379 14.107 218.474C13.8875 219.247 13.6662 220.122 13.452 221.105C13.3989 221.352 13.3458 221.605 13.2927 221.865C12.7985 224.396 12.4439 226.953 12.2306 229.523C12.1598 230.292 12.1013 231.096 12.0535 231.934C11.7668 236.531 12.3545 243.314 13.2378 250.598H30.4479C31.0197 240.906 31.687 233.674 32.2977 233.411C32.9049 233.674 33.5776 240.906 34.1512 250.598H51.5666C52.3525 243.418 52.85 236.655 52.5543 231.934Z" fill="#333333"/>
<path d="M7.69169 233.98C6.15869 236.932 6.07548 239.925 5.61346 240.344C5.15143 240.763 4.523 241.009 4.18312 240.643C3.84324 240.277 3.73526 238.497 4.08045 237.814C4.42564 237.132 4.13179 235.709 3.98486 235.772C3.83793 235.836 2.51735 237.044 2.64834 238.2C2.77934 239.356 2.80058 240.174 2.8767 241.398C2.95282 242.621 4.40617 244.011 4.41148 244.789C4.41679 245.566 3.58656 245.943 3.06788 245.568C2.54921 245.193 0.368303 242.494 0.421409 241.559C0.474516 240.623 -0.22118 237.162 0.0726765 236.455C0.366533 235.748 2.41644 228.5 2.37396 226.928C2.37396 226.928 2.58108 223.652 2.94043 218.637L5.07354 219.266C5.07354 219.266 6.31269 224.205 7.15709 226.958C7.30756 227.481 7.48481 227.996 7.68815 228.501C8.37854 230.018 9.22824 231.026 7.69169 233.98Z" fill="#EBBE94"/>
<path d="M61.7276 226.18C61.694 227.499 63.7475 234.578 64.0431 235.274C64.3387 235.971 63.6377 239.436 63.689 240.374C63.7404 241.313 61.5648 244.018 61.0426 244.393C60.5204 244.767 59.6937 244.393 59.699 243.611C59.7043 242.83 61.1576 241.446 61.2338 240.221C61.3099 238.995 61.3329 238.18 61.4621 237.024C61.5913 235.868 60.2708 234.661 60.1256 234.595C59.9804 234.53 59.683 235.958 60.03 236.637C60.377 237.316 60.2654 239.091 59.9273 239.466C59.5892 239.84 58.9573 239.591 58.497 239.167C58.0367 238.743 57.9518 235.75 56.4188 232.803C54.8858 229.856 55.7319 228.846 56.4188 227.331C56.4908 227.082 56.5394 226.826 56.5639 226.567C56.7166 226.32 56.8469 226.059 56.9534 225.788C57.8013 223.035 59.0369 218.098 59.0369 218.098L61.17 217.468C61.2497 218.564 61.3205 219.577 61.3842 220.493C61.3842 220.571 61.3948 220.647 61.3984 220.723L61.7276 226.18Z" fill="#EBBE94"/>
<path d="M55.7726 154.02C55.2734 149.277 61.5789 144.233 58.5483 140.001C56.6701 137.378 54.2537 136.087 52.4977 133.822C49.7114 130.234 49.7415 125.625 47.6331 121.801C44.1192 115.437 24.7973 112.523 16.9588 121.801C13.9901 125.314 14.8806 130.228 12.0942 133.822C10.2532 136.195 7.77314 137.586 6.04363 140.001C3.00948 144.233 9.31854 149.277 8.81934 154.02C8.32013 158.804 2.82007 163.027 3.66269 167.788C3.99195 169.648 18.1448 190.365 32.296 190.365C46.4471 190.365 60.6 169.648 60.9292 167.788C61.7807 163.027 56.2771 158.804 55.7726 154.02Z" fill="#543B32"/>
<path d="M42.912 202.1H32.296H21.68L12.6129 167.137L18.4953 163.089H46.0966L52.6163 167.137L42.912 202.1Z" fill="#B8E3FB"/>
<path d="M42.912 202.1H32.296H21.68L12.6129 167.138L23.0306 160.968L41.5648 160.961L52.6163 167.138L42.912 202.1Z" fill="white"/>
<path d="M46.1142 163.089C46.1142 163.089 40.7558 160.669 37.141 158.867C36.9427 156.647 36.8153 153.364 37.4278 151.158C38.1359 148.626 34.5954 148.416 32.4145 148.518C30.2425 148.416 26.6949 148.619 27.4013 151.158C28.0138 153.371 27.8792 156.659 27.6827 158.88C24.2184 160.496 18.5148 163.089 18.5148 163.089" fill="#E8B382"/>
<path d="M46.1143 163.089H18.5166C18.5166 163.089 24.1069 160.547 27.573 158.929C29.0784 159.607 30.7125 159.953 32.3638 159.942C34.0151 159.931 35.6446 159.565 37.1411 158.867C40.7558 160.669 46.1143 163.089 46.1143 163.089Z" fill="white"/>
<path d="M20.6958 144.925C22.0292 144.81 22.9444 142.809 22.74 140.456C22.5355 138.103 21.2888 136.289 19.9554 136.405C18.622 136.52 17.7068 138.521 17.9113 140.874C18.1157 143.227 19.3624 145.041 20.6958 144.925Z" fill="#EBBE94"/>
<path d="M43.5049 136.934C42.2658 138.077 41.6869 140.673 42.218 142.732C42.749 144.792 44.1829 145.536 45.4238 144.394C46.6648 143.252 47.2418 140.655 46.7126 138.595C46.1833 136.536 44.7458 135.792 43.5049 136.934Z" fill="#EBBE94"/>
<path d="M45.5495 140.517C45.5495 148.787 36.5409 156.82 32.3826 156.82C28.998 156.82 19.2352 148.764 19.2423 140.494C19.2494 132.224 25.1442 125.524 32.4092 125.531C39.6742 125.538 45.5566 132.247 45.5495 140.517Z" fill="#EEC7A3"/>
<path d="M34.1122 144.741C34.1122 144.939 33.4501 145.886 32.6323 145.886C31.8145 145.886 31.1506 144.939 31.1506 144.741C31.1506 144.543 31.8145 144.387 32.6323 144.387C33.4501 144.387 34.1122 144.543 34.1122 144.741Z" fill="#F4DAC2"/>
<path d="M26.2046 142.962C27.0689 142.962 27.7695 142.015 27.7695 140.846C27.7695 139.677 27.0689 138.73 26.2046 138.73C25.3404 138.73 24.6398 139.677 24.6398 140.846C24.6398 142.015 25.3404 142.962 26.2046 142.962Z" fill="#1A1A1A"/>
<path d="M26.1994 138.546C27.6439 138.546 28.221 140.324 28.0209 140.369C27.8882 140.46 27.235 139.324 26.1994 139.371C25.1656 139.324 24.5124 140.46 24.3796 140.369C24.1831 140.324 24.762 138.544 26.1994 138.546Z" fill="#1A1A1A"/>
<path d="M24.7336 139.361C24.7336 139.361 24.3601 139.808 24.0768 139.753C23.7955 139.679 23.5408 139.527 23.3422 139.315C23.3203 139.51 23.3467 139.708 23.4193 139.89C23.4918 140.073 23.6082 140.235 23.7582 140.362C23.8537 140.448 23.9726 140.504 24.0999 140.522C24.4238 140.552 24.6663 140.241 24.838 139.967C24.8859 139.912 24.9193 139.847 24.9351 139.775C24.9509 139.704 24.9485 139.631 24.9283 139.561" fill="#1A1A1A"/>
<path d="M27.1747 140.692C27.3605 140.692 27.5111 140.542 27.5111 140.356C27.5111 140.171 27.3605 140.021 27.1747 140.021C26.989 140.021 26.8384 140.171 26.8384 140.356C26.8384 140.542 26.989 140.692 27.1747 140.692Z" fill="white"/>
<path d="M39.06 142.962C39.9242 142.962 40.6249 142.015 40.6249 140.846C40.6249 139.677 39.9242 138.73 39.06 138.73C38.1957 138.73 37.4951 139.677 37.4951 140.846C37.4951 142.015 38.1957 142.962 39.06 142.962Z" fill="#1A1A1A"/>
<path d="M39.0599 138.546C37.6154 138.546 37.0383 140.324 37.2384 140.369C37.3711 140.46 38.0244 139.324 39.0599 139.371C40.0937 139.324 40.7469 140.46 40.8797 140.369C41.0815 140.324 40.5027 138.544 39.0599 138.546Z" fill="#1A1A1A"/>
<path d="M40.5381 139.361C40.5381 139.361 40.9117 139.808 41.1949 139.753C41.4762 139.679 41.7309 139.527 41.9295 139.315C41.9515 139.51 41.925 139.708 41.8525 139.89C41.7799 140.073 41.6635 140.235 41.5135 140.362C41.4178 140.447 41.299 140.503 41.1719 140.522C40.8479 140.552 40.6054 140.241 40.4337 139.967C40.3558 139.844 40.2761 139.691 40.3434 139.561" fill="#1A1A1A"/>
<path d="M39.86 140.692C40.0458 140.692 40.1964 140.542 40.1964 140.356C40.1964 140.171 40.0458 140.021 39.86 140.021C39.6743 140.021 39.5237 140.171 39.5237 140.356C39.5237 140.542 39.6743 140.692 39.86 140.692Z" fill="white"/>
<g opacity="0.08">
<path opacity="0.08" d="M26.7817 147.673C28.0947 147.673 29.1591 147.138 29.1591 146.478C29.1591 145.818 28.0947 145.283 26.7817 145.283C25.4687 145.283 24.4043 145.818 24.4043 146.478C24.4043 147.138 25.4687 147.673 26.7817 147.673Z" fill="#ED1C24"/>
<path opacity="0.08" d="M38.7324 147.673C40.0454 147.673 41.1098 147.138 41.1098 146.478C41.1098 145.818 40.0454 145.283 38.7324 145.283C37.4194 145.283 36.355 145.818 36.355 146.478C36.355 147.138 37.4194 147.673 38.7324 147.673Z" fill="#ED1C24"/>
</g>
<path d="M20.4019 212.642C23.4466 205.04 21.0869 195.943 15.3992 190.367C16.7765 193.462 18.9397 200.187 18.7025 203.852C18.3927 208.788 9.43359 223.599 9.43359 223.599C9.43359 223.599 9.65487 224.108 11.048 224.738C14.8823 221.333 18.4245 217.666 20.4019 212.642Z" fill="#333333"/>
<path d="M61.4019 220.721C61.4019 220.645 61.393 220.569 61.3877 220.491C60.4884 206.027 57.9535 168.932 55.4681 167.443C52.3791 165.591 41.5648 160.968 41.5648 160.968L37.1393 158.873C36.9622 159.267 32.2942 181.678 32.2942 185.65C32.2942 181.68 27.7465 159.329 27.5712 158.935C27.5606 158.935 23.0253 160.968 23.0253 160.968C23.0253 160.968 12.2146 165.591 9.12557 167.44C6.77118 168.854 4.08753 202.62 2.9422 218.639C2.58816 223.654 2.37573 226.93 2.37573 226.93L7.15532 226.96C8.28649 221.722 13.8078 189.016 14.376 188.723C14.5371 188.642 14.9213 189.285 15.3992 190.358C21.0869 195.934 23.4484 205.031 20.4019 212.633C18.4245 217.657 14.8805 221.322 11.0463 224.725C12.5226 225.395 15.3089 226.196 20.5559 226.67C30.7523 227.596 32.2959 220.498 32.2959 220.498C32.2959 220.498 33.8413 227.596 44.036 226.67C49.2812 226.194 52.0693 225.394 53.5456 224.725C49.7113 221.322 46.1674 217.654 44.1918 212.633C41.1453 205.031 43.505 195.932 49.1927 190.358C49.6724 189.285 50.0548 188.642 50.2141 188.723C50.7876 189.009 55.438 221.315 56.5674 226.555L56.7125 226.544L61.7276 226.18L61.4019 220.721Z" fill="#444444"/>
<path d="M44.1901 212.642C41.1453 205.04 43.505 195.943 49.1927 190.367C47.8155 193.462 45.6611 200.187 45.8895 203.852C46.1993 208.788 55.1583 223.599 55.1583 223.599C55.1583 223.599 54.9371 224.108 53.5439 224.738C49.7096 221.333 46.1674 217.666 44.1901 212.642Z" fill="#333333"/>
<path d="M37.1393 158.862C36.9622 159.256 32.2959 181.667 32.2959 185.645C32.2959 181.674 27.7483 159.323 27.573 158.929C26.6082 159.969 16.8048 167.82 17.9289 170.067C19.168 172.542 24.7265 171.304 25.3443 174.078C25.9621 176.852 21.0197 179.323 25.3443 183.334C29.6689 187.346 32.2959 190.369 32.2959 190.369C32.2959 190.369 34.9229 187.346 39.2476 183.334C43.5722 179.323 38.6298 176.855 39.2476 174.078C39.8654 171.301 45.4274 172.535 46.663 170.067C47.796 167.82 38.1023 159.907 37.1393 158.862Z" fill="#333333"/>
<path d="M33.7406 195.918C34.3891 195.27 34.3891 194.22 33.7406 193.573C33.0922 192.925 32.0408 192.925 31.3924 193.573C30.7439 194.22 30.7439 195.27 31.3924 195.918C32.0408 196.565 33.0922 196.565 33.7406 195.918Z" fill="black"/>
<path d="M34.1826 204.386C34.3925 203.494 33.839 202.602 32.9462 202.392C32.0535 202.183 31.1597 202.735 30.9498 203.627C30.74 204.518 31.2935 205.411 32.1862 205.621C33.0789 205.83 33.9728 205.278 34.1826 204.386Z" fill="black"/>
<path d="M32.5667 214.917C33.4838 214.917 34.2272 214.175 34.2272 213.259C34.2272 212.343 33.4838 211.601 32.5667 211.601C31.6497 211.601 30.9062 212.343 30.9062 213.259C30.9062 214.175 31.6497 214.917 32.5667 214.917Z" fill="black"/>
<path d="M30.3735 128.649C28.86 132.551 24.9867 135.024 22.8182 138.604C20.4426 142.527 20.3293 147.413 20.9241 151.96C21.5189 156.507 22.7492 160.985 22.8147 165.573C22.8465 167.846 22.5562 170.224 21.287 172.114C20.0177 174.004 17.5536 175.222 15.401 174.481C17.4598 174.589 19.2955 172.842 19.8 170.846C20.3045 168.85 19.7451 166.724 18.8281 164.88C17.9112 163.036 16.6525 161.383 15.6417 159.585C11.1525 151.538 12.2659 141.148 16.9322 133.195C17.9554 131.451 19.168 129.765 20.8267 128.619C24.1388 126.342 28.0758 125.105 32.0233 124.345" fill="#543B32"/>
<path d="M49.0988 146.563C48.0227 149.581 46.4551 152.4 44.4591 154.907C42.6676 157.156 40.5292 159.15 39.1148 161.661C37.979 163.732 37.3045 166.023 37.1375 168.379C36.918 171.085 37.3145 173.935 38.8121 176.198C40.3097 178.461 43.0907 179.997 45.7673 179.512C46.7958 179.336 47.8544 178.765 48.2031 177.78C48.5518 176.795 47.7535 175.482 46.7232 175.644C47.2702 176.035 47.0241 176.981 46.4417 177.32C45.8593 177.66 45.1353 177.578 44.4679 177.487C43.3616 177.334 42.1295 177.11 41.4887 176.198C41.2066 175.762 41.051 175.258 41.039 174.739C40.9381 172.855 42.0587 171.099 43.4341 169.807C44.8096 168.515 46.4612 167.546 47.8791 166.3C49.4639 164.889 50.7291 163.157 51.5903 161.219C52.4514 159.281 52.8887 157.181 52.8729 155.061" fill="#543B32"/>
<path d="M17.7767 126.533C16.0985 129.933 15.417 133.897 12.9404 136.768C12.0925 137.75 10.9383 138.611 9.63898 138.585C8.63527 138.565 7.71652 138.016 6.95533 137.363C5.99056 136.538 5.18511 135.484 4.85585 134.257C4.45401 132.705 6.77831 131.268 6.37293 131.706C5.73742 132.396 5.88435 133.575 6.52871 134.259C7.17307 134.943 8.17147 135.189 9.10969 135.143C11.6712 135.03 13.953 132.763 14.0787 130.205" fill="#543B32"/>
<path d="M56.0753 144.067C54.7972 144.668 54.2413 146.188 54.1121 147.603C53.9481 149.433 54.2936 151.273 55.1105 152.92C55.5814 153.863 56.224 154.75 57.1215 155.303C58.019 155.857 59.1448 156.037 60.214 155.963C60.846 155.92 61.5523 155.744 61.8692 155.196C62.186 154.647 61.6922 153.742 61.0974 153.946C61.249 153.713 61.4846 153.547 61.7553 153.483C62.0259 153.42 62.3108 153.462 62.5507 153.603C62.7667 153.756 62.9428 153.959 63.0641 154.195C64.3209 156.366 63.2145 159.437 60.9912 160.603C58.7678 161.77 55.8575 161.134 54.0501 159.384C52.2427 157.633 51.5099 154.98 51.7488 152.489" fill="#543B32"/>
<path d="M35.9975 137.381C36.0239 137.257 36.0842 137.144 36.1718 137.053C36.2593 136.961 36.3706 136.896 36.4932 136.865C37.5553 136.573 40.5647 135.771 40.9736 135.905C41.4764 136.068 43.7334 137.54 43.7334 137.54C43.7334 137.54 41.7259 136.543 41.0568 136.715C40.3877 136.886 36.4542 137.952 36.1214 137.867C35.9533 137.825 35.955 137.597 35.9975 137.381Z" fill="#4E2217"/>
<path d="M29.2671 137.381C29.2404 137.258 29.1799 137.144 29.0924 137.053C29.0049 136.962 28.8938 136.897 28.7714 136.865C27.7093 136.573 24.6999 135.771 24.291 135.905C23.7883 136.068 21.5312 137.54 21.5312 137.54C21.5312 137.54 23.5387 136.543 24.2078 136.715C24.877 136.886 28.8104 137.952 29.1432 137.867C29.3114 137.825 29.3096 137.597 29.2671 137.381Z" fill="#4E2217"/>
<path d="M31.2214 123.719C30.642 124.78 30.0637 125.845 29.4866 126.915C28.6015 128.528 27.7164 130.165 27.2915 131.95C27.0632 132.892 26.9464 133.909 26.3586 134.681C29.0476 134.087 31.779 133.303 33.944 131.605C36.109 129.908 37.6013 127.101 37.0277 124.412" fill="#543B32"/>
<path d="M36.1214 124.168C35.6364 127.759 35.0097 131.543 32.6783 134.321C34.992 134.377 37.3871 134.321 39.4848 133.347C40.499 132.876 41.4084 132.207 42.1596 131.379C42.9067 130.553 43.5032 129.509 43.4661 128.398C43.4236 127.147 42.5809 126.033 41.5188 125.354C40.4567 124.675 39.2175 124.357 38.0067 124.064" fill="#543B32"/>
<path d="M43.6555 136.69C44.0821 138.021 43.8715 139.474 43.5033 140.823C43.2063 141.911 42.8111 142.971 42.3225 143.988C43.5577 142.529 44.4924 140.841 45.0729 139.021C45.6534 137.201 45.8683 135.284 45.7054 133.38C45.5726 131.922 43.59 126.519 41.5188 129.251C39.6424 131.72 42.958 134.503 43.6555 136.69Z" fill="#543B32"/>
<path d="M64.9917 129.785C67.7486 129.785 69.9835 127.55 69.9835 124.793C69.9835 122.037 67.7486 119.802 64.9917 119.802C62.2349 119.802 60 122.037 60 124.793C60 127.55 62.2349 129.785 64.9917 129.785Z" fill="#333333"/>
<path d="M88.0785 119.802C93.2476 119.802 97.438 115.611 97.438 110.442C97.438 105.273 93.2476 101.083 88.0785 101.083C82.9094 101.083 78.719 105.273 78.719 110.442C78.719 115.611 82.9094 119.802 88.0785 119.802Z" fill="#333333"/>
<path d="M172.5 151C214.197 151 248 117.197 248 75.5C248 33.8025 214.197 0 172.5 0C130.803 0 97 33.8025 97 75.5C97 117.197 130.803 151 172.5 151Z" fill="#333333"/>
<path d="M35.9355 149.685C35.9355 149.685 34.3175 149.498 33.8378 149.553C33.3581 149.607 32.5986 149.606 32.5845 149.606C32.5703 149.606 31.802 149.606 31.3294 149.553C30.8567 149.499 29.2317 149.685 29.2317 149.685C29.2317 149.685 32.5084 150.673 32.5827 150.673C32.6571 150.673 35.9355 149.685 35.9355 149.685Z" fill="#E38A76"/>
<path d="M32.7084 151.929C33.9883 151.886 35.9355 149.685 35.9355 149.685L32.8341 150.559C32.6674 150.544 32.4998 150.544 32.3331 150.559L29.2317 149.685C29.2317 149.685 31.1789 151.886 32.4659 151.929H32.7013H32.7084Z" fill="#D67B67"/>
<path d="M156.267 71.429C156.753 71.588 157.138 71.8559 157.423 72.2327C157.707 72.601 157.85 73.0615 157.85 73.614C157.85 74.3759 157.557 74.9661 156.971 75.3847C156.385 75.7949 155.531 76 154.409 76H150.039V67.2096H154.158C155.196 67.2096 155.995 67.4147 156.556 67.8249C157.117 68.2268 157.398 68.7835 157.398 69.4951C157.398 69.9304 157.297 70.3155 157.096 70.6504C156.895 70.9853 156.619 71.2448 156.267 71.429ZM151.671 68.4905V70.9141H153.982C154.551 70.9141 154.986 70.8137 155.288 70.6127C155.598 70.4034 155.752 70.102 155.752 69.7086C155.752 69.3067 155.598 69.0053 155.288 68.8044C154.986 68.5951 154.551 68.4905 153.982 68.4905H151.671ZM154.308 74.7191C155.572 74.7191 156.205 74.2963 156.205 73.4508C156.205 72.6052 155.572 72.1824 154.308 72.1824H151.671V74.7191H154.308ZM160.936 70.2737C161.388 69.5704 162.183 69.2188 163.322 69.2188V70.7132C163.188 70.6881 163.066 70.6755 162.957 70.6755C162.346 70.6755 161.869 70.8555 161.526 71.2155C161.183 71.5671 161.011 72.0778 161.011 72.7475V76H159.441V69.2942H160.936V70.2737ZM171.207 69.2942V76H169.712V75.1461C169.461 75.4475 169.147 75.6819 168.771 75.8493C168.394 76.0084 167.988 76.0879 167.553 76.0879C166.657 76.0879 165.949 75.8409 165.43 75.347C164.92 74.8447 164.664 74.1038 164.664 73.1243V69.2942H166.234V72.9108C166.234 73.5136 166.368 73.9656 166.636 74.267C166.912 74.56 167.301 74.7066 167.804 74.7066C168.365 74.7066 168.808 74.5349 169.135 74.1917C169.47 73.8401 169.637 73.3378 169.637 72.6848V69.2942H171.207ZM177.067 69.2188C177.913 69.2188 178.591 69.4658 179.101 69.9597C179.612 70.4537 179.867 71.1862 179.867 72.1573V76H178.298V72.3583C178.298 71.7722 178.16 71.3327 177.883 71.0397C177.607 70.7383 177.214 70.5876 176.703 70.5876C176.125 70.5876 175.669 70.7634 175.334 71.115C174.999 71.4583 174.832 71.9564 174.832 72.6094V76H173.262V66.6822H174.832V70.0727C175.091 69.7965 175.409 69.5872 175.786 69.4449C176.171 69.2942 176.598 69.2188 177.067 69.2188ZM182.361 76.0879C182.076 76.0879 181.834 75.9916 181.633 75.7991C181.432 75.5982 181.331 75.347 181.331 75.0456C181.331 74.7359 181.428 74.4847 181.62 74.2921C181.821 74.0996 182.068 74.0033 182.361 74.0033C182.654 74.0033 182.897 74.0996 183.089 74.2921C183.29 74.4847 183.391 74.7359 183.391 75.0456C183.391 75.347 183.29 75.5982 183.089 75.7991C182.888 75.9916 182.646 76.0879 182.361 76.0879ZM185.427 76.0879C185.142 76.0879 184.899 75.9916 184.699 75.7991C184.498 75.5982 184.397 75.347 184.397 75.0456C184.397 74.7359 184.493 74.4847 184.686 74.2921C184.887 74.0996 185.134 74.0033 185.427 74.0033C185.72 74.0033 185.963 74.0996 186.155 74.2921C186.356 74.4847 186.457 74.7359 186.457 75.0456C186.457 75.347 186.356 75.5982 186.155 75.7991C185.954 75.9916 185.712 76.0879 185.427 76.0879ZM188.493 76.0879C188.208 76.0879 187.965 75.9916 187.764 75.7991C187.563 75.5982 187.463 75.347 187.463 75.0456C187.463 74.7359 187.559 74.4847 187.752 74.2921C187.953 74.0996 188.2 74.0033 188.493 74.0033C188.786 74.0033 189.029 74.0996 189.221 74.2921C189.422 74.4847 189.522 74.7359 189.522 75.0456C189.522 75.347 189.422 75.5982 189.221 75.7991C189.02 75.9916 188.777 76.0879 188.493 76.0879ZM191.559 76.0879C191.274 76.0879 191.031 75.9916 190.83 75.7991C190.629 75.5982 190.529 75.347 190.529 75.0456C190.529 74.7359 190.625 74.4847 190.818 74.2921C191.019 74.0996 191.266 74.0033 191.559 74.0033C191.852 74.0033 192.094 74.0996 192.287 74.2921C192.488 74.4847 192.588 74.7359 192.588 75.0456C192.588 75.347 192.488 75.5982 192.287 75.7991C192.086 75.9916 191.843 76.0879 191.559 76.0879ZM194.624 76.0879C194.34 76.0879 194.097 75.9916 193.896 75.7991C193.695 75.5982 193.595 75.347 193.595 75.0456C193.595 74.7359 193.691 74.4847 193.884 74.2921C194.084 74.0996 194.331 74.0033 194.624 74.0033C194.917 74.0033 195.16 74.0996 195.353 74.2921C195.554 74.4847 195.654 74.7359 195.654 75.0456C195.654 75.347 195.554 75.5982 195.353 75.7991C195.152 75.9916 194.909 76.0879 194.624 76.0879Z" fill="white"/>
</svg>
