<svg width="342" height="571" viewBox="0 0 342 571" fill="none" xmlns="http://www.w3.org/2000/svg">
<path d="M149.142 359.092C149.063 359.329 144.894 384.5 145.052 386.939C145.21 389.378 149.849 414.627 151.58 416.043C153.31 417.459 156.222 359.092 156.222 359.092H149.142Z" fill="#FFB082"/>
<path d="M152.761 360.43C152.761 360.43 149.849 384.5 149.456 384.972C149.063 385.444 147.253 387.647 147.253 388.119C147.253 388.591 149.274 388.119 149.274 388.119C149.274 388.119 150.951 407.862 151.816 408.806C152.682 409.751 156.222 359.092 156.222 359.092L152.761 360.43Z" fill="#E68F74"/>
<path d="M166.394 528.764L166.657 531.334C166.657 531.334 168.964 537.102 168.283 537.259C167.601 537.416 147.988 538.151 147.83 537.679C147.673 537.207 161.959 530.862 161.959 530.862V527.557L166.394 528.764Z" fill="#303030"/>
<path d="M181.76 527.978L181.55 531.281C181.55 531.281 178.666 539.462 179.138 540.353C179.61 541.244 189.206 541.509 189.469 540.774C189.731 540.04 185.484 532.172 185.484 532.172L185.011 528.659L181.76 527.978Z" fill="#303030"/>
<path d="M150.415 404.474C150.415 404.474 152.131 469.454 153.547 485.658C154.963 501.861 159.525 528.24 160.679 528.764C161.832 529.288 168.859 529.498 168.65 528.764C168.44 528.029 168.545 428.917 169.383 428.603C170.222 428.289 171.376 429.651 171.376 429.651C171.376 429.651 178.718 527.191 179.662 528.606C180.606 530.021 187.843 531.602 188.315 529.239C188.787 526.877 190.884 412.254 188.787 406.473C186.69 400.692 150.415 404.474 150.415 404.474Z" fill="#526273"/>
<path d="M195.184 358.543L197.282 356.864C197.282 356.864 191.304 331.693 190.885 329.281C190.466 326.869 174.077 316.262 174.077 316.262L163.51 319.002C163.51 319.002 150.925 331.903 150.505 333.056C150.085 334.21 147.254 358.752 146.415 360.115C148.723 360.64 154.386 361.794 154.386 361.794C154.386 361.794 150.639 400.483 150.415 404.475C160.993 409.305 188.997 406.788 188.787 406.473C188.577 406.159 187.421 400.705 187.421 400.705L187.106 363.681L195.184 358.543Z" fill="#FF6633"/>
<path d="M161.609 307.57C161.609 307.57 163.577 320.038 162.828 321.179C163.379 322.831 173.172 318.74 174.077 316.262C173.605 314.336 173.802 308.239 173.802 308.239C173.802 308.239 165.778 307.058 161.609 307.57Z" fill="#FFB082"/>
<path d="M163.153 279.73C163.153 279.73 163.211 278.737 161.801 279.048C160.39 279.359 159.935 281.388 160.497 281.654C161.059 281.92 163.153 279.73 163.153 279.73Z" fill="#614236"/>
<path d="M169.435 277.575C169.435 277.575 163.956 278.02 160.233 281.769C159.525 281.927 156.667 281.822 156.169 282.871C155.671 283.92 155.88 285.179 155.88 285.179C155.88 285.179 147.253 293.097 150.007 299.981C152.761 306.865 167.155 311.032 173.054 308.476C178.953 305.919 186.227 273.143 169.435 277.575Z" fill="#FFB082"/>
<path d="M171.796 293.464C171.796 293.464 169.96 294.929 169.488 294.198C169.016 293.466 171.796 290.16 171.796 290.16C171.796 290.16 169.804 290.632 169.699 289.478C169.594 288.324 175.205 285.388 175.205 285.388C175.205 285.388 173.526 284.444 174.156 284.025C174.786 283.606 175.991 283.709 175.991 283.709C175.991 283.709 175.306 278.676 169.435 277.575C168.44 276.316 167.758 274.114 167.971 273.744C168.184 273.375 172.952 274.793 172.952 274.793C172.952 274.793 172.06 272.118 172.637 272.118C173.214 272.118 174.891 273.114 174.891 273.114C174.891 273.114 173.917 271.131 174.419 270.807C174.92 270.482 190.15 278.516 186.27 287.903C189.888 296.66 183.542 306.781 179.295 308.512C175.047 310.242 170.853 309.613 171.009 309.142C171.166 308.671 172.688 308.302 171.902 308.145C171.115 307.987 169.648 307.883 169.909 307.2C170.169 306.518 171.849 305.26 171.639 305.26C171.43 305.26 169.332 304.999 169.751 304.211C170.17 303.424 171.953 302.534 171.586 302.481C171.219 302.428 169.488 300.698 169.856 300.384C170.112 300.174 170.394 299.998 170.695 299.859C170.695 299.859 174.261 301.747 175.782 297.342C177.303 292.937 175.31 290.264 171.796 293.464Z" fill="#614236"/>
<path d="M169.594 282.556C169.594 282.556 167.758 280.432 167.076 280.144C166.394 279.855 167.496 278.701 168.911 279.567C170.326 280.432 170.328 282.897 169.594 282.556Z" fill="#614236"/>
<path d="M154.117 292.762C154.117 292.762 153.605 293.274 153.999 293.765C154.392 294.256 157.46 295.299 157.618 294.925C157.775 294.551 156.91 291.799 154.117 292.762Z" fill="white"/>
<path d="M165.322 282.776C165.034 283.079 164.775 283.381 164.66 283.79C164.567 284.122 164.734 284.522 165.136 284.439C165.538 284.357 165.812 284.111 166.089 283.842C166.705 283.253 165.973 282.089 165.322 282.776Z" fill="black"/>
<path d="M156.169 282.871C156.169 282.871 156.831 282.615 157.048 283.697C157.264 284.779 158.287 286.882 158.05 287.119C157.814 287.355 156.135 287.158 155.743 286.882C155.351 286.606 155.684 283.166 156.169 282.871Z" fill="#E68F74"/>
<path d="M171.085 297.463C171.085 297.463 172.638 298.013 172.874 297.069C173.109 296.125 171.989 295.83 171.979 295.811C171.969 295.792 173.444 293.254 174.31 294.08C175.177 294.906 174.821 298.465 172.815 298.839C170.81 299.213 171.085 297.463 171.085 297.463Z" fill="#E68F74"/>
<path d="M187.108 363.681C187.108 363.681 190.989 382.141 190.989 383.398C190.989 384.655 183.123 414.233 183.123 414.233C183.123 414.233 185.011 422.413 185.326 422.099C185.64 421.785 200.952 387.908 200.952 384.761C200.952 381.615 195.184 358.542 195.184 358.542L187.108 363.681Z" fill="#FFB082"/>
<path d="M187.108 363.681L185.877 364.357C185.877 364.357 180.292 343.44 179.976 342.343C179.661 341.247 176.752 342.266 179.976 345.723C179.662 345.959 176.201 344.935 176.359 345.959C176.516 346.983 180.134 348.161 180.134 348.161C180.134 348.161 184.224 365.545 184.618 366.017C185.012 366.489 187.108 365.467 187.108 365.467V363.681Z" fill="#E0452D"/>
<path d="M154.386 361.794C154.386 361.794 153.022 344.384 154.386 338.012C151.737 343.675 152.231 361.351 152.231 361.351L154.386 361.794Z" fill="#E0452D"/>
<path d="M171.376 429.651C171.376 429.651 169.279 426.112 162.435 425.561C159.761 426.19 165.582 428.708 165.582 428.708C165.582 428.708 162.672 429.497 163.144 430.123C163.616 430.75 167.627 431.618 167.627 431.618L168.955 439.639C168.955 439.639 169.299 430.183 169.692 429.809C170.085 429.435 171.376 429.651 171.376 429.651Z" fill="#44505E"/>
<g clip-path="url(#clip0_805_385)">
<path d="M49.9857 126.646L37.4753 155.027L126.606 202.789L145.379 160.217L49.9857 126.646Z" fill="#BE1931"/>
<path d="M189.13 54.0919H190.647L190.535 52.6033C190.032 53.065 189.562 53.5625 189.13 54.0919Z" fill="#BE1931"/>
<path d="M174.407 36.0613C182.464 36.7987 189.714 34.837 197.104 33.2092L196.881 30.3154H180.321C178.234 32.2354 175.799 33.9744 174.407 36.0613Z" fill="#BE1931"/>
<path d="M182.798 74.4181C185.581 77.2006 188.365 77.2006 191.148 77.2006C189.47 78.4111 188.094 79.9916 187.126 81.8196H213.037L206.733 0C200.332 10.4483 185.261 11.13 180.015 22.9418C186.973 18.768 195.323 20.1593 202.28 20.1593C199.497 27.1155 188.365 29.898 189.756 32.6805C195.323 43.8106 185.581 52.1581 186.973 61.8969C189.756 59.1144 193.931 60.5056 196.714 57.7231C192.539 66.0706 182.798 64.6794 177.232 71.6356H184.19C182.798 71.6356 182.798 73.0269 182.798 74.4181Z" fill="#BE1931"/>
<path d="M168.382 106.306C165.598 106.306 162.815 106.306 160.032 103.523C160.032 102.132 160.032 100.741 161.424 100.741H154.466C160.032 93.7845 169.773 95.1757 173.948 86.8282C171.165 89.6107 166.99 88.2195 164.207 91.002C162.815 81.2632 172.556 72.9157 166.99 61.7856C165.598 59.0031 176.731 56.2206 179.514 49.2644C172.556 49.2644 164.207 47.8731 157.249 52.0469C162.481 40.2769 177.552 39.5256 183.967 29.1051L183.689 27.0043H182.297C182.729 26.4785 183.193 25.9813 183.689 25.5157L182.729 12.9944C175.339 14.6361 168.02 16.6117 160.032 15.8743C161.424 13.7874 163.859 12.0483 165.946 10.1284H151.404L143.653 110.925H164.276C165.269 109.088 166.674 107.507 168.382 106.306Z" fill="#BE1931"/>
<path d="M225.993 123.585L196.672 113.443L156.344 206.156L200.318 221.376L225.993 123.585Z" fill="#BE1931"/>
<path d="M78.6104 177.065L92.3174 184.411L108.696 147.292L94.0152 142.13L78.6104 177.065Z" fill="#E6E7E8"/>
<path d="M51.1824 162.373L64.8895 169.733L79.3202 136.983L64.6668 131.807L51.1824 162.373Z" fill="#E6E7E8"/>
<path d="M138.045 157.629L123.364 152.468L106.039 191.757L119.746 199.116L138.045 157.629Z" fill="#E6E7E8"/>
<path d="M131.63 52.8676C130.892 51.379 133.759 49.8764 137.001 47.7339H112.551L111.327 63.2324H133.077C133.772 59.713 133.262 56.0623 131.63 52.8676Z" fill="#E6E7E8"/>
<path d="M208.863 27.5469H195.128C191.885 29.6755 189.019 31.178 189.756 32.6806C191.371 35.8812 191.861 39.5323 191.148 43.0454H210.129L208.863 27.5469Z" fill="#E6E7E8"/>
<path d="M189.13 54.0919H190.647L190.549 52.7007H190.41C189.951 53.1334 189.523 53.5984 189.13 54.0919Z" fill="#E6E7E8"/>
<path d="M183.897 29.1051L183.689 27.0043H182.297C182.689 26.5142 183.112 26.0496 183.564 25.613H150.207L149.024 41.1255H168.27C174.031 37.7587 180.307 34.9483 183.897 29.1051Z" fill="#E6E7E8"/>
<path d="M190.8 56.1926C187.223 62.0359 180.947 64.8462 175.172 68.227H191.718L190.8 56.1926Z" fill="#E6E7E8"/>
<path d="M211.242 58.5579H196.213C191.816 65.9454 182.59 64.9298 177.218 71.6356H184.176C182.91 71.6356 182.784 72.8043 182.784 74.0703H212.411L211.242 58.5579Z" fill="#E6E7E8"/>
<path d="M126.063 91.8227H119.106C124.477 85.1168 133.703 86.1463 138.101 78.7588H137.53C134.747 80.4144 131.296 79.6353 128.847 82.0839C128.722 80.979 128.722 79.8636 128.847 78.7588H110.158L108.975 94.2574H124.686C124.686 92.9774 124.797 91.8227 126.063 91.8227Z" fill="#E6E7E8"/>
<path d="M146.116 51.685C148.565 49.2364 152.086 50.0155 154.786 48.3459H146.116C145.984 49.455 145.984 50.5759 146.116 51.685Z" fill="#E6E7E8"/>
<path d="M214.137 168.717L178.053 156.224L171.86 170.498L210.185 183.771L214.137 168.717Z" fill="#E6E7E8"/>
<path d="M199.205 165.197L158.612 151.146L152.406 165.406L195.253 180.251L199.205 165.197Z" fill="#E6E7E8"/>
<path d="M222.041 138.638L190.466 127.703L184.273 141.963L218.089 153.678L222.041 138.638Z" fill="#E6E7E8"/>
<path d="M309.21 74.2651C292.163 74.4459 275.116 72.4147 258.069 75.4198H263.635C260.852 79.5936 253.894 83.7673 258.069 89.3323C260.852 93.5061 267.81 93.5061 273.376 93.5061C270.593 94.8974 266.418 94.8974 263.635 99.0711C271.985 103.245 269.202 112.984 262.244 117.157C276.702 126.785 293.234 121.832 309.14 122.138C309.14 121.637 309.14 121.136 309.14 120.636L309.21 74.2651Z" fill="#A0041E"/>
<path d="M294.468 169H175.432C173.553 172.422 173.108 176.499 176.671 178.294C179.454 178.294 182.237 181.076 186.412 181.076C186.043 181.076 185.689 181.223 185.428 181.484C185.167 181.744 185.02 182.098 185.02 182.467C191.978 182.467 198.936 183.859 205.894 183.859C203.111 186.641 198.936 185.25 197.544 189.424C200.328 189.424 201.719 190.815 204.502 190.815C203.319 196.769 196.028 196.602 194.761 196.38C223.47 229.77 268.613 231.439 309.873 240.065V184.415C309.847 180.337 308.217 176.433 305.334 173.548C302.451 170.663 298.547 169.029 294.468 169Z" fill="#A0041E"/>
<path d="M156.581 132.656C155.189 129.873 159.364 122.917 155.189 122.917C149.623 121.526 146.84 129.873 142.665 132.656C142.665 128.482 146.84 122.917 144.056 121.526C139.882 118.743 132.924 121.526 128.749 120.135C124.574 117.352 130.141 110.396 128.749 110.396C117.616 109.005 112.05 109.005 103.701 102.048C100.917 96.4834 109.267 90.9184 107.875 88.1359C105.092 83.9621 95.3511 85.3534 89.7847 81.1796C91.1763 81.1796 92.5679 81.1796 91.1763 79.7884C88.3932 78.3971 87.0016 82.5709 84.2184 81.1796C91.1763 71.4409 103.701 68.6584 110.658 57.5283C95.3511 56.1371 70.3026 50.5721 84.2184 29.7033C81.4352 29.7033 78.6521 31.0945 77.2605 29.7033C74.4773 25.5295 80.0437 22.747 81.4352 18.5732C75.8689 18.5732 68.911 19.9645 63.3447 17.182C63.2717 17.1174 63.2186 17.0334 63.1915 16.9398C63.1644 16.8462 63.1644 16.7469 63.1916 16.6533C59.7782 17.4425 56.7329 19.3644 54.552 22.1056C52.3712 24.8468 51.1833 28.2458 51.1822 31.7484V140.266C51.1749 142.306 51.5705 144.327 52.3463 146.214C53.122 148.101 54.2628 149.816 55.703 151.261C57.1432 152.706 58.8547 153.853 60.7391 154.635C62.6236 155.418 64.644 155.82 66.6845 155.82H165.696C162.611 147.809 160.031 139.612 157.972 131.279C157.972 132.656 157.972 134.047 156.581 132.656Z" fill="#A0041E"/>
<path d="M97.522 223.992C89.1725 215.644 80.823 208.688 83.6062 196.167C89.1725 211.47 107.263 200.34 119.787 203.123C119.787 197.558 119.787 190.602 118.396 185.037V189.21C110.881 171.681 139.437 171.055 153.338 162.985C147.145 158.731 141.532 153.689 136.639 147.988C136.431 147.988 136.389 147.988 136.639 147.988C136.89 147.988 136.639 147.988 136.639 147.988C137.836 148.168 145.142 148.335 146.381 142.423C143.597 142.423 142.206 141.031 139.423 141.031C140.814 136.858 144.989 138.249 147.772 135.466C140.814 135.466 133.856 134.075 126.898 134.075C126.898 133.706 127.045 133.352 127.306 133.091C127.567 132.83 127.921 132.684 128.29 132.684C124.115 132.684 121.332 129.901 118.549 129.901C114.986 128.12 115.432 124.044 117.31 120.622H3.52061C2.33524 120.631 1.15451 120.771 -9.64217e-05 121.039C-0.0290001 121.132 -0.0299069 121.232 -0.00270482 121.326C0.0244973 121.42 0.0786177 121.504 0.152978 121.568C5.71931 124.35 12.6772 122.959 18.2436 122.959C16.852 127.133 11.2856 129.915 14.0688 134.089C15.4604 135.48 18.2436 134.089 21.0267 134.089C7.11089 154.958 32.1594 160.523 47.4668 161.914C40.5089 173.044 27.9846 175.827 21.0267 185.565C23.8099 186.957 25.2015 182.783 27.9846 184.174C29.3762 185.565 27.9846 185.565 26.5931 185.565C32.1594 189.739 41.9005 188.348 44.6836 192.522C46.0752 195.304 37.7257 200.869 40.5089 206.434C48.8584 213.39 54.4247 213.39 65.5574 214.782C66.949 214.782 61.3826 221.738 65.5574 224.52C69.7321 225.912 76.69 223.129 80.8648 225.912C83.648 227.303 79.4732 232.868 79.4732 237.042C83.648 234.259 86.4311 225.912 91.9975 227.303C94.6832 227.303 93.9178 230.169 93.389 232.951C97.4107 229.932 99.8321 226.343 97.522 223.992Z" fill="#A0041E"/>
<path d="M330 118.507V111.926C296.059 104.831 259.502 102.452 231.615 83.2249C217.699 91.2941 189.158 91.9202 196.672 109.464V105.29C198.064 110.855 198.064 117.811 198.064 123.376C185.54 120.594 167.449 131.724 161.883 116.42C159.1 128.941 167.449 135.898 175.799 144.245C178.109 146.555 175.715 150.144 171.707 153.135C171.307 154.469 171.307 155.892 171.707 157.226C173.099 158.617 173.099 157.226 173.099 155.834C175.158 164.168 177.738 172.365 180.822 180.376H314.498C318.352 180.377 322.068 178.942 324.921 176.352C327.774 173.761 329.56 170.201 329.93 166.366C314.025 166.074 297.493 171.027 283.034 161.399C289.992 157.226 292.775 147.487 284.426 143.313C287.209 139.139 291.384 139.139 294.167 137.748C288.6 137.748 281.642 137.748 278.859 133.574C274.685 128.009 281.642 123.836 284.426 119.662H278.859C295.892 116.657 312.939 118.688 330 118.507Z" fill="#A0041E"/>
<path d="M82.9522 31.7483H51.1824V47.3025H82.3956C79.5428 43.5183 79.0975 38.4959 82.9522 31.7483Z" fill="#C1694F"/>
<path d="M182.297 154.429C179.514 154.429 178.122 153.038 175.339 153.038C176.606 149.24 180.168 150.033 182.896 148.127H55.8441C51.9894 154.874 52.4347 159.897 55.2874 163.639H175.924C174.811 162.48 173.725 161.283 172.667 160.05C172.459 160.05 172.417 160.05 172.667 160.05C173.864 160.147 181.156 160.314 182.297 154.429Z" fill="#C1694F"/>
<path d="M142.373 101.088C139.59 102.994 136.083 102.201 134.816 106C137.6 106 138.991 107.391 141.774 107.391C140.591 113.345 133.286 113.178 132.033 112.956C133.1 114.189 134.186 115.386 135.29 116.545H247.145V101.088H142.373Z" fill="#C1694F"/>
<path d="M82.7852 153.942H51.7668V184.953H82.7852V153.942Z" fill="#A7A9AC"/>
<path d="M106.47 62.7595H89.9519V75.2808C95.1982 70.954 101.446 67.8098 106.47 62.7595Z" fill="#A7A9AC"/>
<path d="M76.2585 48.2068C75.881 48.0105 75.4593 47.9146 75.0339 47.9286V49.5981C76.3559 49.5842 77.5945 49.5424 76.2585 48.2068Z" fill="#A7A9AC"/>
<path d="M86.8765 118.131H72.3623C67.3387 123.182 61.1044 126.34 55.8582 130.653V134.952C56.2835 134.938 56.7052 135.033 57.0827 135.23C58.4743 136.621 57.1802 136.621 55.8582 136.621V136.732C61.4245 140.753 71.0264 139.515 73.7817 143.577C74.4497 144.969 72.8633 146.902 71.3465 149.226H86.8765V118.131Z" fill="#A7A9AC"/>
<path d="M119.676 176.3C116.893 172.126 107.347 173.517 101.752 169.455V181.976H117.282C118.799 179.625 120.386 177.635 119.676 176.3Z" fill="#A7A9AC"/>
<path d="M96.2835 183.242C97.6751 170.721 93.5003 170.721 82.3676 165.156C80.6142 164.279 82.1728 161.747 83.5783 158.951H78.8887V189.962H106.47C104.215 186.205 101.363 183.242 96.2835 183.242Z" fill="#A7A9AC"/>
<path d="M142.568 175.701H116.211C114.819 178.484 113.261 181.03 115.014 181.906C126.147 187.471 130.322 187.471 128.93 199.993C134.009 199.993 136.848 202.956 139.103 206.712H142.568V175.701Z" fill="#A7A9AC"/>
<path d="M221.067 172.71V203.735H252.099V172.849L251.125 172.71H221.067Z" fill="#A7A9AC"/>
<path d="M105.092 77.7014L106.052 77.8405V77.7014H105.092Z" fill="#A7A9AC"/>
<path d="M165.598 167.451C164.199 165.013 163.748 162.145 164.332 159.396L163.344 158.951C161.284 163.208 158.682 167.521 154.772 168.369L146.923 185.538L175.131 198.448L187.474 171.486C185.664 173.302 183.646 174.899 181.462 176.244C180.572 168.175 172.876 161.594 165.598 167.451Z" fill="#A7A9AC"/>
<path d="M261.172 81.5691V77.7014H249.093C251.431 80.9013 256.441 81.4717 261.172 81.5691Z" fill="#A7A9AC"/>
<path d="M285.052 152.634C282.307 153.242 279.883 154.842 278.247 157.128C286.597 161.302 283.813 171.041 276.855 175.214C278.988 176.638 281.282 177.805 283.688 178.692H285.08L285.052 152.634Z" fill="#A7A9AC"/>
<path d="M261.172 62.1194L260.059 62.2029H261.172V62.1194Z" fill="#A7A9AC"/>
<path d="M261.172 48.6939C250.675 46.8051 240.314 44.2304 230.154 40.9863V62.2725H260.059L261.172 62.189V48.6939Z" fill="#A7A9AC"/>
<path d="M279.193 51.8799H248.161V61.6187C258.325 64.8674 268.691 67.4467 279.193 69.3401V51.8799Z" fill="#A7A9AC"/>
<path d="M11.369 118.089C9.71348 121.855 9.62036 126.124 11.1102 129.959C12.5999 133.793 15.5509 136.88 19.315 138.541C22.4261 139.903 25.9019 140.192 29.1952 139.362C29.4312 140.546 29.9455 141.656 30.6956 142.602C31.4457 143.548 32.4101 144.302 33.5091 144.802C35.3914 145.63 37.5257 145.677 39.4425 144.932C41.3594 144.187 42.9017 142.711 43.7303 140.83C44.5589 138.948 44.6058 136.814 43.8607 134.898C43.1156 132.981 41.6396 131.439 39.7573 130.611C41.3404 126.86 41.3854 122.638 39.8828 118.855C38.3801 115.071 35.4501 112.03 31.7249 110.387C27.9996 108.744 23.7776 108.631 19.9695 110.072C16.1615 111.512 13.0726 114.392 11.369 118.089Z" fill="#D1D3D4"/>
<path d="M22.4044 102.953H18.2296C15.6691 88.8592 34.3302 92.4487 42.7354 84.4211C42.639 83.6298 42.476 82.8479 42.2484 82.0838H32.1455C34.706 79.5239 34.9286 76.964 37.1134 74.4041C34.1738 71.9997 30.4517 70.7613 26.6572 70.925C22.8626 71.0888 19.2611 72.6432 16.5396 75.2918C13.8181 77.9405 12.167 81.498 11.9012 85.2858C11.6354 89.0737 12.7736 92.8268 15.0986 95.8294C14.1127 96.5264 13.306 97.4471 12.7448 98.516C12.1836 99.5849 11.8839 100.772 11.8701 101.979C11.8721 103.868 12.5628 105.691 13.8129 107.107C15.063 108.523 16.7867 109.435 18.661 109.672C20.7067 107.78 22.4044 105.735 22.4044 102.953Z" fill="#D1D3D4"/>
<path d="M163.594 73.1939C162.704 70.1713 160.913 67.4921 158.459 65.5142C156.275 68.0741 156.052 70.634 153.478 73.1939H163.594Z" fill="#D1D3D4"/>
<path d="M130.892 109.297C135.005 109.293 138.948 107.657 141.855 104.748C144.762 101.84 146.394 97.8962 146.394 93.7844C146.393 93.0999 146.342 92.4164 146.241 91.7393C137.892 99.7807 119.175 96.1774 121.736 110.271H125.91C125.91 113.053 124.213 115.084 122.167 116.977C122.487 116.997 122.807 116.997 123.127 116.977C125.172 116.977 127.135 116.17 128.589 114.732C130.042 113.295 130.87 111.341 130.892 109.297Z" fill="#D1D3D4"/>
<path d="M206.539 108.643C205.865 110.595 205.995 112.734 206.899 114.591C207.803 116.447 209.408 117.868 211.36 118.542C213.313 119.215 215.453 119.086 217.31 118.182C219.166 117.278 220.588 115.673 221.262 113.721C224.161 114.728 227.294 114.852 230.264 114.077C233.235 113.303 235.908 111.666 237.948 109.372C239.987 107.079 241.3 104.232 241.72 101.192C242.141 98.1522 241.65 95.056 240.31 92.2951C238.97 89.5342 236.841 87.2327 234.193 85.6816C231.544 84.1305 228.495 83.3997 225.431 83.5814C222.367 83.7632 219.426 84.8495 216.979 86.7028C214.533 88.5561 212.691 91.0932 211.687 93.9932C210.586 97.208 210.586 100.698 211.687 103.913C210.513 104.231 209.432 104.827 208.536 105.651C207.64 106.474 206.955 107.5 206.539 108.643Z" fill="#D1D3D4"/>
</g>
<defs>
<clipPath id="clip0_805_385">
<rect width="330" height="237" fill="white"/>
</clipPath>
</defs>
</svg>
