<svg width="126" height="55" viewBox="0 0 126 55" fill="none" xmlns="http://www.w3.org/2000/svg">
<path d="M89.7618 43.2549L100.746 40.784L112.418 43.7234C112.418 43.7234 114.283 38.4123 114.395 37.8906C114.508 37.3688 111.98 29.0724 111.306 28.141C110.632 27.2096 100.913 23.3829 100.744 23.3829C100.575 23.3829 89.7333 24.3694 89.2264 25.0069C88.7196 25.6444 83.4944 30.3455 83.4944 30.3455C83.4944 30.3455 82.6514 33.8361 82.8204 34.8722C82.9893 35.9083 84.8994 38.8183 84.8994 38.8183L89.7618 43.2549Z" fill="#820001"/>
<path d="M11.4535 41.4196L23.0136 40.4735L34.2554 41.9046L36.8342 35.5115C36.8342 35.5115 30.8514 25.806 26.848 24.5862C22.8446 23.3664 10.7528 25.2402 10.3313 26.6327C9.90976 28.0253 10.205 34.5966 10.205 34.5966L11.4535 41.4196Z" fill="#820001"/>
<path d="M121.554 25.3799C118.578 21.3639 110.62 20.5483 105.274 19.2678C99.9275 17.9873 93.011 14.8293 88.4296 11.7926C83.8482 8.75586 70.6003 0.825055 51.4817 0.136139C32.363 -0.552777 14.7365 1.56541 13.7263 2.19186C12.7161 2.81832 5.36747 12.8728 4.40175 14.9249C3.43604 16.9769 2.55569 19.435 2.54324 23.8091C2.53434 26.4068 2.00969 27.893 1.59174 28.672C1.264 29.2878 1.15099 30.0012 1.27162 30.6928L2.09328 35.6677C2.28187 36.8179 2.77397 37.8921 3.51543 38.7721C4.25689 39.6521 5.21897 40.3038 6.29583 40.6554C7.56033 41.0651 8.9013 41.4068 9.85279 41.4031C10.0022 41.4031 10.55 41.4031 11.4534 41.427C11.4534 40.953 11.4534 40.4846 11.4694 39.9004C11.722 33.7387 16.4296 28.6756 22.3946 28.4203C28.6389 28.1502 34.2856 33.1031 34.2856 39.5715C34.2856 40.4074 34.2713 41.1827 34.2464 41.912C52.5114 42.3125 72.1174 42.8655 89.7617 43.2623C89.7297 42.3566 89.7155 41.3756 89.7226 40.3082C89.7652 34.1319 94.3271 28.8979 100.29 28.4423C106.682 27.9537 112.562 32.9726 112.562 39.5715C112.562 41.1459 112.516 42.5219 112.425 43.7307C113.801 43.6738 116.871 43.4184 118.516 43.1796C124.883 42.2611 125.808 39.533 125.986 37.2402C126.164 34.9475 124.526 29.3939 121.554 25.3799Z" fill="#D00001"/>
<path d="M110.349 34.4092V34.1282L119.452 33.8967C120.694 33.865 121.923 33.6198 123.087 33.171L125.315 32.3131L125.41 32.5758L123.183 33.4356C121.991 33.8937 120.732 34.142 119.461 34.1704L110.349 34.4092Z" fill="#850001"/>
<path d="M12.3195 31.209C11.3752 31.209 10.4824 31.1392 9.90615 30.9297C9.01691 30.6064 8.20237 29.8973 7.48209 29.2763C6.80626 28.6903 6.16779 28.1373 5.70361 28.1373H1.45838V27.8508H5.70717C6.26739 27.8508 6.9112 28.4019 7.66349 29.0559C8.36599 29.6658 9.16454 30.3584 10.004 30.6634C11.6846 31.277 16.4065 30.6285 16.4581 30.6229L16.4954 30.9003C15.1104 31.0866 13.7161 31.1897 12.3195 31.209Z" fill="#850001"/>
<path d="M2.82605 15.0645L96.6124 18.1251C96.6124 18.1251 108.173 20.8201 119.377 23.5133C125.173 24.9077 123.201 26.2304 123.201 26.2304C123.201 26.2304 14.5462 22.1153 10.9253 22.1153C7.30427 22.1153 0.610071 22.1153 0.610071 18.1876C0.610071 14.2598 2.82605 15.0645 2.82605 15.0645Z" fill="#ED2F30"/>
<path d="M88.2536 17.7724L96.2994 17.9653C93.2517 16.6461 90.3134 15.0719 87.5137 13.2586C86.1763 12.3731 84.5081 11.348 82.534 10.2843C83.9819 12.227 85.2507 14.3052 86.3239 16.4919C86.5013 16.8674 86.775 17.1853 87.1153 17.4111C87.4555 17.6369 87.8493 17.7619 88.2536 17.7724V17.7724Z" fill="#49586B"/>
<path d="M78.625 8.33514C71.2702 4.96124 63.4265 2.86507 55.4105 2.13122C56.1699 4.78768 58.128 11.653 59.1719 15.4741C59.2999 15.9415 59.5694 16.3542 59.941 16.6517C60.3126 16.9493 60.7667 17.116 61.2368 17.1275L82.0628 17.6254C82.232 17.6286 82.3991 17.5867 82.5482 17.5039C82.6972 17.4211 82.8232 17.3001 82.9139 17.1525C83.0046 17.005 83.0571 16.8358 83.0662 16.6612C83.0754 16.4866 83.041 16.3126 82.9662 16.1557C81.716 13.5838 79.9908 10.2696 78.625 8.33514Z" fill="#49586B"/>
<path d="M25.7258 2.59049C19.912 3.00935 15.7183 3.48149 14.5534 3.74787C13.168 5.17163 6.79035 13.8354 5.91889 15.6891L20.6661 16.0418C21.094 16.0529 21.5119 15.9074 21.8461 15.6311C22.1803 15.3548 22.4093 14.9654 22.4926 14.5317C23.4227 9.85626 25.0465 4.67194 25.7258 2.59049Z" fill="#49586B"/>
<path d="M28.6834 16.2255L52.6751 16.9218C52.922 16.9277 53.1671 16.877 53.3927 16.7735C53.6184 16.6699 53.819 16.5159 53.9802 16.3227C54.1414 16.1295 54.2592 15.9018 54.3251 15.656C54.3909 15.4102 54.4032 15.1523 54.3611 14.901L52.1469 1.9126L51.4195 1.88137C48.9297 1.79135 46.2619 1.74726 43.4697 1.74726C36.7115 1.74726 35.1962 2.00446 29.5478 2.34248C27.9809 5.54457 27.3051 10.5213 27.0152 14.3223C26.9975 14.5618 27.0272 14.8026 27.1026 15.0298C27.1779 15.2571 27.2972 15.4662 27.4533 15.6443C27.6094 15.8223 27.799 15.9657 28.0105 16.0657C28.2219 16.1656 28.4509 16.22 28.6834 16.2255V16.2255Z" fill="#49586B"/>
<path d="M13.2216 44.3549C11.0182 38.86 13.5443 32.5604 18.8638 30.2843C24.1833 28.0083 30.2819 30.6176 32.4853 36.1125C34.6887 41.6074 32.1626 47.907 26.8431 50.1831C21.5236 52.4591 15.425 49.8498 13.2216 44.3549Z" fill="#3E454F"/>
<path d="M16.1874 43.0859C14.6624 39.283 16.4107 34.9231 20.0923 33.3479C23.7739 31.7726 27.9946 33.5786 29.5195 37.3815C31.0445 41.1844 29.2962 45.5443 25.6146 47.1195C21.9331 48.6947 17.7124 46.8888 16.1874 43.0859Z" fill="#68798F"/>
<path d="M28.3455 40.2329C28.3455 41.3546 28.0236 42.4512 27.4203 43.384C26.8171 44.3168 25.9597 45.044 24.9565 45.4735C23.9533 45.903 22.8493 46.0157 21.7841 45.7973C20.7189 45.5788 19.7403 45.0391 18.9721 44.2462C18.2038 43.4534 17.6803 42.4431 17.4678 41.343C17.2553 40.2429 17.3633 39.1024 17.7781 38.0657C18.193 37.029 18.8961 36.1426 19.7985 35.5186C20.701 34.8946 21.7623 34.561 22.8482 34.5599C23.57 34.5589 24.2848 34.7049 24.9518 34.9896C25.6189 35.2743 26.225 35.6921 26.7356 36.219C27.2462 36.7459 27.6512 37.3716 27.9274 38.0603C28.2037 38.7491 28.3458 39.4873 28.3455 40.2329V40.2329ZM25.8717 40.2329C25.872 39.6173 25.6957 39.0155 25.3651 38.5033C25.0345 37.9912 24.5643 37.5918 24.014 37.3556C23.4637 37.1193 22.858 37.0569 22.2734 37.1761C21.6887 37.2953 21.1514 37.5908 20.7293 38.0253C20.3072 38.4598 20.0192 39.0138 19.9017 39.6173C19.7843 40.2207 19.8426 40.8466 20.0694 41.4159C20.2961 41.9852 20.6811 42.4722 21.1757 42.8156C21.6703 43.1589 22.2523 43.3431 22.8482 43.3449C23.2447 43.3461 23.6375 43.2666 24.0042 43.1107C24.3708 42.9549 24.7041 42.7259 24.985 42.4368C25.2658 42.1477 25.4887 41.8043 25.6408 41.4261C25.793 41.0479 25.8714 40.6424 25.8717 40.2329V40.2329Z" fill="#C0C7D1"/>
<path d="M22.8554 41.0632C22.4114 41.0632 22.0515 40.6915 22.0515 40.2329C22.0515 39.7743 22.4114 39.4025 22.8554 39.4025C23.2993 39.4025 23.6592 39.7743 23.6592 40.2329C23.6592 40.6915 23.2993 41.0632 22.8554 41.0632Z" fill="#EBEBEB"/>
<path d="M22.1742 38.9046C22.1742 38.961 22.158 39.016 22.1277 39.0628C22.0974 39.1097 22.0544 39.1462 22.004 39.1677C21.9537 39.1893 21.8982 39.1949 21.8448 39.1839C21.7913 39.1729 21.7422 39.1458 21.7036 39.106C21.6651 39.0662 21.6388 39.0154 21.6282 38.9602C21.6175 38.905 21.623 38.8477 21.6439 38.7957C21.6647 38.7436 21.7001 38.6992 21.7454 38.6679C21.7907 38.6366 21.844 38.6199 21.8985 38.6199C21.9348 38.6196 21.9707 38.6268 22.0043 38.6411C22.0378 38.6553 22.0683 38.6762 22.094 38.7027C22.1196 38.7292 22.1399 38.7607 22.1537 38.7954C22.1675 38.83 22.1744 38.8672 22.1742 38.9046V38.9046Z" fill="#EBEBEB"/>
<path d="M24.1216 38.9046C24.1216 38.961 24.1054 39.016 24.0751 39.0628C24.0448 39.1097 24.0018 39.1462 23.9514 39.1677C23.9011 39.1893 23.8456 39.1949 23.7922 39.1839C23.7387 39.1729 23.6896 39.1458 23.651 39.106C23.6125 39.0662 23.5862 39.0154 23.5756 38.9602C23.5649 38.9049 23.5704 38.8477 23.5913 38.7957C23.6121 38.7436 23.6474 38.6992 23.6928 38.6679C23.7381 38.6366 23.7914 38.6199 23.8459 38.6199C23.919 38.6199 23.9891 38.6499 24.0408 38.7033C24.0925 38.7567 24.1216 38.8291 24.1216 38.9046V38.9046Z" fill="#EBEBEB"/>
<path d="M23.1168 41.822C23.1167 41.8786 23.1004 41.9339 23.0698 41.9809C23.0391 42.0279 22.9957 42.0644 22.9449 42.0857C22.8941 42.107 22.8383 42.1122 22.7846 42.1006C22.731 42.089 22.6819 42.0611 22.6436 42.0206C22.6054 41.98 22.5797 41.9286 22.5699 41.8729C22.5601 41.8172 22.5665 41.7597 22.5885 41.7078C22.6105 41.6559 22.6469 41.612 22.6932 41.5816C22.7394 41.5512 22.7934 41.5358 22.8482 41.5372C22.9199 41.5396 22.988 41.5706 23.038 41.6237C23.0881 41.6768 23.1163 41.7478 23.1168 41.822V41.822Z" fill="#EBEBEB"/>
<path d="M21.678 40.7289C21.678 40.7852 21.6618 40.8403 21.6315 40.8871C21.6012 40.9339 21.5582 40.9704 21.5078 40.992C21.4574 41.0135 21.402 41.0192 21.3485 41.0082C21.2951 40.9972 21.2459 40.9701 21.2074 40.9302C21.1688 40.8904 21.1426 40.8397 21.1319 40.7844C21.1213 40.7292 21.1268 40.6719 21.1476 40.6199C21.1685 40.5679 21.2038 40.5234 21.2492 40.4921C21.2945 40.4608 21.3478 40.4441 21.4023 40.4441C21.4385 40.4441 21.4744 40.4515 21.5078 40.4658C21.5412 40.4801 21.5716 40.5011 21.5972 40.5275C21.6228 40.554 21.6431 40.5854 21.657 40.6199C21.6708 40.6545 21.678 40.6915 21.678 40.7289V40.7289Z" fill="#EBEBEB"/>
<path d="M24.5858 40.7399C24.5858 40.7963 24.5696 40.8514 24.5392 40.8983C24.5089 40.9452 24.4657 40.9817 24.4152 41.0031C24.3648 41.0246 24.3092 41.0302 24.2557 41.019C24.2022 41.0079 24.1531 40.9806 24.1146 40.9406C24.0761 40.9006 24.05 40.8497 24.0396 40.7943C24.0291 40.739 24.0349 40.6817 24.056 40.6297C24.0771 40.5777 24.1127 40.5333 24.1583 40.5023C24.2039 40.4712 24.2573 40.4548 24.3119 40.4552C24.348 40.4552 24.3838 40.4625 24.4172 40.4769C24.4505 40.4912 24.4808 40.5122 24.5062 40.5387C24.5317 40.5651 24.5518 40.5965 24.5655 40.6311C24.5791 40.6656 24.586 40.7026 24.5858 40.7399V40.7399Z" fill="#EBEBEB"/>
<path d="M30.4637 40.2329C30.4637 41.7874 30.0175 43.307 29.1815 44.5996C28.3455 45.8922 27.1573 46.8998 25.7671 47.4949C24.3768 48.0901 22.8469 48.2461 21.3709 47.9432C19.8948 47.6403 18.5388 46.8922 17.4743 45.7934C16.4098 44.6945 15.6846 43.2944 15.3903 41.7698C15.0961 40.2453 15.246 38.6649 15.8212 37.2284C16.3964 35.7919 17.371 34.5638 18.6217 33.6994C19.8725 32.8349 21.3433 32.373 22.8482 32.3719C23.8481 32.3711 24.8382 32.5739 25.7621 32.9687C26.686 33.3634 27.5256 33.9423 28.2328 34.6724C28.9401 35.4024 29.5011 36.2692 29.8839 37.2233C30.2667 38.1774 30.4637 39.2001 30.4637 40.2329V40.2329ZM29.9426 40.2329C29.9429 38.7847 29.5276 37.369 28.7491 36.1646C27.9706 34.9603 26.8639 34.0215 25.5689 33.4668C24.2739 32.9121 22.8487 32.7665 21.4736 33.0484C20.0985 33.3303 18.8352 34.027 17.8434 35.0505C16.8516 36.074 16.1758 37.3782 15.9015 38.7984C15.6273 40.2185 15.7668 41.6908 16.3025 43.0291C16.8381 44.3673 17.7459 45.5115 18.9111 46.3168C20.0762 47.1222 21.4463 47.5527 22.8482 47.5537C23.7795 47.5547 24.7019 47.3661 25.5626 46.9986C26.4233 46.6311 27.2054 46.092 27.8643 45.4121C28.5231 44.7322 29.0458 43.9248 29.4024 43.0361C29.759 42.1475 29.9426 41.1949 29.9426 40.2329V40.2329Z" fill="#C0C7D1"/>
<path d="M98.7303 50.7148C93.1265 49.3486 89.6558 43.5484 90.9785 37.7599C92.3011 31.9713 97.9161 28.3863 103.52 29.7525C109.124 31.1187 112.594 36.9188 111.272 42.7074C109.949 48.496 104.334 52.081 98.7303 50.7148Z" fill="#3E454F"/>
<path d="M99.4677 47.4875C95.5894 46.5419 93.1874 42.5278 94.1028 38.5216C95.0182 34.5154 98.9042 32.0342 102.783 32.9798C106.661 33.9253 109.063 37.9395 108.148 41.9457C107.232 45.9519 103.346 48.433 99.4677 47.4875Z" fill="#68798F"/>
<path d="M106.689 40.2329C106.689 41.3702 106.363 42.482 105.751 43.4277C105.139 44.3733 104.27 45.1103 103.253 45.5455C102.235 45.9807 101.116 46.0944 100.036 45.8724C98.9562 45.6504 97.9643 45.1025 97.1858 44.2982C96.4074 43.4938 95.8774 42.4691 95.6628 41.3535C95.4482 40.238 95.5587 39.0818 95.9803 38.0311C96.4019 36.9804 97.1157 36.0825 98.0313 35.4509C98.947 34.8193 100.023 34.4823 101.124 34.4827C101.855 34.4827 102.579 34.6315 103.254 34.9204C103.93 35.2094 104.543 35.633 105.06 36.167C105.577 36.701 105.987 37.3349 106.266 38.0325C106.546 38.7301 106.69 39.4778 106.689 40.2329V40.2329ZM104.178 40.2329C104.178 39.6085 104 38.998 103.664 38.4787C103.328 37.9594 102.851 37.5546 102.293 37.3155C101.734 37.0764 101.12 37.0137 100.527 37.1354C99.9342 37.2571 99.3896 37.5578 98.9622 37.9993C98.5348 38.4408 98.2437 39.0033 98.1259 39.6157C98.008 40.2281 98.0687 40.8629 98.3002 41.4397C98.5317 42.0165 98.9236 42.5094 99.4263 42.856C99.929 43.2027 100.52 43.3875 101.124 43.3872C101.934 43.3867 102.711 43.0542 103.283 42.4628C103.856 41.8713 104.178 41.0693 104.178 40.2329V40.2329Z" fill="#C0C7D1"/>
<path d="M101.928 40.2329C101.928 40.397 101.881 40.5574 101.792 40.6937C101.703 40.83 101.578 40.9362 101.431 40.9987C101.284 41.0613 101.122 41.0775 100.967 41.0452C100.811 41.013 100.668 40.9337 100.555 40.8175C100.443 40.7013 100.367 40.5534 100.336 40.3924C100.305 40.2313 100.321 40.0645 100.382 39.9128C100.443 39.7612 100.546 39.6316 100.678 39.5405C100.81 39.4493 100.966 39.4007 101.124 39.4007C101.23 39.4007 101.335 39.4222 101.433 39.464C101.53 39.5059 101.619 39.5672 101.694 39.6445C101.768 39.7218 101.827 39.8136 101.868 39.9145C101.908 40.0155 101.929 40.1237 101.928 40.2329V40.2329Z" fill="#EBEBEB"/>
<path d="M100.443 38.9046C100.443 38.961 100.427 39.0162 100.397 39.063C100.366 39.1099 100.323 39.1464 100.273 39.1679C100.222 39.1894 100.167 39.1949 100.113 39.1838C100.06 39.1726 100.011 39.1453 99.9721 39.1053C99.9336 39.0653 99.9075 39.0144 99.897 38.959C99.8866 38.9037 99.8923 38.8464 99.9135 38.7944C99.9346 38.7424 99.9702 38.698 100.016 38.667C100.061 38.6359 100.115 38.6195 100.169 38.6199C100.206 38.6199 100.241 38.6272 100.275 38.6416C100.308 38.6559 100.338 38.6769 100.364 38.7034C100.389 38.7299 100.409 38.7613 100.423 38.7958C100.437 38.8303 100.444 38.8673 100.443 38.9046V38.9046Z" fill="#EBEBEB"/>
<path d="M102.391 38.9046C102.391 38.961 102.375 39.016 102.344 39.0628C102.314 39.1097 102.271 39.1462 102.221 39.1677C102.17 39.1893 102.115 39.1949 102.061 39.1839C102.008 39.1729 101.959 39.1458 101.92 39.106C101.882 39.0662 101.855 39.0154 101.845 38.9602C101.834 38.905 101.84 38.8477 101.86 38.7957C101.881 38.7436 101.917 38.6992 101.962 38.6679C102.007 38.6366 102.061 38.6199 102.115 38.6199C102.151 38.6196 102.187 38.6268 102.221 38.6411C102.254 38.6553 102.285 38.6762 102.311 38.7027C102.336 38.7292 102.356 38.7607 102.37 38.7954C102.384 38.83 102.391 38.8672 102.391 38.9046V38.9046Z" fill="#EBEBEB"/>
<path d="M101.386 41.822C101.386 41.8779 101.37 41.9326 101.34 41.9792C101.31 42.0258 101.268 42.0623 101.218 42.084C101.168 42.1058 101.113 42.112 101.06 42.1017C101.006 42.0915 100.957 42.0652 100.918 42.0263C100.88 41.9874 100.853 41.9375 100.841 41.8829C100.829 41.8283 100.834 41.7714 100.853 41.7192C100.873 41.667 100.907 41.622 100.951 41.5896C100.995 41.5572 101.047 41.539 101.101 41.5372C101.138 41.536 101.175 41.5424 101.21 41.5562C101.244 41.5699 101.276 41.5907 101.302 41.6173C101.329 41.6439 101.35 41.6757 101.364 41.7108C101.379 41.746 101.386 41.7838 101.386 41.822V41.822Z" fill="#EBEBEB"/>
<path d="M99.9471 40.7289C99.9471 40.7852 99.931 40.8403 99.9007 40.8871C99.8704 40.9339 99.8273 40.9704 99.777 40.992C99.7266 41.0135 99.6712 41.0192 99.6177 41.0082C99.5642 40.9972 99.5151 40.9701 99.4765 40.9302C99.438 40.8904 99.4117 40.8397 99.4011 40.7844C99.3905 40.7292 99.3959 40.6719 99.4168 40.6199C99.4377 40.5679 99.473 40.5234 99.5183 40.4921C99.5637 40.4608 99.617 40.4441 99.6715 40.4441C99.7077 40.4439 99.7437 40.4511 99.7772 40.4653C99.8108 40.4795 99.8413 40.5005 99.8669 40.527C99.8926 40.5535 99.9129 40.585 99.9266 40.6196C99.9404 40.6543 99.9474 40.6914 99.9471 40.7289V40.7289Z" fill="#EBEBEB"/>
<path d="M102.857 40.7399C102.857 40.7962 102.841 40.8513 102.81 40.8981C102.78 40.9449 102.737 40.9814 102.687 41.003C102.636 41.0245 102.581 41.0302 102.527 41.0192C102.474 41.0082 102.425 40.9811 102.386 40.9413C102.348 40.9014 102.321 40.8507 102.311 40.7955C102.3 40.7402 102.306 40.683 102.326 40.6309C102.347 40.5789 102.383 40.5344 102.428 40.5031C102.473 40.4719 102.527 40.4552 102.581 40.4552C102.617 40.4549 102.653 40.4621 102.687 40.4763C102.72 40.4906 102.751 40.5115 102.777 40.538C102.802 40.5645 102.822 40.596 102.836 40.6306C102.85 40.6653 102.857 40.7024 102.857 40.7399V40.7399Z" fill="#EBEBEB"/>
<path d="M108.733 40.2329C108.732 41.7872 108.286 43.3065 107.45 44.5987C106.614 45.8909 105.425 46.8979 104.035 47.4925C102.645 48.087 101.115 48.2424 99.6391 47.9389C98.1633 47.6355 96.8078 46.8868 95.744 45.7876C94.6801 44.6884 93.9557 43.2881 93.6622 41.7636C93.3688 40.2391 93.5196 38.659 94.0955 37.223C94.6714 35.7871 95.6466 34.5597 96.8977 33.6963C98.1489 32.8328 99.6198 32.3719 101.125 32.3719C102.124 32.3719 103.113 32.5752 104.037 32.9703C104.96 33.3654 105.799 33.9444 106.505 34.6744C107.212 35.4044 107.772 36.271 108.154 37.2247C108.536 38.1785 108.733 39.2006 108.733 40.2329V40.2329ZM108.212 40.2329C108.212 38.7844 107.797 37.3684 107.018 36.1639C106.239 34.9594 105.132 34.0205 103.836 33.4661C102.541 32.9116 101.115 32.7664 99.7402 33.0489C98.3649 33.3314 97.1016 34.0289 96.11 35.0531C95.1185 36.0773 94.4433 37.3822 94.1698 38.8029C93.8964 40.2235 94.0369 41.696 94.5737 43.0342C95.1104 44.3723 96.0193 45.5159 97.1854 46.3204C98.3514 47.1249 99.7223 47.5541 101.125 47.5537C102.056 47.5542 102.977 47.3652 103.838 46.9975C104.698 46.6298 105.48 46.0907 106.138 45.4108C106.797 44.731 107.319 43.9237 107.675 43.0353C108.032 42.1468 108.215 41.1946 108.215 40.2329H108.212Z" fill="#C0C7D1"/>
<path d="M121.865 25.0253C119.915 23.4911 117.58 22.5649 115.137 22.356C113.554 22.2182 111.834 22.1043 111.461 22.2127C110.735 22.4221 113.359 24.8085 115.226 26.8587C117.093 28.9089 119.573 28.5764 122.031 28.6481C124.488 28.7197 124.892 27.8305 124.892 27.8305C123.958 26.8129 122.945 25.8748 121.865 25.0253V25.0253Z" fill="#C7E4FC"/>
<path d="M124.056 37.7032C124.056 37.7032 123.749 38.6217 122.961 38.9542C122.173 39.2868 119.519 39.3217 119.519 39.3217C119.153 38.4136 118.742 37.5251 118.289 36.6597C117.73 35.6677 118.788 35.2102 119.48 35.2304C120.172 35.2506 122.621 35.8569 124.056 37.7032Z" fill="#F00001"/>
<path d="M112.542 21.0038C112.626 21.0038 116.989 26.7485 117.682 27.8012C118.376 28.8538 117.542 29.5115 117.008 29.8018C116.475 30.092 109.844 23.6989 109.789 23.528C109.734 23.3572 110.94 21.961 110.94 21.961L112.542 21.0038Z" fill="#ED9600"/>
<path d="M81.787 13.2641C81.1397 12.0865 80.4728 10.9659 79.788 9.9573C73.0725 6.90586 62.5083 4.08957 55.181 3.2592C55.5972 4.71419 56.4615 6.61376 57.3721 8.56845C65.6073 9.53789 73.7659 11.107 81.787 13.2641V13.2641Z" fill="#6A809C"/>
<path d="M23.9989 7.89974C24.801 6.28308 25.5586 4.81891 25.9125 3.69092C21.3063 4.04732 14.3809 4.58927 13.1075 4.82258C12.3552 5.66949 10.7457 7.64622 9.1308 9.73685C12.6397 9.13979 17.7244 8.41597 23.9989 7.89974Z" fill="#6A809C"/>
<path d="M53.1268 8.11284L52.949 2.91199C50.5 2.8238 46.2121 2.78522 43.4697 2.78522C36.2562 2.78522 33.2025 3.08467 28.6834 3.34738C28.1167 4.7342 27.6882 6.17704 27.4047 7.65357C36.0854 7.09692 41.5045 7.00139 53.1268 8.11284Z" fill="#6A809C"/>
<path d="M85.5859 38.2727L35.2549 35.0871L35.6106 36.2298C35.8698 37.0568 36.3738 37.7788 37.0516 38.294C37.7294 38.8092 38.5466 39.0915 39.3881 39.1012L82.3295 39.5825C83.5257 39.5964 84.6815 39.1362 85.5592 38.2966L85.5859 38.2727Z" fill="#ED2F30"/>
<path d="M86.4716 41.5887L35.1571 40.3339V40.1961C35.1571 39.9867 35.1571 39.7773 35.1571 39.5642C35.1571 33.6762 30.6949 28.5415 24.7779 27.6432L24.6658 27.6248V27.509C24.456 22.2861 24.4275 18.3382 24.5823 15.7718C24.938 10.04 26.8943 4.01425 27.7284 1.69765L27.7586 1.61131H27.8475C32.7544 1.28614 35.1856 0.904022 43.4697 0.904022C46.2691 0.904022 48.9528 0.94995 51.448 1.03997C61.3148 1.37497 71.0153 3.75852 79.9713 8.04854L79.8574 8.30206C70.9345 4.02763 61.2696 1.65341 51.4391 1.32105C48.9492 1.23103 46.2655 1.1851 43.4697 1.1851C35.2425 1.1851 32.8575 1.56171 27.9525 1.87953C27.1095 4.25124 25.1941 10.1631 24.8544 15.7883C24.6996 18.3272 24.7263 22.2274 24.9326 27.3823C27.7942 27.8406 30.4193 29.292 32.3756 31.4974C34.3312 33.6995 35.4213 36.5759 35.4328 39.5642C35.4328 39.7313 35.4328 39.8967 35.4328 40.0602L86.4752 41.3094L86.4716 41.5887Z" fill="#850001"/>
<path d="M57.5926 40.8226H57.3205C57.3205 40.6168 57.3987 20.1771 56.819 17.5244C56.2392 14.8716 53.4754 1.52497 53.4399 1.39086L53.7066 1.33207C53.7333 1.46618 56.4935 14.7962 57.0768 17.4637C57.6602 20.1312 57.5961 39.9793 57.5926 40.8226Z" fill="#850001"/>
<path d="M86.5534 41.5464H86.2813C86.2813 41.3627 86.3489 23.4839 86.1034 21.4264C85.9078 19.7969 85.6286 19.2071 84.8834 17.6309C84.6806 17.2029 84.4512 16.7124 84.172 16.1153C82.8844 13.2843 79.7471 8.26165 79.7151 8.21572L79.9374 8.05773C79.9694 8.10917 83.1174 13.1484 84.4121 15.9959C84.686 16.5948 84.9154 17.0798 85.1235 17.5078C85.8829 19.1153 86.1674 19.7124 86.3684 21.3915C86.621 23.4656 86.5569 40.8097 86.5534 41.5464Z" fill="#850001"/>
<path d="M63.7728 22.2512H61.4146C60.7908 22.2512 60.2852 21.729 60.2852 21.0847V21.0332C60.2852 20.389 60.7908 19.8667 61.4146 19.8667H63.7728C64.3965 19.8667 64.9022 20.389 64.9022 21.0332V21.0847C64.9022 21.729 64.3965 22.2512 63.7728 22.2512Z" fill="#960001"/>
<path d="M64.9858 21.2041H60.2159C60.0047 21.2041 59.8335 21.0273 59.8335 20.8091V20.7926C59.8335 20.5744 60.0047 20.3976 60.2159 20.3976H64.9858C65.1969 20.3976 65.3681 20.5744 65.3681 20.7926V20.8091C65.3681 21.0273 65.1969 21.2041 64.9858 21.2041Z" fill="#FFABAC"/>
<path d="M31.4454 22.2512H29.0871C28.4634 22.2512 27.9578 21.729 27.9578 21.0847V21.0332C27.9578 20.389 28.4634 19.8667 29.0871 19.8667H31.4454C32.0691 19.8667 32.5747 20.389 32.5747 21.0332V21.0847C32.5747 21.729 32.0691 22.2512 31.4454 22.2512Z" fill="#960001"/>
<path d="M32.6103 21.2041H27.8404C27.6292 21.2041 27.458 21.0273 27.458 20.8091V20.7926C27.458 20.5744 27.6292 20.3976 27.8404 20.3976H32.6103C32.8214 20.3976 32.9926 20.5744 32.9926 20.7926V20.8091C32.9926 21.0273 32.8214 21.2041 32.6103 21.2041Z" fill="#FFABAC"/>
<path d="M3.73846 16.0785L4.80555 16.4956C5.11599 16.6171 5.39351 16.8141 5.61456 17.0699C5.83561 17.3258 5.99369 17.6329 6.07539 17.9653C6.32732 18.9508 6.46875 19.9629 6.49689 20.9818C6.49689 21.9977 6.48444 23.5225 6.47199 24.7056C6.4699 24.9356 6.41698 25.1621 6.31727 25.3677C6.21756 25.5734 6.07368 25.7528 5.89663 25.8922C5.71958 26.0317 5.51402 26.1276 5.29565 26.1725C5.07728 26.2174 4.85186 26.2102 4.63659 26.1514C3.43064 25.8018 2.26259 25.3253 1.15076 24.7295C-2.32795 22.9053 3.73846 16.0785 3.73846 16.0785Z" fill="#8C0000"/>
<path d="M9.92086e-05 19.5801L6.08783 22.0326C6.08783 21.6542 6.08783 21.2978 6.08783 20.9873C6.08783 20.7595 6.07538 20.5262 6.05582 20.291L0.857317 18.2886C0.550515 18.7038 0.264411 19.1348 9.92086e-05 19.5801V19.5801Z" fill="#FA7D00"/>
<path d="M5.95264 19.4203C5.87438 18.9224 5.77478 18.4539 5.68052 18.0737C5.61614 17.806 5.48998 17.5584 5.31283 17.3521C5.13568 17.1457 4.9128 16.9867 4.66324 16.8887L2.61798 16.119C2.28719 16.5048 1.84968 17.0136 1.39795 17.5887L5.95264 19.4203Z" fill="#FA7D00"/>
<path d="M123.672 37.2365C123.672 37.2365 123.364 38.1551 122.577 38.4876C121.789 38.8201 119.133 38.844 119.133 38.844C118.768 37.9388 118.357 37.0534 117.904 36.1912C117.346 35.1974 118.404 34.7418 119.096 34.7601C119.788 34.7785 122.23 35.3884 123.672 37.2365Z" fill="#960001"/>
<path d="M89.7458 19.0933L88.2074 17.8642L86.5036 17.8514L86.8202 19.2108C86.8202 19.2108 86.9554 19.4405 88.1114 19.5342C89.2674 19.6278 89.7458 19.0933 89.7458 19.0933Z" fill="#D10000"/>
<path d="M88.4386 18.1876C88.4386 18.1876 83.4766 17.4876 82.9644 17.3572C82.4522 17.2267 83.4197 14.4013 83.955 14.0853C84.4904 13.7693 86.0572 13.7914 86.6103 14.1092C87.1634 14.427 88.2963 15.6891 88.5275 16.4037C88.7587 17.1184 88.997 18.0259 88.4386 18.1876Z" fill="#FF5456"/>
</svg>
