<svg width="183" height="52" viewBox="0 0 183 52" fill="none" xmlns="http://www.w3.org/2000/svg">
<g clip-path="url(#clip0_1174_735)">
<path d="M138.733 15.331L142.084 11.9665H165.316C169.002 11.9665 171.906 14.7703 171.906 14.7703L138.733 15.331Z" fill="#353C57"/>
<path d="M100.304 12.9828L99.9282 12.8261C98.4096 12.1923 96.6668 12.9147 96.0356 14.4395L93.7729 19.9055C93.1417 21.4303 93.8611 23.1802 95.3797 23.814L95.7551 23.9707C97.2738 24.6045 99.0166 23.8821 99.6478 22.3573L101.91 16.8913C102.542 15.3665 101.822 13.6166 100.304 12.9828Z" fill="#DBC17B"/>
<path d="M100.283 6.06514H99.9475C98.5904 6.06514 97.4902 7.1698 97.4902 8.53247V11.6346C97.4902 12.9972 98.5904 14.1019 99.9475 14.1019H100.283C101.64 14.1019 102.74 12.9972 102.74 11.6346V8.53247C102.74 7.1698 101.64 6.06514 100.283 6.06514Z" fill="#DBC17B"/>
<path d="M134.693 12.4875L134.317 12.3309C132.799 11.6974 131.056 12.42 130.425 13.945L128.163 19.4114C127.532 20.9363 128.252 22.6861 129.771 23.3196L130.146 23.4762C131.665 24.1098 133.408 23.3871 134.039 21.8622L136.3 16.3958C136.931 14.8709 136.212 13.1211 134.693 12.4875Z" fill="#DBC17B"/>
<path d="M134.66 5.58737H134.325C132.968 5.58737 131.868 6.69203 131.868 8.0547V11.1568C131.868 12.5195 132.968 13.6241 134.325 13.6241H134.66C136.017 13.6241 137.118 12.5195 137.118 11.1568V8.0547C137.118 6.69203 136.017 5.58737 134.66 5.58737Z" fill="#DBC17B"/>
<path d="M17.6546 41.4533L36.978 42.1262L54.961 40.4439C54.961 40.4439 55.2961 25.7521 50.4932 22.6119C45.6903 19.4717 34.1856 16.1071 26.702 21.0418C19.2184 25.9764 17.6546 41.4533 17.6546 41.4533Z" fill="#333333"/>
<path d="M132.925 40.3318L152.695 41.6776L171.46 37.8645C171.46 37.8645 173.805 27.6587 164.199 22.7241C154.594 17.7894 141.972 12.294 136.164 21.2661C130.356 30.2382 132.925 40.3318 132.925 40.3318Z" fill="#333333"/>
<path d="M161.086 48.1318C166.224 42.9724 166.224 34.6074 161.086 29.448C155.947 24.2887 147.616 24.2887 142.478 29.4481C137.34 34.6074 137.34 42.9724 142.478 48.1318C147.616 53.2912 155.947 53.2912 161.086 48.1318Z" fill="#3E454F"/>
<path d="M151.781 47.9312C156.81 47.9312 160.886 43.8379 160.886 38.7886C160.886 33.7393 156.81 29.646 151.781 29.646C146.752 29.646 142.676 33.7393 142.676 38.7886C142.676 43.8379 146.752 47.9312 151.781 47.9312Z" fill="#4C5461"/>
<path d="M151.783 30.79C150.207 30.7895 148.666 31.2584 147.356 32.1373C146.045 33.0162 145.023 34.2656 144.42 35.7275C143.816 37.1894 143.658 38.7982 143.966 40.3504C144.273 41.9025 145.031 43.3283 146.146 44.4475C147.26 45.5667 148.68 46.3289 150.226 46.6378C151.771 46.9467 153.374 46.7884 154.83 46.1829C156.286 45.5774 157.531 44.5519 158.406 43.2361C159.282 41.9203 159.749 40.3734 159.749 38.7908C159.749 36.6693 158.91 34.6346 157.416 33.1342C155.922 31.6338 153.896 30.7906 151.783 30.79V30.79ZM151.783 43.1804C150.918 43.1809 150.072 42.9236 149.352 42.4412C148.633 41.9588 148.072 41.2729 147.74 40.4703C147.409 39.6677 147.322 38.7845 147.491 37.9323C147.66 37.0802 148.076 36.2974 148.688 35.6831C149.3 35.0688 150.08 34.6504 150.928 34.481C151.777 34.3116 152.657 34.3988 153.456 34.7315C154.255 35.0642 154.938 35.6274 155.419 36.35C155.899 37.0726 156.155 37.922 156.155 38.7908C156.154 39.9549 155.694 41.071 154.874 41.8941C154.054 42.7172 152.943 43.1798 151.783 43.1804V43.1804Z" fill="#D5DDE8"/>
<path d="M152.797 38.7908C152.797 38.9928 152.738 39.1902 152.626 39.3581C152.514 39.526 152.355 39.6568 152.17 39.734C151.984 39.8111 151.779 39.8312 151.582 39.7917C151.385 39.7521 151.204 39.6547 151.062 39.5117C150.92 39.3688 150.823 39.1867 150.784 38.9886C150.745 38.7905 150.765 38.5852 150.843 38.3987C150.92 38.2123 151.051 38.053 151.218 37.9412C151.385 37.8293 151.582 37.7698 151.783 37.7703C151.917 37.7703 152.049 37.7967 152.172 37.848C152.295 37.8993 152.407 37.9745 152.501 38.0693C152.595 38.1641 152.67 38.2766 152.721 38.4005C152.772 38.5243 152.798 38.6569 152.797 38.7908V38.7908Z" fill="#EBEBEB"/>
<path d="M150.577 37.5078C150.768 37.5078 150.923 37.3522 150.923 37.1602C150.923 36.9682 150.768 36.8125 150.577 36.8125C150.386 36.8125 150.231 36.9682 150.231 37.1602C150.231 37.3522 150.386 37.5078 150.577 37.5078Z" fill="#EBEBEB"/>
<path d="M153.381 37.1602C153.381 37.2296 153.361 37.2975 153.323 37.3554C153.285 37.4133 153.23 37.4585 153.166 37.4852C153.103 37.512 153.032 37.5191 152.965 37.5057C152.897 37.4923 152.835 37.4589 152.786 37.4098C152.737 37.3607 152.704 37.2982 152.69 37.2301C152.677 37.162 152.684 37.0915 152.711 37.0275C152.737 36.9634 152.782 36.9088 152.84 36.8705C152.898 36.8323 152.965 36.812 153.034 36.8125C153.08 36.8125 153.125 36.8215 153.167 36.839C153.209 36.8564 153.247 36.882 153.279 36.9143C153.311 36.9466 153.337 36.9849 153.354 37.0271C153.372 37.0693 153.381 37.1145 153.381 37.1602V37.1602Z" fill="#EBEBEB"/>
<path d="M152.112 40.74C152.112 40.8094 152.092 40.8774 152.054 40.9353C152.016 40.9931 151.961 41.0383 151.898 41.0651C151.834 41.0919 151.764 41.099 151.696 41.0856C151.628 41.0721 151.566 41.0388 151.517 40.9897C151.468 40.9406 151.435 40.8781 151.421 40.81C151.408 40.7419 151.415 40.6714 151.442 40.6073C151.468 40.5433 151.513 40.4887 151.571 40.4504C151.629 40.4121 151.696 40.3919 151.765 40.3924C151.811 40.3924 151.856 40.4013 151.898 40.4188C151.94 40.4363 151.978 40.4619 152.01 40.4942C152.042 40.5265 152.068 40.5648 152.085 40.607C152.103 40.6492 152.112 40.6944 152.112 40.74V40.74Z" fill="#EBEBEB"/>
<path d="M150.296 39.4009C150.295 39.4696 150.274 39.5366 150.236 39.5935C150.198 39.6504 150.144 39.6946 150.08 39.7205C150.017 39.7465 149.947 39.7531 149.88 39.7394C149.813 39.7257 149.752 39.6925 149.704 39.6437C149.655 39.595 149.623 39.5331 149.61 39.4657C149.596 39.3983 149.603 39.3285 149.63 39.2651C149.656 39.2017 149.7 39.1476 149.757 39.1095C149.814 39.0714 149.881 39.051 149.949 39.051C149.995 39.051 150.04 39.0601 150.082 39.0777C150.124 39.0953 150.163 39.1211 150.195 39.1536C150.227 39.1862 150.253 39.2248 150.27 39.2672C150.287 39.3096 150.296 39.3551 150.296 39.4009Z" fill="#EBEBEB"/>
<path d="M153.964 39.4144C153.964 39.4837 153.943 39.5514 153.905 39.609C153.866 39.6666 153.812 39.7115 153.748 39.7379C153.684 39.7643 153.614 39.7711 153.546 39.7574C153.479 39.7437 153.417 39.7102 153.368 39.661C153.319 39.6119 153.286 39.5493 153.273 39.4813C153.26 39.4133 153.267 39.3428 153.294 39.2789C153.321 39.215 153.366 39.1605 153.423 39.1224C153.481 39.0842 153.548 39.064 153.617 39.0645C153.663 39.0645 153.708 39.0736 153.75 39.0912C153.793 39.1088 153.831 39.1346 153.863 39.1671C153.895 39.1996 153.921 39.2382 153.938 39.2807C153.955 39.3231 153.964 39.3686 153.964 39.4144V39.4144Z" fill="#EBEBEB"/>
<path d="M151.783 29.1481C149.883 29.1481 148.026 29.7138 146.447 30.7736C144.867 31.8334 143.636 33.3397 142.909 35.1021C142.182 36.8645 141.991 38.8038 142.362 40.6747C142.733 42.5457 143.648 44.2642 144.991 45.6131C146.334 46.962 148.046 47.8806 149.909 48.2527C151.773 48.6249 153.704 48.4339 155.459 47.7039C157.215 46.9739 158.715 45.7377 159.77 44.1516C160.826 42.5654 161.389 40.7007 161.389 38.7931C161.389 37.5265 161.141 36.2723 160.658 35.1021C160.175 33.9319 159.468 32.8687 158.576 31.973C157.684 31.0774 156.625 30.367 155.459 29.8823C154.294 29.3976 153.045 29.1481 151.783 29.1481V29.1481ZM151.783 47.7652C150.016 47.7652 148.288 47.239 146.819 46.2531C145.349 45.2672 144.204 43.866 143.528 42.2266C142.852 40.5871 142.675 38.7831 143.019 37.0427C143.364 35.3023 144.215 33.7036 145.465 32.4489C146.715 31.1941 148.307 30.3396 150.04 29.9934C151.773 29.6472 153.57 29.8249 155.203 30.504C156.836 31.183 158.231 32.333 159.213 33.8085C160.195 35.2839 160.719 37.0186 160.719 38.7931C160.72 39.9719 160.489 41.1393 160.041 42.2286C159.592 43.3179 158.934 44.3078 158.104 45.1417C157.274 45.9755 156.289 46.637 155.204 47.0883C154.12 47.5396 152.957 47.7719 151.783 47.7719V47.7652Z" fill="#D5DDE8"/>
<path d="M140.279 39.3045H140.247C140.126 39.301 140.007 39.2735 139.896 39.2235C139.785 39.1736 139.686 39.1021 139.603 39.0133C139.52 38.9245 139.455 38.8201 139.412 38.7061C139.369 38.5921 139.35 38.4707 139.354 38.349C139.469 35.1653 140.792 32.1465 143.054 29.9118C145.315 27.6772 148.342 26.3962 151.515 26.3316C154.687 26.267 157.763 27.4238 160.113 29.5646C162.462 31.7054 163.907 34.6679 164.15 37.8443C164.169 38.0888 164.089 38.3306 163.93 38.5165C163.771 38.7025 163.545 38.8173 163.301 38.8357C163.058 38.8542 162.817 38.7747 162.632 38.6149C162.447 38.455 162.332 38.2279 162.314 37.9834C162.112 35.2743 160.883 32.746 158.881 30.9185C156.88 29.091 154.256 28.1032 151.551 28.1584C148.846 28.2135 146.265 29.3074 144.339 31.215C142.412 33.1226 141.287 35.6989 141.195 38.414C141.186 38.6525 141.086 38.8783 140.915 39.0443C140.744 39.2103 140.516 39.3035 140.279 39.3045V39.3045Z" fill="#565F6E"/>
<path d="M45.5365 48.1298C50.6749 42.9704 50.6749 34.6054 45.5365 29.446C40.3981 24.2867 32.0671 24.2867 26.9286 29.446C21.7902 34.6054 21.7902 42.9704 26.9286 48.1298C32.0671 53.2891 40.3981 53.2891 45.5365 48.1298Z" fill="#3E454F"/>
<path d="M36.2318 47.9312C41.2606 47.9312 45.3373 43.8379 45.3373 38.7886C45.3373 33.7393 41.2606 29.646 36.2318 29.646C31.203 29.646 27.1264 33.7393 27.1264 38.7886C27.1264 43.8379 31.203 47.9312 36.2318 47.9312Z" fill="#4C5461"/>
<path d="M36.2363 30.79C34.6602 30.7895 33.1194 31.2584 31.8087 32.1373C30.498 33.0162 29.4764 34.2656 28.8729 35.7275C28.2695 37.1894 28.1113 38.7982 28.4186 40.3504C28.7258 41.9025 29.4845 43.3283 30.5988 44.4475C31.7131 45.5667 33.1329 46.3289 34.6787 46.6378C36.2245 46.9467 37.8268 46.7884 39.2829 46.1829C40.7391 45.5774 41.9837 44.5519 42.8594 43.2361C43.7351 41.9203 44.2025 40.3734 44.2025 38.7908C44.2025 36.6693 43.3633 34.6346 41.8694 33.1342C40.3755 31.6338 38.3493 30.7906 36.2363 30.79V30.79ZM36.2363 43.1804C35.371 43.1809 34.5251 42.9236 33.8054 42.4412C33.0858 41.9588 32.5248 41.2729 32.1935 40.4703C31.8621 39.6677 31.7753 38.7845 31.944 37.9323C32.1127 37.0802 32.5294 36.2974 33.1412 35.6831C33.7531 35.0688 34.5326 34.6504 35.3813 34.481C36.23 34.3116 37.1097 34.3988 37.909 34.7315C38.7083 35.0642 39.3914 35.6274 39.8719 36.35C40.3523 37.0726 40.6085 37.922 40.6081 38.7908C40.6075 39.9549 40.1467 41.071 39.327 41.8941C38.5072 42.7172 37.3956 43.1798 36.2363 43.1804V43.1804Z" fill="#D5DDE8"/>
<path d="M37.2483 38.7908C37.2483 38.9928 37.1886 39.1902 37.0768 39.3581C36.965 39.526 36.8062 39.6568 36.6203 39.734C36.4344 39.8111 36.23 39.8312 36.0327 39.7917C35.8355 39.7521 35.6544 39.6547 35.5123 39.5117C35.3703 39.3688 35.2736 39.1867 35.2347 38.9886C35.1957 38.7905 35.2162 38.5852 35.2934 38.3987C35.3707 38.2123 35.5013 38.053 35.6688 37.9412C35.8362 37.8293 36.033 37.7698 36.2341 37.7703C36.3675 37.7703 36.4995 37.7967 36.6227 37.848C36.7459 37.8993 36.8578 37.9745 36.952 38.0693C37.0462 38.1641 37.1209 38.2766 37.1717 38.4005C37.2226 38.5243 37.2486 38.6569 37.2483 38.7908V38.7908Z" fill="#EBEBEB"/>
<path d="M35.0278 37.5078C35.219 37.5078 35.374 37.3522 35.374 37.1602C35.374 36.9682 35.219 36.8125 35.0278 36.8125C34.8365 36.8125 34.6815 36.9682 34.6815 37.1602C34.6815 37.3522 34.8365 37.5078 35.0278 37.5078Z" fill="#EBEBEB"/>
<path d="M37.8313 37.1602C37.8318 37.2296 37.8117 37.2975 37.7735 37.3554C37.7354 37.4133 37.681 37.4585 37.6172 37.4852C37.5535 37.512 37.4832 37.5191 37.4154 37.5057C37.3476 37.4923 37.2853 37.4589 37.2364 37.4098C37.1876 37.3607 37.1543 37.2982 37.141 37.2301C37.1276 37.162 37.1347 37.0915 37.1613 37.0275C37.188 36.9634 37.233 36.9088 37.2906 36.8705C37.3483 36.8323 37.416 36.812 37.4851 36.8125C37.5306 36.8125 37.5756 36.8215 37.6176 36.839C37.6596 36.8564 37.6978 36.882 37.7299 36.9143C37.7621 36.9466 37.7876 36.9849 37.805 37.0271C37.8224 37.0693 37.8313 37.1145 37.8313 37.1602V37.1602Z" fill="#EBEBEB"/>
<path d="M36.5625 40.74C36.5629 40.8094 36.5428 40.8774 36.5047 40.9353C36.4666 40.9931 36.4122 41.0383 36.3484 41.0651C36.2846 41.0919 36.2144 41.099 36.1466 41.0856C36.0788 41.0721 36.0165 41.0388 35.9676 40.9897C35.9187 40.9406 35.8855 40.8781 35.8721 40.81C35.8587 40.7419 35.8658 40.6714 35.8925 40.6073C35.9191 40.5433 35.9641 40.4887 36.0218 40.4504C36.0794 40.4121 36.1471 40.3919 36.2162 40.3924C36.2617 40.3924 36.3067 40.4013 36.3487 40.4188C36.3908 40.4363 36.4289 40.4619 36.4611 40.4942C36.4932 40.5265 36.5187 40.5648 36.5361 40.607C36.5535 40.6492 36.5625 40.6944 36.5625 40.74V40.74Z" fill="#EBEBEB"/>
<path d="M34.7463 39.4009C34.7459 39.4696 34.7252 39.5366 34.6869 39.5935C34.6485 39.6504 34.5943 39.6946 34.531 39.7205C34.4677 39.7465 34.3982 39.7531 34.3311 39.7394C34.2641 39.7257 34.2026 39.6925 34.1544 39.6437C34.1062 39.595 34.0735 39.5331 34.0603 39.4657C34.0471 39.3983 34.0541 39.3285 34.0804 39.2651C34.1066 39.2017 34.151 39.1476 34.2079 39.1095C34.2648 39.0714 34.3317 39.051 34.4 39.051C34.4457 39.051 34.4909 39.0601 34.5331 39.0777C34.5752 39.0953 34.6135 39.1211 34.6457 39.1536C34.6779 39.1862 34.7033 39.2248 34.7206 39.2672C34.7379 39.3096 34.7466 39.3551 34.7463 39.4009V39.4009Z" fill="#EBEBEB"/>
<path d="M38.4188 39.4144C38.4188 39.4837 38.3983 39.5514 38.3599 39.609C38.3215 39.6666 38.267 39.7115 38.2032 39.7379C38.1394 39.7643 38.0692 39.7711 38.0015 39.7574C37.9339 39.7437 37.8718 39.7102 37.8231 39.661C37.7745 39.6119 37.7415 39.5493 37.7283 39.4813C37.7151 39.4133 37.7223 39.3428 37.749 39.2789C37.7758 39.215 37.8208 39.1605 37.8784 39.1224C37.936 39.0842 38.0036 39.064 38.0726 39.0645C38.1182 39.0645 38.1634 39.0736 38.2056 39.0912C38.2478 39.1088 38.286 39.1346 38.3182 39.1671C38.3504 39.1996 38.3758 39.2382 38.3931 39.2807C38.4104 39.3231 38.4191 39.3686 38.4188 39.4144V39.4144Z" fill="#EBEBEB"/>
<path d="M36.2363 29.1481C34.3365 29.1481 32.4793 29.7138 30.8996 30.7736C29.3199 31.8334 28.0887 33.3397 27.3617 35.1021C26.6347 36.8645 26.4444 38.8038 26.8151 40.6747C27.1857 42.5457 28.1006 44.2642 29.444 45.6131C30.7874 46.962 32.499 47.8806 34.3623 48.2527C36.2257 48.6249 38.1571 48.4339 39.9123 47.7039C41.6676 46.9739 43.1678 45.7377 44.2233 44.1516C45.2788 42.5654 45.8422 40.7007 45.8422 38.7931C45.8422 36.2351 44.8301 33.7818 43.0287 31.973C41.2272 30.1643 38.784 29.1481 36.2363 29.1481V29.1481ZM36.2363 47.7652C34.469 47.7652 32.7414 47.239 31.2719 46.2531C29.8025 45.2672 28.6572 43.866 27.9809 42.2266C27.3045 40.5871 27.1276 38.7831 27.4724 37.0427C27.8172 35.3023 28.6682 33.7036 29.9179 32.4489C31.1675 31.1941 32.7597 30.3396 34.4931 29.9934C36.2264 29.6472 38.0231 29.8249 39.6559 30.504C41.2886 31.183 42.6842 32.333 43.6661 33.8085C44.6479 35.2839 45.172 37.0186 45.172 38.7931C45.1729 39.9719 44.9424 41.1393 44.4937 42.2286C44.0451 43.3179 43.387 44.3078 42.5572 45.1417C41.7273 45.9755 40.742 46.637 39.6574 47.0883C38.5728 47.5396 37.4103 47.7719 36.2363 47.7719V47.7652Z" fill="#D5DDE8"/>
<path d="M24.7294 39.3045H24.6982C24.5769 39.301 24.4575 39.2735 24.3469 39.2235C24.2362 39.1736 24.1365 39.1021 24.0535 39.0133C23.9704 38.9245 23.9057 38.8201 23.863 38.7061C23.8203 38.5921 23.8004 38.4707 23.8046 38.349C23.9194 35.1653 25.2433 32.1465 27.5046 29.9118C29.7659 27.6772 32.7932 26.3962 35.9653 26.3316C39.1375 26.267 42.2139 27.4238 44.5636 29.5646C46.9132 31.7054 48.3578 34.6679 48.601 37.8443C48.6101 37.9654 48.5954 38.087 48.5576 38.2024C48.5199 38.3177 48.4599 38.4245 48.3811 38.5165C48.3023 38.6086 48.2061 38.6842 48.0982 38.7389C47.9903 38.7937 47.8727 38.8266 47.7521 38.8357C47.6316 38.8448 47.5104 38.83 47.3955 38.7921C47.2806 38.7543 47.1743 38.694 47.0826 38.6149C46.991 38.5357 46.9157 38.4392 46.8611 38.3309C46.8066 38.2225 46.7739 38.1044 46.7648 37.9834C46.5626 35.2743 45.3342 32.746 43.3323 30.9185C41.3303 29.091 38.707 28.1032 36.002 28.1584C33.2969 28.2135 30.7157 29.3074 28.7893 31.215C26.8629 33.1226 25.7378 35.6989 25.6453 38.414C25.6367 38.6525 25.5365 38.8783 25.3658 39.0443C25.1951 39.2103 24.9671 39.3035 24.7294 39.3045V39.3045Z" fill="#565F6E"/>
<path d="M182.428 29.747L181.966 29.2984C181.966 29.2984 180.384 18.5319 179.846 17.0694C179.548 16.3453 179.109 15.6886 178.555 15.1382C178.119 14.7142 177.549 14.4577 176.944 14.4137C172.923 13.9651 162.87 13.3146 149.831 13.7946C140.672 14.131 82.5208 16.3898 70.3035 16.1744C58.0862 15.9591 55.8948 14.4114 55.8948 14.4114C55.8948 14.4114 33.1669 14.5752 20.4224 16.7801C7.67797 18.985 5.3681 22.4011 3.48938 28.6681C1.61066 34.9351 2.48412 41.1214 2.48412 41.1214C5.96456 44.3311 19.482 44.4231 19.482 44.4231L22.2811 44.4814C22.0577 41.8414 21.9549 39.641 21.975 38.5464C22.0565 34.8282 23.5802 31.2888 26.2217 28.6817C28.8633 26.0746 32.414 24.6058 36.1179 24.588H36.3726C44.1734 24.7248 50.272 31.2094 50.272 39.0421C50.272 41.3053 50.2296 43.3038 50.1514 45.0444L138.083 44.9906C137.964 43.1849 137.904 41.081 137.904 38.6181C137.904 30.9919 144.32 24.7966 151.908 24.7966H152.161C154.001 24.8243 155.817 25.2181 157.504 25.9555C159.191 26.6928 160.716 27.7589 161.99 29.092C164.59 31.7949 165.919 35.3523 165.919 39.1116C165.919 40.343 165.919 41.4915 165.884 42.5659L166.369 42.5143C166.369 42.5143 174.067 41.3703 176.533 40.5942C180.858 39.2305 181.8 36.1463 182.484 33.7463C182.81 32.618 183.279 30.5522 182.428 29.747Z" fill="#424657"/>
<path d="M55.8948 14.4114C55.6468 14.1871 69.1218 5.9799 80.7359 1.23142C81.9792 0.729126 83.3255 0.537926 84.6588 0.674299C85.9921 0.810673 87.2724 1.27053 88.3893 2.01423L88.5948 2.14882L64.0664 16.4122C64.0664 16.4122 60.1392 18.2268 55.8948 14.4114Z" fill="#383C4A"/>
<path d="M136.126 35.8166C136.126 35.8166 135.934 37.3306 135.867 39.1564C135.831 40.127 135.422 41.0458 134.725 41.7197C134.029 42.3936 133.099 42.77 132.132 42.77H60.7692L60.9099 42.4896C61.5433 41.2275 62.5033 40.1599 63.6891 39.3986C64.8749 38.6373 66.2429 38.2104 67.6496 38.1628L136.126 35.8166Z" fill="#5A5E73"/>
<path d="M4.36283 26.7324C4.36283 26.7324 3.91605 20.7143 21.5081 19.1442C39.1002 17.5741 165.133 15.2099 170.343 15.1068C181.363 14.8825 180.322 17.7984 180.322 17.7984L180.292 19.1734C180.292 19.1734 26.8874 22.3203 17.2078 22.6119C7.52829 22.9035 4.36283 26.7324 4.36283 26.7324Z" fill="#5A5E73"/>
<path d="M67.386 41.9378H66.9124C66.2157 41.9346 65.5433 41.6801 65.018 41.2205C64.4927 40.761 64.1494 40.1271 64.0508 39.4346L63.7715 37.4966C63.7508 37.354 63.7411 37.2101 63.7425 37.066V36.2024C63.7559 33.5108 63.7894 26.3196 63.9391 23.3387C64.129 19.7117 66.2378 16.7801 66.2601 16.7599L66.5193 16.9528C66.4991 16.9797 64.4462 19.8261 64.2652 23.3633C64.1156 26.3376 64.0798 33.5108 64.0686 36.2114V37.0772C64.0665 37.2056 64.0755 37.3339 64.0955 37.4607L64.3725 39.3965C64.4636 40.0105 64.7704 40.5715 65.2374 40.9783C65.7044 41.3852 66.3009 41.6109 66.9191 41.6148C76.0067 41.635 104.382 41.2672 108.818 40.9419C109.725 40.8746 110.563 40.8746 111.372 40.8746C114.928 40.8746 117.278 40.8746 118.348 34.8678C119.673 27.4501 119.771 22.2037 119.512 20.4878C119.253 18.7719 115.764 15.1853 115.732 15.1494L115.956 14.9251C116.103 15.0754 119.55 18.6507 119.818 20.4362C120.042 21.93 120.091 26.8826 118.654 34.9194C117.537 41.1864 114.946 41.1886 111.363 41.1999C110.559 41.1999 109.728 41.1999 108.83 41.2672C104.469 41.5834 76.9449 41.9378 67.386 41.9378Z" fill="#1E2233"/>
<path d="M2.67623 24.5342L16.9331 24.7854C16.9331 24.7854 17.7842 25.068 16.5064 27.6296C15.2286 30.1911 13.1287 30.8012 13.1287 30.8012L0 30.4064L2.67623 24.5342Z" fill="#C7E4FC"/>
<path d="M80.0613 0.00673112C81.625 0.0560776 85.5277 1.70021 85.5277 1.70021L59.3975 15.4342C59.3975 15.4342 57.2284 15.2727 54.5745 13.9C51.9206 12.5273 55.4681 5.66588 55.6915 5.58513C55.9149 5.50438 73.8175 -0.190655 80.0613 0.00673112Z" fill="#C7E4FC"/>
<path d="M180.934 19.2474C180.934 19.2474 176.756 19.133 175.219 19.5502C173.682 19.9674 173.571 24.2448 174.399 25.068C175.228 25.8912 183.002 25.1779 183.002 25.1779L180.934 19.2474Z" fill="#EB4B3F"/>
<path d="M181.182 20.8332H175.373C175.313 20.8335 175.252 20.8217 175.196 20.7985C175.14 20.7752 175.089 20.741 175.046 20.6979C175.003 20.6547 174.969 20.6034 174.946 20.5469C174.922 20.4905 174.911 20.4299 174.911 20.3689V20.3689C174.91 20.309 174.92 20.2495 174.942 20.1938C174.964 20.138 174.996 20.0873 175.038 20.0444C175.08 20.0016 175.129 19.9675 175.184 19.9443C175.239 19.921 175.298 19.9091 175.358 19.9091L181.166 19.7184C181.229 19.7162 181.292 19.727 181.35 19.7501C181.409 19.7732 181.462 19.8081 181.506 19.8527C181.551 19.8973 181.586 19.9505 181.609 20.0092C181.633 20.0679 181.644 20.1308 181.642 20.1939V20.3868C181.638 20.5066 181.588 20.6202 181.502 20.7035C181.416 20.7867 181.301 20.8333 181.182 20.8332V20.8332Z" fill="#FFBB00"/>
<path d="M181.217 22.2463H175.409C175.289 22.2428 175.176 22.1926 175.092 22.1063C175.009 22.02 174.962 21.9045 174.962 21.7842V21.7842C174.962 21.6653 175.009 21.5512 175.093 21.467C175.177 21.3829 175.291 21.3356 175.409 21.3356L181.217 21.1427C181.28 21.1405 181.343 21.1514 181.402 21.1746C181.461 21.1979 181.514 21.233 181.559 21.2778C181.603 21.3226 181.638 21.3761 181.661 21.4351C181.685 21.4941 181.695 21.5572 181.693 21.6205V21.8134C181.686 21.9336 181.632 22.0461 181.543 22.1269C181.454 22.2078 181.337 22.2506 181.217 22.2463V22.2463Z" fill="#FFBB00"/>
<path d="M61.9062 17.7827L63.5035 15.2458L65.7642 15.8627L65.9384 17.7805C65.9384 17.7805 64.8527 18.4534 63.9637 18.4848C63.0746 18.5162 62.5228 18.3636 61.9062 17.7827Z" fill="#282B38"/>
<path d="M63.2778 13.7991C63.2778 13.7991 62.6769 14.3554 62.6412 14.7569C62.6054 15.1584 63.9279 16.3001 64.301 16.3898C64.5601 16.4503 66.7248 16.4503 68.0406 16.4458C68.3074 16.4441 68.5629 16.337 68.7518 16.1477C68.9408 15.9585 69.048 15.7022 69.0503 15.4342V12.9086C69.0506 12.7505 69.0034 12.5959 68.9149 12.4651C68.8265 12.3343 68.7008 12.2332 68.5544 12.1751C68.0361 11.9688 67.1894 11.7108 66.4009 11.823C65.1521 11.9979 63.2778 13.7991 63.2778 13.7991Z" fill="#64697D"/>
<path d="M112.366 21.5263H108.885C108.566 21.5263 108.26 21.3989 108.034 21.1722C107.808 20.9455 107.681 20.6379 107.681 20.3173V20.3173C107.681 20.1583 107.712 20.0009 107.772 19.8539C107.833 19.707 107.921 19.5735 108.033 19.461C108.145 19.3485 108.278 19.2592 108.424 19.1983C108.57 19.1374 108.727 19.1061 108.885 19.1061H112.366C112.686 19.1061 112.993 19.2337 113.219 19.4608C113.445 19.688 113.572 19.9961 113.572 20.3173C113.572 20.4763 113.541 20.6336 113.48 20.7805C113.42 20.9273 113.331 21.0607 113.219 21.173C113.107 21.2853 112.974 21.3743 112.827 21.4349C112.681 21.4955 112.524 21.5266 112.366 21.5263V21.5263Z" fill="#333333"/>
<path d="M113.827 20.7345H107.458C107.392 20.7348 107.327 20.722 107.266 20.6969C107.205 20.6718 107.149 20.6348 107.103 20.5881C107.056 20.5415 107.019 20.486 106.994 20.4249C106.968 20.3638 106.955 20.2982 106.955 20.2321C106.955 20.1659 106.968 20.1004 106.994 20.0393C107.019 19.9782 107.056 19.9227 107.103 19.876C107.149 19.8293 107.205 19.7924 107.266 19.7672C107.327 19.7421 107.392 19.7293 107.458 19.7296H113.827C113.96 19.7296 114.087 19.7826 114.181 19.8768C114.275 19.971 114.327 20.0988 114.327 20.2321C114.327 20.3653 114.275 20.4931 114.181 20.5873C114.087 20.6816 113.96 20.7345 113.827 20.7345Z" fill="#858BA8"/>
</g>
<defs>
<clipPath id="clip0_1174_735">
<rect width="183" height="52" fill="white"/>
</clipPath>
</defs>
</svg>
