<svg width="131" height="91" viewBox="0 0 131 91" fill="none" xmlns="http://www.w3.org/2000/svg">
<path d="M100.748 76.3621C101.104 75.7697 101.3 75.0953 101.317 74.4045C101.335 73.7137 101.172 73.0303 100.847 72.4209C100.491 71.7556 100.211 71.0521 100.014 70.3239C100.068 70.3324 100.123 70.3368 100.178 70.3371C100.255 70.3382 100.332 70.3238 100.403 70.2948C100.475 70.2658 100.54 70.2228 100.594 70.1683C100.649 70.1138 100.692 70.0489 100.721 69.9775C100.75 69.9061 100.764 69.8295 100.763 69.7525V66.7966C100.763 66.7205 100.749 66.6451 100.72 66.5747C100.691 66.5042 100.648 66.4403 100.595 66.3864C100.541 66.3325 100.477 66.2897 100.407 66.2607C100.336 66.2316 100.261 66.2167 100.185 66.217C100.043 66.2164 99.9018 66.2426 99.7694 66.2941C99.8214 65.9264 99.8938 65.5618 99.9862 65.2021C100.034 65.0281 100.027 64.8436 99.9665 64.6735C99.906 64.5035 99.7948 64.3562 99.6479 64.2513C98.605 63.5329 97.3689 63.147 96.1025 63.1445H91.5982C91.349 63.1434 91.1036 63.0832 90.8822 62.9688L87.8442 61.0492C84.0888 58.6643 79.9585 56.929 75.6268 55.9159C75.3952 55.8617 75.162 55.8108 74.9272 55.7516C72.3176 55.1968 69.6639 54.8748 66.9974 54.7894L58.8885 54.7828C50.7129 54.7675 42.675 56.8874 35.5702 60.9326L27.0722 65.7703L9.92341 68.621C7.23521 69.0692 4.69056 70.1448 2.49604 71.7608L6.50285 71.3191C6.60343 71.3077 6.70509 71.3271 6.7945 71.3745C6.88392 71.422 6.95692 71.4953 7.00396 71.5849C7.05099 71.6745 7.06986 71.7763 7.05809 71.8768C7.04633 71.9774 7.00447 72.072 6.93801 72.1483L5.19078 74.1583C3.98158 75.5507 2.30923 76.4583 0.482787 76.7135L0 76.7808C0.00816904 77.2705 0.0759971 77.7575 0.201983 78.2308L1.31699 82.4084L1.15278 83.3395C1.11582 83.539 1.12186 83.7442 1.17049 83.9413C1.21913 84.1383 1.30925 84.3228 1.43483 84.4822C1.56041 84.6417 1.71856 84.7725 1.89873 84.866C2.0789 84.9595 2.27694 85.0134 2.47962 85.0243L10.2666 85.4611C10.3939 85.4685 10.5212 85.4483 10.64 85.402C10.7587 85.3556 10.8661 85.2841 10.9546 85.1924C11.0432 85.1008 11.1109 84.991 11.1532 84.8707C11.1954 84.7504 11.2111 84.6225 11.1993 84.4955C11.1238 83.6663 11.0351 82.8288 11.0072 81.9272C10.8676 76.8563 14.8744 72.549 19.947 72.6032C22.2803 72.6287 24.5091 73.5748 26.1483 75.2356C27.7875 76.8963 28.7045 79.1373 28.6996 81.4707C28.6996 82.5972 28.6815 83.5891 28.6043 84.6039C28.5957 84.7252 28.6122 84.847 28.6527 84.9617C28.6933 85.0763 28.7569 85.1815 28.8398 85.2705C28.9226 85.3595 29.0229 85.4305 29.1344 85.4791C29.2459 85.5278 29.3662 85.5529 29.4878 85.5531L72.6611 85.6237C72.7882 85.624 72.9139 85.597 73.0297 85.5444C73.1454 85.4918 73.2485 85.4149 73.3319 85.319C73.4152 85.223 73.4769 85.1102 73.5128 84.9882C73.5486 84.8662 73.5578 84.7379 73.5396 84.6121C73.4135 83.6962 73.3494 82.7729 73.3475 81.8484C73.3064 76.9401 77.2393 72.7362 82.1477 72.71C83.3155 72.7034 84.473 72.9281 85.5535 73.3711C86.6341 73.814 87.6163 74.4665 88.4435 75.2908C89.2707 76.1151 89.9266 77.095 90.3733 78.1739C90.82 79.2529 91.0488 80.4097 91.0464 81.5775C91.0464 81.8386 91.0333 82.098 91.0103 82.3525C91.0001 82.4883 91.0214 82.6246 91.0726 82.7508C91.1238 82.8769 91.2034 82.9896 91.3053 83.0799C91.4072 83.1702 91.5286 83.2357 91.66 83.2713C91.7915 83.3069 91.9293 83.3117 92.0629 83.2853L93.2271 83.0619C94.5164 82.9606 95.7367 82.4384 96.7003 81.5758C97.1315 81.1874 97.5019 80.7362 97.7988 80.2375H99.8285C100.22 80.2375 100.596 80.0818 100.874 79.8046C101.151 79.5275 101.306 79.1515 101.306 78.7596C101.306 78.6455 101.261 78.536 101.18 78.4553C101.1 78.3747 100.99 78.3293 100.876 78.3293H98.9713C99.2226 77.9959 99.4923 77.6769 99.7793 77.3736L100.748 76.3621ZM58.6898 57.356L56.9311 64.3482C56.8389 64.7148 56.6315 65.0421 56.3395 65.2821C56.0474 65.5221 55.6862 65.6621 55.3087 65.6816L33.2039 66.8311C33.1283 66.8362 33.0526 66.8237 32.9825 66.7947C32.9125 66.7657 32.8502 66.7209 32.8003 66.6639C32.7504 66.6069 32.7143 66.5391 32.6949 66.4658C32.6755 66.3926 32.6732 66.3159 32.6883 66.2416C32.7299 66.0225 32.8147 65.814 32.938 65.6281C33.0612 65.4423 33.2203 65.283 33.4059 65.1594L34.3518 64.5321C40.4668 60.4736 47.4269 57.8632 54.7027 56.8995L57.9032 56.4791C58.0185 56.4629 58.136 56.4753 58.2453 56.5152C58.3547 56.5551 58.4526 56.6212 58.5303 56.7079C58.608 56.7945 58.6632 56.899 58.691 57.012C58.7189 57.125 58.7184 57.2432 58.6898 57.356ZM80.6944 64.1758C79.7942 64.9227 78.6603 65.3295 77.4906 65.3253L59.8114 65.2974C59.7291 65.297 59.6478 65.279 59.5729 65.2446C59.4981 65.2103 59.4315 65.1603 59.3776 65.0981C59.3236 65.0359 59.2836 64.9629 59.2601 64.884C59.2367 64.8051 59.2303 64.7221 59.2416 64.6405L60.3008 57.7271C60.3496 57.41 60.5118 57.1214 60.7574 56.9148C61.0029 56.7083 61.315 56.5978 61.6358 56.6039L66.0613 56.6926C70.1888 56.777 74.2274 57.907 77.7993 59.9769L79.1689 60.77C79.9476 61.223 80.5802 61.8898 80.9916 62.6913C81.1149 62.9358 81.152 63.2149 81.0969 63.4831C81.0417 63.7514 80.8976 63.9931 80.6878 64.1692L80.6944 64.1758Z" fill="#25333F"/>
<path d="M4.76713 73.9757L6.15145 72.3812C6.20444 72.3209 6.2379 72.2458 6.24739 72.166C6.25689 72.0863 6.24198 72.0055 6.20463 71.9344C6.16729 71.8632 6.10926 71.8051 6.0382 71.7676C5.96714 71.7301 5.88639 71.715 5.8066 71.7244L1.82606 72.1628C0.751525 73.2207 0.107847 74.6397 0.0197144 76.145L1.03784 76.0022C2.48496 75.7995 3.80973 75.0797 4.76713 73.9757Z" fill="#25333F"/>
<path d="M19.947 73.2568C18.2766 73.2539 16.6428 73.7464 15.2523 74.6721C13.8618 75.5977 12.777 76.9149 12.1351 78.4571C11.4932 79.9993 11.3231 81.6972 11.6463 83.3361C11.9694 84.9749 12.7713 86.4812 13.9505 87.6643C15.1297 88.8474 16.6333 89.6543 18.2711 89.9829C19.9089 90.3114 21.6073 90.1469 23.1516 89.5101C24.6959 88.8734 26.0167 87.7929 26.947 86.4055C27.8772 85.018 28.3751 83.3859 28.3777 81.7155C28.3796 80.6065 28.1631 79.508 27.7404 78.4827C27.3178 77.4573 26.6973 76.5253 25.9144 75.7399C25.1315 74.9544 24.2016 74.3308 23.1777 73.9048C22.1538 73.4787 21.056 73.2586 19.947 73.2568ZM19.9224 88.2725C18.6234 88.2702 17.3542 87.8829 16.2754 87.1594C15.1965 86.4359 14.3564 85.4087 13.8612 84.2078C13.3661 83.0069 13.2381 81.6861 13.4935 80.4125C13.749 79.1388 14.3763 77.9695 15.2962 77.0524C16.2161 76.1352 17.3873 75.5114 18.6617 75.2598C19.936 75.0082 21.2564 75.1402 22.4559 75.6389C23.6553 76.1377 24.6799 76.9809 25.4002 78.0619C26.1204 79.1429 26.504 80.4132 26.5024 81.7122C26.5013 82.5751 26.3302 83.4293 25.9989 84.226C25.6676 85.0227 25.1826 85.7464 24.5715 86.3556C23.9605 86.9648 23.2354 87.4477 22.4377 87.7766C21.6399 88.1055 20.7852 88.274 19.9224 88.2725Z" fill="#25333F"/>
<path d="M19.9421 75.6016C18.5325 75.6004 17.1661 76.0879 16.0756 76.981C14.9851 77.8742 14.2379 79.1178 13.9614 80.5C13.6849 81.8822 13.896 83.3175 14.5589 84.5614C15.2219 85.8054 16.2955 86.7811 17.5971 87.3223C18.8986 87.8636 20.3475 87.9369 21.697 87.5297C23.0465 87.1226 24.2132 86.2603 24.9982 85.0895C25.7833 83.9188 26.1382 82.5121 26.0026 81.1091C25.867 79.7061 25.2491 78.3934 24.2543 77.3948C23.6898 76.8256 23.0181 76.374 22.2778 76.0662C21.5376 75.7584 20.7437 75.6004 19.9421 75.6016ZM14.6643 81.7004C14.6662 80.592 15.0185 79.5126 15.6709 78.6165C15.7276 78.5378 15.8023 78.4738 15.8886 78.4296C15.975 78.3854 16.0706 78.3624 16.1676 78.3624C16.2646 78.3624 16.3603 78.3854 16.4466 78.4296C16.533 78.4738 16.6076 78.5378 16.6644 78.6165L17.8484 80.2586C17.9331 80.3756 17.989 80.5109 18.0114 80.6536C18.0338 80.7963 18.0221 80.9422 17.9772 81.0795C17.9324 81.2168 17.8556 81.3415 17.7533 81.4434C17.651 81.5454 17.526 81.6216 17.3886 81.666L15.4574 82.29C15.3654 82.3199 15.2676 82.3273 15.1721 82.3117C15.0766 82.296 14.9862 82.2578 14.9086 82.2C14.8309 82.1423 14.7682 82.0668 14.7257 81.9799C14.6832 81.893 14.6621 81.7972 14.6643 81.7004ZM19.098 86.1342C19.0981 86.2306 19.0753 86.3257 19.0316 86.4117C18.9878 86.4976 18.9243 86.572 18.8463 86.6287C18.7683 86.6854 18.678 86.7228 18.5827 86.7379C18.4875 86.753 18.39 86.7453 18.2983 86.7155C17.2477 86.3698 16.3321 85.7029 15.6807 84.809C15.6229 84.7309 15.5844 84.6401 15.5685 84.5442C15.5527 84.4482 15.5599 84.3499 15.5896 84.2573C15.6193 84.1647 15.6706 84.0805 15.7393 84.0117C15.8079 83.9429 15.892 83.8914 15.9845 83.8615L17.9058 83.2408C18.0432 83.1961 18.1892 83.1846 18.3318 83.2073C18.4744 83.23 18.6096 83.2862 18.7263 83.3713C18.843 83.4565 18.9378 83.568 19.003 83.6969C19.0682 83.8258 19.1019 83.9683 19.1013 84.1127L19.098 86.1342ZM19.2015 79.275L18.0159 77.6329C17.9591 77.5542 17.9219 77.4631 17.9071 77.3672C17.8924 77.2713 17.9006 77.1733 17.931 77.0812C17.9615 76.9891 18.0133 76.9055 18.0823 76.8372C18.1512 76.769 18.2354 76.7181 18.3279 76.6887C19.3802 76.3503 20.5121 76.3503 21.5645 76.6887C21.6569 76.7184 21.741 76.7696 21.8098 76.8381C21.8786 76.9066 21.9302 76.9905 21.9604 77.0828C21.9905 77.1751 21.9983 77.2732 21.9832 77.3691C21.968 77.465 21.9303 77.556 21.8732 77.6345L20.6761 79.2767C20.5905 79.3928 20.4786 79.487 20.3496 79.5516C20.2206 79.6163 20.0781 79.6495 19.9338 79.6485C19.7895 79.6475 19.6475 79.6125 19.5194 79.5461C19.3912 79.4798 19.2806 79.3841 19.1965 79.2668L19.2015 79.275ZM24.1837 84.8221C23.5287 85.7152 22.6096 86.3798 21.5563 86.7221C21.4643 86.7513 21.3667 86.7584 21.2714 86.7428C21.1761 86.7271 21.0859 86.6891 21.0081 86.632C20.9303 86.5748 20.8671 86.5001 20.8237 86.4139C20.7803 86.3276 20.7578 86.2324 20.7582 86.1358V84.1144C20.7586 83.9701 20.7931 83.828 20.8589 83.6996C20.9247 83.5712 21.0199 83.4602 21.1368 83.3756C21.2537 83.2911 21.389 83.2354 21.5315 83.2131C21.6741 83.1908 21.8198 83.2025 21.957 83.2473L23.8783 83.8746C23.9692 83.9053 24.0517 83.9569 24.119 84.0253C24.1863 84.0937 24.2366 84.1769 24.2658 84.2683C24.2951 84.3597 24.3024 84.4567 24.2873 84.5515C24.2722 84.6463 24.235 84.7362 24.1788 84.8139L24.1837 84.8221ZM25.2051 81.7267C25.2042 81.822 25.1808 81.9157 25.1369 82.0002C25.0929 82.0847 25.0297 82.1577 24.9523 82.2132C24.8748 82.2687 24.7854 82.3052 24.6913 82.3197C24.5971 82.3342 24.5008 82.3262 24.4103 82.2965L22.4808 81.666C22.3435 81.6211 22.2188 81.5445 22.1168 81.4422C22.0149 81.3399 21.9386 81.2149 21.8942 81.0774C21.8498 80.94 21.8386 80.794 21.8615 80.6514C21.8844 80.5088 21.9408 80.3736 22.0259 80.257L23.2149 78.6264C23.2716 78.5477 23.3462 78.4836 23.4326 78.4394C23.519 78.3953 23.6146 78.3722 23.7116 78.3722C23.8086 78.3722 23.9042 78.3953 23.9906 78.4394C24.077 78.4836 24.1516 78.5477 24.2083 78.6264C24.8589 79.5246 25.2079 80.6061 25.2051 81.7152V81.7267Z" fill="#25333F"/>
<path d="M82.4186 73.3648C80.7483 73.3618 79.1146 73.8543 77.7241 74.7799C76.3336 75.7054 75.2488 77.0225 74.6069 78.5646C73.965 80.1067 73.7948 81.8045 74.1178 83.4434C74.4408 85.0822 75.2425 86.5884 76.4216 87.7716C77.6006 88.9548 79.104 89.7618 80.7417 90.0905C82.3794 90.4193 84.0778 90.255 85.6222 89.6185C87.1665 88.982 88.4874 87.9018 89.4178 86.5146C90.3482 85.1273 90.8464 83.4954 90.8494 81.825C90.8513 80.7159 90.6348 79.6173 90.2121 78.5919C89.7895 77.5665 89.169 76.6344 88.3862 75.8488C87.6033 75.0632 86.6734 74.4395 85.6495 74.0133C84.6256 73.5871 83.5277 73.3667 82.4186 73.3648ZM82.394 88.3804C81.095 88.3778 79.826 87.9901 78.7473 87.2663C77.6686 86.5426 76.8288 85.5152 76.3339 84.3142C75.8391 83.1131 75.7114 81.7923 75.9672 80.5188C76.2229 79.2452 76.8505 78.076 77.7706 77.1591C78.6908 76.2422 79.8621 75.6187 81.1366 75.3674C82.411 75.1162 83.7314 75.2484 84.9307 75.7475C86.13 76.2465 87.1544 77.09 87.8744 78.1711C88.5944 79.2523 88.9776 80.5227 88.9757 81.8217C88.9718 83.5635 88.2762 85.2324 87.0419 86.4615C85.8077 87.6905 84.1358 88.379 82.394 88.3755V88.3804Z" fill="#25333F"/>
<path d="M82.4154 75.7066C81.0057 75.7054 79.6392 76.1929 78.5486 77.0862C77.4581 77.9795 76.711 79.2232 76.4345 80.6055C76.1581 81.9879 76.3695 83.4233 77.0326 84.6672C77.6958 85.9112 78.7697 86.8868 80.0714 87.4278C81.3731 87.9688 82.8222 88.0418 84.1717 87.6344C85.5212 87.2269 86.6877 86.3641 87.4725 85.1931C88.2573 84.0221 88.6118 82.6152 88.4757 81.2121C88.3396 79.809 87.7212 78.4965 86.726 77.4981C86.1616 76.9292 85.4901 76.478 84.7502 76.1704C84.0102 75.8629 83.2166 75.7052 82.4154 75.7066ZM77.1375 81.8055C77.1374 80.6962 77.4899 79.6156 78.1442 78.7199C78.2009 78.6425 78.2751 78.5796 78.3607 78.5362C78.4462 78.4928 78.5408 78.4702 78.6368 78.4702C78.7328 78.4702 78.8274 78.4928 78.913 78.5362C78.9985 78.5796 79.0727 78.6425 79.1294 78.7199L80.3151 80.362C80.3998 80.4789 80.4557 80.6143 80.4781 80.757C80.5005 80.8996 80.4888 81.0456 80.4439 81.1829C80.3991 81.3202 80.3223 81.4449 80.22 81.5468C80.1177 81.6487 79.9927 81.725 79.8553 81.7693L77.9373 82.3769C77.8463 82.408 77.7493 82.4169 77.6542 82.403C77.5591 82.3891 77.4687 82.3526 77.3905 82.2968C77.3123 82.2409 77.2486 82.1672 77.2046 82.0817C77.1606 81.9963 77.1376 81.9016 77.1375 81.8055ZM81.5713 86.2294C81.5713 86.3258 81.5484 86.4209 81.5047 86.5069C81.461 86.5928 81.3975 86.6673 81.3196 86.7241C81.2416 86.7809 81.1514 86.8185 81.0562 86.8338C80.9609 86.8492 80.8634 86.8418 80.7716 86.8123C79.721 86.4656 78.8056 85.7982 78.154 84.9042C78.0961 84.826 78.0577 84.7353 78.0418 84.6393C78.026 84.5434 78.0332 84.4451 78.0629 84.3525C78.0926 84.2599 78.1439 84.1757 78.2125 84.1069C78.2812 84.038 78.3653 83.9865 78.4578 83.9566L80.3791 83.3359C80.5164 83.2916 80.6623 83.2804 80.8048 83.3033C80.9473 83.3262 81.0823 83.3824 81.1989 83.4674C81.3155 83.5525 81.4103 83.6639 81.4756 83.7926C81.5409 83.9213 81.5748 84.0636 81.5746 84.2079L81.5713 86.2294ZM81.6748 79.3702L80.4891 77.728C80.4324 77.6494 80.3951 77.5585 80.3804 77.4627C80.3656 77.3669 80.3738 77.269 80.4043 77.177C80.4347 77.085 80.4866 77.0015 80.5556 76.9334C80.6246 76.8654 80.7087 76.8146 80.8011 76.7854C81.8531 76.4449 82.9858 76.4449 84.0378 76.7854C84.1302 76.8149 84.2143 76.866 84.2831 76.9343C84.3519 77.0027 84.4035 77.0864 84.4337 77.1786C84.4638 77.2708 84.4716 77.3688 84.4565 77.4646C84.4413 77.5604 84.4036 77.6513 84.3465 77.7297L83.156 79.3718C83.0712 79.49 82.9594 79.5863 82.83 79.6527C82.7005 79.7191 82.5571 79.7536 82.4116 79.7534C82.2662 79.7533 82.1228 79.7184 81.9935 79.6518C81.8642 79.5851 81.7527 79.4886 81.6682 79.3702H81.6748ZM86.657 84.9189C86.0014 85.8111 85.0825 86.475 84.0296 86.8173C83.9377 86.8465 83.8402 86.8536 83.7451 86.838C83.65 86.8224 83.5598 86.7846 83.4821 86.7276C83.4043 86.6707 83.3411 86.5962 83.2975 86.5102C83.254 86.4241 83.2314 86.3291 83.2315 86.2326V84.2112C83.2319 84.0667 83.2664 83.9244 83.3323 83.7958C83.3982 83.6672 83.4936 83.556 83.6106 83.4713C83.7276 83.3866 83.8631 83.3308 84.0058 83.3084C84.1485 83.286 84.2945 83.2977 84.4319 83.3425L86.3499 83.9698C86.4424 84 86.5264 84.0518 86.5949 84.1209C86.6634 84.19 86.7145 84.2744 86.7439 84.3672C86.7732 84.46 86.7801 84.5584 86.7638 84.6544C86.7476 84.7503 86.7087 84.841 86.6504 84.9189H86.657ZM87.6784 81.8219C87.6778 81.9173 87.6547 82.0112 87.6108 82.0959C87.567 82.1806 87.5037 82.2537 87.4262 82.3093C87.3487 82.3649 87.2591 82.4013 87.1648 82.4157C87.0705 82.43 86.9741 82.4218 86.8836 82.3917L84.9541 81.7611C84.8168 81.7165 84.6921 81.64 84.5901 81.5379C84.4881 81.4358 84.4118 81.3109 84.3674 81.1736C84.323 81.0362 84.3118 80.8903 84.3348 80.7478C84.3577 80.6053 84.414 80.4703 84.4992 80.3538L85.6881 78.7215C85.7449 78.6428 85.8195 78.5788 85.9059 78.5346C85.9922 78.4904 86.0879 78.4674 86.1849 78.4674C86.2819 78.4674 86.3775 78.4904 86.4639 78.5346C86.5502 78.5788 86.6249 78.6428 86.6816 78.7215C87.3324 79.6191 87.6814 80.7001 87.6784 81.8087V81.8219Z" fill="#25333F"/>
<path d="M110.831 71.0428C110.287 70.9845 109.736 71.0339 109.211 71.1883C108.687 71.3427 108.197 71.599 107.771 71.9425C107.345 72.2861 106.991 72.7102 106.729 73.1906C106.467 73.6711 106.303 74.1984 106.244 74.7425C106.223 74.9608 106.219 75.1804 106.231 75.3994C105.809 75.0569 105.286 74.8628 104.743 74.8469C104.2 74.8311 103.667 74.9943 103.225 75.3116C102.784 75.6288 102.459 76.0823 102.301 76.6023C102.143 77.1223 102.161 77.6798 102.351 78.1889C102.541 78.698 102.894 79.1303 103.354 79.4194C103.814 79.7084 104.357 79.838 104.898 79.7882C105.439 79.7383 105.949 79.5119 106.348 79.1437C106.748 78.7756 107.016 78.2862 107.11 77.7509C107.534 78.2919 108.085 78.7195 108.714 78.9956C109.344 79.2717 110.032 79.3877 110.717 79.3333C111.402 79.2789 112.063 79.0558 112.641 78.6839C113.219 78.3119 113.696 77.8027 114.029 77.2016C114.363 76.6006 114.542 75.9264 114.551 75.2391C114.561 74.5519 114.4 73.873 114.083 73.263C113.767 72.653 113.304 72.1309 112.736 71.7432C112.169 71.3555 111.514 71.1143 110.831 71.0411V71.0428Z" fill="#25333F"/>
<path d="M130.582 54.2291C130.583 52.2549 129.931 50.3358 128.727 48.7709C127.523 47.2061 125.836 46.0832 123.928 45.5772C122.019 45.0712 119.997 45.2105 118.176 45.9735C116.356 46.7364 114.838 48.0801 113.861 49.7953H113.81C112.187 49.7727 110.613 50.3517 109.392 51.4207C108.17 52.4897 107.388 53.9731 107.196 55.5847C107.003 57.1963 107.414 58.8221 108.35 60.1486C109.285 61.4751 110.678 62.4082 112.261 62.7682C111.819 63.7693 111.634 64.8649 111.723 65.9557C111.811 67.0464 112.17 68.0978 112.768 69.0146C113.365 69.9314 114.182 70.6847 115.144 71.206C116.107 71.7274 117.184 72.0005 118.278 72.0005C119.372 72.0005 120.449 71.7274 121.411 71.206C122.374 70.6847 123.19 69.9314 123.788 69.0146C124.385 68.0978 124.745 67.0464 124.833 65.9557C124.922 64.8649 124.737 63.7693 124.295 62.7682C126.116 62.2003 127.708 61.0657 128.839 59.5297C129.97 57.9937 130.581 56.1366 130.582 54.2291Z" fill="#25333F"/>
<path d="M125.094 21.4095C125.543 19.3164 125.436 17.1422 124.784 15.1034C124.132 13.0645 122.957 11.2321 121.376 9.78845C119.795 8.34481 117.864 7.34033 115.775 6.87499C113.685 6.40964 111.51 6.49966 109.466 7.13607C109.036 6.04216 108.385 5.04852 107.554 4.21696C106.723 3.3854 105.73 2.73371 104.636 2.30244C103.543 1.87116 102.372 1.66953 101.197 1.71007C100.022 1.75061 98.8683 2.03247 97.8071 2.53811C96.8505 1.57205 95.6776 0.847632 94.3855 0.42477C93.0934 0.00190852 91.7192 -0.107245 90.3765 0.106342C89.0339 0.319928 87.7614 0.850115 86.6642 1.65305C85.5671 2.45598 84.677 3.50858 84.0674 4.72378C83.9672 4.72378 83.867 4.72378 83.7652 4.72378C82.3333 4.72328 80.9242 5.08219 79.667 5.76759C78.4098 6.453 77.3447 7.443 76.5694 8.64684C74.6816 8.86643 72.8708 9.52212 71.2801 10.5621C69.6894 11.602 68.3624 12.9977 67.4039 14.6388C66.4455 16.2799 65.882 18.1215 65.7578 20.0179C65.6337 21.9143 65.9524 23.8137 66.6887 25.5657C65.462 25.6744 64.2709 26.035 63.1901 26.6252C62.1092 27.2153 61.1618 28.0222 60.4071 28.9954C59.6524 29.9685 59.1068 31.087 58.8042 32.2807C58.5017 33.4744 58.4489 34.7178 58.649 35.9329C58.8491 37.148 59.2979 38.3087 59.9673 39.3424C60.6366 40.3761 61.5121 41.2605 62.539 41.9402C63.5659 42.6199 64.7221 43.0804 65.9351 43.2928C67.1481 43.5051 68.3919 43.4648 69.5887 43.1743C70.9703 44.5418 72.7762 45.3982 74.7094 45.6027C76.6425 45.8071 78.5877 45.3474 80.2248 44.2992C83.757 46.186 89.0759 47.388 95.0286 47.388C102.891 47.388 109.644 45.291 112.642 42.2859C115.377 43.4922 118.459 43.6566 121.307 42.7481C124.155 41.8396 126.572 39.9208 128.103 37.3535C129.634 34.7861 130.173 31.7474 129.619 28.81C129.065 25.8725 127.456 23.2392 125.094 21.4062V21.4095ZM92.9398 29.8566C91.7213 31.486 90.0207 32.6904 88.0793 33.299C86.1379 33.9077 84.0541 33.8897 82.1235 33.2476C80.1928 32.6056 78.5133 31.372 77.3231 29.7218C76.1329 28.0717 75.4923 26.0887 75.4923 24.0541C75.4923 22.0195 76.1329 20.0366 77.3231 18.3864C78.5133 16.7363 80.1928 15.5027 82.1235 14.8606C84.0541 14.2186 86.1379 14.2006 88.0793 14.8092C90.0207 15.4179 91.7213 16.6223 92.9398 18.2517C93.0771 18.435 93.1769 18.6435 93.2335 18.8654C93.2902 19.0873 93.3026 19.3181 93.2701 19.5448C93.2375 19.7715 93.1606 19.9895 93.0438 20.1865C92.927 20.3834 92.7725 20.5554 92.5892 20.6927C92.4059 20.83 92.1974 20.9298 91.9755 20.9864C91.7536 21.0431 91.5227 21.0555 91.2961 21.0229C91.0694 20.9904 90.8514 20.9135 90.6544 20.7967C90.4574 20.6799 90.2854 20.5254 90.1482 20.3421C89.3687 19.3 88.2809 18.5297 87.039 18.1404C85.7972 17.7512 84.4643 17.7628 83.2294 18.1735C81.9946 18.5842 80.9203 19.3733 80.159 20.4288C79.3977 21.4843 78.988 22.7527 78.988 24.0541C78.988 25.3555 79.3977 26.6239 80.159 27.6794C80.9203 28.735 81.9946 29.524 83.2294 29.9348C84.4643 30.3455 85.7972 30.3571 87.039 29.9678C88.2809 29.5786 89.3687 28.8083 90.1482 27.7662C90.2854 27.5829 90.4574 27.4284 90.6544 27.3116C90.8514 27.1948 91.0694 27.1179 91.2961 27.0853C91.5227 27.0528 91.7536 27.0652 91.9755 27.1218C92.1974 27.1785 92.4059 27.2783 92.5892 27.4156C92.7725 27.5528 92.927 27.7249 93.0438 27.9218C93.1606 28.1188 93.2375 28.3368 93.2701 28.5635C93.3026 28.7902 93.2902 29.021 93.2335 29.2429C93.1769 29.4648 93.0771 29.6733 92.9398 29.8566ZM109.448 31.8091C109.396 31.8478 109.341 31.8835 109.284 31.9158C107.64 33.0989 105.666 33.7354 103.641 33.7354C101.615 33.7354 99.6414 33.0989 97.9976 31.9158C97.9434 31.883 97.8908 31.8485 97.8333 31.8091C96.6527 30.9213 95.6892 29.777 95.0154 28.4624C94.7339 27.9079 94.5073 27.3271 94.3389 26.7283L94.329 26.6971C94.3126 26.6397 94.2978 26.5822 94.2831 26.5247L94.2535 26.4147L94.2239 26.2915C94.2092 26.2308 94.196 26.1684 94.1829 26.1076L94.1681 26.0436C94.1303 25.8629 94.0991 25.6823 94.0712 25.4984C94.0712 25.4984 94.0712 25.4853 94.0712 25.4787C94.0597 25.3966 94.0482 25.3145 94.0384 25.234C94.0384 25.211 94.0384 25.1897 94.0384 25.1683C94.0384 25.1026 94.0236 25.0353 94.017 24.968C94.017 24.9401 94.017 24.9105 94.0088 24.8826C94.0088 24.8235 94.0088 24.7627 93.9957 24.7036C93.9957 24.6708 93.9957 24.6379 93.9957 24.6034C93.9957 24.5689 93.9957 24.4901 93.9957 24.4392V24.339C93.9957 24.2619 93.9957 24.1847 93.9957 24.1075V24.0714V24.0385C93.9957 23.9614 93.9957 23.8842 93.9957 23.807V23.7052C93.9957 23.6477 93.9957 23.5919 93.9957 23.541C93.9957 23.5081 93.9957 23.4753 93.9957 23.4408C93.9957 23.4063 93.9957 23.3226 94.0088 23.2634C94.0088 23.2339 94.0088 23.206 94.017 23.1764C94.017 23.1091 94.0302 23.0434 94.0384 22.9761C94.0384 22.9547 94.0384 22.9334 94.0384 22.912C94.0482 22.8299 94.0597 22.7478 94.0712 22.6674C94.0712 22.6674 94.0712 22.6542 94.0712 22.6476C94.0991 22.4637 94.1303 22.2815 94.1681 22.1025L94.1829 22.0368C94.196 21.976 94.2092 21.9153 94.2239 21.8545L94.2535 21.7313L94.2831 21.6197C94.2978 21.5622 94.3126 21.5064 94.329 21.4555L94.3389 21.4226C94.5055 20.8112 94.7321 20.2176 95.0154 19.6508C95.6906 18.3361 96.6552 17.1919 97.8366 16.3041C97.8895 16.2663 97.9443 16.2312 98.0008 16.199C99.6447 15.0159 101.619 14.3794 103.644 14.3794C105.669 14.3794 107.643 15.0159 109.287 16.199C109.344 16.2308 109.399 16.2659 109.451 16.3041C110.633 17.1919 111.598 18.3361 112.273 19.6508C112.556 20.2079 112.785 20.7915 112.956 21.3931L112.966 21.4259C112.982 21.4834 112.997 21.5392 113.012 21.5901L113.041 21.7018L113.071 21.8249C113.085 21.8857 113.099 21.9465 113.112 22.0072L113.127 22.0729C113.164 22.2519 113.195 22.4342 113.223 22.6181C113.223 22.6181 113.223 22.6312 113.223 22.6378C113.235 22.7183 113.246 22.802 113.256 22.8825C113.256 22.9038 113.256 22.9252 113.256 22.9465C113.256 23.0138 113.271 23.0795 113.278 23.1469C113.278 23.1764 113.278 23.2043 113.278 23.2339C113.278 23.293 113.286 23.3521 113.291 23.4112C113.296 23.4704 113.291 23.4786 113.291 23.5114C113.291 23.5689 113.291 23.6247 113.291 23.6756V23.7774C113.291 23.8546 113.291 23.9318 113.291 24.009V24.0418V24.1009C113.291 24.1781 113.291 24.2553 113.291 24.3325V24.4326C113.291 24.4901 113.291 24.5476 113.291 24.5969C113.291 24.6461 113.291 24.6642 113.291 24.697C113.291 24.7561 113.291 24.8169 113.278 24.876C113.278 24.9039 113.278 24.9335 113.278 24.9614C113.278 25.0287 113.264 25.0961 113.256 25.1618C113.256 25.1831 113.256 25.2044 113.256 25.2274C113.246 25.3079 113.235 25.3917 113.223 25.4721C113.223 25.4721 113.223 25.4853 113.223 25.4918C113.195 25.6757 113.164 25.8564 113.127 26.037L113.112 26.1011C113.099 26.1635 113.085 26.2242 113.071 26.285L113.041 26.4081L113.012 26.5182C112.997 26.5756 112.982 26.6331 112.966 26.6906C112.965 26.701 112.965 26.7114 112.966 26.7218C112.794 27.3234 112.565 27.9069 112.281 28.4641C111.603 29.7796 110.634 30.9235 109.448 31.8091ZM119.399 35.0753C119.535 35.0674 119.67 35.0882 119.796 35.1364C119.923 35.1845 120.038 35.2589 120.133 35.3546C120.229 35.4503 120.303 35.5651 120.352 35.6916C120.4 35.8181 120.421 35.9534 120.413 36.0885V36.7273C120.421 36.8624 120.4 36.9977 120.352 37.1241C120.303 37.2506 120.229 37.3655 120.133 37.4612C120.038 37.5569 119.923 37.6313 119.796 37.6794C119.67 37.7275 119.535 37.7484 119.399 37.7405H113.77C113.635 37.7481 113.5 37.7271 113.374 37.6789C113.248 37.6307 113.133 37.5563 113.037 37.4606C112.942 37.3649 112.868 37.2501 112.82 37.1237C112.772 36.9974 112.751 36.8623 112.759 36.7273V35.742C112.759 34.7108 113.108 33.911 113.797 33.3642C114.375 32.9309 115.013 32.582 115.69 32.328C116.66 31.9553 117.066 31.7254 117.234 31.5973C117.38 31.4965 117.5 31.361 117.582 31.2029C117.664 31.0448 117.705 30.8689 117.703 30.6908C117.708 30.5727 117.689 30.4549 117.646 30.3447C117.603 30.2345 117.538 30.1343 117.455 30.0504C117.362 29.9632 117.252 29.8957 117.132 29.852C117.012 29.8083 116.885 29.7892 116.757 29.7958C116.12 29.7958 115.724 30.0504 115.475 30.6169C115.225 31.1834 114.746 31.3969 114.2 31.2147H114.182L113.471 30.9503C113.337 30.9066 113.212 30.8359 113.106 30.7424C112.999 30.649 112.913 30.5347 112.852 30.4067C112.801 30.2869 112.774 30.1578 112.774 30.0274C112.774 29.897 112.801 29.7679 112.852 29.6481C113.527 28.0059 114.897 27.1422 116.813 27.1422C117.908 27.1422 118.818 27.4804 119.516 28.1488L119.526 28.157C119.856 28.4762 120.117 28.8592 120.294 29.2827C120.47 29.7062 120.559 30.1613 120.554 30.6202C120.554 31.7056 120.225 32.5727 119.601 33.1934C119.027 33.7583 118.028 34.315 116.55 34.898L116.522 34.9078C116.273 34.9916 116.21 35.0178 116.194 35.0228L116.168 35.0359L116.061 35.0802L119.399 35.0753Z" fill="#25333F"/>
<path d="M109.839 24.116C109.839 24.0733 109.839 24.0306 109.839 23.9879C109.84 23.9786 109.84 23.9693 109.839 23.96C109.753 22.377 109.064 20.887 107.913 19.7967C106.763 18.7063 105.238 18.0986 103.652 18.0986C102.067 18.0986 100.542 18.7063 99.391 19.7967C98.2402 20.887 97.5511 22.377 97.4655 23.96C97.4647 23.9693 97.4647 23.9786 97.4655 23.9879V24.116C97.4655 24.1554 97.4655 24.1948 97.4655 24.2342V24.3278C97.4655 24.3672 97.4655 24.4066 97.4655 24.4461V24.5741C97.4647 24.5834 97.4647 24.5928 97.4655 24.6021C97.5511 26.1851 98.2402 27.6751 99.391 28.7654C100.542 29.8557 102.067 30.4634 103.652 30.4634C105.238 30.4634 106.763 29.8557 107.913 28.7654C109.064 27.6751 109.753 26.1851 109.839 24.6021C109.84 24.5928 109.84 24.5834 109.839 24.5741C109.839 24.5314 109.839 24.4888 109.839 24.4461C109.839 24.4034 109.839 24.3672 109.839 24.3278C109.839 24.2884 109.839 24.2966 109.839 24.2802C109.839 24.2638 109.839 24.2506 109.839 24.2342C109.839 24.2178 109.841 24.1554 109.839 24.116Z" fill="#25333F"/>
</svg>
