<svg width="138" height="73" viewBox="0 0 138 73" fill="none" xmlns="http://www.w3.org/2000/svg">
<path d="M137.987 45.9935C137.987 38.7917 132.451 32.8597 125.31 32.0313C125.681 30.667 125.868 29.2595 125.867 27.8457C125.867 18.8538 118.41 11.5623 109.21 11.5623C106.357 11.5584 103.549 12.2773 101.049 13.6518C99.7069 10.0471 97.3991 6.88095 94.3782 4.49995C91.3572 2.11895 87.7395 0.614834 83.921 0.152212C80.1024 -0.31041 76.2302 0.286292 72.7281 1.87701C69.2259 3.46774 66.2288 5.99118 64.0648 9.17117C59.6218 7.43089 54.8896 6.5469 50.1179 6.56582C36.1295 6.56582 24.3442 13.8289 20.8755 23.6973H17.7325V23.8918C7.86849 24.2524 0 32.1865 0 41.9107C0 51.4075 7.50785 59.1776 17.0353 59.888C18.2688 62.1058 20.0279 63.987 22.158 65.3664C24.2882 66.7458 26.7245 67.5812 29.2529 67.7994C31.7813 68.0176 34.3246 67.6118 36.6596 66.6177C38.9946 65.6235 41.0499 64.0715 42.645 62.0977C45.422 65.3959 48.8979 68.035 52.8208 69.8239C56.7437 71.6128 61.0155 72.5067 65.3265 72.4408C69.6376 72.3749 73.88 71.3509 77.7464 69.4429C81.6128 67.5349 85.0064 64.7907 87.6812 61.4092C89.761 64.4779 92.5878 66.9666 95.8952 68.6408C99.2026 70.3151 102.882 71.1199 106.586 70.9793C110.29 70.8387 113.898 69.7574 117.069 67.8372C120.24 65.9171 122.87 63.2213 124.711 60.0038C132.138 59.4574 137.987 53.3965 137.987 45.9935Z" fill="white"/>
</svg>
