<svg width="106" height="67" viewBox="0 0 106 67" fill="none" xmlns="http://www.w3.org/2000/svg">
<path d="M89.3094 21.4591C88.7408 18.6137 87.5207 15.9386 85.7449 13.6438C83.9691 11.349 81.6857 9.49675 79.074 8.23239C76.4622 6.96803 73.5931 6.32592 70.6915 6.35643C67.79 6.38693 64.935 7.08921 62.3504 8.4082C59.0429 4.86026 54.8228 2.29087 50.1524 0.981404C45.482 -0.328065 40.5413 -0.327117 35.8714 0.984145C31.2015 2.29541 26.9824 4.86641 23.6763 8.41562C20.3701 11.9648 18.1044 16.3554 17.1271 21.1064C14.6426 21.2148 12.2079 21.8396 9.97807 22.9408C7.74828 24.0421 5.7723 25.5957 4.17601 27.5026C2.57972 29.4096 1.39813 31.6282 0.70649 34.0169C0.0148549 36.4057 -0.171654 38.9124 0.158844 41.3773C0.489343 43.8421 1.3296 46.2111 2.6261 48.3333C3.92259 50.4555 5.64689 52.2844 7.68916 53.7035C9.73142 55.1226 12.0469 56.1008 14.488 56.5758C16.9291 57.0507 19.4424 57.012 21.8678 56.4621C23.3495 58.2976 25.1793 59.8222 27.2521 60.9482C29.3249 62.0742 31.5998 62.7795 33.946 63.0236C36.2923 63.2676 38.6636 63.0456 40.9238 62.3702C43.1839 61.6948 45.2883 60.5794 47.1161 59.0881C48.9489 61.4246 51.2985 63.3043 53.9802 64.5797C56.6619 65.8552 59.6028 66.4915 62.5719 66.4389C65.541 66.3863 68.4575 65.646 71.0923 64.2764C73.7272 62.9067 76.0086 60.9449 77.7575 58.5449C80.3018 59.7833 83.0837 60.4574 85.9126 60.5211C88.7416 60.5848 91.5509 60.0366 94.1484 58.914C96.7458 57.7914 99.0702 56.1209 100.962 54.0169C102.854 51.9129 104.27 49.4249 105.111 46.7233C105.953 44.0216 106.201 41.1701 105.838 38.3637C105.475 35.5574 104.511 32.8625 103.01 30.4634C101.51 28.0643 99.5088 26.0177 97.1441 24.4637C94.7794 22.9096 92.1069 21.8847 89.3094 21.4591V21.4591Z" fill="white"/>
</svg>
