<svg width="119" height="69" viewBox="0 0 119 69" fill="none" xmlns="http://www.w3.org/2000/svg">
<path d="M119 52.8808C119 50.8857 118.607 48.9102 117.844 47.067C117.081 45.2237 115.962 43.5489 114.551 42.1381C113.141 40.7273 111.466 39.6082 109.623 38.8447C107.78 38.0812 105.804 37.6882 103.809 37.6882H103.524C104.429 34.1622 104.385 30.4596 103.395 26.9565C102.406 23.4533 100.507 20.2742 97.892 17.7422C95.2767 15.2102 92.0379 13.4154 88.5046 12.54C84.9712 11.6647 81.2691 11.74 77.7743 12.7582C75.4689 8.37728 71.8589 4.8212 67.4437 2.58207C63.0285 0.342941 58.0266 -0.468523 53.13 0.259973C48.2334 0.988469 43.6843 3.2209 40.1122 6.64835C36.5401 10.0758 34.1216 14.5288 33.1914 19.3911C30.792 19.6339 28.485 20.4444 26.4611 21.7558C24.4372 23.0672 22.7546 24.8416 21.5526 26.9323C21.2424 26.9187 20.9306 26.9102 20.6171 26.9102C15.1491 26.9102 9.90507 29.0824 6.03861 32.9489C2.17215 36.8153 0 42.0594 0 47.5274C0 52.9954 2.17215 58.2394 6.03861 62.1059C9.90507 65.9723 15.1491 68.1445 20.6171 68.1445H20.834H104.17V68.0665C108.135 67.9723 111.906 66.331 114.677 63.4934C117.448 60.6558 119 56.847 119 52.8808V52.8808Z" fill="white"/>
</svg>
