<svg width="22" height="20" viewBox="0 0 22 20" fill="none" xmlns="http://www.w3.org/2000/svg">
<g clip-path="url(#clip0_178_333)">
<path d="M11 -4.80825e-07C10.1318 -5.18776e-07 9.42857 0.675471 9.42857 1.50943L9.42857 14.8453L2.68322 8.36604C2.07036 7.77736 1.07643 7.77736 0.459642 8.36604C0.153214 8.66038 8.14553e-08 9.04528 6.44656e-08 9.43396C4.74759e-08 9.82264 0.153214 10.2075 0.459642 10.5019L9.88821 19.5585C9.96286 19.6302 10.0414 19.6906 10.1279 19.7472C10.1671 19.7736 10.2064 19.7887 10.2496 19.8113C10.3007 19.8377 10.3479 19.8679 10.3989 19.8868C10.45 19.9057 10.505 19.9208 10.56 19.9358C10.6032 19.9472 10.6464 19.966 10.6936 19.9736C10.8979 20.0113 11.1061 20.0113 11.3104 19.9736C11.3575 19.966 11.4007 19.9472 11.4439 19.9358C11.4989 19.9208 11.55 19.9094 11.605 19.8868C11.6561 19.8641 11.7071 19.8377 11.7543 19.8113C11.7936 19.7887 11.8368 19.7736 11.8761 19.7472C11.9625 19.6906 12.0411 19.6302 12.1157 19.5585L21.5404 10.5019C22.1532 9.91321 22.1532 8.95472 21.5404 8.36604C20.9275 7.77736 19.9336 7.77736 19.3168 8.36604L12.5714 14.8453L12.5714 1.50943C12.5714 0.675471 11.8682 -4.42874e-07 11 -4.80825e-07Z" fill="#333333"/>
</g>
<defs>
<clipPath id="clip0_178_333">
<rect width="20" height="22" fill="white" transform="translate(22) rotate(90)"/>
</clipPath>
</defs>
</svg>
