<svg width="330" height="237" viewBox="0 0 330 237" fill="none" xmlns="http://www.w3.org/2000/svg">
<g clip-path="url(#clip0_267_134)">
<path d="M49.9857 126.646L37.4753 155.027L126.606 202.789L145.379 160.217L49.9857 126.646Z" fill="#BE1931"/>
<path d="M189.13 54.0919H190.647L190.536 52.6033C190.032 53.065 189.562 53.5625 189.13 54.0919Z" fill="#BE1931"/>
<path d="M174.407 36.0613C182.464 36.7987 189.715 34.837 197.104 33.2092L196.881 30.3154H180.321C178.234 32.2354 175.799 33.9744 174.407 36.0613Z" fill="#BE1931"/>
<path d="M182.798 74.4181C185.582 77.2006 188.365 77.2006 191.148 77.2006C189.47 78.4111 188.094 79.9916 187.126 81.8196H213.037L206.734 0C200.332 10.4483 185.261 11.13 180.015 22.9418C186.973 18.768 195.323 20.1593 202.281 20.1593C199.497 27.1155 188.365 29.898 189.756 32.6805C195.323 43.8106 185.582 52.1581 186.973 61.8969C189.756 59.1144 193.931 60.5056 196.714 57.7231C192.539 66.0706 182.798 64.6794 177.232 71.6356H184.19C182.798 71.6356 182.798 73.0269 182.798 74.4181Z" fill="#BE1931"/>
<path d="M168.382 106.306C165.598 106.306 162.815 106.306 160.032 103.523C160.032 102.132 160.032 100.741 161.424 100.741H154.466C160.032 93.7843 169.773 95.1756 173.948 86.8281C171.165 89.6106 166.99 88.2193 164.207 91.0018C162.815 81.2631 172.556 72.9155 166.99 61.7855C165.598 59.003 176.731 56.2205 179.514 49.2642C172.556 49.2642 164.207 47.873 157.249 52.0467C162.481 40.2767 177.552 39.5255 183.967 29.105L183.689 27.0042H182.297C182.729 26.4784 183.193 25.9812 183.689 25.5156L182.729 12.9943C175.339 14.636 168.02 16.6115 160.032 15.8742C161.424 13.7873 163.859 12.0482 165.946 10.1283H151.404L143.653 110.925H164.276C165.269 109.088 166.674 107.507 168.382 106.306Z" fill="#BE1931"/>
<path d="M225.993 123.585L196.672 113.443L156.344 206.156L200.318 221.376L225.993 123.585Z" fill="#BE1931"/>
<path d="M78.6105 177.065L92.3176 184.411L108.697 147.292L94.0154 142.13L78.6105 177.065Z" fill="#E6E7E8"/>
<path d="M51.1824 162.373L64.8895 169.733L79.3203 136.983L64.6669 131.807L51.1824 162.373Z" fill="#E6E7E8"/>
<path d="M138.045 157.629L123.364 152.467L106.039 191.756L119.746 199.116L138.045 157.629Z" fill="#E6E7E8"/>
<path d="M131.63 52.8676C130.892 51.379 133.759 49.8764 137.001 47.7339H112.551L111.327 63.2324H133.077C133.772 59.713 133.262 56.0623 131.63 52.8676Z" fill="#E6E7E8"/>
<path d="M208.863 27.5468H195.128C191.885 29.6754 189.019 31.1779 189.756 32.6805C191.372 35.8811 191.862 39.5322 191.148 43.0453H210.129L208.863 27.5468Z" fill="#E6E7E8"/>
<path d="M189.13 54.0919H190.647L190.549 52.7007H190.41C189.951 53.1334 189.523 53.5984 189.13 54.0919Z" fill="#E6E7E8"/>
<path d="M183.898 29.105L183.689 27.0042H182.297C182.69 26.5141 183.113 26.0494 183.564 25.6129H150.208L149.025 41.1254H168.27C174.031 37.7586 180.307 34.9482 183.898 29.105Z" fill="#E6E7E8"/>
<path d="M190.8 56.1927C187.224 62.036 180.948 64.8463 175.172 68.2271H191.718L190.8 56.1927Z" fill="#E6E7E8"/>
<path d="M211.242 58.5579H196.213C191.816 65.9454 182.59 64.9298 177.218 71.6356H184.176C182.91 71.6356 182.784 72.8043 182.784 74.0703H212.411L211.242 58.5579Z" fill="#E6E7E8"/>
<path d="M126.064 91.8227H119.106C124.477 85.1168 133.703 86.1463 138.101 78.7588H137.53C134.747 80.4144 131.296 79.6353 128.847 82.0839C128.722 80.979 128.722 79.8636 128.847 78.7588H110.158L108.975 94.2574H124.686C124.686 92.9774 124.797 91.8227 126.064 91.8227Z" fill="#E6E7E8"/>
<path d="M146.116 51.6851C148.565 49.2365 152.086 50.0156 154.786 48.3461H146.116C145.984 49.4552 145.984 50.576 146.116 51.6851Z" fill="#E6E7E8"/>
<path d="M214.137 168.717L178.053 156.224L171.861 170.498L210.185 183.771L214.137 168.717Z" fill="#E6E7E8"/>
<path d="M199.205 165.197L158.613 151.146L152.406 165.406L195.253 180.251L199.205 165.197Z" fill="#E6E7E8"/>
<path d="M222.041 138.638L190.466 127.703L184.273 141.963L218.089 153.678L222.041 138.638Z" fill="#E6E7E8"/>
<path d="M309.21 74.2651C292.163 74.4459 275.116 72.4147 258.069 75.4198H263.635C260.852 79.5936 253.894 83.7673 258.069 89.3323C260.852 93.5061 267.81 93.5061 273.377 93.5061C270.593 94.8974 266.419 94.8974 263.635 99.0711C271.985 103.245 269.202 112.984 262.244 117.157C276.702 126.785 293.234 121.832 309.14 122.138C309.14 121.637 309.14 121.136 309.14 120.636L309.21 74.2651Z" fill="#A0041E"/>
<path d="M254.66 84.8665H135.624C133.745 88.2889 133.3 92.3653 136.862 94.16C139.645 94.16 142.429 96.9425 146.603 96.9425C146.234 96.9425 145.88 97.0891 145.619 97.35C145.358 97.6109 145.212 97.9648 145.212 98.3338C152.17 98.3338 159.128 99.725 166.085 99.725C163.302 102.508 159.128 101.116 157.736 105.29C160.519 105.29 161.911 106.681 164.694 106.681C163.511 112.636 156.219 112.469 154.953 112.246C183.661 145.636 228.804 147.306 270.065 155.932V100.282C270.039 96.2035 268.408 92.2995 265.525 89.4145C262.642 86.5295 258.739 84.8956 254.66 84.8665Z" fill="#A0041E"/>
<path d="M156.581 132.656C155.189 129.873 159.364 122.917 155.189 122.917C149.623 121.526 146.84 129.873 142.665 132.656C142.665 128.482 146.84 122.917 144.057 121.526C139.882 118.743 132.924 121.526 128.749 120.135C124.575 117.352 130.141 110.396 128.749 110.396C117.617 109.005 112.05 109.005 103.701 102.048C100.918 96.4834 109.267 90.9184 107.876 88.1359C105.092 83.9621 95.3513 85.3534 89.785 81.1796C91.1766 81.1796 92.5681 81.1796 91.1766 79.7884C88.3934 78.3971 87.0018 82.5709 84.2187 81.1796C91.1766 71.4409 103.701 68.6584 110.659 57.5283C95.3513 56.1371 70.3028 50.5721 84.2187 29.7033C81.4355 29.7033 78.6523 31.0945 77.2607 29.7033C74.4776 25.5295 80.0439 22.747 81.4355 18.5732C75.8692 18.5732 68.9112 19.9645 63.3449 17.182C63.272 17.1174 63.2189 17.0334 63.1918 16.9398C63.1647 16.8462 63.1647 16.7469 63.1918 16.6533C59.7785 17.4425 56.7331 19.3644 54.5523 22.1056C52.3714 24.8468 51.1836 28.2458 51.1825 31.7484V140.266C51.1751 142.306 51.5707 144.327 52.3465 146.214C53.1223 148.101 54.263 149.816 55.7032 151.261C57.1435 152.706 58.8549 153.853 60.7394 154.635C62.6238 155.418 64.6442 155.82 66.6847 155.82H165.696C162.611 147.809 160.032 139.612 157.973 131.279C157.973 132.656 157.973 134.047 156.581 132.656Z" fill="#A0041E"/>
<path d="M97.5222 223.992C89.1727 215.644 80.8232 208.688 83.6063 196.167C89.1727 211.471 107.263 200.341 119.787 203.123C119.787 197.558 119.787 190.602 118.396 185.037V189.21C110.881 171.681 139.437 171.055 153.339 162.985C147.145 158.731 141.532 153.69 136.64 147.988C136.431 147.988 136.389 147.988 136.64 147.988C136.89 147.988 136.64 147.988 136.64 147.988C137.836 148.169 145.142 148.335 146.381 142.423C143.597 142.423 142.206 141.031 139.423 141.031C140.814 136.858 144.989 138.249 147.772 135.466C140.814 135.466 133.856 134.075 126.898 134.075C126.898 133.706 127.045 133.352 127.306 133.091C127.567 132.83 127.921 132.684 128.29 132.684C124.115 132.684 121.332 129.901 118.549 129.901C114.987 128.121 115.432 124.044 117.31 120.622H3.52073C2.33537 120.631 1.15463 120.771 2.56486e-05 121.039C-0.0288781 121.133 -0.0297848 121.232 -0.00258275 121.326C0.0246193 121.42 0.0787398 121.504 0.1531 121.568C5.71943 124.35 12.6773 122.959 18.2437 122.959C16.8521 127.133 11.2858 129.915 14.0689 134.089C15.4605 135.48 18.2437 134.089 21.0268 134.089C7.11101 154.958 32.1595 160.523 47.4669 161.914C40.509 173.044 27.9848 175.827 21.0268 185.565C23.81 186.957 25.2016 182.783 27.9848 184.174C29.3763 185.565 27.9848 185.565 26.5932 185.565C32.1595 189.739 41.9006 188.348 44.6838 192.522C46.0753 195.304 37.7258 200.869 40.509 206.434C48.8585 213.39 54.4248 213.39 65.5575 214.782C66.9491 214.782 61.3828 221.738 65.5575 224.521C69.7322 225.912 76.6902 223.129 80.8649 225.912C83.6481 227.303 79.4733 232.868 79.4733 237.042C83.6481 234.259 86.4312 225.912 91.9976 227.303C94.6833 227.303 93.918 230.169 93.3892 232.951C97.4108 229.932 99.8322 226.343 97.5222 223.992Z" fill="#A0041E"/>
<path d="M330 118.507V111.926C296.059 104.831 259.502 102.452 231.615 83.2247C217.699 91.294 189.158 91.9201 196.672 109.464V105.29C198.064 110.855 198.064 117.811 198.064 123.376C185.54 120.594 167.449 131.724 161.883 116.42C159.1 128.941 167.449 135.898 175.799 144.245C178.109 146.555 175.715 150.144 171.707 153.135C171.308 154.469 171.308 155.891 171.707 157.225C173.099 158.617 173.099 157.225 173.099 155.834C175.158 164.168 177.738 172.365 180.822 180.376H314.498C318.352 180.376 322.068 178.942 324.921 176.351C327.774 173.761 329.56 170.201 329.93 166.366C314.025 166.074 297.493 171.027 283.034 161.399C289.992 157.225 292.775 147.487 284.426 143.313C287.209 139.139 291.384 139.139 294.167 137.748C288.6 137.748 281.643 137.748 278.859 133.574C274.685 128.009 281.643 123.835 284.426 119.662H278.859C295.892 116.657 312.939 118.688 330 118.507Z" fill="#A0041E"/>
<path d="M82.9523 31.7484H51.1824V47.3026H82.3957C79.5429 43.5184 79.0976 38.496 82.9523 31.7484Z" fill="#C1694F"/>
<path d="M182.297 154.429C179.514 154.429 178.123 153.038 175.339 153.038C176.606 149.24 180.168 150.033 182.896 148.127H55.8443C51.9896 154.874 52.4349 159.897 55.2876 163.639H175.924C174.811 162.48 173.725 161.283 172.668 160.05C172.459 160.05 172.417 160.05 172.668 160.05C173.864 160.147 181.156 160.314 182.297 154.429Z" fill="#C1694F"/>
<path d="M142.373 101.089C139.59 102.995 136.083 102.202 134.817 106C137.6 106 138.991 107.391 141.775 107.391C140.592 113.345 133.286 113.178 132.033 112.956C133.1 114.189 134.186 115.386 135.29 116.545H247.145V101.089H142.373Z" fill="#C1694F"/>
<path d="M82.7853 153.942H51.7669V184.953H82.7853V153.942Z" fill="#A7A9AC"/>
<path d="M106.47 62.7594H89.952V75.2807C95.1982 70.9539 101.446 67.8096 106.47 62.7594Z" fill="#A7A9AC"/>
<path d="M76.2588 48.207C75.8813 48.0106 75.4595 47.9147 75.0342 47.9287V49.5982C76.3562 49.5843 77.5947 49.5426 76.2588 48.207Z" fill="#A7A9AC"/>
<path d="M86.8765 118.131H72.3623C67.3387 123.182 61.1044 126.34 55.8582 130.653V134.952C56.2835 134.938 56.7052 135.033 57.0827 135.23C58.4743 136.621 57.1802 136.621 55.8582 136.621V136.732C61.4245 140.753 71.0264 139.515 73.7817 143.577C74.4497 144.969 72.8633 146.902 71.3465 149.226H86.8765V118.131Z" fill="#A7A9AC"/>
<path d="M119.676 176.3C116.893 172.126 107.347 173.517 101.753 169.455V181.976H117.283C118.799 179.625 120.386 177.635 119.676 176.3Z" fill="#A7A9AC"/>
<path d="M96.2836 183.242C97.6752 170.721 93.5005 170.721 82.3678 165.156C80.6144 164.279 82.173 161.747 83.5785 158.951H78.8889V189.962H106.47C104.216 186.205 101.363 183.242 96.2836 183.242Z" fill="#A7A9AC"/>
<path d="M142.568 175.701H116.211C114.82 178.484 113.261 181.03 115.014 181.906C126.147 187.471 130.322 187.471 128.93 199.993C134.009 199.993 136.848 202.956 139.103 206.712H142.568V175.701Z" fill="#A7A9AC"/>
<path d="M221.067 172.71V203.735H252.099V172.849L251.125 172.71H221.067Z" fill="#A7A9AC"/>
<path d="M105.092 77.7015L106.053 77.8407V77.7015H105.092Z" fill="#A7A9AC"/>
<path d="M165.598 167.451C164.199 165.013 163.748 162.145 164.332 159.396L163.344 158.951C161.284 163.208 158.682 167.521 154.772 168.369L146.923 185.538L175.131 198.448L187.474 171.486C185.664 173.302 183.646 174.899 181.462 176.244C180.572 168.175 172.876 161.594 165.598 167.451Z" fill="#A7A9AC"/>
<path d="M261.172 81.5692V77.7015H249.093C251.431 80.9014 256.441 81.4718 261.172 81.5692Z" fill="#A7A9AC"/>
<path d="M285.052 152.634C282.307 153.242 279.883 154.842 278.247 157.128C286.597 161.302 283.813 171.041 276.855 175.214C278.988 176.638 281.282 177.806 283.688 178.693H285.08L285.052 152.634Z" fill="#A7A9AC"/>
<path d="M261.172 62.1195L260.059 62.203H261.172V62.1195Z" fill="#A7A9AC"/>
<path d="M261.172 48.6939C250.675 46.8051 240.314 44.2304 230.154 40.9863V62.2725H260.059L261.172 62.189V48.6939Z" fill="#A7A9AC"/>
<path d="M279.193 51.8799H248.161V61.6187C258.325 64.8674 268.692 67.4467 279.193 69.3401V51.8799Z" fill="#A7A9AC"/>
<path d="M11.3693 118.09C9.71372 121.855 9.62061 126.124 11.1104 129.959C12.6002 133.793 15.5511 136.88 19.3152 138.541C22.4264 139.903 25.9022 140.192 29.1955 139.362C29.4315 140.546 29.9458 141.656 30.6959 142.602C31.4459 143.548 32.4103 144.302 33.5094 144.802C35.3916 145.63 37.5259 145.677 39.4428 144.932C41.3596 144.187 42.902 142.711 43.7305 140.83C44.5591 138.948 44.606 136.814 43.8609 134.898C43.1159 132.981 41.6398 131.439 39.7576 130.611C41.3406 126.86 41.3857 122.638 39.883 118.855C38.3803 115.071 35.4504 112.03 31.7251 110.387C27.9999 108.744 23.7778 108.631 19.9698 110.072C16.1617 111.513 13.0728 114.392 11.3693 118.09Z" fill="#D1D3D4"/>
<path d="M22.4045 102.953H18.2298C15.6692 88.8594 34.3304 92.4488 42.7355 84.4213C42.6391 83.6299 42.4762 82.848 42.2485 82.084H32.1456C34.7061 79.524 34.9288 76.9641 37.1135 74.4042C34.1739 71.9999 30.4518 70.7614 26.6573 70.9252C22.8628 71.0889 19.2613 72.6433 16.5397 75.2919C13.8182 77.9406 12.1671 81.4981 11.9013 85.286C11.6355 89.0738 12.7737 92.827 15.0987 95.8295C14.1128 96.5265 13.3061 97.4472 12.7449 98.5161C12.1838 99.5851 11.884 100.772 11.8702 101.979C11.8722 103.868 12.563 105.691 13.813 107.107C15.0631 108.524 16.7868 109.436 18.6611 109.673C20.7068 107.78 22.4045 105.735 22.4045 102.953Z" fill="#D1D3D4"/>
<path d="M163.595 73.1939C162.704 70.1713 160.913 67.4921 158.46 65.5142C156.275 68.0741 156.052 70.634 153.478 73.1939H163.595Z" fill="#D1D3D4"/>
<path d="M130.892 109.297C135.005 109.293 138.948 107.657 141.855 104.748C144.762 101.84 146.395 97.8962 146.395 93.7844C146.393 93.0999 146.342 92.4164 146.241 91.7393C137.892 99.7807 119.175 96.1774 121.736 110.271H125.91C125.91 113.053 124.213 115.084 122.167 116.977C122.487 116.997 122.808 116.997 123.127 116.977C125.172 116.977 127.135 116.17 128.589 114.732C130.043 113.295 130.87 111.341 130.892 109.297Z" fill="#D1D3D4"/>
<path d="M206.539 108.643C205.865 110.595 205.995 112.734 206.899 114.591C207.803 116.447 209.408 117.868 211.361 118.542C213.313 119.215 215.453 119.086 217.31 118.181C219.167 117.277 220.588 115.673 221.262 113.721C224.161 114.727 227.295 114.851 230.265 114.077C233.235 113.303 235.909 111.666 237.948 109.372C239.987 107.078 241.3 104.232 241.72 101.192C242.141 98.1521 241.65 95.0559 240.31 92.295C238.97 89.5341 236.842 87.2326 234.193 85.6815C231.545 84.1304 228.495 83.3995 225.431 83.5813C222.367 83.7631 219.426 84.8494 216.98 86.7027C214.533 88.556 212.692 91.0931 211.688 93.9931C210.586 97.2079 210.586 100.698 211.688 103.913C210.513 104.231 209.433 104.827 208.537 105.65C207.641 106.474 206.955 107.5 206.539 108.643Z" fill="#D1D3D4"/>
</g>
<defs>
<clipPath id="clip0_267_134">
<rect width="330" height="237" fill="white"/>
</clipPath>
</defs>
</svg>
