<svg width="279" height="322" viewBox="0 0 279 322" fill="none" xmlns="http://www.w3.org/2000/svg">
<path d="M59.8103 40.1934H27.7057L19.6867 144.497H67.8292L59.8103 40.1934Z" fill="#BE1931"/>
<path d="M106.24 79.9716L107.564 79.1654L106.672 77.9128C106.475 78.587 106.331 79.2753 106.24 79.9716Z" fill="#BE1931"/>
<path d="M109.738 130.533C116.836 126.084 121.616 119.894 126.64 113.962L124.639 111.716L111.02 122.096C110.501 124.976 109.58 127.941 109.738 130.533Z" fill="#BE1931"/>
<path d="M164.676 202.703C168.707 203.25 170.996 201.508 173.314 199.824C172.694 201.876 172.551 204.043 172.897 206.158L194.233 189.919L137.74 126.444C139.021 139.056 127.058 149.09 130.124 162.061C133.234 154.273 140.979 150.184 146.709 145.822C148.782 153.294 141.354 162.565 144.247 163.976C155.765 169.735 153.015 182.692 160.257 189.789C160.804 185.744 165.123 184.276 165.67 180.244C167.455 189.732 158.572 194.641 158.342 203.898L164.1 199.579C162.934 200.414 163.798 201.624 164.676 202.703Z" fill="#BE1931"/>
<path d="M136.286 157.671C133.824 159.11 131.362 160.651 127.403 159.672C126.654 158.434 125.963 157.21 127.144 156.461L120.924 160.176C122.148 151.034 131.52 147.075 130.757 137.443C129.778 141.388 125.33 142.396 124.351 146.341C117.916 138.451 122.091 125.854 111.207 118.987C108.486 117.259 116.865 108.909 115.612 101.193C109.45 104.907 101.302 108.146 97.3715 115.589C95.7735 102.287 108.745 93.6487 108.846 80.9364L107.564 79.1656L106.24 79.9718C106.331 79.2756 106.475 78.5873 106.672 77.9131L99.1423 67.3459C93.5708 72.7015 88.1 78.345 80.6138 82.0018C80.7433 79.4104 81.967 76.5598 82.802 73.7381L69.9746 81.4835L116.98 174.947L135.249 163.933C135.108 161.794 135.463 159.651 136.286 157.671Z" fill="#BE1931"/>
<path d="M242.85 115.329L212.531 104.834L170.809 200.774L216.303 216.538L242.85 115.329Z" fill="#BE1931"/>
<path d="M24.0061 88.3357L22.768 104.388H64.7775L63.5394 88.3357H24.0061Z" fill="#E6E7E8"/>
<path d="M26.4678 56.2166L25.2441 72.2688H62.2724L61.0343 56.2166H26.4678Z" fill="#E6E7E8"/>
<path d="M67.2101 136.478L65.972 120.426H21.5871L20.349 136.478H67.2101Z" fill="#E6E7E8"/>
<path d="M111.264 118.972C109.824 118.037 111.537 115.186 113.265 111.558L91.6699 124.616L98.8683 139.013L118.045 127.394C116.795 123.905 114.406 120.938 111.264 118.972Z" fill="#E6E7E8"/>
<path d="M156.743 147.78L145.442 156.418C144.117 160.218 142.692 163.242 144.247 164.005C147.593 165.616 150.297 168.309 151.92 171.649L167.454 159.873L156.743 147.78Z" fill="#E6E7E8"/>
<path d="M106.24 79.9716L107.564 79.1654L106.744 77.9993H106.628C106.451 78.6465 106.322 79.3056 106.24 79.9716Z" fill="#E6E7E8"/>
<path d="M108.846 80.936L107.564 79.1652L106.24 79.9714C106.325 79.3297 106.455 78.6947 106.628 78.071L77.1441 95.8509L84.3424 110.248L101.403 99.9684C104.728 93.8786 108.788 88.0335 108.846 80.936Z" fill="#E6E7E8"/>
<path d="M137.74 126.444C138.459 133.484 135.047 139.732 132.427 146.139L146.047 135.773L137.74 126.444Z" fill="#E6E7E8"/>
<path d="M178.151 171.836L165.784 181.237C166.807 190.077 158.586 195.015 158.341 203.898L164.1 199.579C163.049 200.371 163.697 201.407 164.489 202.458L188.877 183.901L178.151 171.836Z" fill="#E6E7E8"/>
<path d="M118.232 133.959H111.034C116.591 127.02 126.136 128.085 130.685 120.426H130.081C127.288 122.154 123.645 121.347 121.111 123.881C120.982 122.733 120.982 121.574 121.111 120.426H101.777L100.539 136.478H116.792C116.807 135.168 116.922 133.959 118.232 133.959Z" fill="#E6E7E8"/>
<path d="M121.112 123.881C123.646 121.347 127.288 122.154 130.081 120.426H121.04C120.934 121.577 120.959 122.736 121.112 123.881Z" fill="#E6E7E8"/>
<path d="M230.613 162.047L193.268 149.119L186.861 163.875L226.51 177.61L230.613 162.047Z" fill="#E6E7E8"/>
<path d="M215.15 158.405L173.155 143.864L166.734 158.621L211.062 173.968L215.15 158.405Z" fill="#E6E7E8"/>
<path d="M238.775 130.907L206.109 119.591L199.703 134.362L234.687 146.469L238.775 130.907Z" fill="#E6E7E8"/>
<path d="M269.988 237.226C252.352 237.414 234.716 235.312 217.08 238.421H222.838C219.959 242.74 212.761 247.059 217.08 252.818C219.959 257.137 227.157 257.137 232.916 257.137C230.037 258.577 225.718 258.577 222.838 262.896C231.476 267.215 228.597 277.292 221.399 281.611C236.343 291.574 253.446 286.463 269.901 286.765C269.959 286.249 269.988 285.73 269.988 285.211V237.226Z" fill="#A0041E"/>
<path d="M262.991 165.92H139.9C137.956 169.461 137.495 173.679 141.195 175.537C144.075 175.537 146.954 178.416 151.273 178.416C150.891 178.416 150.525 178.568 150.255 178.838C149.985 179.108 149.833 179.474 149.833 179.856C157.032 179.856 164.23 181.295 171.428 181.295C168.549 184.175 164.23 182.735 162.79 187.054C165.67 187.054 167.109 188.494 169.989 188.494C168.751 194.655 161.207 194.483 159.911 194.252C189.626 228.804 236.314 230.532 279 239.458V181.871C278.974 177.639 277.277 173.588 274.279 170.601C271.28 167.613 267.224 165.931 262.991 165.92Z" fill="#A0041E"/>
<path d="M112.085 297.649C110.645 294.77 114.964 287.572 110.645 287.572C104.887 286.132 102.007 294.77 97.6884 297.649C97.6884 293.33 102.007 287.572 99.1281 286.132C94.8091 283.253 87.6107 286.132 83.2917 284.692C78.9727 281.813 84.7314 274.615 83.2917 274.615C71.7744 273.175 66.0157 273.175 57.3777 265.977C54.4984 260.218 63.1364 254.459 61.6967 251.58C58.8174 247.261 48.7397 248.701 42.9811 244.382C44.4207 244.382 45.8604 244.382 44.4207 242.942C41.5414 241.502 40.1017 245.821 37.2224 244.382C44.4207 234.304 57.3777 231.425 64.5761 219.907C48.7397 218.468 22.8257 212.709 37.2224 191.114C34.343 191.114 31.4637 192.554 30.024 191.114C27.1447 186.795 32.9034 183.916 34.343 179.597C28.5844 179.597 21.386 181.036 15.6274 178.157C15.5463 178.094 15.4864 178.008 15.4555 177.91C15.4247 177.813 15.4243 177.708 15.4546 177.61C11.9233 178.427 8.77274 180.415 6.51651 183.252C4.26028 186.089 3.03143 189.606 3.03027 193.23V305.524C3.03027 309.782 4.72149 313.865 7.73188 316.875C10.7423 319.885 14.8252 321.577 19.0826 321.577H121.515C118.319 313.283 115.651 304.796 113.525 296.166C113.525 297.649 113.525 299.089 112.085 297.649Z" fill="#A0041E"/>
<path d="M260.399 224.903V218.093C217.713 209.167 171.025 207.483 141.324 172.888C141.109 172.888 141.065 172.888 141.324 172.888C142.563 173.061 150.121 173.233 151.402 167.129C148.523 167.129 147.083 165.689 144.204 165.689C145.643 161.37 149.962 162.81 152.842 159.931C145.643 159.931 138.445 158.491 131.247 158.491C131.247 158.109 131.398 157.743 131.668 157.473C131.938 157.203 132.305 157.051 132.686 157.051C128.367 157.051 125.488 154.172 122.609 154.172C118.923 152.329 119.384 148.111 121.327 144.555H3.63464C2.41753 144.56 1.205 144.705 0.0210785 144.987C-0.00700167 145.084 -0.00702662 145.187 0.0210065 145.284C0.0490396 145.38 0.10398 145.467 0.179442 145.534C5.93811 148.413 13.1365 146.974 18.8951 146.974C17.4555 151.293 11.6968 154.172 14.5761 158.491C16.0158 159.931 18.8951 158.491 21.7745 158.491C7.37778 180.086 33.2918 185.845 49.1281 187.285C41.9298 198.802 28.9728 201.681 21.7745 211.759C24.6538 213.199 26.0935 208.88 28.9728 210.319C30.4125 211.759 28.9728 211.759 27.5331 211.759C33.2918 216.078 43.3695 214.638 46.2488 218.957C47.6885 221.837 39.0505 227.595 41.9298 233.354C50.5678 240.552 56.3265 240.552 67.8438 241.992C69.2835 241.992 63.5248 249.19 67.8438 252.07C72.1628 253.509 79.3612 250.63 83.6802 253.509C86.5595 254.949 82.2405 260.708 82.2405 265.027C86.5595 262.147 89.4388 253.509 95.1975 254.949C99.5165 254.949 95.1975 262.147 96.6372 265.027C98.0768 266.466 98.0768 265.027 98.0768 263.587C100.209 272.215 102.878 280.701 106.067 288.997H244.361C248.348 288.994 252.19 287.509 255.142 284.829C258.093 282.149 259.941 278.467 260.327 274.5C243.872 274.197 226.769 279.308 211.811 269.346C219.009 265.027 221.888 254.949 213.25 250.63C216.13 246.311 220.449 246.311 223.328 244.871C217.569 244.871 210.371 244.871 207.492 240.552C203.173 234.794 210.371 230.475 213.25 226.156H207.492C225.128 222.988 242.763 225.09 260.399 224.903Z" fill="#A0041E"/>
<path d="M35.9843 193.23H3.03027V209.283H35.3364C32.3851 205.41 31.9244 200.184 35.9843 193.23Z" fill="#C1694F"/>
<path d="M151.344 167.071C148.465 167.071 147.025 165.632 144.146 165.632C145.456 161.701 149.142 162.522 151.964 160.55H20.4643C16.4764 167.532 16.9371 172.729 19.8884 176.602H144.693C143.556 175.407 142.419 174.169 141.324 172.888C141.108 172.888 141.065 172.888 141.324 172.888C142.519 173.06 150.121 173.233 151.344 167.071Z" fill="#C1694F"/>
<path d="M170.593 181.972C167.714 183.944 164.1 183.123 162.79 187.054C165.669 187.054 167.109 188.493 169.988 188.493C168.75 194.655 161.206 194.482 159.911 194.252C161.019 195.533 162.142 196.771 163.294 197.952H279V181.972H170.593Z" fill="#C1694F"/>
<path d="M140.043 288.939H107.953V321.03H140.043V288.939Z" fill="#A7A9AC"/>
<path d="M60.2279 225.335H43.1822V238.292C48.5809 233.814 55.0307 230.561 60.2279 225.335Z" fill="#A7A9AC"/>
<path d="M28.9728 210.261C28.5834 210.055 28.1462 209.956 27.7059 209.973V211.701C29.088 211.701 30.3549 211.701 28.9728 210.261Z" fill="#A7A9AC"/>
<path d="M59.8105 192.654H44.7947C39.5831 197.88 33.1334 201.134 27.7059 205.611V210.031C28.1462 210.013 28.5834 210.112 28.9728 210.319C30.4124 211.758 29.088 211.758 27.7059 211.758V211.874C33.4645 216.034 43.3983 214.681 46.2488 218.957C46.9398 220.396 45.2986 222.398 43.7294 224.802H59.8105V192.654Z" fill="#A7A9AC"/>
<path d="M61.6963 251.58C58.817 247.261 48.9265 248.701 43.1534 244.497V257.454H59.1769C60.7461 255.021 62.3874 252.962 61.6963 251.58Z" fill="#A7A9AC"/>
<path d="M140.043 240.797H107.953V272.887H140.043V240.797Z" fill="#A7A9AC"/>
<path d="M43.1822 273.478V305.568H75.2436V273.607L74.2502 273.463L43.1822 273.478Z" fill="#A7A9AC"/>
<path d="M58.8026 240.797L59.8104 240.941V240.797H58.8026Z" fill="#A7A9AC"/>
<path d="M213.25 250.572C214.936 248.199 217.446 246.541 220.29 245.922V244.813C215.395 244.712 210.213 244.122 207.722 240.825H188.186V272.887H218.822C216.332 271.969 213.96 270.761 211.753 269.287C219.009 264.968 221.888 254.891 213.25 250.572Z" fill="#A7A9AC"/>
<path d="M220.261 244.813V240.825H207.693C210.184 244.093 215.395 244.684 220.261 244.813Z" fill="#A7A9AC"/>
<path d="M220.261 245.922C217.418 246.541 214.907 248.199 213.221 250.572C221.859 254.891 218.98 264.968 211.782 269.287C213.988 270.761 216.361 271.969 218.851 272.887H220.29L220.261 245.922Z" fill="#A7A9AC"/>
<path d="M220.261 224.658L219.095 224.744H220.261V224.658Z" fill="#A7A9AC"/>
<path d="M220.261 210.693C209.397 208.741 198.672 206.076 188.157 202.718V224.744H219.095L220.261 224.658V210.693Z" fill="#A7A9AC"/>
<path d="M238.977 214.062H206.83V224.14C217.359 227.499 228.098 230.163 238.977 232.115V214.062Z" fill="#A7A9AC"/>
<path d="M51.8205 0.0696988C48.828 0.0591693 45.8926 0.889108 43.3487 2.46502C40.8048 4.04093 38.7544 6.29949 37.4312 8.98353C36.1079 11.6676 35.5649 14.6692 35.8639 17.6468C36.1629 20.6243 37.292 23.4581 39.1226 25.8254C38.1023 26.5396 37.2671 27.4868 36.6862 28.5885C36.1053 29.6902 35.7955 30.9145 35.7826 32.1599C35.7826 34.2867 36.6274 36.3263 38.1313 37.8301C39.6351 39.334 41.6748 40.1788 43.8015 40.1788C45.9283 40.1788 47.9679 39.334 49.4718 37.8301C50.9756 36.3263 51.8205 34.2867 51.8205 32.1599C53.968 32.2242 56.1065 31.8568 58.1094 31.0794C60.1123 30.302 61.9388 29.1305 63.4806 27.6342C65.0224 26.1379 66.2481 24.3473 67.0851 22.3686C67.9221 20.3899 68.3534 18.2633 68.3534 16.1148C68.3534 13.9663 67.9221 11.8397 67.0851 9.86098C66.2481 7.88226 65.0224 6.0917 63.4806 4.59542C61.9388 3.09914 60.1123 1.92758 58.1094 1.15018C56.1065 0.372783 53.968 0.00536422 51.8205 0.0696988Z" fill="#D1D3D4"/>
<path d="M126.87 33.1823H122.551C119.902 18.5985 139.222 22.3128 147.918 14.0059C147.811 13.1882 147.643 12.3796 147.414 11.5873H136.948C139.597 8.93828 139.827 6.28929 142.102 3.64031C139.061 1.13976 135.204 -0.151348 131.271 0.0141481C127.337 0.179644 123.603 1.79012 120.782 4.53726C117.962 7.2844 116.254 10.9752 115.986 14.9031C115.717 18.831 116.906 22.72 119.326 25.8256C118.304 26.5391 117.467 27.4858 116.883 28.5874C116.3 29.689 115.987 30.9137 115.972 32.1601C115.974 34.1147 116.688 36.0015 117.982 37.467C119.275 38.9325 121.058 39.8763 122.997 40.1215C125.114 38.1635 126.87 36.0616 126.87 33.1823Z" fill="#D1D3D4"/>
<path d="M147.415 11.5876C146.494 8.4598 144.64 5.68742 142.102 3.64062C139.842 6.28961 139.64 8.9386 136.948 11.5876H147.415Z" fill="#D1D3D4"/>
<path d="M110.674 69.951C114.315 67.7502 116.933 64.194 117.953 60.0638C118.974 55.9336 118.313 51.5673 116.116 47.9241C115.754 47.3168 115.345 46.7391 114.892 46.1965C111.739 57.8003 93.2971 64.5955 103.087 75.7097L106.787 73.4926C108.226 75.9257 107.852 78.6754 107.046 81.4396C107.356 81.312 107.655 81.1579 107.939 80.9789C108.842 80.4345 109.63 79.7174 110.257 78.8685C110.883 78.0196 111.336 77.0556 111.591 76.0316C111.845 75.0075 111.894 73.9434 111.737 72.9001C111.58 71.8568 111.219 70.8547 110.674 69.951Z" fill="#D1D3D4"/>
<path d="M222.738 99.8821C222.037 101.892 222.164 104.099 223.09 106.016C224.016 107.933 225.665 109.403 227.676 110.104C229.686 110.804 231.892 110.678 233.809 109.752C235.726 108.826 237.197 107.176 237.897 105.166C240.894 106.203 244.132 106.329 247.2 105.527C250.268 104.724 253.03 103.031 255.136 100.659C257.242 98.2879 258.597 95.3454 259.031 92.2038C259.465 89.0622 258.957 85.8625 257.573 83.0092C256.188 80.1559 253.989 77.777 251.253 76.1735C248.517 74.5699 245.367 73.8135 242.201 73.9999C239.035 74.1864 235.995 75.3073 233.466 77.2209C230.937 79.1346 229.032 81.7551 227.992 84.7511C226.853 88.0779 226.853 91.6893 227.992 95.016C226.795 95.355 225.694 95.9727 224.781 96.8184C223.868 97.6641 223.168 98.7139 222.738 99.8821Z" fill="#D1D3D4"/>
</svg>
