<svg width="279" height="322" viewBox="0 0 279 322" fill="none" xmlns="http://www.w3.org/2000/svg">
<path d="M59.8103 40.1934H27.7057L19.6868 144.497H67.8293L59.8103 40.1934Z" fill="#BE1931"/>
<path d="M139.827 57.6565H141.382L141.267 56.1161C140.754 56.5979 140.273 57.1125 139.827 57.6565Z" fill="#BE1931"/>
<path d="M116.793 46.1392C125.143 46.9022 132.629 44.8579 140.274 43.1879L140.043 40.1934H122.926C120.766 42.1801 118.232 43.9797 116.793 46.1392Z" fill="#BE1931"/>
<path d="M116.793 136.838C119.672 139.718 122.551 139.718 125.431 139.718C123.698 140.974 122.275 142.608 121.27 144.497H148.062L141.555 59.8306C134.932 70.6569 119.326 71.3479 113.913 83.5707C121.112 79.2517 129.75 80.6914 136.948 80.6914C134.069 87.8897 122.551 90.769 123.991 93.6484C129.75 105.166 119.672 113.804 121.112 123.881C123.991 121.002 128.31 122.442 131.189 119.562C126.87 128.2 116.793 126.761 111.034 133.959H118.232C116.793 133.959 116.793 135.399 116.793 136.838Z" fill="#BE1931"/>
<path d="M125.43 139.718C122.551 139.718 119.672 139.718 116.792 136.838C116.792 135.399 116.792 133.959 118.232 133.959H111.034C116.792 126.761 126.87 128.2 131.189 119.562C128.31 122.442 123.991 121.002 121.111 123.881C119.672 113.804 129.749 105.166 123.991 93.6482C122.551 90.7689 134.068 87.8895 136.948 80.6912C129.749 80.6912 121.111 79.2515 113.913 83.5705C119.326 71.391 134.932 70.6135 141.555 59.8304L141.382 57.6565H139.827C140.273 57.1125 140.754 56.5979 141.267 56.1161L140.273 43.1591C132.686 44.8579 125.142 46.9022 116.792 46.1392C118.232 43.9797 120.766 42.1801 122.925 40.1934H107.967L99.9338 144.497H121.27C122.275 142.608 123.698 140.974 125.43 139.718Z" fill="#BE1931"/>
<path d="M242.85 115.33L212.53 104.834L170.809 200.774L216.302 216.538L242.85 115.33Z" fill="#BE1931"/>
<path d="M24.0061 88.3359L22.768 104.388H64.7775L63.5394 88.3359H24.0061Z" fill="#E6E7E8"/>
<path d="M26.4679 56.217L25.2442 72.2693H62.2724L61.0343 56.217H26.4679Z" fill="#E6E7E8"/>
<path d="M67.2101 136.479L65.972 120.426H21.587L20.3489 136.479H67.2101Z" fill="#E6E7E8"/>
<path d="M123.991 93.6483C123.228 92.1079 126.194 90.553 129.548 88.3359H104.253L103.015 104.388H125.474C126.201 100.743 125.679 96.9597 123.991 93.6483Z" fill="#E6E7E8"/>
<path d="M143.757 88.3359H129.562C126.208 90.553 123.242 92.1079 124.005 93.6483C125.678 96.9648 126.185 100.748 125.445 104.388H144.952L143.757 88.3359Z" fill="#E6E7E8"/>
<path d="M139.827 57.6567H141.382L141.281 56.217H141.08C140.637 56.674 140.219 57.1546 139.827 57.6567Z" fill="#E6E7E8"/>
<path d="M141.555 59.8306L141.382 57.6567H139.827C140.218 57.1546 140.637 56.674 141.08 56.217H106.715L105.477 72.2693H125.402C131.362 68.7853 137.855 65.8772 141.555 59.8306Z" fill="#E6E7E8"/>
<path d="M141.555 59.8306C137.855 65.8772 131.362 68.7853 125.402 72.2837H142.52L141.555 59.8306Z" fill="#E6E7E8"/>
<path d="M146.219 120.426H130.685C126.136 128.085 116.605 127.02 111.034 133.959H118.232C116.922 133.959 116.793 135.168 116.793 136.479H147.458L146.219 120.426Z" fill="#E6E7E8"/>
<path d="M118.232 133.959H111.034C116.591 127.02 126.136 128.085 130.685 120.426H130.081C127.288 122.154 123.645 121.348 121.112 123.881C120.982 122.733 120.982 121.574 121.112 120.426H101.777L100.539 136.479H116.793C116.807 135.168 116.922 133.959 118.232 133.959Z" fill="#E6E7E8"/>
<path d="M121.111 123.881C123.645 121.348 127.288 122.154 130.081 120.426H121.04C120.934 121.577 120.958 122.736 121.111 123.881Z" fill="#E6E7E8"/>
<path d="M230.613 162.047L193.268 149.119L186.861 163.875L226.51 177.61L230.613 162.047Z" fill="#E6E7E8"/>
<path d="M215.151 158.404L173.156 143.864L166.735 158.62L211.062 173.967L215.151 158.404Z" fill="#E6E7E8"/>
<path d="M238.775 130.907L206.109 119.591L199.703 134.362L234.687 146.47L238.775 130.907Z" fill="#E6E7E8"/>
<path d="M269.988 237.226C252.352 237.413 234.716 235.311 217.08 238.421H222.838C219.959 242.74 212.761 247.059 217.08 252.818C219.959 257.137 227.157 257.137 232.916 257.137C230.037 258.577 225.718 258.577 222.838 262.896C231.476 267.215 228.597 277.292 221.399 281.611C236.343 291.574 253.446 286.463 269.901 286.765C269.959 286.249 269.988 285.73 269.988 285.21V237.226Z" fill="#A0041E"/>
<path d="M262.991 165.92H139.899C137.956 169.461 137.495 173.679 141.195 175.537C144.074 175.537 146.954 178.416 151.273 178.416C150.891 178.416 150.525 178.568 150.255 178.838C149.985 179.108 149.833 179.474 149.833 179.856C157.031 179.856 164.23 181.295 171.428 181.295C168.549 184.175 164.23 182.735 162.79 187.054C165.669 187.054 167.109 188.494 169.988 188.494C168.75 194.655 161.206 194.483 159.911 194.252C189.625 228.804 236.314 230.532 279 239.458V181.871C278.973 177.639 277.276 173.588 274.278 170.601C271.28 167.613 267.223 165.931 262.991 165.92Z" fill="#A0041E"/>
<path d="M112.085 297.649C110.645 294.77 114.964 287.572 110.645 287.572C104.887 286.132 102.007 294.77 97.6884 297.649C97.6884 293.33 102.007 287.572 99.128 286.132C94.809 283.253 87.6107 286.132 83.2917 284.692C78.9727 281.813 84.7314 274.615 83.2917 274.615C71.7744 273.175 66.0157 273.175 57.3777 265.977C54.4983 260.218 63.1364 254.459 61.6967 251.58C58.8174 247.261 48.7397 248.701 42.981 244.382C44.4207 244.382 45.8603 244.382 44.4207 242.942C41.5413 241.502 40.1017 245.821 37.2223 244.382C44.4207 234.304 57.3777 231.425 64.576 219.907C48.7397 218.468 22.8257 212.709 37.2223 191.114C34.343 191.114 31.4637 192.554 30.024 191.114C27.1447 186.795 32.9033 183.916 34.343 179.597C28.5843 179.597 21.386 181.036 15.6273 178.157C15.5463 178.094 15.4863 178.008 15.4555 177.91C15.4246 177.813 15.4243 177.708 15.4546 177.61C11.9233 178.427 8.7727 180.415 6.51646 183.252C4.26023 186.089 3.03138 189.606 3.03023 193.23V305.524C3.03023 309.782 4.72145 313.865 7.73184 316.875C10.7422 319.885 14.8252 321.577 19.0825 321.577H121.515C118.319 313.283 115.651 304.796 113.525 296.166C113.525 297.649 113.525 299.089 112.085 297.649Z" fill="#A0041E"/>
<path d="M260.399 224.903V218.093C217.713 209.167 171.025 207.483 141.324 172.888C141.109 172.888 141.065 172.888 141.324 172.888C142.563 173.061 150.121 173.233 151.402 167.129C148.523 167.129 147.083 165.689 144.204 165.689C145.643 161.37 149.962 162.81 152.842 159.931C145.643 159.931 138.445 158.491 131.247 158.491C131.247 158.109 131.398 157.743 131.668 157.473C131.938 157.203 132.305 157.051 132.686 157.051C128.367 157.051 125.488 154.172 122.609 154.172C118.923 152.329 119.384 148.111 121.327 144.555H3.63464C2.41753 144.56 1.205 144.705 0.0210785 144.987C-0.00700167 145.084 -0.00702662 145.187 0.0210065 145.284C0.0490396 145.38 0.10398 145.467 0.179442 145.534C5.93811 148.413 13.1365 146.974 18.8951 146.974C17.4555 151.293 11.6968 154.172 14.5761 158.491C16.0158 159.931 18.8951 158.491 21.7745 158.491C7.37778 180.086 33.2918 185.845 49.1281 187.285C41.9298 198.802 28.9728 201.681 21.7745 211.759C24.6538 213.199 26.0935 208.88 28.9728 210.319C30.4125 211.759 28.9728 211.759 27.5331 211.759C33.2918 216.078 43.3695 214.638 46.2488 218.957C47.6885 221.837 39.0505 227.595 41.9298 233.354C50.5678 240.552 56.3265 240.552 67.8438 241.992C69.2835 241.992 63.5248 249.19 67.8438 252.07C72.1628 253.509 79.3612 250.63 83.6802 253.509C86.5595 254.949 82.2405 260.708 82.2405 265.027C86.5595 262.147 89.4388 253.509 95.1975 254.949C99.5165 254.949 95.1975 262.147 96.6372 265.027C98.0768 266.466 98.0768 265.027 98.0768 263.587C100.209 272.215 102.878 280.701 106.067 288.997H244.361C248.348 288.994 252.19 287.509 255.142 284.829C258.093 282.149 259.941 278.467 260.327 274.5C243.872 274.197 226.769 279.308 211.811 269.346C219.009 265.027 221.888 254.949 213.25 250.63C216.13 246.311 220.449 246.311 223.328 244.871C217.569 244.871 210.371 244.871 207.492 240.552C203.173 234.794 210.371 230.475 213.25 226.156H207.492C225.128 222.988 242.763 225.09 260.399 224.903Z" fill="#A0041E"/>
<path d="M35.9842 193.23H3.03023V209.282H35.3364C32.3851 205.41 31.9244 200.184 35.9842 193.23Z" fill="#C1694F"/>
<path d="M151.344 167.071C148.465 167.071 147.025 165.632 144.146 165.632C145.456 161.701 149.142 162.522 151.964 160.55H20.4643C16.4764 167.532 16.9371 172.729 19.8884 176.602H144.693C143.556 175.407 142.419 174.169 141.324 172.888C141.108 172.888 141.065 172.888 141.324 172.888C142.519 173.06 150.121 173.233 151.344 167.071Z" fill="#C1694F"/>
<path d="M170.593 181.972C167.714 183.945 164.1 183.124 162.79 187.054C165.669 187.054 167.109 188.494 169.988 188.494C168.75 194.656 161.206 194.483 159.911 194.253C161.019 195.534 162.142 196.772 163.294 197.952H279V181.972H170.593Z" fill="#C1694F"/>
<path d="M140.043 192.654H107.953V224.744H140.043V192.654Z" fill="#A7A9AC"/>
<path d="M60.2279 225.335H43.1823V238.292C48.581 233.814 55.0307 230.561 60.2279 225.335Z" fill="#A7A9AC"/>
<path d="M28.9729 210.261C28.5835 210.055 28.1463 209.956 27.706 209.973V211.701C29.0881 211.701 30.355 211.701 28.9729 210.261Z" fill="#A7A9AC"/>
<path d="M59.8106 192.654H44.7948C39.5832 197.88 33.1335 201.134 27.706 205.611V210.031C28.1463 210.013 28.5835 210.113 28.9729 210.319C30.4126 211.759 29.0881 211.759 27.706 211.759V211.874C33.4646 216.034 43.3984 214.681 46.2489 218.957C46.9399 220.397 45.2987 222.398 43.7295 224.802H59.8106V192.654Z" fill="#A7A9AC"/>
<path d="M61.6964 251.58C58.8171 247.261 48.9265 248.701 43.1535 244.497V257.454H59.177C60.7462 255.021 62.3874 252.962 61.6964 251.58Z" fill="#A7A9AC"/>
<path d="M140.043 240.797H107.953V272.887H140.043V240.797Z" fill="#A7A9AC"/>
<path d="M43.1823 273.477V305.567H75.2437V273.607L74.2503 273.463L43.1823 273.477Z" fill="#A7A9AC"/>
<path d="M58.8027 240.797L59.8105 240.941V240.797H58.8027Z" fill="#A7A9AC"/>
<path d="M213.25 250.572C214.936 248.2 217.446 246.542 220.29 245.922V244.813C215.395 244.713 210.212 244.122 207.722 240.825H188.186V272.887H218.822C216.332 271.969 213.96 270.761 211.753 269.288C219.009 264.969 221.888 254.891 213.25 250.572Z" fill="#A7A9AC"/>
<path d="M220.262 244.813V240.825H207.693C210.184 244.093 215.395 244.684 220.262 244.813Z" fill="#A7A9AC"/>
<path d="M220.262 245.922C217.418 246.542 214.908 248.2 213.222 250.572C221.86 254.891 218.98 264.969 211.782 269.288C213.989 270.761 216.361 271.969 218.851 272.887H220.29L220.262 245.922Z" fill="#A7A9AC"/>
<path d="M220.261 224.658L219.095 224.745H220.261V224.658Z" fill="#A7A9AC"/>
<path d="M220.261 210.693C209.397 208.741 198.672 206.076 188.157 202.718V224.744H219.095L220.261 224.658V210.693Z" fill="#A7A9AC"/>
<path d="M238.977 214.062H206.829V224.14C217.359 227.499 228.098 230.163 238.977 232.115V214.062Z" fill="#A7A9AC"/>
<path d="M51.8204 0.0698209C48.8279 0.0592914 45.8926 0.889231 43.3486 2.46514C40.8047 4.04105 38.7544 6.29961 37.4311 8.98365C36.1078 11.6677 35.5648 14.6694 35.8638 17.6469C36.1629 20.6244 37.2919 23.4582 39.1225 25.8255C38.1022 26.5397 37.267 27.487 36.6861 28.5886C36.1052 29.6903 35.7954 30.9146 35.7825 32.16C35.7825 34.2868 36.6273 36.3264 38.1312 37.8303C39.635 39.3341 41.6747 40.179 43.8014 40.179C45.9282 40.179 47.9678 39.3341 49.4717 37.8303C50.9755 36.3264 51.8204 34.2868 51.8204 32.16C53.9679 32.2243 56.1065 31.8569 58.1094 31.0795C60.1123 30.3021 61.9387 29.1306 63.4805 27.6343C65.0223 26.138 66.248 24.3475 67.085 22.3687C67.9221 20.39 68.3534 18.2634 68.3534 16.1149C68.3534 13.9664 67.9221 11.8398 67.085 9.8611C66.248 7.88238 65.0223 6.09182 63.4805 4.59554C61.9387 3.09926 60.1123 1.9277 58.1094 1.1503C56.1065 0.372905 53.9679 0.00548629 51.8204 0.0698209Z" fill="#D1D3D4"/>
<path d="M126.87 33.1823H122.551C119.902 18.5985 139.223 22.3128 147.918 14.0059C147.811 13.1882 147.643 12.3796 147.414 11.5873H136.948C139.597 8.93828 139.827 6.28929 142.102 3.64031C139.061 1.13976 135.204 -0.151348 131.271 0.0141481C127.337 0.179644 123.603 1.79012 120.783 4.53726C117.962 7.2844 116.255 10.9752 115.986 14.9031C115.717 18.831 116.907 22.72 119.326 25.8256C118.304 26.5391 117.467 27.4858 116.884 28.5874C116.3 29.689 115.988 30.9137 115.972 32.1601C115.974 34.1147 116.689 36.0015 117.982 37.467C119.275 38.9325 121.058 39.8763 122.998 40.1215C125.114 38.1635 126.87 36.0616 126.87 33.1823Z" fill="#D1D3D4"/>
<path d="M147.414 11.5872C146.493 8.45944 144.64 5.68705 142.102 3.64026C139.842 6.28925 139.64 8.93824 136.948 11.5872H147.414Z" fill="#D1D3D4"/>
<path d="M132.024 32.1601C136.279 32.1601 140.36 30.4708 143.37 27.4636C146.38 24.4563 148.073 20.377 148.077 16.1222C148.068 15.4141 148.015 14.7073 147.918 14.0059C139.28 22.3127 119.902 18.5984 122.551 33.1822H126.87C126.87 36.0616 125.114 38.1635 122.998 40.1214C123.327 40.1669 123.659 40.1909 123.991 40.1934C125.046 40.1934 126.09 39.9856 127.065 39.5819C128.04 39.1782 128.925 38.5865 129.671 37.8405C130.417 37.0945 131.009 36.2089 131.413 35.2343C131.816 34.2596 132.024 33.215 132.024 32.1601Z" fill="#D1D3D4"/>
<path d="M222.738 99.8821C222.037 101.892 222.164 104.099 223.09 106.016C224.016 107.933 225.665 109.403 227.676 110.104C229.686 110.804 231.892 110.678 233.809 109.752C235.726 108.826 237.197 107.176 237.897 105.166C240.894 106.203 244.132 106.329 247.2 105.527C250.268 104.724 253.03 103.031 255.136 100.659C257.242 98.2879 258.597 95.3454 259.031 92.2038C259.465 89.0622 258.957 85.8625 257.573 83.0092C256.188 80.1559 253.989 77.777 251.253 76.1735C248.517 74.5699 245.367 73.8135 242.201 73.9999C239.035 74.1864 235.995 75.3073 233.466 77.2209C230.937 79.1346 229.032 81.7551 227.993 84.7511C226.853 88.0779 226.853 91.6893 227.993 95.016C226.795 95.355 225.694 95.9727 224.781 96.8184C223.868 97.6641 223.168 98.7139 222.738 99.8821Z" fill="#D1D3D4"/>
</svg>
