<svg width="97" height="102" viewBox="0 0 97 102" fill="none" xmlns="http://www.w3.org/2000/svg">
<path d="M28.2682 50.8826H11.3074L14.1342 14.1342H25.4414L28.2682 50.8826Z" fill="#BE1931"/>
<path d="M56.536 50.8826H39.5752L42.402 14.1342H53.7092L56.536 50.8826Z" fill="#BE1931"/>
<path d="M84.8038 50.8826H67.843L70.6698 14.1342H81.977L84.8038 50.8826Z" fill="#BE1931"/>
<path d="M12.8308 31.0949L12.3955 36.7485H27.1825L26.7472 31.0949H12.8308Z" fill="#E6E7E8"/>
<path d="M13.6985 19.7877L13.2632 25.4413H26.3089L25.8764 19.7877H13.6985Z" fill="#E6E7E8"/>
<path d="M28.0501 48.0557L27.6148 42.4021H11.96L11.5247 48.0557H28.0501Z" fill="#E6E7E8"/>
<path d="M41.0989 31.0949L40.6636 36.7485H55.4506L55.0152 31.0949H41.0989Z" fill="#E6E7E8"/>
<path d="M41.9666 19.7877L41.5312 25.4413H54.5769L54.1444 19.7877H41.9666Z" fill="#E6E7E8"/>
<path d="M56.3182 48.0557L55.8857 42.4021H40.2281L39.7927 48.0557H56.3182Z" fill="#E6E7E8"/>
<path d="M69.3639 31.0949L68.9314 36.7485H83.7155L83.283 31.0949H69.3639Z" fill="#E6E7E8"/>
<path d="M84.586 48.0557L84.1535 42.4021H68.4959L68.0605 48.0557H84.586Z" fill="#E6E7E8"/>
<path d="M70.2345 19.7877L69.802 25.4413H82.8477L82.4152 19.7877H70.2345Z" fill="#E6E7E8"/>
<path d="M96.1111 96.1113C96.1111 99.2321 93.5783 101.765 90.4575 101.765H5.6536C2.53281 101.765 0 99.2321 0 96.1113V56.5361C0 53.4153 2.53281 50.8825 5.6536 50.8825H90.4575C93.5783 50.8825 96.1111 53.4153 96.1111 56.5361V96.1113Z" fill="#A0041E"/>
<path d="M96.1111 62.1897H0V56.5361H96.1111V62.1897Z" fill="#C1694F"/>
<path d="M25.4412 79.1505H14.134V67.8433H25.4412V79.1505ZM53.7092 79.1505H42.402V67.8433H53.7092V79.1505ZM81.9772 79.1505H70.67V67.8433H81.9772V79.1505ZM25.4412 96.1113H14.134V84.8041H25.4412V96.1113ZM53.7092 96.1113H42.402V84.8041H53.7092V96.1113ZM81.9772 96.1113H70.67V84.8041H81.9772V96.1113Z" fill="#A7A9AC"/>
<path d="M22.6143 4.33922e-05C19.4935 4.33922e-05 16.9607 2.53285 16.9607 5.65364C16.9607 6.94549 17.4102 8.12143 18.1395 9.07124C17.4412 9.58854 16.9607 10.3744 16.9607 11.3072C16.9607 12.8676 18.2271 14.134 19.7875 14.134C21.3479 14.134 22.6143 12.8676 22.6143 11.3072C25.7351 11.3072 28.2679 8.77442 28.2679 5.65364C28.2679 2.53285 25.7351 4.33922e-05 22.6143 4.33922e-05Z" fill="#D1D3D4"/>
<path d="M50.8824 4.33922e-05C47.7616 4.33922e-05 45.2288 2.53285 45.2288 5.65364C45.2288 6.94549 45.6782 8.12143 46.4075 9.07124C45.7093 9.58854 45.2288 10.3744 45.2288 11.3072C45.2288 12.8676 46.4952 14.134 48.0556 14.134C49.6159 14.134 50.8824 12.8676 50.8824 11.3072C54.0031 11.3072 56.536 8.77442 56.536 5.65364C56.536 2.53285 54.0031 4.33922e-05 50.8824 4.33922e-05Z" fill="#D1D3D4"/>
<path d="M79.1504 4.33922e-05C76.0296 4.33922e-05 73.4968 2.53285 73.4968 5.65364C73.4968 6.94549 73.9463 8.12143 74.6756 9.07124C73.9774 9.58854 73.4968 10.3744 73.4968 11.3072C73.4968 12.8676 74.7604 14.134 76.3236 14.134C77.8868 14.134 79.1504 12.8676 79.1504 11.3072C82.2712 11.3072 84.804 8.77442 84.804 5.65364C84.804 2.53285 82.2712 4.33922e-05 79.1504 4.33922e-05Z" fill="#D1D3D4"/>
</svg>
