<svg width="146" height="201" viewBox="0 0 146 201" fill="none" xmlns="http://www.w3.org/2000/svg">
<path fill-rule="evenodd" clip-rule="evenodd" d="M142.801 57.0726C147.34 78.3692 141.897 99.9323 129.193 116.319C127.114 102.972 121.4 96.3018 114.729 90.6447C99.0895 77.4081 85.3776 57.9293 104.961 43.3032C114.034 55.0458 124.711 63.9573 129.674 80.1296C128.018 63.5864 121.457 54.675 112.274 42.504C111.579 41.595 110.942 40.7436 110.299 39.8347C128.284 34.2298 139.761 42.5562 142.858 57.0726H142.801Z" fill="#6EAB3B"/>
<path fill-rule="evenodd" clip-rule="evenodd" d="M108.273 134.622C89.4312 145.566 67.2309 147.007 47.7468 140.013C59.8133 133.875 64.3997 126.405 67.7114 118.293C75.4476 99.3472 89.7498 80.2915 109.714 94.3795C101.336 106.655 96.1592 119.521 82.2801 129.231C97.4912 122.561 104 113.54 112.702 101.05C113.345 100.146 113.982 99.2375 114.625 98.3286C125.511 113.702 121.133 127.152 108.273 134.622Z" fill="#6EAB3B"/>
<path fill-rule="evenodd" clip-rule="evenodd" d="M23.8384 125.711C7.61389 111.142 -0.602838 90.4827 0.0344413 69.7764C9.58841 79.3303 18.129 81.3571 26.8263 82.0518C47.2715 83.5458 69.7904 91.2872 62.5349 114.611C48.2849 110.447 34.4058 109.486 20.9027 99.2897C31.9507 111.727 42.518 115.091 57.1441 119.521C58.2097 119.839 59.2753 120.158 60.3462 120.482C49.0841 135.583 34.9386 135.583 23.8906 125.658L23.8384 125.711Z" fill="#6EAB3B"/>
<path fill-rule="evenodd" clip-rule="evenodd" d="M6.22436 42.6659C15.0836 22.7588 32.1648 8.5088 52.0197 2.74194C45.8819 14.8032 46.5767 23.558 48.6557 31.9889C53.5136 51.896 53.1375 75.7 28.6963 76.0239C28.268 61.1836 24.8517 47.6806 30.4044 31.7225C22.0258 46.0822 22.078 57.1823 22.3444 72.4457C22.3444 73.5688 22.3966 74.6866 22.3966 75.7522C4.5737 69.672 0.196321 56.2212 6.22436 42.6659Z" fill="#6EAB3B"/>
<path fill-rule="evenodd" clip-rule="evenodd" d="M79.7725 0.234676C101.44 2.4756 120.282 14.3227 131.915 31.4561C118.573 29.3197 110.461 32.6837 103.044 37.2752C85.6439 48.0567 62.8533 55.0459 55.0074 31.9367C68.991 26.9743 80.7337 19.5568 97.6529 19.8232C81.4284 16.2973 70.8611 19.7709 56.4491 24.7334C55.3835 25.1042 54.3649 25.4803 53.2993 25.799C53.5657 6.95745 64.9897 -1.36897 79.7725 0.18244V0.234676Z" fill="#6EAB3B"/>
<path fill-rule="evenodd" clip-rule="evenodd" d="M88.5795 72.1794C88.5795 63.1582 81.2665 55.793 72.1931 55.793C63.1719 55.793 55.8066 63.106 55.8066 72.1794C55.8066 81.2006 63.1197 88.5658 72.1931 88.5658C81.2143 88.5658 88.5795 81.2528 88.5795 72.1794Z" fill="#19AFF0"/>
<path d="M5.33296 181.659H12.2281V186.506H5.33296V200.527H0.00488281V166.573H14.1086V171.421H5.33296V181.659Z" fill="#333333"/>
<path d="M38.1194 200.527H32.7286L31.8093 194.363H25.2693L24.35 200.527H19.4607L24.8723 166.573H32.6869L38.1194 200.527ZM25.9589 189.766H31.0989L28.5289 172.591L25.9589 189.766Z" fill="#333333"/>
<path d="M44.083 174.722C44.083 171.98 44.736 169.875 46.0471 168.412C47.353 166.939 49.3171 166.197 51.9393 166.197C54.5564 166.197 56.5204 166.939 57.8316 168.412C59.1375 169.875 59.7956 171.98 59.7956 174.722V175.788H54.7601V174.388C54.7601 173.166 54.5198 172.298 54.0497 171.797C53.59 171.296 52.9318 171.045 52.0856 171.045C51.2498 171.045 50.5916 171.296 50.1215 171.797C49.6618 172.298 49.432 173.166 49.432 174.388C49.432 175.558 49.688 176.592 50.2051 177.48C50.717 178.358 51.3595 179.194 52.1274 179.988C52.9057 180.782 53.7415 181.576 54.6347 182.37C55.5227 183.164 56.3533 184.031 57.1212 184.96C57.8995 185.895 58.5472 186.961 59.0643 188.157C59.5919 189.359 59.8583 190.764 59.8583 192.378C59.8583 195.126 59.1793 197.236 57.8316 198.709C56.4943 200.187 54.5146 200.924 51.8975 200.924C49.2753 200.924 47.2903 200.187 45.9426 198.709C44.6054 197.236 43.9368 195.126 43.9368 192.378V190.289H48.9932V192.712C48.9932 193.955 49.244 194.817 49.7454 195.303C50.2469 195.779 50.9155 196.014 51.7513 196.014C52.5871 196.014 53.2557 195.779 53.7571 195.303C54.2586 194.817 54.5093 193.955 54.5093 192.712C54.5093 191.558 54.2482 190.534 53.7363 189.641C53.2191 188.753 52.5714 187.907 51.7931 187.113C51.0252 186.319 50.1946 185.535 49.3066 184.752C48.4134 183.958 47.5776 183.096 46.7993 182.161C46.0314 181.215 45.3837 180.144 44.8561 178.943C44.339 177.747 44.083 176.342 44.083 174.722Z" fill="#333333"/>
<path d="M72.4116 200.527H67.0835V166.573H72.4116V181.137H78.471V166.573H83.9035V200.527H78.471V185.984H72.4116V200.527Z" fill="#333333"/>
<path d="M96.8544 192.712C96.8544 193.955 97.1052 194.823 97.6066 195.324C98.1081 195.815 98.7819 196.055 99.6334 196.055C100.469 196.055 101.138 195.815 101.639 195.324C102.141 194.823 102.391 193.955 102.391 192.712V174.388C102.391 173.166 102.141 172.298 101.639 171.797C101.138 171.296 100.469 171.045 99.6334 171.045C98.7819 171.045 98.1081 171.296 97.6066 171.797C97.1052 172.298 96.8544 173.166 96.8544 174.388V192.712ZM91.5264 174.722C91.5264 171.98 92.2211 169.875 93.6158 168.412C95.0053 166.939 97.0111 166.197 99.6334 166.197C102.25 166.197 104.251 166.939 105.63 168.412C107.02 169.875 107.72 171.98 107.72 174.722V192.378C107.72 195.126 107.02 197.236 105.63 198.709C104.251 200.187 102.25 200.924 99.6334 200.924C97.0111 200.924 95.0053 200.187 93.6158 198.709C92.2211 197.236 91.5264 195.126 91.5264 192.378V174.722Z" fill="#333333"/>
<path d="M115.343 166.573H120.671V200.527H115.343V166.573Z" fill="#333333"/>
<path d="M128.73 166.573H137.171C139.846 166.573 141.836 167.294 143.147 168.725C144.453 170.146 145.111 172.23 145.111 174.973V192.127C145.111 194.885 144.453 196.975 143.147 198.395C141.836 199.816 139.846 200.527 137.171 200.527H128.73V166.573ZM134.058 171.421V195.679H137.067C137.902 195.679 138.561 195.439 139.052 194.948C139.537 194.462 139.783 193.605 139.783 192.378V174.722C139.783 173.5 139.537 172.643 139.052 172.152C138.561 171.666 137.902 171.421 137.067 171.421H134.058Z" fill="#333333"/>
</svg>
