<svg width="222" height="37" viewBox="0 0 222 37" fill="none" xmlns="http://www.w3.org/2000/svg">
<path d="M131.876 36.1932H90.1857C87.4049 36.1932 85.1493 33.9356 85.1493 31.1522C85.1493 28.3687 87.4049 26.1111 90.1857 26.1111H131.876C134.657 26.1111 136.913 28.3687 136.913 31.1522C136.913 33.9356 134.657 36.1932 131.876 36.1932Z" fill="#0F8ED6"/>
<path d="M131.876 26.9991H90.1857C87.4049 26.9991 85.1493 24.7415 85.1493 21.9581C85.1493 19.1747 87.4049 16.917 90.1857 16.917H131.876C134.657 16.917 136.913 19.1747 136.913 21.9581C136.913 24.7415 134.657 26.9991 131.876 26.9991Z" fill="#0F8ED6"/>
<path d="M136.339 10.4312L86.2351 9.64034L90.4505 3.92771C92.0131 1.48008 94.7144 0 97.6189 0H124.447C127.347 0 130.053 1.48008 131.616 3.92771L136.343 10.4356L136.339 10.4312Z" fill="#3DBAFF"/>
<path d="M131.876 17.8004H90.1857C87.4049 17.8004 85.1493 15.5428 85.1493 12.7593C85.1493 9.97592 87.4049 7.71826 90.1857 7.71826H131.876C134.657 7.71826 136.913 9.97592 136.913 12.7593C136.913 15.5428 134.657 17.8004 131.876 17.8004Z" fill="#0F8ED6"/>
<path d="M87.8992 17.3586C87.8992 17.3586 98.2545 16.2231 111.029 16.2231C123.803 16.2231 134.158 17.3586 134.158 17.3586C134.158 17.3586 123.803 18.4941 111.029 18.4941C98.2545 18.4941 87.8992 17.3586 87.8992 17.3586Z" fill="#0B608F"/>
<path d="M88.1331 26.5529C88.1331 26.5529 98.3868 25.4175 111.033 25.4175C123.679 25.4175 133.933 26.5529 133.933 26.5529C133.933 26.5529 123.679 27.6884 111.033 27.6884C98.3868 27.6884 88.1331 26.5529 88.1331 26.5529Z" fill="#0B608F"/>
<path d="M46.8709 36.2006H5.18044C2.39961 36.2006 0.144043 33.9429 0.144043 31.1595C0.144043 28.3761 2.39961 26.1184 5.18044 26.1184H46.8709C49.6517 26.1184 51.9073 28.3761 51.9073 31.1595C51.9073 33.9429 49.6517 36.2006 46.8709 36.2006Z" fill="#005DAB"/>
<path d="M46.8709 27.0021H5.18044C2.39961 27.0021 0.144043 24.7444 0.144043 21.961C0.144043 19.1776 2.39961 16.9199 5.18044 16.9199H46.8709C49.6517 16.9199 51.9073 19.1776 51.9073 21.961C51.9073 24.7444 49.6517 27.0021 46.8709 27.0021Z" fill="#005DAB"/>
<path d="M51.3335 10.4385L1.22998 9.64766L5.44537 3.93504C7.00794 1.4874 9.70932 0.00732422 12.6137 0.00732422H39.4422C42.3422 0.00732422 45.048 1.4874 46.6105 3.93504L51.338 10.4429L51.3335 10.4385Z" fill="#1291FC"/>
<path d="M46.8709 17.808H5.18044C2.39961 17.808 0.144043 15.5503 0.144043 12.7669C0.144043 9.98349 2.39961 7.72583 5.18044 7.72583H46.8709C49.6517 7.72583 51.9073 9.98349 51.9073 12.7669C51.9073 15.5503 49.6517 17.808 46.8709 17.808Z" fill="#005DAB"/>
<path d="M2.89404 17.3662C2.89404 17.3662 13.2493 16.2307 26.0235 16.2307C38.7977 16.2307 49.153 17.3662 49.153 17.3662C49.153 17.3662 38.7977 18.5016 26.0235 18.5016C13.2493 18.5016 2.89404 17.3662 2.89404 17.3662Z" fill="#093B63"/>
<path d="M3.12793 26.5559C3.12793 26.5559 13.3817 25.4204 26.0279 25.4204C38.6741 25.4204 48.9278 26.5559 48.9278 26.5559C48.9278 26.5559 38.6741 27.6913 26.0279 27.6913C13.3817 27.6913 3.12793 26.5559 3.12793 26.5559Z" fill="#093B63"/>
<path d="M216.881 36.2006H175.191C172.41 36.2006 170.155 33.9429 170.155 31.1595C170.155 28.3761 172.41 26.1184 175.191 26.1184H216.881C219.662 26.1184 221.918 28.3761 221.918 31.1595C221.918 33.9429 219.662 36.2006 216.881 36.2006Z" fill="#0D7AB8"/>
<path d="M216.881 27.0021H175.191C172.41 27.0021 170.155 24.7444 170.155 21.961C170.155 19.1776 172.41 16.9199 175.191 16.9199H216.881C219.662 16.9199 221.918 19.1776 221.918 21.961C221.918 24.7444 219.662 27.0021 216.881 27.0021Z" fill="#0D7AB8"/>
<path d="M221.344 10.4385L171.24 9.64766L175.456 3.93504C177.018 1.4874 179.72 0.00732422 182.624 0.00732422H209.453C212.353 0.00732422 215.058 1.4874 216.621 3.93504L221.348 10.4429L221.344 10.4385Z" fill="#12ABFF"/>
<path d="M216.881 17.808H175.191C172.41 17.808 170.155 15.5503 170.155 12.7669C170.155 9.98349 172.41 7.72583 175.191 7.72583H216.881C219.662 7.72583 221.918 9.98349 221.918 12.7669C221.918 15.5503 219.662 17.808 216.881 17.808Z" fill="#0D7AB8"/>
<path d="M172.905 17.3662C172.905 17.3662 183.26 16.2307 196.034 16.2307C208.808 16.2307 219.163 17.3662 219.163 17.3662C219.163 17.3662 208.808 18.5016 196.034 18.5016C183.26 18.5016 172.905 17.3662 172.905 17.3662V17.3662Z" fill="#08486B"/>
<path d="M173.138 26.5559C173.138 26.5559 183.392 25.4204 196.038 25.4204C208.685 25.4204 218.938 26.5559 218.938 26.5559C218.938 26.5559 208.685 27.6913 196.038 27.6913C183.392 27.6913 173.138 26.5559 173.138 26.5559V26.5559Z" fill="#08486B"/>
</svg>
