<svg width="66" height="189" viewBox="0 0 66 189" fill="none" xmlns="http://www.w3.org/2000/svg">
<path d="M34.1104 88.7311C34.1104 88.7311 35.0035 89.5818 34.9471 91.5512C34.9048 93.0317 33.725 95.3113 32.127 95.7813C31.5489 95.9505 30.2469 93.6991 30.2469 93.6991C30.1672 92.4557 30.5506 91.2268 31.3232 90.2492C32.6158 88.5854 33.9882 88.717 34.1104 88.7311Z" fill="#FFB68D"/>
<path d="M31.4736 92.6417L30.2891 92.9566L29.1141 93.2903L29.2222 93.2668L28.4326 93.3514C28.1646 93.3843 27.9014 93.4125 27.6382 93.4548C27.5672 93.4629 27.4985 93.4851 27.4362 93.5202C27.3739 93.5552 27.3192 93.6024 27.2754 93.6589C27.2316 93.7154 27.1996 93.7801 27.1812 93.8492C27.1627 93.9183 27.1583 93.9903 27.1682 94.0611C27.1853 94.1911 27.2491 94.3105 27.3477 94.397C27.4463 94.4834 27.5729 94.5311 27.704 94.5311C27.9719 94.5311 28.2352 94.5311 28.5031 94.5029L29.2974 94.4653H29.3867L30.5711 94.1504C30.966 94.0423 31.3561 93.9342 31.7462 93.8167C31.8213 93.7956 31.8915 93.7598 31.9527 93.7115C32.0139 93.6632 32.065 93.6032 32.103 93.5351C32.141 93.467 32.1652 93.392 32.1741 93.3145C32.183 93.237 32.1766 93.1585 32.1551 93.0835C32.1172 92.938 32.0263 92.812 31.9001 92.7302C31.774 92.6485 31.6218 92.6169 31.4736 92.6417Z" fill="#FFB68D"/>
<path d="M31.906 93.2197L29.2645 94.752L29.4525 94.6862L27.4973 95.0293C27.361 95.056 27.2404 95.1346 27.1609 95.2485C27.0814 95.3623 27.0492 95.5026 27.0712 95.6398C27.0931 95.7769 27.1675 95.9002 27.2785 95.9836C27.3896 96.067 27.5286 96.104 27.6665 96.0868L29.6311 95.8095C29.6938 95.7999 29.7543 95.7792 29.8097 95.7484L32.4794 94.2632C32.6172 94.1865 32.7188 94.0583 32.762 93.9067C32.8052 93.755 32.7864 93.5925 32.7097 93.4547C32.6331 93.317 32.5048 93.2154 32.3532 93.1722C32.2016 93.129 32.0391 93.1478 31.9013 93.2244L31.906 93.2197Z" fill="#FFB68D"/>
<path d="M31.7134 94.0564L29.3633 95.3959L29.5842 95.3207L27.4738 95.6403C27.4025 95.6478 27.3335 95.6696 27.2709 95.7045C27.2082 95.7393 27.1533 95.7865 27.1094 95.8432C27.0655 95.8998 27.0335 95.9648 27.0153 96.0341C26.9972 96.1035 26.9933 96.1758 27.0038 96.2467C27.0215 96.3842 27.0914 96.5097 27.199 96.5972C27.3066 96.6847 27.4437 96.7274 27.5819 96.7167L29.7064 96.5146C29.779 96.5094 29.8495 96.4885 29.9132 96.4535L32.2633 95.1139C32.3862 95.0291 32.4728 94.9014 32.5061 94.7558C32.5395 94.6103 32.517 94.4575 32.4433 94.3277C32.3695 94.1979 32.2498 94.1005 32.1077 94.0546C31.9656 94.0087 31.8115 94.0177 31.6758 94.0799L31.7134 94.0564Z" fill="#FFB68D"/>
<path d="M32.3338 94.3384L31.624 95.1703L31.6663 95.128C31.6225 95.1693 31.5753 95.2071 31.5253 95.2408L31.3514 95.3771C31.2292 95.4617 31.107 95.551 30.9895 95.6262L30.825 95.7296H30.7968L30.6887 95.7719L30.2516 95.9599L29.8192 96.1432C29.8521 96.1432 29.8192 96.1432 29.8192 96.1432H29.7722H29.6641L29.4338 96.1902L28.4937 96.3782C28.4247 96.3917 28.359 96.4187 28.3005 96.4578C28.242 96.4968 28.1918 96.5471 28.1529 96.6057C28.114 96.6643 28.0871 96.73 28.0738 96.7991C28.0605 96.8682 28.061 96.9392 28.0754 97.0081C28.1028 97.1449 28.1824 97.2656 28.2974 97.3446C28.4124 97.4236 28.5536 97.4546 28.6911 97.4311L29.6312 97.2619L29.8662 97.2196H29.9884H30.0589H30.12H30.1764L30.6182 97.0457L31.0553 96.8718L31.1681 96.8295L31.2527 96.7919L31.3279 96.7543C31.4172 96.7073 31.4924 96.6603 31.5676 96.6133C31.7133 96.5239 31.8496 96.4299 31.986 96.3359L32.1881 96.1855C32.2665 96.1302 32.3418 96.0705 32.4137 96.0069C32.4269 95.9985 32.4381 95.9873 32.4466 95.974L33.1798 95.1562C33.2845 95.0384 33.3381 94.8838 33.3289 94.7265C33.3196 94.5692 33.2482 94.4219 33.1304 94.3172C33.0126 94.2125 32.8581 94.1589 32.7007 94.1681C32.5434 94.1774 32.3962 94.2488 32.2915 94.3666L32.3338 94.3384Z" fill="#FFB68D"/>
<path d="M56.8544 37.8424C54.7159 46.6411 60.6146 48.775 62.2079 49.8513C65.8929 52.3518 69.7 60.1917 55.5478 61.0283C41.3956 61.8649 37.9692 59.9613 34.7636 57.4609C31.5581 54.9604 35.276 40.8975 36.3006 37.6073C41.8891 19.5305 59.1246 28.5971 56.8544 37.8424Z" fill="#A34126"/>
<path d="M37.6873 59.1811C35.8683 67.2607 32.691 108.025 52.6244 104.387C66.222 101.906 57.8275 89.9343 54.5045 82.0756C51.8113 75.6787 52.9017 68.84 53.0333 61.9119C53.4046 59.3926 53.6584 56.9438 52.3659 55.4398C50.8618 53.6913 48.4413 54.4997 47.8443 51.7548C47.52 50.2555 42.4955 50.1474 41.7811 52.8265C41.3111 54.6078 39.8117 54.1331 39.2853 54.73C38.4111 55.6936 37.9787 57.5643 37.6873 59.1811Z" fill="#F9AF8A"/>
<path d="M42.7539 60.1682C43.0588 60.8742 43.6252 61.4348 44.3344 61.7323C45.0436 62.0298 45.8404 62.0411 46.5578 61.7639C47.2752 61.4867 47.8573 60.9425 48.1821 60.2454C48.507 59.5483 48.5493 58.7525 48.3001 58.0249C47.1016 54.9275 48.1403 48.5024 48.5962 46.4907C48.5962 46.3967 48.6338 46.3027 48.6432 46.2087C48.7522 45.4457 48.5603 44.6702 48.1081 44.046C47.6559 43.4218 46.9788 42.9979 46.2199 42.8636C45.4609 42.7294 44.6795 42.8954 44.0406 43.3267C43.4018 43.7579 42.9556 44.4205 42.7962 45.1747C42.4513 46.7478 42.1939 48.3389 42.0254 49.9406C41.6823 53.0709 41.593 57.1413 42.7539 60.1682Z" fill="#F9AF8A"/>
<path d="M47.2003 102.606L46.9324 112.81L46.6316 123.038C46.4185 129.853 46.1898 136.67 45.9454 143.488C45.6869 150.299 45.4236 157.119 45.104 163.924C44.7844 170.73 44.4366 177.555 43.9995 184.328C43.9653 185.006 44.1904 185.672 44.6291 186.19C45.0679 186.709 45.6874 187.041 46.362 187.119C47.0366 187.197 47.7157 187.016 48.2616 186.612C48.8074 186.208 49.1791 185.612 49.3013 184.944C50.4481 178.185 51.501 171.416 52.5209 164.648C53.5408 157.88 54.5138 151.102 55.4773 144.329C56.4408 137.556 57.3574 130.774 58.2974 123.992L59.6511 113.821L60.9812 103.631C61.1827 101.831 60.6695 100.024 59.5519 98.5984C58.4343 97.1731 56.8017 96.2437 55.0057 96.0102C53.2096 95.7767 51.3937 96.2577 49.9488 97.3498C48.5039 98.4419 47.5456 100.058 47.2802 101.849C47.252 102.084 47.2332 102.319 47.2238 102.55L47.2003 102.606Z" fill="#FFB68D"/>
<path d="M46.3543 42.9091C45.5852 42.735 44.7785 42.8734 44.1113 43.2937C43.4442 43.7141 42.9712 44.3822 42.7963 45.1511C42.4513 46.7243 42.194 48.3154 42.0255 49.9171C42.0999 49.9256 42.1726 49.9446 42.2417 49.9735C41.4568 51.8536 40.8974 57.2775 40.8316 57.8933C40.747 58.6312 42.0302 61.785 42.0302 61.785C43.271 62.5182 45.8373 58.2881 45.8373 58.2881C45.8373 58.2881 45.9595 57.8933 45.1464 55.327C44.5824 53.5456 44.6764 51.125 44.8268 49.809C44.8482 49.5734 44.9613 49.3557 45.1417 49.2027C46.9842 47.6375 47.8067 47.3226 48.6386 46.1851C48.7331 45.4529 48.5515 44.7116 48.1292 44.106C47.7069 43.5003 47.0741 43.0736 46.3543 42.9091Z" fill="#CD6E58"/>
<path d="M33.316 95.6685L31.906 101.078L30.4959 106.479C29.5559 110.079 28.6268 113.683 27.7087 117.289C25.8631 124.496 24.0598 131.714 22.2989 138.943C21.8617 140.753 21.4152 142.557 20.9828 144.372L19.695 149.8C19.2625 151.61 18.8489 153.429 18.4306 155.243L17.8008 157.965L17.1898 160.691C16.3672 164.324 15.5964 167.976 14.8397 171.628L13.7445 177.127L12.7434 182.669C12.6071 183.349 12.7411 184.056 13.117 184.639C13.4928 185.222 14.081 185.636 14.7569 185.793C15.4327 185.95 16.1432 185.838 16.7377 185.48C17.3323 185.123 17.7641 184.547 17.9418 183.877V183.797L19.427 178.5L21.0157 173.212C22.1155 169.691 23.2154 166.162 24.3716 162.66L25.2271 160.028L26.106 157.401C26.6935 155.647 27.2716 153.894 27.8686 152.141L29.6546 146.891C30.2515 145.143 30.0024 140.428 30.5946 138.68C33.0199 131.691 36.343 127.681 38.8528 120.716C40.1062 117.231 41.3596 113.752 42.613 110.277L44.5166 105.064L46.4389 99.894V99.8611C46.8054 99.0022 46.9939 98.0779 46.993 97.1442C46.9921 96.2104 46.8018 95.2865 46.4336 94.4283C46.0654 93.5702 45.5269 92.7957 44.8508 92.1516C44.1747 91.5076 43.3749 91.0073 42.4999 90.6812C41.625 90.3551 40.6929 90.2098 39.7602 90.2542C38.8274 90.2986 37.9134 90.5318 37.0733 90.9395C36.2333 91.3473 35.4847 91.9212 34.8728 92.6266C34.2609 93.332 33.7985 94.1542 33.5135 95.0434C33.4383 95.2502 33.3536 95.4617 33.316 95.6685Z" fill="#FFB68D"/>
<path d="M23.6101 68.6708C23.1401 69.3946 22.6983 70.1231 22.2517 70.8516L21.6031 71.9562L20.9404 73.0795L20.8887 73.1688C20.6453 73.58 20.5221 74.0512 20.5329 74.5289C20.5437 75.0065 20.6881 75.4716 20.9498 75.8714L21.3305 76.4495L21.7018 77.0042C21.9462 77.3708 22.2 77.7327 22.4492 78.0946C22.9521 78.8137 23.4597 79.5328 23.972 80.2379C25.006 81.6479 35.807 93.5347 36.7377 92.7027C37.6683 91.8708 38.0678 90.4795 37.3064 89.5489L37.2829 89.5207C36.2112 88.2141 35.1443 86.898 34.1197 85.5538C33.095 84.2095 32.0798 82.8512 31.0928 81.474C30.1057 80.0969 29.1234 78.7056 28.1834 77.2956C27.7133 76.5952 27.2433 75.8855 26.8062 75.1758C26.5806 74.8233 26.3362 74.4661 26.1388 74.1089L25.8098 73.5777L25.5043 73.0607V75.8573L26.167 74.8327L26.8673 73.7986C27.3279 73.1124 27.7979 72.4278 28.2774 71.7447C29.2174 70.3863 30.1574 69.0468 31.1633 67.7448C32.1691 66.4429 33.1561 65.1738 34.1949 63.9847C34.7166 63.3972 35.243 62.8425 35.7647 62.3443C36.0279 62.0999 36.2865 61.8743 36.5309 61.6769C36.73 61.5148 36.9405 61.3672 37.1607 61.2351C37.5172 61.0404 37.8318 60.7774 38.0866 60.461C38.3414 60.1447 38.5314 59.7813 38.6458 59.3915C38.7602 59.0018 38.7966 58.5933 38.7531 58.1895C38.7096 57.7856 38.5869 57.3943 38.3921 57.0378C37.5555 55.5526 24.5313 67.2184 23.6101 68.6708Z" fill="#FFB68D"/>
<path d="M40.822 48.1874C44.4459 49.8795 50.6924 46.5565 51.2846 42.5989L52.5349 39.2383C52.8118 37.3387 52.3234 35.4068 51.1768 33.8671C50.0302 32.3275 48.3193 31.306 46.4199 31.0271C44.5203 30.7487 42.5878 31.2359 41.0472 32.3816C39.5067 33.5274 38.484 35.2379 38.204 37.1373L37.734 40.3992C37.3721 43.9056 39.036 47.3555 40.822 48.1874Z" fill="#FFB68D"/>
<path d="M17.6316 187.317H0.776747C0.651731 187.316 0.530683 187.273 0.433238 187.195C0.335793 187.117 0.267668 187.008 0.239914 186.886C0.21216 186.764 0.226405 186.636 0.280339 186.523C0.334272 186.41 0.42473 186.319 0.537039 186.264L13.1711 180.3L18.6421 180.77L17.6316 187.317Z" fill="#FFB68D"/>
<path d="M54.9744 83.0157C54.0061 83.6314 48.3518 86.7758 35.6755 85.6619C35.6287 85.6565 35.5814 85.6676 35.5419 85.6934C35.5025 85.7191 35.4732 85.7579 35.4593 85.8029L20.9122 133.021C19.8735 136.391 19.8077 140.259 19.3001 143.747C18.393 149.955 16.1463 160.07 14.9806 168.328C14.9747 168.379 14.9878 168.43 15.0173 168.472C15.0468 168.514 15.0907 168.543 15.1404 168.554C16.2215 168.803 21.8053 170.072 22.4492 170.18C22.6795 170.218 27.6194 158.467 29.5841 151.789C31.1398 146.482 31.3137 140.908 31.873 139.479L44.0089 110.037C44.0433 109.95 44.1069 109.878 44.1886 109.834C44.2704 109.789 44.3652 109.774 44.4567 109.792C44.5482 109.81 44.6305 109.859 44.6895 109.932C44.7485 110.004 44.7804 110.094 44.7797 110.187C44.7797 110.187 44.634 138.661 45.151 148.165C45.5129 155.008 44.1076 168.46 44.4272 171.924C44.4316 171.972 44.4529 172.017 44.4874 172.05C44.5218 172.084 44.5672 172.104 44.6152 172.107L51.7548 172.676C51.8053 172.679 51.8551 172.664 51.895 172.633C51.9348 172.601 51.9619 172.557 51.971 172.507C52.2859 170.787 54.5326 157.222 55.3739 152.348C55.9661 148.94 55.3269 145.974 55.4773 144.358C56.7651 130.313 62.9976 109.478 62.1656 99.8094C61.4418 91.4854 58.0953 86.7382 55.2658 83.0768C55.2515 83.0527 55.2323 83.0319 55.2096 83.0156C55.1868 82.9993 55.1609 82.988 55.1335 82.9822C55.1061 82.9765 55.0778 82.9765 55.0504 82.9822C55.023 82.988 54.9971 82.9994 54.9744 83.0157Z" fill="#754661"/>
<path d="M44.5823 38.8764C44.5823 38.9879 44.6154 39.097 44.6773 39.1898C44.7393 39.2825 44.8274 39.3548 44.9305 39.3975C45.0335 39.4402 45.1469 39.4513 45.2563 39.4296C45.3657 39.4078 45.4662 39.3541 45.5451 39.2752C45.624 39.1963 45.6777 39.0958 45.6995 38.9864C45.7212 38.877 45.7101 38.7636 45.6674 38.6606C45.6247 38.5575 45.5524 38.4694 45.4596 38.4074C45.3669 38.3455 45.2578 38.3124 45.1463 38.3124C44.9967 38.3124 44.8532 38.3718 44.7475 38.4776C44.6417 38.5833 44.5823 38.7268 44.5823 38.8764Z" fill="#683E54"/>
<path d="M39.3792 38.0773C39.3792 38.1889 39.4122 38.2979 39.4742 38.3907C39.5362 38.4834 39.6243 38.5557 39.7273 38.5984C39.8304 38.6411 39.9438 38.6523 40.0532 38.6305C40.1626 38.6087 40.2631 38.555 40.342 38.4761C40.4209 38.3973 40.4746 38.2968 40.4964 38.1874C40.5181 38.078 40.5069 37.9645 40.4643 37.8615C40.4216 37.7584 40.3493 37.6703 40.2565 37.6084C40.1638 37.5464 40.0547 37.5133 39.9432 37.5133C39.7936 37.5133 39.6501 37.5727 39.5443 37.6785C39.4386 37.7843 39.3792 37.9277 39.3792 38.0773Z" fill="#683E54"/>
<path d="M43.5342 31.1822C43.5342 31.1822 48.5305 38.7025 51.642 39.8634C54.7535 41.0244 52.7136 33.0858 52.7136 33.0858L44.164 29.5184L43.5342 31.1822Z" fill="#A34126"/>
<path d="M43.5578 31.1822C43.5578 31.1822 39.3934 32.8461 38.1761 37.3254C37.6027 39.4451 36.766 39.1255 37.0151 37.8424C37.3394 36.2725 38.679 33.3255 38.679 33.3255L42.9608 30.7075L43.5578 31.1822Z" fill="#A34126"/>
<path d="M50.9229 40.8974C50.3072 41.8657 50.3683 43.0125 51.064 43.4496C51.7596 43.8867 52.8171 43.4496 53.414 42.5096C54.011 41.5696 53.964 40.3945 53.273 39.9527C52.5821 39.5109 51.5387 39.9574 50.9229 40.8974Z" fill="#FFB68D"/>
<path d="M33.9316 90.8274C33.9316 90.8274 41.2639 99.236 58.5182 87.7911C58.5182 87.7911 57.1646 85.6055 56.6946 84.971C56.2245 84.3365 34.9516 87.1002 34.9516 87.1002L33.9316 90.8274Z" fill="#8E5076"/>
<path d="M44.8692 37.1373C44.9733 37.116 45.0784 37.1003 45.1841 37.0903C45.2937 37.0833 45.4036 37.0833 45.5132 37.0903C45.7363 37.0932 45.9585 37.1199 46.1759 37.1702C46.394 37.221 46.6066 37.2935 46.8104 37.3864C47.0132 37.482 47.2081 37.5936 47.3932 37.7201C47.42 37.7381 47.4529 37.7448 47.4846 37.7386C47.5163 37.7324 47.5443 37.714 47.5624 37.6872C47.5798 37.6606 47.5865 37.6285 47.5812 37.5972C47.576 37.5658 47.5592 37.5376 47.5342 37.518C47.3417 37.3727 47.1373 37.2438 46.9232 37.1326C46.7077 37.0208 46.4808 36.9325 46.2464 36.8694C46.0112 36.8055 45.7704 36.7645 45.5273 36.7472C45.2775 36.7296 45.0266 36.7422 44.7799 36.7848C44.7319 36.7935 44.6894 36.821 44.6616 36.8611C44.6338 36.9012 44.6231 36.9507 44.6319 36.9987C44.6406 37.0467 44.668 37.0892 44.7081 37.117C44.7482 37.1448 44.7977 37.1554 44.8457 37.1467L44.8692 37.1373Z" fill="#683E54"/>
<path d="M41.8138 35.5769C41.6255 35.4871 41.4287 35.4163 41.2263 35.3654C41.024 35.307 40.816 35.2707 40.6059 35.2573C40.4015 35.244 40.1961 35.2567 39.9949 35.2949C39.7915 35.3311 39.5939 35.3943 39.4074 35.4829C39.3927 35.4885 39.3794 35.4971 39.3682 35.5081C39.357 35.5191 39.3483 35.5324 39.3426 35.547C39.3368 35.5616 39.3342 35.5772 39.3348 35.5929C39.3354 35.6086 39.3393 35.6239 39.3463 35.638C39.3578 35.6653 39.3792 35.6873 39.4062 35.6995C39.4332 35.7117 39.4638 35.7133 39.492 35.7038C39.6619 35.6333 39.8405 35.5859 40.0231 35.5628C40.2056 35.5393 40.3904 35.5393 40.573 35.5628C40.7561 35.5825 40.937 35.6187 41.1135 35.6709C41.2864 35.7242 41.4533 35.7951 41.6117 35.8824C41.6324 35.8938 41.6551 35.9011 41.6786 35.9037C41.7021 35.9064 41.7258 35.9043 41.7485 35.8978C41.7712 35.8912 41.7924 35.8803 41.8109 35.8656C41.8293 35.8508 41.8447 35.8326 41.8561 35.8119C41.8676 35.7912 41.8748 35.7685 41.8774 35.745C41.8801 35.7216 41.8781 35.6978 41.8715 35.6751C41.865 35.6524 41.854 35.6312 41.8393 35.6128C41.8245 35.5943 41.8063 35.5789 41.7856 35.5675L41.8138 35.5769Z" fill="#683E54"/>
<path d="M46.7446 39.4451H46.7728C46.7824 39.434 46.7876 39.4198 46.7876 39.4052C46.7876 39.3905 46.7824 39.3763 46.7728 39.3652C46.5397 39.0064 46.2114 38.7197 45.8245 38.537C45.4377 38.3544 45.0076 38.2831 44.5825 38.3312C44.5747 38.3312 44.5669 38.3328 44.5598 38.3359C44.5526 38.339 44.5461 38.3436 44.5408 38.3493C44.5355 38.3551 44.5315 38.3619 44.5289 38.3693C44.5264 38.3766 44.5254 38.3845 44.5261 38.3923C44.5267 38.4003 44.5288 38.4082 44.5325 38.4153C44.5361 38.4225 44.5411 38.4289 44.5472 38.4342C44.5534 38.4394 44.5605 38.4434 44.5681 38.4459C44.5758 38.4484 44.5839 38.4493 44.5919 38.4487C44.9943 38.4024 45.4017 38.4689 45.7685 38.6407C46.1354 38.8125 46.4473 39.0829 46.6694 39.4216C46.6763 39.4346 46.6881 39.4443 46.7022 39.4487C46.7162 39.4531 46.7314 39.4518 46.7446 39.4451Z" fill="#683E54"/>
<path d="M41.4755 38.5474H41.5037C41.5133 38.5363 41.5186 38.5221 41.5186 38.5074C41.5186 38.4927 41.5133 38.4786 41.5037 38.4675C41.2707 38.1087 40.9423 37.8219 40.5555 37.6393C40.1686 37.4566 39.7385 37.3853 39.3134 37.4334C39.3054 37.434 39.2976 37.4362 39.2904 37.4398C39.2832 37.4435 39.2768 37.4485 39.2715 37.4546C39.2663 37.4607 39.2623 37.4678 39.2598 37.4755C39.2573 37.4831 39.2564 37.4912 39.257 37.4992C39.2576 37.5071 39.2598 37.5147 39.2635 37.5217C39.2671 37.5287 39.2723 37.5348 39.2785 37.5397C39.2847 37.5446 39.2918 37.5481 39.2995 37.55C39.3071 37.5519 39.3151 37.5523 39.3228 37.5509C39.7311 37.5047 40.1442 37.5735 40.5154 37.7496C40.8866 37.9257 41.2013 38.202 41.4238 38.5474C41.4318 38.5515 41.4407 38.5536 41.4497 38.5536C41.4587 38.5536 41.4675 38.5515 41.4755 38.5474Z" fill="#683E54"/>
<path d="M42.7539 43.0831C42.7689 43.0831 42.7832 43.0771 42.7938 43.0666C42.8044 43.056 42.8103 43.0416 42.8103 43.0267C42.8116 43.0189 42.8113 43.0109 42.8094 43.0033C42.8074 42.9957 42.8039 42.9885 42.7991 42.9823C42.7942 42.9761 42.7881 42.971 42.7811 42.9673C42.7741 42.9636 42.7665 42.9614 42.7586 42.9609C41.5789 42.8575 41.1981 42.2277 41.1276 42.0867C42.0434 40.7857 42.4129 39.1776 42.157 37.6074C42.1551 37.6 42.1518 37.593 42.1473 37.5869C42.1427 37.5807 42.137 37.5756 42.1305 37.5716C42.1173 37.5637 42.1014 37.5614 42.0865 37.5651C42.0715 37.5688 42.0587 37.5784 42.0507 37.5916C42.0428 37.6048 42.0404 37.6206 42.0442 37.6356C42.2808 39.1854 41.9012 40.7663 40.9866 42.0397C40.9821 42.0484 40.9797 42.058 40.9797 42.0679C40.9797 42.0777 40.9821 42.0873 40.9866 42.0961C40.9866 42.1337 41.3297 42.9468 42.7304 43.0784L42.7539 43.0831Z" fill="#683E54"/>
<path d="M42.4345 45.5083C43.1869 45.4983 43.9316 45.3551 44.6341 45.0853C44.6483 45.0782 44.6595 45.0662 44.6655 45.0515C44.6716 45.0368 44.6721 45.0205 44.667 45.0054C44.6593 44.9918 44.6472 44.9812 44.6327 44.9753C44.6182 44.9693 44.6022 44.9683 44.5871 44.9725C43.5247 45.4016 42.3549 45.4886 41.2406 45.2216C41.225 45.2173 41.2084 45.2193 41.1943 45.2272C41.1802 45.2352 41.1698 45.2483 41.1654 45.2639C41.1622 45.2794 41.1647 45.2956 41.1725 45.3094C41.1803 45.3232 41.1928 45.3338 41.2077 45.3391C41.6063 45.4545 42.0195 45.5115 42.4345 45.5083Z" fill="#683E54"/>
<path d="M57.1036 85.5491C57.1036 85.5491 44.3802 93.8919 34.7637 88.6606C33.5416 87.9979 37.6402 86.7429 35.4452 71.6977C34.8086 70.7265 34.3103 69.6713 33.9646 68.5627C34.6979 66.8048 35.4687 63.7732 35.793 62.7204L27.5536 73.5308C27.253 73.9035 27.089 74.3679 27.089 74.8468C27.089 75.3257 27.253 75.7901 27.5536 76.1629C27.5701 76.1874 27.5799 76.2158 27.582 76.2453C27.5842 76.2747 27.5785 76.3043 27.5657 76.3309C27.5528 76.3575 27.5333 76.3803 27.5089 76.397C27.4845 76.4137 27.4562 76.4237 27.4267 76.4261C26.5132 76.5209 25.6176 76.744 24.7664 77.0888C23.921 77.4331 23.1454 77.9284 22.4774 78.5505C22.4602 78.5672 22.4394 78.5797 22.4166 78.587C22.3937 78.5942 22.3695 78.5961 22.3459 78.5925C22.3222 78.5888 22.2997 78.5798 22.2801 78.566C22.2605 78.5522 22.2444 78.534 22.233 78.5129C21.6549 77.446 20.9734 76.2193 20.5127 75.392C20.3519 75.098 20.2676 74.7683 20.2676 74.4332C20.2676 74.0981 20.3519 73.7683 20.5127 73.4744C21.9228 70.8329 27.093 63.5241 29.0294 61.2539C38.6037 49.9218 41.3063 53.6819 41.3063 53.6819C41.1758 54.054 41.0752 54.436 41.0055 54.8241C40.6201 56.8828 40.9256 59.2704 41.2593 60.9343C41.3052 61.1389 41.4066 61.3269 41.5524 61.4778C41.6981 61.6286 41.8826 61.7363 42.0855 61.7892C42.2884 61.8422 42.502 61.8382 42.7028 61.7777C42.9036 61.7173 43.0839 61.6028 43.224 61.4466C45.3708 58.9582 47.3853 56.3585 49.259 53.6584C49.6045 53.6265 49.9522 53.6265 50.2977 53.6584C51.9917 53.8095 53.6044 54.4533 54.9368 55.5103C53.6818 58.2411 54.3916 61.4184 53.6912 64.3184C53.6341 64.0366 53.5409 63.7633 53.4139 63.5053C52.535 66.8988 53.334 69.2865 53.5596 71.6601C53.4835 71.6677 53.4066 71.6585 53.3344 71.6334C53.2622 71.6082 53.1963 71.5676 53.1413 71.5144C51.6749 70.2782 50.011 75.862 50.1285 75.9608C52.7747 78.2121 52.5068 78.4941 54.9274 79.1992C54.9998 79.2214 55.0736 79.2386 55.1483 79.2509C55.4867 83.3494 57.1036 85.5491 57.1036 85.5491Z" fill="#E57F23"/>
<path d="M53.1461 71.5097C51.6797 70.2735 50.0158 75.8573 50.1333 75.956C52.7795 78.2074 52.5116 78.4941 54.9322 79.1944C55.0046 79.2166 55.0784 79.2339 55.1531 79.2461C54.3307 76.7861 53.7975 74.2387 53.5645 71.6554C53.4883 71.6626 53.4116 71.6534 53.3394 71.6282C53.2672 71.6031 53.2013 71.5626 53.1461 71.5097Z" fill="#F49B42"/>
<path d="M50.3024 53.6538C50.3024 53.6538 47.5246 59.0919 45.7197 59.9144C44.3802 60.5254 43.5906 61.9167 43.2757 62.5935L42.5612 61.8368C42.5314 62.2687 42.5314 62.7021 42.5612 63.134C41.8421 63.2797 40.5966 63.2374 40.2111 61.3761C39.8257 59.5149 39.6706 57.9873 39.3933 56.7935C39.8304 57.2024 40.3333 57.6912 40.841 58.2693L39.6518 54.4011L40.9867 54.8006C40.6013 56.8593 40.9068 59.247 41.2405 60.9108C41.2806 61.1213 41.3792 61.3163 41.5249 61.4734C41.6706 61.6306 41.8576 61.7436 42.0645 61.7994C42.2714 61.8553 42.4899 61.8519 42.6949 61.7895C42.8999 61.7271 43.0833 61.6083 43.2239 61.4466C45.3708 58.9582 47.3853 56.3586 49.259 53.6585C49.4 53.6585 49.5551 53.635 49.729 53.635C49.9203 53.6315 50.1117 53.6378 50.3024 53.6538Z" fill="#E9E6ED"/>
<path d="M43.2756 62.5935C43.2137 62.7172 43.1587 62.8443 43.1111 62.9742C42.9421 63.0467 42.7655 63.1003 42.5847 63.134C42.5548 62.7021 42.5548 62.2686 42.5847 61.8367L43.2756 62.5935Z" fill="#CCCACE"/>
<path d="M55.2517 80.158C53.8295 80.0592 52.4503 79.6274 51.2257 78.8975C50.001 78.1676 48.9651 77.16 48.2015 75.956C43.6846 70.2594 42.7493 65.3712 42.5613 63.134C42.7421 63.1003 42.9187 63.0467 43.0877 62.9742C43.1354 62.8443 43.1903 62.7172 43.2522 62.5934L53.7148 73.7422L55.0731 78.4706L55.2517 80.158Z" fill="#D6711E"/>
<path d="M40.8741 58.2881C40.3476 57.71 39.8635 57.2211 39.4264 56.8122C39.3304 56.319 39.1592 55.8434 38.9188 55.4022C38.2373 54.2459 39.2854 54.3164 39.2854 54.3164L39.6849 54.4386L40.8741 58.2881Z" fill="#CCCACE"/>
<path d="M38.8951 55.3646C39.1355 55.8059 39.3067 56.2815 39.4027 56.7747C36.874 54.3964 35.8729 54.6173 35.8118 54.6314C36.5732 54.0768 39.163 52.7513 39.163 52.7513L39.6612 54.3776L39.2617 54.2554C39.2617 54.2554 38.2136 54.2084 38.8951 55.3646Z" fill="#D6711E"/>
<path d="M50.5798 75.11C50.0063 74.3908 49.7995 74.3438 49.2778 73.6059C48.2344 72.1301 47.2708 70.6213 46.3637 69.0844C44.5703 66.0253 42.9691 62.8575 41.5695 59.5994C41.3613 59.0622 41.3661 58.4657 41.5828 57.9319C41.7996 57.398 42.212 56.9671 42.7358 56.7271C43.2596 56.4871 43.8553 56.4561 44.4012 56.6405C44.947 56.825 45.4019 57.2108 45.6728 57.7193C47.1226 60.7394 48.755 63.6683 50.561 66.4899C51.4634 67.8999 53.1696 70.203 54.166 71.5049C54.6736 72.1583 50.8665 75.4672 50.5798 75.11Z" fill="#F7AE8B"/>
<path d="M42.7539 50.5093C42.7539 50.5093 41.2263 48.3801 40.5965 48.0793C39.9667 47.7785 39.0689 47.3461 38.3874 47.8067C38.3264 47.8468 38.2744 47.8993 38.2349 47.9608C38.1954 48.0223 38.1693 48.0914 38.1582 48.1636C38.1472 48.2358 38.1514 48.3096 38.1706 48.3801C38.1899 48.4506 38.2237 48.5162 38.2699 48.5728C38.3296 48.6382 38.4087 48.6827 38.4955 48.6997C38.9279 48.7702 40.4085 49.3813 40.8738 50.4012C40.9208 50.5093 40.8738 50.6127 40.7657 50.5422C40.2481 50.2218 39.6963 49.9601 39.1206 49.762C38.6506 49.6163 38.3545 49.4894 38.0584 49.9124C38.0008 50.0059 37.9641 50.1107 37.9505 50.2197C37.937 50.3287 37.9471 50.4393 37.9801 50.5441C38.0131 50.6488 38.0682 50.7453 38.1417 50.8268C38.2153 50.9084 38.3055 50.9732 38.4062 51.0169L39.4309 51.7078C39.4309 51.7078 39.3651 51.8394 39.3322 51.8253L38.2323 51.2378C38.0654 51.1687 37.8802 51.1571 37.7059 51.2049C37.4803 51.2754 37.2359 51.4587 37.3722 51.9429C37.4615 52.3424 38.1054 52.803 38.3874 53.0145C38.3874 53.0145 38.3216 53.132 38.2981 53.1226L37.7106 52.9017C37.6562 52.8761 37.5968 52.8629 37.5367 52.8629C37.4766 52.8629 37.4172 52.8761 37.3628 52.9017C37.2917 52.9454 37.2379 53.0123 37.2105 53.0911C37.1831 53.1699 37.1838 53.2557 37.2124 53.3341C37.3346 53.9122 38.9044 55.2142 39.3557 55.8534C40.2628 57.0848 40.0043 57.7335 41.1746 58.462C42.345 59.1905 45.3155 57.1412 45.3155 57.1412C45.3155 57.1412 44.4694 54.8805 44.2861 54.3211C43.7268 52.6385 43.3978 50.2978 44.7891 48.8313C44.7891 48.8313 44.7467 48.037 43.6563 48.8313C43.3765 49.0122 43.1471 49.2609 42.9893 49.5542C42.8315 49.8476 42.7505 50.1762 42.7539 50.5093Z" fill="#F7AE8B"/>
<path d="M43.1911 188.013C43.007 188.013 42.8303 187.94 42.6992 187.811C42.5681 187.682 42.4933 187.506 42.4908 187.322C42.4485 182.899 43.2992 180.422 43.694 179.891C45.3344 177.668 47.6939 178.072 49.1697 178.674C49.7116 178.901 50.1963 179.246 50.5889 179.683C50.9815 180.12 51.2721 180.639 51.4399 181.202L52.2765 183.938C52.3376 184.154 53.1884 185.066 53.0897 185.78C53.0333 186.222 52.9769 186.795 52.9158 187.251C52.8852 187.463 52.7796 187.656 52.6182 187.796C52.4568 187.936 52.2504 188.013 52.0368 188.013H43.1911Z" fill="#CAE3E8"/>
<path d="M0.631091 188.013H19.319C19.3613 188.013 20.4987 187.477 18.8489 182.923C18.7943 182.761 18.6899 182.62 18.5506 182.522C18.4112 182.423 18.2442 182.371 18.0734 182.373C18.0734 182.373 14.6 182.843 12.9455 181.433L11.4885 179.929C11.3514 179.797 11.1862 179.699 11.0055 179.641C10.8247 179.584 10.6331 179.568 10.4454 179.596C10.2577 179.623 10.0788 179.694 9.9223 179.801C9.76584 179.908 9.63597 180.05 9.54261 180.215C8.13256 182.26 6.95282 182.923 6.25249 183.162C6.25249 183.162 1.90954 184.535 0.640491 185.348C-0.21024 185.898 -0.130337 187.134 0.396082 187.891C0.423804 187.927 0.459255 187.957 0.499887 187.978C0.54052 187.999 0.585327 188.011 0.631091 188.013Z" fill="#CAE3E8"/>
<path d="M14.9807 165.208V168.498C16.0571 168.817 17.2039 169.118 18.4118 169.4C19.8219 169.724 21.1708 169.983 22.4493 170.19L24.2494 167.276L14.9807 165.208Z" fill="#8E5076"/>
<path d="M43.9431 168.888L44.4131 172.15C45.5286 172.31 46.7037 172.444 47.9383 172.554C49.3812 172.676 50.5516 172.733 51.8441 172.756C52.3138 171.736 52.6868 170.674 52.958 169.583L43.9431 168.888Z" fill="#8E5076"/>
<path d="M54.9415 55.5056C54.9415 55.5056 59.2281 57.475 59.2939 68.1961C59.3362 74.4191 58.9273 75.7492 56.4738 78.8138C56.3672 78.9447 56.2185 79.0345 56.053 79.068C55.8876 79.1014 55.7157 79.0763 55.5666 78.9971C54.48 78.4016 53.4314 77.7391 52.4269 77.0136C51.2681 76.2164 50.2858 75.1892 49.541 73.9961L53.5174 70.6684L54.3258 71.6601C54.3258 71.6601 54.4198 68.7507 53.4187 63.5241C53.1225 61.973 52.6384 57.2917 52.6384 57.2917L54.9415 55.5056Z" fill="#E57F23"/>
<path d="M31.6193 5.6885L32.8555 5.5616C32.9674 5.5542 33.0746 5.51357 33.1634 5.44492C33.2521 5.37626 33.3184 5.28269 33.3537 5.17618C33.5417 4.55106 34.242 3.27261 36.8083 3.07051C40.2394 2.8026 42.5566 6.39353 39.0597 10.0268C37.1179 12.0953 36.0474 14.8322 36.0704 17.6692C36.0706 17.7483 36.0874 17.8265 36.1198 17.8987C36.1522 17.9709 36.1994 18.0354 36.2583 18.0882C36.3173 18.1409 36.3867 18.1807 36.462 18.2049C36.5373 18.2291 36.6169 18.2371 36.6955 18.2286L38.3265 18.0546C38.4504 18.0428 38.567 17.9903 38.6579 17.9053C38.7489 17.8202 38.8092 17.7075 38.8294 17.5846C39.0503 16.2122 39.9339 11.8927 42.4673 10.0644C45.4801 7.82708 44.6341 0.161101 36.9117 0.00599579H36.8835C36.5686 0.00599579 30.966 -0.384118 31.0036 5.12918C31.0032 5.20763 31.0193 5.28528 31.0509 5.3571C31.0824 5.42892 31.1288 5.49329 31.1868 5.54604C31.2449 5.59879 31.3134 5.63873 31.3879 5.66327C31.4624 5.68782 31.5413 5.69641 31.6193 5.6885Z" fill="#CEDFA8"/>
<path d="M38.5998 20.224L36.8329 20.4106C36.5361 20.442 36.3208 20.7081 36.3522 21.0049L36.5418 22.7998C36.5731 23.0967 36.8392 23.3119 37.1361 23.2806L38.9029 23.0939C39.1998 23.0626 39.415 22.7965 39.3837 22.4996L39.1941 20.7047C39.1627 20.4079 38.8966 20.1926 38.5998 20.224Z" fill="#CEDFA8"/>
</svg>
