<?xml version="1.0" encoding="UTF-8"?><svg xmlns="http://www.w3.org/2000/svg" viewBox="0 0 327.75 963.09"><defs><style>.d{fill:#fff8ed;}.e{fill:rgba(179,199,103,.69);}.e,.f,.g,.h,.i,.j{fill-rule:evenodd;}.f{fill:#96a96f;}.g{fill:#cedfa8;}.h{fill:#ddecbf;}.i{fill:#d7e6b6;}.j{fill:#a6bf73;}</style></defs><g id="a"/><g id="b"><g id="c"><g><rect class="d" x="0" width="327.75" height="963.09"/><path class="g" d="M60.95,963.09c-6.87-23.01-3.47-48.94,10.05-68.79,12.1-17.75,37.72-14.96,56.76-24.9,21.95-11.46,37-41.59,61.29-36.74,24.82,4.96,34.64,34.61,44.62,57.89,9.86,22.98,17.42,47.24,10.82,71.36-.11,.4-.22,.79-.33,1.19"/><path class="f" d="M327.75,766.86c-7.11-3.28-14.34-6.12-21.63-6.68-19.64-1.48-39.3,14.8-56.59,5.35-20.6-11.26-40.45-33.37-37.22-56.63,3.18-22.87,32.82-28.63,51.04-42.8,14.32-11.14,24.8-27.77,42.78-30.16,7.22-.96,14.53-.77,21.63,.49"/><path class="h" d="M327.75,178.35c-12.01,9.16-25.74,15.61-40.71,14.89-19.96-.96-33.56-17.96-48.65-31.11-17-14.82-39.38-26.54-43.07-48.85-4.09-24.73,4.41-52.39,23.68-68.32,18.31-15.14,44.33-8.13,68.04-7.5,13.43,.36,27.8-1.32,40.71,.5"/><path class="i" d="M0,325.64c4.24,.53,7.6,.99,11.64,1.24,14.64,.9,28.67,2.22,41.15,9.91,17.22,10.61,42.35,20.85,41.49,41.02-.86,20.24-30.26,23.57-44.85,37.68-14.13,13.67-18.52,38.3-37.79,42.28-3.78,.78-7.69,1.14-11.64,1.09"/><path class="e" d="M327.75,533.03c-15.88,2.04-31.75,2.2-45.77-5.56-17.33-9.59-24.89-28.34-34.09-45.87-13.57-25.87-39.28-50.37-31.05-78.35,8.96-30.47,39.29-57.72,71.1-57.87,17.91-.08,28.63,14.58,39.8,29.75"/><path class="j" d="M0,563.46c12.92-6.98,26.06-12.43,40.77-10.96,25.81,2.57,46.78,18.63,64.65,37.27,22.94,23.94,58.04,49.67,49.52,81.86-8.53,32.23-53.1,34.68-83.84,47.84-22.31,9.55-44.52,23.36-67.87,17.11-1.11-.3-2.19-.64-3.23-1.02"/><path class="g" d="M0,0V100.24c14.34,1.93,29.86-1.16,44.74-3.71,17.2-2.94,31.49-11.25,45.4-21.76,17.3-13.08,40.18-23.81,43.22-45.24C134.8,19.32,132.65,9.33,128.31,0H0Z"/></g></g></g></svg>