<svg width="62" height="65" viewBox="0 0 62 65" fill="none" xmlns="http://www.w3.org/2000/svg">
<path d="M21.7235 61.0071V51.0402C21.7235 48.5051 23.7986 46.4452 26.3696 46.4282H35.7873C38.3706 46.4282 40.4648 48.493 40.4648 51.0402V61.038C40.4642 63.1904 42.2065 64.9496 44.3889 65H50.6673C56.9262 65 62 59.9972 62 53.8259V25.473C61.9666 23.0452 60.8105 20.7654 58.8608 19.2824L37.3884 2.22723C33.6266 -0.74241 28.2792 -0.74241 24.5175 2.22723L3.13924 19.3133C1.18211 20.7903 0.0241039 23.0739 0 25.5039V53.8259C0 59.9972 5.0738 65 11.3327 65H17.6111C19.8477 65 21.6608 63.2123 21.6608 61.0071" fill="#333333"/>
</svg>
