<svg width="390" height="844" viewBox="0 0 390 844" fill="none" xmlns="http://www.w3.org/2000/svg">
<g clip-path="url(#clip0_154_322)">
<rect width="390" height="844" fill="white"/>
<rect width="390" height="844" fill="#FFF8ED"/>
<path fill-rule="evenodd" clip-rule="evenodd" d="M364.261 756.725C388.151 753.541 412.792 760.942 430.807 776.961C449.832 793.879 459.833 818.164 461.899 843.549C464.169 871.434 466.323 907.125 442.608 921.945C419.021 936.684 391.99 906.659 364.261 904.563C340.889 902.796 317.491 922.175 296.921 910.932C272.409 897.535 248.784 871.23 252.63 843.549C256.411 816.335 291.68 809.477 313.36 792.615C330.396 779.365 342.873 759.576 364.261 756.725Z" fill="#96A96F"/>
<path fill-rule="evenodd" clip-rule="evenodd" d="M341.556 44.5736C368.543 45.2876 398.679 39.1208 418.362 57.6719C438.346 76.5076 439.817 107.387 437.277 134.79C434.987 159.493 422.843 181.321 405.283 198.776C387.828 216.126 366.09 231.117 341.556 229.934C317.8 228.789 301.627 208.568 283.668 192.913C263.437 175.276 236.805 161.327 232.413 134.79C227.543 105.366 237.659 72.4553 260.593 53.4981C282.383 35.4868 313.342 43.8272 341.556 44.5736Z" fill="#DDECBF"/>
<path fill-rule="evenodd" clip-rule="evenodd" d="M13.8558 388.961C31.2759 390.033 47.9693 391.6 62.8154 400.748C83.3112 413.378 113.214 425.557 112.191 449.556C111.165 473.643 76.1798 477.598 58.8264 494.388C42.0175 510.651 36.7929 539.965 13.8558 544.7C-11.113 549.855 -41.2093 539.435 -54.6047 517.805C-67.1878 497.488 -47.5792 473.303 -45.0679 449.556C-43.051 430.485 -54.9359 408.095 -41.5463 394.325C-28.1208 380.519 -5.39597 387.776 13.8558 388.961Z" fill="#E5EBC8"/>
<path fill-rule="evenodd" clip-rule="evenodd" d="M53.2391 -62.6295C79.6053 -65.1814 105.605 -54.3477 124.998 -36.3649C145.108 -17.7174 162.519 8.03959 158.683 35.1454C155.073 60.6477 127.845 73.4078 107.256 88.9752C90.7086 101.487 73.7116 111.372 53.2391 114.872C27.1209 119.337 -0.646004 125.215 -23.1488 111.268C-50.3818 94.3901 -79.4709 66.8458 -75.3998 35.1454C-71.3852 3.88447 -30.9612 -4.59101 -5.81504 -23.7039C13.6932 -38.5316 28.8189 -60.266 53.2391 -62.6295Z" fill="#CEDFA8"/>
<path fill-rule="evenodd" clip-rule="evenodd" d="M258.031 479.838C268.693 443.579 304.782 411.158 342.64 410.982C378.678 410.814 390.232 460.804 421.319 479.079C451.851 497.027 503.648 481.17 517.456 513.749C531.095 545.928 498.952 579.855 474.646 604.9C455.974 624.14 428.766 628.105 402.272 632.437C379.405 636.177 355.836 638.879 335.543 627.649C314.916 616.235 305.922 593.93 294.982 573.067C278.839 542.284 248.242 513.132 258.031 479.838Z" fill="#CBD691"/>
<path fill-rule="evenodd" clip-rule="evenodd" d="M-28.5192 686.432C-3.19969 673.282 20.2053 654.606 48.5114 657.428C79.2242 660.49 104.179 679.592 125.445 701.781C152.746 730.267 194.505 760.887 184.371 799.183C174.221 837.536 121.187 840.45 84.6027 856.113C58.0559 867.478 31.6261 883.915 3.84412 876.472C-22.7556 869.346 -33.5227 840.511 -51.3976 819.677C-73.863 793.493 -118.251 775.115 -112.393 740.995C-106.549 706.958 -59.287 702.411 -28.5192 686.432Z" fill="#A6BF73"/>
</g>
<defs>
<clipPath id="clip0_154_322">
<rect width="390" height="844" fill="white"/>
</clipPath>
</defs>
</svg>
