<svg width="50" height="50" viewBox="0 0 50 50" fill="none" xmlns="http://www.w3.org/2000/svg">
<circle cx="25" cy="25" r="25" fill="#96A96F"/>
<path d="M21.9172 36.5413V32.5061C21.9172 31.4797 22.7539 30.6458 23.7906 30.6389H27.5881C28.6297 30.6389 29.4742 31.4748 29.4742 32.5061V36.5538C29.4739 37.4252 30.1765 38.1374 31.0564 38.1578H33.5881C36.1118 38.1578 38.1577 36.1324 38.1577 33.6339V22.155C38.1442 21.1721 37.6781 20.2491 36.8919 19.6487L28.2337 12.7438C26.7168 11.5415 24.5606 11.5415 23.0438 12.7438L14.4235 19.6612C13.6344 20.2592 13.1674 21.1837 13.1577 22.1675V33.6339C13.1577 36.1324 15.2036 38.1578 17.7273 38.1578H20.259C21.1608 38.1578 21.8919 37.4341 21.8919 36.5413" fill="white"/>
</svg>
