<svg width="316" height="484" viewBox="0 0 316 484" fill="none" xmlns="http://www.w3.org/2000/svg">
<g filter="url(#filter0_d_188_110)">
<path d="M295.938 16.6035H14.0624V470H295.938V16.6035Z" fill="#474340"/>
<path d="M290.835 178.894H21.1161V190.678H290.835V178.894Z" fill="#C4B9B1"/>
<path d="M289.807 88.725H21.1161V100.508H289.807V88.725Z" fill="#C4B9B1"/>
<path d="M295.938 189.794H14.0624V203.932H295.938V189.794Z" fill="#8A817B"/>
<path d="M155.267 67.0894H156.618C157.156 67.0894 157.598 67.5268 157.598 68.0702V68.1409H154.287V68.0702C154.287 67.5312 154.724 67.0894 155.267 67.0894Z" fill="#7AD0FF"/>
<path d="M154.543 68.0172H157.496C164.793 68.0172 170.721 73.9463 170.721 81.2539V86.5512H141.319V81.2539C141.319 73.9508 147.242 68.0172 154.543 68.0172Z" fill="#119FED"/>
<path d="M156.724 67.9907H155.32V86.5468H156.724V67.9907Z" fill="#0D7AB8"/>
<path d="M145.826 84.5188C145.472 79.3673 145.393 72.6738 150.032 68.808C147.834 69.9479 143.186 73.7474 144.029 85.6985C144.881 86.2817 145.826 84.5188 145.826 84.5188Z" fill="#0D7AB8"/>
<path d="M166.183 84.5188C166.536 79.3673 166.615 72.6738 161.976 68.808C164.175 69.9479 168.822 73.7474 167.979 85.6985C167.127 86.2817 166.183 84.5188 166.183 84.5188Z" fill="#0D7AB8"/>
<path d="M172.482 93.8279C172.424 93.0944 172.195 91.1461 171.974 89.3125C171.674 86.8472 170.014 84.7619 167.684 83.9092C163.049 82.2126 159.332 81.519 156.022 81.5101C152.711 81.519 148.995 82.2126 144.36 83.9092C142.029 84.7619 140.37 86.8472 140.07 89.3125C139.849 91.1461 139.619 93.0944 139.562 93.8279C139.438 95.3609 140.842 96.2888 142.043 95.4979C147.353 92.0076 151.683 90.2403 156.022 90.2315C160.361 90.2448 164.691 92.012 170.001 95.4979C171.202 96.2843 172.605 95.3609 172.482 93.8279Z" fill="#A1DEFF"/>
<path d="M172.402 93.037C172.093 94.0753 170.981 94.5745 169.997 93.9339C164.687 90.4436 160.356 88.6763 156.017 88.6675C151.678 88.6807 147.348 90.448 142.038 93.9339C141.058 94.5789 139.946 94.0797 139.637 93.037C139.602 93.3684 139.575 93.6379 139.562 93.8278C139.438 95.3609 140.842 96.2887 142.043 95.4979C147.353 92.0076 151.683 90.2403 156.022 90.2315C160.361 90.2447 164.691 92.012 170.001 95.4979C171.202 96.2843 172.605 95.3609 172.482 93.8278C172.468 93.6379 172.442 93.3684 172.407 93.037H172.402Z" fill="#3287B8"/>
<path d="M295.938 98.8689H14.0624V113.007H295.938V98.8689Z" fill="#8A817B"/>
<path d="M175.876 185.186H134.186C131.405 185.186 129.149 182.928 129.149 180.145C129.149 177.361 131.405 175.104 134.186 175.104H175.876C178.657 175.104 180.913 177.361 180.913 180.145C180.913 182.928 178.657 185.186 175.876 185.186Z" fill="#0F8ED6"/>
<path d="M175.876 175.992H134.186C131.405 175.992 129.149 173.734 129.149 170.951C129.149 168.167 131.405 165.91 134.186 165.91H175.876C178.657 165.91 180.913 168.167 180.913 170.951C180.913 173.734 178.657 175.992 175.876 175.992Z" fill="#0F8ED6"/>
<path d="M180.339 159.424L130.235 158.633L134.45 152.92C136.013 150.473 138.714 148.993 141.619 148.993H168.447C171.347 148.993 174.053 150.473 175.616 152.92L180.343 159.428L180.339 159.424Z" fill="#3DBAFF"/>
<path d="M175.876 166.793H134.186C131.405 166.793 129.149 164.535 129.149 161.752C129.149 158.969 131.405 156.711 134.186 156.711H175.876C178.657 156.711 180.913 158.969 180.913 161.752C180.913 164.535 178.657 166.793 175.876 166.793Z" fill="#0F8ED6"/>
<path d="M131.899 166.351C131.899 166.351 142.254 165.216 155.029 165.216C167.803 165.216 178.158 166.351 178.158 166.351C178.158 166.351 167.803 167.487 155.029 167.487C142.254 167.487 131.899 166.351 131.899 166.351Z" fill="#0B608F"/>
<path d="M132.133 175.545C132.133 175.545 142.387 174.41 155.033 174.41C167.679 174.41 177.933 175.545 177.933 175.545C177.933 175.545 167.679 176.681 155.033 176.681C142.387 176.681 132.133 175.545 132.133 175.545Z" fill="#0B608F"/>
<path d="M90.8709 94.1769H49.1804C46.3996 94.1769 44.144 91.9192 44.144 89.1358C44.144 86.3524 46.3996 84.0947 49.1804 84.0947H90.8709C93.6517 84.0947 95.9073 86.3524 95.9073 89.1358C95.9073 91.9192 93.6517 94.1769 90.8709 94.1769Z" fill="#005DAB"/>
<path d="M90.8709 84.9784H49.1804C46.3996 84.9784 44.144 82.7207 44.144 79.9373C44.144 77.1539 46.3996 74.8962 49.1804 74.8962H90.8709C93.6517 74.8962 95.9073 77.1539 95.9073 79.9373C95.9073 82.7207 93.6517 84.9784 90.8709 84.9784Z" fill="#005DAB"/>
<path d="M95.3335 68.4148L45.23 67.624L49.4454 61.9114C51.0079 59.4637 53.7093 57.9836 56.6137 57.9836H83.4422C86.3422 57.9836 89.048 59.4637 90.6105 61.9114L95.338 68.4192L95.3335 68.4148Z" fill="#1291FC"/>
<path d="M90.8709 75.7843H49.1804C46.3996 75.7843 44.144 73.5266 44.144 70.7432C44.144 67.9598 46.3996 65.7021 49.1804 65.7021H90.8709C93.6517 65.7021 95.9073 67.9598 95.9073 70.7432C95.9073 73.5266 93.6517 75.7843 90.8709 75.7843Z" fill="#005DAB"/>
<path d="M46.894 75.3425C46.894 75.3425 57.2493 74.207 70.0235 74.207C82.7977 74.207 93.153 75.3425 93.153 75.3425C93.153 75.3425 82.7977 76.4779 70.0235 76.4779C57.2493 76.4779 46.894 75.3425 46.894 75.3425Z" fill="#093B63"/>
<path d="M47.1279 84.5321C47.1279 84.5321 57.3817 83.3966 70.0279 83.3966C82.6741 83.3966 92.9278 84.5321 92.9278 84.5321C92.9278 84.5321 82.6741 85.6675 70.0279 85.6675C57.3817 85.6675 47.1279 84.5321 47.1279 84.5321Z" fill="#093B63"/>
<path d="M90.8709 185.193H49.1804C46.3996 185.193 44.144 182.936 44.144 180.152C44.144 177.369 46.3996 175.111 49.1804 175.111H90.8709C93.6517 175.111 95.9073 177.369 95.9073 180.152C95.9073 182.936 93.6517 185.193 90.8709 185.193Z" fill="#005DAB"/>
<path d="M90.8709 175.995H49.1804C46.3996 175.995 44.144 173.737 44.144 170.954C44.144 168.17 46.3996 165.913 49.1804 165.913H90.8709C93.6517 165.913 95.9073 168.17 95.9073 170.954C95.9073 173.737 93.6517 175.995 90.8709 175.995Z" fill="#005DAB"/>
<path d="M95.3335 159.431L45.23 158.64L49.4454 152.928C51.0079 150.48 53.7093 149 56.6137 149H83.4422C86.3422 149 89.048 150.48 90.6105 152.928L95.338 159.436L95.3335 159.431Z" fill="#1291FC"/>
<path d="M90.8709 166.801H49.1804C46.3996 166.801 44.144 164.543 44.144 161.76C44.144 158.976 46.3996 156.719 49.1804 156.719H90.8709C93.6517 156.719 95.9073 158.976 95.9073 161.76C95.9073 164.543 93.6517 166.801 90.8709 166.801Z" fill="#005DAB"/>
<path d="M46.894 166.359C46.894 166.359 57.2493 165.223 70.0235 165.223C82.7977 165.223 93.153 166.359 93.153 166.359C93.153 166.359 82.7977 167.494 70.0235 167.494C57.2493 167.494 46.894 166.359 46.894 166.359Z" fill="#093B63"/>
<path d="M47.1279 175.548C47.1279 175.548 57.3817 174.413 70.0279 174.413C82.6741 174.413 92.9278 175.548 92.9278 175.548C92.9278 175.548 82.6741 176.684 70.0279 176.684C57.3817 176.684 47.1279 175.548 47.1279 175.548Z" fill="#093B63"/>
<path d="M260.881 94.1769H219.191C216.41 94.1769 214.155 91.9192 214.155 89.1358C214.155 86.3524 216.41 84.0947 219.191 84.0947H260.881C263.662 84.0947 265.918 86.3524 265.918 89.1358C265.918 91.9192 263.662 94.1769 260.881 94.1769Z" fill="#0D7AB8"/>
<path d="M260.881 84.9784H219.191C216.41 84.9784 214.155 82.7207 214.155 79.9373C214.155 77.1539 216.41 74.8962 219.191 74.8962H260.881C263.662 74.8962 265.918 77.1539 265.918 79.9373C265.918 82.7207 263.662 84.9784 260.881 84.9784Z" fill="#0D7AB8"/>
<path d="M265.344 68.4148L215.24 67.624L219.456 61.9114C221.018 59.4637 223.72 57.9836 226.624 57.9836H253.453C256.353 57.9836 259.058 59.4637 260.621 61.9114L265.348 68.4192L265.344 68.4148Z" fill="#12ABFF"/>
<path d="M260.881 75.7843H219.191C216.41 75.7843 214.155 73.5266 214.155 70.7432C214.155 67.9598 216.41 65.7021 219.191 65.7021H260.881C263.662 65.7021 265.918 67.9598 265.918 70.7432C265.918 73.5266 263.662 75.7843 260.881 75.7843Z" fill="#0D7AB8"/>
<path d="M216.905 75.3425C216.905 75.3425 227.26 74.207 240.034 74.207C252.808 74.207 263.163 75.3425 263.163 75.3425C263.163 75.3425 252.808 76.4779 240.034 76.4779C227.26 76.4779 216.905 75.3425 216.905 75.3425Z" fill="#08486B"/>
<path d="M217.138 84.5321C217.138 84.5321 227.392 83.3966 240.038 83.3966C252.685 83.3966 262.938 84.5321 262.938 84.5321C262.938 84.5321 252.685 85.6675 240.038 85.6675C227.392 85.6675 217.138 84.5321 217.138 84.5321Z" fill="#08486B"/>
<path d="M260.881 185.193H219.191C216.41 185.193 214.155 182.936 214.155 180.152C214.155 177.369 216.41 175.111 219.191 175.111H260.881C263.662 175.111 265.918 177.369 265.918 180.152C265.918 182.936 263.662 185.193 260.881 185.193Z" fill="#0D7AB8"/>
<path d="M260.881 175.995H219.191C216.41 175.995 214.155 173.737 214.155 170.954C214.155 168.17 216.41 165.913 219.191 165.913H260.881C263.662 165.913 265.918 168.17 265.918 170.954C265.918 173.737 263.662 175.995 260.881 175.995Z" fill="#0D7AB8"/>
<path d="M265.344 159.431L215.24 158.64L219.456 152.928C221.018 150.48 223.72 149 226.624 149H253.453C256.353 149 259.058 150.48 260.621 152.928L265.348 159.436L265.344 159.431Z" fill="#12ABFF"/>
<path d="M260.881 166.801H219.191C216.41 166.801 214.155 164.543 214.155 161.76C214.155 158.976 216.41 156.719 219.191 156.719H260.881C263.662 156.719 265.918 158.976 265.918 161.76C265.918 164.543 263.662 166.801 260.881 166.801Z" fill="#0D7AB8"/>
<path d="M216.905 166.359C216.905 166.359 227.26 165.223 240.034 165.223C252.808 165.223 263.163 166.359 263.163 166.359C263.163 166.359 252.808 167.494 240.034 167.494C227.26 167.494 216.905 166.359 216.905 166.359Z" fill="#08486B"/>
<path d="M217.138 175.548C217.138 175.548 227.392 174.413 240.038 174.413C252.685 174.413 262.938 175.548 262.938 175.548C262.938 175.548 252.685 176.684 240.038 176.684C227.392 176.684 217.138 175.548 217.138 175.548Z" fill="#08486B"/>
<path d="M102.656 303.83C102.082 290.757 100.869 283.242 98.719 277.131C98.7543 277.123 75.9294 278.594 75.9029 278.594C75.8764 278.594 53.0515 277.123 53.0868 277.131C50.9416 283.242 49.7278 290.757 49.1495 303.83C48.5757 316.903 56.212 404.802 57.2581 420.46H72.4776C73.1442 395.184 73.2986 311.133 73.6209 306.87H78.185C78.5072 311.133 78.6617 395.184 79.3282 420.46H94.5478C95.5939 404.802 103.23 316.903 102.656 303.83Z" fill="#0081ED"/>
<path d="M76.5871 279.888H74.9672V306.892H76.5871V279.888Z" fill="#005DAB"/>
<path d="M99.3811 279.155C99.1736 278.43 98.9529 277.728 98.7234 277.039C98.794 276.57 75.947 276.464 75.9029 276.928C75.8587 276.46 53.0162 276.57 53.0824 277.039C52.8528 277.728 52.6366 278.43 52.4247 279.155C60.0389 279.871 67.9532 280.206 75.8985 280.211C83.8481 280.211 91.7625 279.871 99.3722 279.155H99.3811Z" fill="#005DAB"/>
<path d="M99.0986 277.547C83.5612 279.469 68.249 279.469 52.7161 277.547C53.0604 275.806 53.4135 274.07 53.7843 272.329C68.5756 274.193 83.239 274.193 98.0348 272.329C98.4056 274.065 98.7587 275.806 99.103 277.547H99.0986Z" fill="#0081ED"/>
<path d="M75.7793 299.469V297.848C77.6641 297.848 79.2002 296.31 79.2002 294.424V279.76H80.8201V294.424C80.8201 297.207 78.5557 299.469 75.7793 299.469Z" fill="#005DAB"/>
<path d="M67.6552 275.327L65.5012 275.131L64.722 283.684L66.876 283.881L67.6552 275.327Z" fill="#0089FC"/>
<path d="M84.8876 283.886L87.0415 283.69L86.2623 275.136L84.1084 275.333L84.8876 283.886Z" fill="#0089FC"/>
<path d="M49.9661 292.418C49.9175 292.418 49.8734 292.418 49.8248 292.418L49.9749 290.797H50.0102C59.8535 290.779 61.7162 282.826 62.0517 280.365L62.1709 279.504L63.7776 279.725L63.6584 280.586C62.8683 286.334 58.8559 292.418 49.9617 292.418H49.9661Z" fill="#005DAB"/>
<path d="M101.747 292.272C101.796 292.272 101.84 292.272 101.888 292.272L101.738 290.651H101.703C91.8596 290.633 89.9969 282.68 89.6614 280.22L89.5423 279.358L87.9355 279.579L88.0547 280.44C88.8448 286.188 92.8572 292.272 101.751 292.272H101.747Z" fill="#005DAB"/>
<path d="M57.1168 290.302L55.5233 290.023L56.4679 284.651L51.0961 283.493L51.4359 281.903L58.3351 283.392L57.1168 290.302Z" fill="#005DAB"/>
<path d="M73.9012 273.658L72.3657 273.617L72.2106 279.393L73.7461 279.435L73.9012 273.658Z" fill="#005DAB"/>
<path d="M79.9505 276.84L76.8165 276.915L76.79 275.824L79.924 275.748C80.2242 275.74 80.4757 275.978 80.4846 276.283C80.4934 276.583 80.255 276.835 79.9505 276.844V276.84Z" fill="#005DAB"/>
<path d="M75.179 276.354C75.179 275.717 75.6954 275.201 76.331 275.201C76.9666 275.201 77.4831 275.717 77.4831 276.354C77.4831 276.99 76.9666 277.507 76.331 277.507C75.6954 277.507 75.179 276.99 75.179 276.354Z" fill="#D9D9D9"/>
<path d="M75.6955 241.053C74.5082 241.053 73.5459 242.016 73.5459 243.205V249.757H77.8452V243.205C77.8452 242.016 76.8829 241.053 75.6955 241.053Z" fill="#8A827C"/>
<path d="M79.4165 247.313C78.4101 246.341 77.0991 245.833 75.6954 245.851C75.6513 245.851 75.6072 245.851 75.5674 245.851C72.7998 245.957 70.5355 248.307 70.5222 251.082C70.5222 251.798 70.6591 252.496 70.9371 253.154C71.1931 253.759 71.8861 254.042 72.4909 253.786C73.0956 253.53 73.3781 252.836 73.1221 252.231C72.972 251.873 72.8925 251.489 72.897 251.095C72.9014 249.58 74.1329 248.299 75.6469 248.228C75.6513 248.228 75.6557 248.228 75.6645 248.228C76.4591 248.197 77.2095 248.48 77.7789 249.032C78.3483 249.58 78.6617 250.318 78.6617 251.113C78.6617 252.642 77.9996 253.3 77.077 254.21C75.9691 255.306 74.5919 256.671 74.5919 259.631V261.619C74.5919 262.273 75.1216 262.808 75.7793 262.808C76.437 262.808 76.9667 262.278 76.9667 261.619V259.631C76.9667 257.665 77.7524 256.887 78.75 255.898C79.7696 254.89 81.0364 253.631 81.0364 251.113C81.0364 249.668 80.4626 248.325 79.4253 247.322L79.4165 247.313Z" fill="white"/>
<path d="M97.5405 270.774H54.0888C52.3232 270.774 50.8887 269.338 50.8887 267.57V262.808C50.8887 262.41 51.2109 262.092 51.6082 262.092C52.0054 262.092 52.3276 262.415 52.3276 262.808V267.57C52.3276 268.542 53.1178 269.338 54.0933 269.338H97.5493C98.5204 269.338 99.3149 268.547 99.3149 267.57V262.808C99.3149 262.41 99.6371 262.092 100.03 262.092C100.423 262.092 100.745 262.415 100.745 262.808V267.57C100.745 269.338 99.3105 270.774 97.5449 270.774H97.5405Z" fill="#A8A8A8"/>
<path d="M102.215 259.936H49.3306V264.805H102.215V259.936Z" fill="white"/>
<path d="M59.3415 267.363H55.7529V274.361H59.3415V267.363Z" fill="white"/>
<path d="M95.4748 267.363H91.8862V274.361H95.4748V267.363Z" fill="white"/>
<path d="M75.6955 254.921C77.7067 254.921 79.3371 253.289 79.3371 251.276C79.3371 249.263 77.7067 247.631 75.6955 247.631C73.6843 247.631 72.054 249.263 72.054 251.276C72.054 253.289 73.6843 254.921 75.6955 254.921Z" fill="#ADA39C"/>
<path d="M262.643 303.234C262.078 290.386 260.886 282.999 258.776 276.994C258.811 276.986 236.379 278.43 236.353 278.43C236.326 278.43 213.894 276.986 213.929 276.994C211.819 282.999 210.628 290.386 210.063 303.234C209.811 308.995 209.334 314.142 213.916 336.025C220.453 367.265 210.884 376.19 213.541 418.6C213.541 418.6 224.58 422.753 233.876 418.6C235.09 385.066 232.203 365.432 232.813 351.475C234.274 318.043 234.415 309.313 234.388 304.555H238.317C238.29 309.309 238.432 318.039 239.893 351.475C240.502 365.432 237.619 385.066 238.829 418.6C248.125 422.753 259.164 418.6 259.164 418.6C261.822 376.195 252.248 367.265 258.789 336.025C263.371 314.142 262.894 308.995 262.643 303.234Z" fill="#008EDB"/>
<path d="M258.776 276.994C258.811 276.986 236.379 278.43 236.353 278.43C236.326 278.43 213.894 276.986 213.929 276.994C213.713 277.604 213.51 278.232 213.316 278.877C228.743 280.71 243.971 280.71 259.394 278.877C259.2 278.232 258.992 277.604 258.78 276.994H258.776Z" fill="#0C6EA6"/>
<path d="M237.121 280.096H235.527V304.55H237.121V280.096Z" fill="#0C6EA6"/>
<path d="M259.548 277.401C244.015 279.261 228.686 279.261 213.153 277.401C213.501 275.691 213.859 273.981 214.23 272.271C229.012 274.078 243.689 274.078 258.471 272.271C258.842 273.981 259.204 275.691 259.548 277.401Z" fill="#008EDB"/>
<path d="M236.326 297.645V296.05C238.18 296.05 239.69 294.539 239.69 292.683V279.707H241.283V292.683C241.283 295.418 239.058 297.645 236.326 297.645Z" fill="#0C6EA6"/>
<path d="M228.25 275.229L226.135 275.036L225.37 283.445L227.484 283.637L228.25 275.229Z" fill="#00A5FF"/>
<path d="M245.188 283.637L247.302 283.444L246.536 275.036L244.422 275.229L245.188 283.637Z" fill="#00A5FF"/>
<path d="M210.619 292.224C210.575 292.224 210.526 292.224 210.482 292.224L210.628 290.629H210.663C220.339 290.611 222.166 282.795 222.501 280.379L222.616 279.535L224.196 279.751L224.082 280.595C223.309 286.246 219.363 292.224 210.623 292.224H210.619Z" fill="#0C6EA6"/>
<path d="M262.082 292.224C262.126 292.224 262.175 292.224 262.219 292.224L262.073 290.629H262.038C252.362 290.611 250.535 282.795 250.199 280.379L250.085 279.535L248.504 279.751L248.619 280.595C249.392 286.246 253.338 292.224 262.078 292.224H262.082Z" fill="#0C6EA6"/>
<path d="M218.467 289.484L216.816 290.134L216.979 284.775L211.811 284.404L212.045 282.813L218.621 283.286L218.467 289.484Z" fill="#0C6EA6"/>
<path d="M234.29 273.479L232.781 273.438L232.628 279.113L234.137 279.154L234.29 273.479Z" fill="#0C6EA6"/>
<path d="M240.352 276.915L237.271 276.99L237.244 275.916L240.325 275.841C240.621 275.832 240.868 276.067 240.873 276.363C240.881 276.659 240.647 276.906 240.352 276.91V276.915Z" fill="#0C6EA6"/>
<path d="M235.66 276.438C235.66 275.815 236.167 275.307 236.79 275.307C237.412 275.307 237.92 275.815 237.92 276.438C237.92 277.061 237.412 277.569 236.79 277.569C236.167 277.569 235.66 277.061 235.66 276.438Z" fill="#D9D9D9"/>
<path d="M236.269 241.053C235.081 241.053 234.119 242.016 234.119 243.205V249.757H238.418V243.205C238.418 242.016 237.456 241.053 236.269 241.053Z" fill="#8A827C"/>
<path d="M239.99 247.313C238.983 246.341 237.672 245.833 236.269 245.851C236.225 245.851 236.181 245.851 236.141 245.851C233.373 245.957 231.109 248.307 231.096 251.082C231.096 251.798 231.232 252.496 231.51 253.154C231.767 253.759 232.46 254.042 233.064 253.786C233.669 253.53 233.951 252.836 233.695 252.231C233.545 251.873 233.466 251.489 233.47 251.095C233.475 249.58 234.706 248.299 236.22 248.228C236.225 248.228 236.229 248.228 236.238 248.228C237.032 248.197 237.783 248.48 238.352 249.032C238.922 249.58 239.235 250.318 239.235 251.113C239.235 252.642 238.573 253.3 237.65 254.21C236.542 255.306 235.165 256.671 235.165 259.631V261.619C235.165 262.273 235.695 262.808 236.353 262.808C237.01 262.808 237.54 262.278 237.54 261.619V259.631C237.54 257.665 238.326 256.887 239.323 255.898C240.343 254.89 241.61 253.631 241.61 251.113C241.61 249.668 241.036 248.325 239.999 247.322L239.99 247.313Z" fill="white"/>
<path d="M258.118 270.774H214.662C212.896 270.774 211.462 269.338 211.462 267.57V262.808C211.462 262.41 211.784 262.092 212.181 262.092C212.579 262.092 212.901 262.415 212.901 262.808V267.57C212.901 268.542 213.691 269.338 214.667 269.338H258.123C259.094 269.338 259.888 268.547 259.888 267.57V262.808C259.888 262.41 260.21 262.092 260.603 262.092C260.996 262.092 261.323 262.415 261.323 262.808V267.57C261.323 269.338 259.888 270.774 258.123 270.774H258.118Z" fill="#A8A8A8"/>
<path d="M262.793 259.936H209.908V264.805H262.793V259.936Z" fill="white"/>
<path d="M219.919 267.363H216.331V274.361H219.919V267.363Z" fill="white"/>
<path d="M256.048 267.363H252.459V274.361H256.048V267.363Z" fill="white"/>
<path d="M236.269 254.921C238.28 254.921 239.91 253.289 239.91 251.276C239.91 249.263 238.28 247.631 236.269 247.631C234.258 247.631 232.627 249.263 232.627 251.276C232.627 253.289 234.258 254.921 236.269 254.921Z" fill="#ADA39C"/>
<path d="M178.82 345.886C183.618 325.329 183.605 306.711 183.367 301.351C182.828 289.162 181.866 283.838 180.564 276.411C180.599 276.402 156.198 278.041 156.172 278.041C156.172 278.041 156.119 278.041 156.017 278.033C155.916 278.041 155.863 278.041 155.863 278.041C155.832 278.041 131.436 276.402 131.471 276.411C130.169 283.838 129.207 289.162 128.668 301.351C128.434 306.711 128.417 325.329 133.215 345.886C130.822 352.611 131.678 351.965 133.908 357.095C130.632 366.934 131.497 363.033 134.283 391.905H152.932C154.314 367 154.653 368.569 152.729 363.152C155.541 331.156 154.194 316.802 154.194 304.409H157.836C157.836 316.806 156.49 331.156 159.301 363.152C157.373 368.573 157.717 367 159.098 391.905H177.748C180.537 363.037 181.398 366.934 178.123 357.095C180.352 351.965 181.213 352.611 178.816 345.886H178.82Z" fill="#4DC0FF"/>
<path d="M180.639 276.411C180.674 276.402 155.898 278.041 155.867 278.041C155.837 278.041 131.44 276.402 131.476 276.411C131.343 277.158 131.22 277.878 131.096 278.589C138.856 279.296 148.196 279.654 155.872 279.654C163.548 279.654 173.263 279.296 181.023 278.589C180.899 277.878 180.771 277.153 180.643 276.411H180.639Z" fill="#3D9DD4"/>
<path d="M156.401 279.296H154.887V304.404H156.401V279.296Z" fill="#3D9DD4"/>
<path d="M181.036 277.069C165.432 278.497 146.682 278.497 131.078 277.069C131.409 275.439 131.758 273.809 132.115 272.179C146.995 273.588 165.119 273.588 179.999 272.179C180.361 273.809 180.705 275.439 181.036 277.069Z" fill="#4DC0FF"/>
<path d="M155.642 297.503V295.988C157.399 295.988 158.834 294.556 158.834 292.794V279.292H160.348V292.794C160.348 295.387 158.238 297.499 155.647 297.499L155.642 297.503Z" fill="#3D9DD4"/>
<path d="M146.673 275.001L144.665 274.818L143.938 282.795L145.947 282.978L146.673 275.001Z" fill="#96E0FF"/>
<path d="M166.068 282.977L168.077 282.793L167.35 274.816L165.341 275L166.068 282.977Z" fill="#96E0FF"/>
<path d="M129.251 290.934C129.207 290.934 129.163 290.934 129.118 290.934L129.26 289.423H129.295C138.476 289.405 140.211 281.991 140.524 279.698L140.635 278.894L142.131 279.102L142.021 279.906C141.288 285.265 137.545 290.938 129.251 290.938V290.934Z" fill="#3D9DD4"/>
<path d="M182.484 290.934C182.528 290.934 182.572 290.934 182.616 290.934L182.475 289.423H182.44C173.259 289.405 171.524 281.991 171.21 279.698L171.1 278.894L169.604 279.102L169.714 279.906C170.447 285.265 174.19 290.938 182.484 290.938V290.934Z" fill="#3D9DD4"/>
<path d="M136.084 288.861L134.583 288.663L135.254 283.621L130.204 282.751L130.46 281.262L136.944 282.376L136.084 288.861Z" fill="#3D9DD4"/>
<path d="M154.365 273.194L152.931 273.155L152.787 278.539L154.221 278.578L154.365 273.194Z" fill="#3D9DD4"/>
<path d="M159.659 276.036L156.737 276.106L156.71 275.09L159.633 275.02C159.915 275.011 160.145 275.236 160.153 275.514C160.162 275.797 159.937 276.027 159.659 276.036Z" fill="#3D9DD4"/>
<path d="M155.205 275.581C155.205 274.989 155.686 274.507 156.278 274.507C156.869 274.507 157.351 274.989 157.351 275.581C157.351 276.173 156.869 276.654 156.278 276.654C155.686 276.654 155.205 276.173 155.205 275.581Z" fill="#D9D9D9"/>
<path d="M133.908 357.086L136.212 351.347L133.219 355.549C133.418 355.986 133.647 356.485 133.908 357.086Z" fill="#3D9DD4"/>
<path d="M150.491 351.705L152.733 363.152L153.276 356.556L150.491 351.705Z" fill="#3D9DD4"/>
<path d="M152.561 397.874C146.276 398.608 139.986 398.608 133.7 397.874C132.597 397.746 131.731 396.871 131.63 395.762C131.427 393.531 131.237 391.212 131.065 388.799C130.959 387.333 132.226 386.122 133.682 386.321C139.977 387.165 146.28 387.165 152.574 386.321C154.031 386.126 155.298 387.333 155.192 388.799C155.02 391.212 154.83 393.531 154.627 395.762C154.525 396.867 153.66 397.746 152.557 397.874H152.561Z" fill="#BAEDFF"/>
<path d="M178.132 357.086L175.828 351.347L178.82 355.549C178.622 355.986 178.392 356.485 178.132 357.086Z" fill="#3D9DD4"/>
<path d="M161.548 351.705L159.306 363.152L158.767 356.556L161.548 351.705Z" fill="#3D9DD4"/>
<path d="M159.482 397.874C165.768 398.608 172.058 398.608 178.344 397.874C179.447 397.746 180.312 396.871 180.414 395.762C180.617 393.531 180.807 391.212 180.979 388.799C181.085 387.333 179.818 386.122 178.361 386.321C172.067 387.165 165.764 387.165 159.469 386.321C158.013 386.126 156.746 387.333 156.852 388.799C157.024 391.212 157.214 393.531 157.417 395.762C157.518 396.867 158.383 397.746 159.487 397.874H159.482Z" fill="#BAEDFF"/>
<path d="M174.084 364.274C173.44 364.31 172.954 364.889 172.954 365.538V365.618C172.954 366.024 172.592 366.302 172.186 366.254C172.08 366.24 171.965 366.245 171.851 366.263C171.264 366.36 170.853 366.903 170.853 367.5V372.567C170.853 373.217 171.339 373.795 171.983 373.831C172.672 373.866 173.241 373.318 173.241 372.638C173.241 372.192 173.616 371.825 174.062 371.856C174.155 371.86 174.247 371.856 174.345 371.843C174.932 371.745 175.342 371.202 175.342 370.606V365.472C175.342 364.791 174.773 364.243 174.084 364.279V364.274Z" fill="#BAEDFF"/>
<path d="M133.753 326.831C133.811 325.695 134.83 324.847 135.965 324.847H136.106C136.816 324.847 137.306 324.206 137.227 323.5C137.205 323.31 137.209 323.111 137.24 322.908C137.408 321.878 138.366 321.158 139.408 321.158H148.297C149.432 321.158 150.451 322.011 150.509 323.146C150.571 324.357 149.608 325.36 148.417 325.36C147.631 325.36 146.995 326.018 147.048 326.804C147.061 326.963 147.048 327.131 147.026 327.299C146.858 328.329 145.901 329.049 144.859 329.049H135.85C134.654 329.049 133.691 328.046 133.758 326.835L133.753 326.831Z" fill="#BAEDFF"/>
<path d="M155.982 241.053C154.795 241.053 153.833 242.016 153.833 243.205V249.757H158.132V243.205C158.132 242.016 157.17 241.053 155.982 241.053Z" fill="#8A827C"/>
<path d="M159.703 247.313C158.697 246.341 157.386 245.833 155.982 245.851C155.938 245.851 155.894 245.851 155.854 245.851C153.086 245.957 150.822 248.307 150.809 251.082C150.809 251.798 150.946 252.496 151.224 253.154C151.48 253.759 152.173 254.042 152.778 253.786C153.382 253.53 153.665 252.836 153.409 252.231C153.259 251.873 153.179 251.489 153.184 251.095C153.188 249.58 154.42 248.299 155.934 248.228C155.938 248.228 155.942 248.228 155.951 248.228C156.746 248.197 157.496 248.48 158.066 249.032C158.635 249.58 158.948 250.318 158.948 251.113C158.948 252.642 158.286 253.3 157.364 254.21C156.256 255.306 154.879 256.671 154.879 259.631V261.619C154.879 262.273 155.408 262.808 156.066 262.808C156.724 262.808 157.253 262.278 157.253 261.619V259.631C157.253 257.665 158.039 256.887 159.037 255.898C160.056 254.89 161.323 253.631 161.323 251.113C161.323 249.668 160.749 248.325 159.712 247.322L159.703 247.313Z" fill="white"/>
<path d="M177.832 270.774H134.375C132.61 270.774 131.175 269.338 131.175 267.57V262.808C131.175 262.41 131.498 262.092 131.895 262.092C132.292 262.092 132.614 262.415 132.614 262.808V267.57C132.614 268.542 133.404 269.338 134.38 269.338H177.836C178.807 269.338 179.602 268.547 179.602 267.57V262.808C179.602 262.41 179.924 262.092 180.317 262.092C180.709 262.092 181.032 262.415 181.032 262.808V267.57C181.032 269.338 179.597 270.774 177.832 270.774Z" fill="#A8A8A8"/>
<path d="M182.506 259.936H129.622V264.805H182.506V259.936Z" fill="white"/>
<path d="M139.628 267.363H136.04V274.361H139.628V267.363Z" fill="white"/>
<path d="M175.761 267.363H172.173V274.361H175.761V267.363Z" fill="white"/>
<path d="M155.982 254.921C157.993 254.921 159.624 253.289 159.624 251.276C159.624 249.263 157.993 247.631 155.982 247.631C153.971 247.631 152.341 249.263 152.341 251.276C152.341 253.289 153.971 254.921 155.982 254.921Z" fill="#ADA39C"/>
<path d="M303 470H288.875V18.6358H21.1249V470H7V6H303V470Z" fill="#8A817B"/>
</g>
<defs>
<filter id="filter0_d_188_110" x="0" y="0" width="316" height="484" filterUnits="userSpaceOnUse" color-interpolation-filters="sRGB">
<feFlood flood-opacity="0" result="BackgroundImageFix"/>
<feColorMatrix in="SourceAlpha" type="matrix" values="0 0 0 0 0 0 0 0 0 0 0 0 0 0 0 0 0 0 127 0" result="hardAlpha"/>
<feOffset dx="3" dy="4"/>
<feGaussianBlur stdDeviation="5"/>
<feComposite in2="hardAlpha" operator="out"/>
<feColorMatrix type="matrix" values="0 0 0 0 0 0 0 0 0 0 0 0 0 0 0 0 0 0 0.25 0"/>
<feBlend mode="normal" in2="BackgroundImageFix" result="effect1_dropShadow_188_110"/>
<feBlend mode="normal" in="SourceGraphic" in2="effect1_dropShadow_188_110" result="shape"/>
</filter>
</defs>
</svg>
