<svg width="82" height="104" viewBox="0 0 82 104" fill="none" xmlns="http://www.w3.org/2000/svg">
<path d="M46.8249 -2.86102e-06H17.6878V13.0925L0 96.537L22.1118 103.181L40.4521 36.738L46.8249 -2.86102e-06Z" fill="#3B88C3"/>
<path d="M34.3367 -2.86102e-06H63.4738V13.0925L81.1616 96.537L59.0497 103.181L40.7095 36.738L34.3367 -2.86102e-06Z" fill="#3B88C3"/>
<path d="M63.4739 11.4646H17.6877V5.73223H63.4739V11.4646Z" fill="#226699"/>
<path d="M43.4425 34.3936H37.7192L26.2727 28.6613H54.889L43.4425 34.3936Z" fill="#226699"/>
<path d="M23.4111 8.59831H29.1344V-8.22544e-05H23.4111V8.59831ZM52.0275 8.59831H57.7507V-8.22544e-05H52.0275V8.59831ZM34.8577 31.5273H40.5809V11.4644H34.8577V31.5273Z" fill="#226699"/>
</svg>
