<svg width="222" height="38" viewBox="0 0 222 38" fill="none" xmlns="http://www.w3.org/2000/svg">
<path d="M111.267 9.10571H112.618C113.156 9.10571 113.598 9.54311 113.598 10.0865V10.1572H110.287V10.0865C110.287 9.54753 110.724 9.10571 111.267 9.10571V9.10571Z" fill="#7AD0FF"/>
<path d="M110.543 10.0337H113.496C120.793 10.0337 126.721 15.9628 126.721 23.2704V28.5677H97.3187V23.2704C97.3187 15.9672 103.242 10.0337 110.543 10.0337V10.0337Z" fill="#119FED"/>
<path d="M112.724 10.0071H111.32V28.5632H112.724V10.0071Z" fill="#0D7AB8"/>
<path d="M101.826 26.5351C101.472 21.3835 101.393 14.6901 106.032 10.8242C103.834 11.9641 99.1859 15.7637 100.029 27.7147C100.881 28.2979 101.826 26.5351 101.826 26.5351V26.5351Z" fill="#0D7AB8"/>
<path d="M122.183 26.5351C122.536 21.3835 122.615 14.6901 117.976 10.8242C120.175 11.9641 124.822 15.7637 123.979 27.7147C123.127 28.2979 122.183 26.5351 122.183 26.5351V26.5351Z" fill="#0D7AB8"/>
<path d="M128.482 35.8441C128.424 35.1107 128.195 33.1623 127.974 31.3288C127.674 28.8635 126.014 26.7781 123.684 25.9254C119.049 24.2288 115.332 23.5352 112.022 23.5264C108.711 23.5352 104.995 24.2288 100.36 25.9254C98.0294 26.7781 96.3697 28.8635 96.0696 31.3288C95.8489 33.1623 95.6193 35.1107 95.5619 35.8441C95.4383 37.3772 96.842 38.305 98.0426 37.5141C103.353 34.0238 107.683 32.2566 112.022 32.2477C116.361 32.261 120.691 34.0282 126.001 37.5141C127.202 38.3006 128.605 37.3772 128.482 35.8441Z" fill="#A1DEFF"/>
<path d="M128.402 35.0534C128.093 36.0916 126.981 36.5909 125.997 35.9502C120.687 32.4599 116.356 30.6927 112.017 30.6838C107.678 30.6971 103.348 32.4643 98.0382 35.9502C97.0583 36.5953 95.946 36.096 95.637 35.0534C95.6017 35.3847 95.5752 35.6542 95.5619 35.8442C95.4383 37.3773 96.842 38.3051 98.0426 37.5143C103.353 34.0239 107.683 32.2567 112.022 32.2479C116.361 32.2611 120.691 34.0284 126.001 37.5143C127.202 38.3007 128.605 37.3773 128.482 35.8442C128.468 35.6542 128.442 35.3847 128.407 35.0534H128.402Z" fill="#3287B8"/>
<path d="M46.8709 36.1932H5.18044C2.39961 36.1932 0.144043 33.9356 0.144043 31.1522C0.144043 28.3687 2.39961 26.1111 5.18044 26.1111H46.8709C49.6517 26.1111 51.9073 28.3687 51.9073 31.1522C51.9073 33.9356 49.6517 36.1932 46.8709 36.1932Z" fill="#005DAB"/>
<path d="M46.8709 26.9947H5.18044C2.39961 26.9947 0.144043 24.7371 0.144043 21.9537C0.144043 19.1703 2.39961 16.9126 5.18044 16.9126H46.8709C49.6517 16.9126 51.9073 19.1703 51.9073 21.9537C51.9073 24.7371 49.6517 26.9947 46.8709 26.9947Z" fill="#005DAB"/>
<path d="M51.3335 10.4312L1.22998 9.64034L5.44537 3.92771C7.00794 1.48007 9.70932 0 12.6137 0H39.4422C42.3422 0 45.048 1.48007 46.6105 3.92771L51.338 10.4356L51.3335 10.4312Z" fill="#1291FC"/>
<path d="M46.8709 17.8007H5.18044C2.39961 17.8007 0.144043 15.543 0.144043 12.7596C0.144043 9.97616 2.39961 7.71851 5.18044 7.71851H46.8709C49.6517 7.71851 51.9073 9.97616 51.9073 12.7596C51.9073 15.543 49.6517 17.8007 46.8709 17.8007Z" fill="#005DAB"/>
<path d="M2.89404 17.3588C2.89404 17.3588 13.2493 16.2234 26.0235 16.2234C38.7977 16.2234 49.153 17.3588 49.153 17.3588C49.153 17.3588 38.7977 18.4943 26.0235 18.4943C13.2493 18.4943 2.89404 17.3588 2.89404 17.3588Z" fill="#093B63"/>
<path d="M3.12793 26.5485C3.12793 26.5485 13.3817 25.4131 26.0279 25.4131C38.6741 25.4131 48.9278 26.5485 48.9278 26.5485C48.9278 26.5485 38.6741 27.684 26.0279 27.684C13.3817 27.684 3.12793 26.5485 3.12793 26.5485Z" fill="#093B63"/>
<path d="M216.881 36.1932H175.191C172.41 36.1932 170.155 33.9356 170.155 31.1522C170.155 28.3687 172.41 26.1111 175.191 26.1111H216.881C219.662 26.1111 221.918 28.3687 221.918 31.1522C221.918 33.9356 219.662 36.1932 216.881 36.1932Z" fill="#0D7AB8"/>
<path d="M216.881 26.9947H175.191C172.41 26.9947 170.155 24.7371 170.155 21.9537C170.155 19.1703 172.41 16.9126 175.191 16.9126H216.881C219.662 16.9126 221.918 19.1703 221.918 21.9537C221.918 24.7371 219.662 26.9947 216.881 26.9947Z" fill="#0D7AB8"/>
<path d="M221.344 10.4312L171.24 9.64034L175.456 3.92771C177.018 1.48007 179.72 0 182.624 0H209.453C212.353 0 215.058 1.48007 216.621 3.92771L221.348 10.4356L221.344 10.4312Z" fill="#12ABFF"/>
<path d="M216.881 17.8007H175.191C172.41 17.8007 170.155 15.543 170.155 12.7596C170.155 9.97616 172.41 7.71851 175.191 7.71851H216.881C219.662 7.71851 221.918 9.97616 221.918 12.7596C221.918 15.543 219.662 17.8007 216.881 17.8007Z" fill="#0D7AB8"/>
<path d="M172.905 17.3588C172.905 17.3588 183.26 16.2234 196.034 16.2234C208.808 16.2234 219.163 17.3588 219.163 17.3588C219.163 17.3588 208.808 18.4943 196.034 18.4943C183.26 18.4943 172.905 17.3588 172.905 17.3588V17.3588Z" fill="#08486B"/>
<path d="M173.138 26.5485C173.138 26.5485 183.392 25.4131 196.038 25.4131C208.685 25.4131 218.938 26.5485 218.938 26.5485C218.938 26.5485 208.685 27.684 196.038 27.684C183.392 27.684 173.138 26.5485 173.138 26.5485V26.5485Z" fill="#08486B"/>
</svg>
