<svg width="216" height="182" viewBox="0 0 216 182" fill="none" xmlns="http://www.w3.org/2000/svg">
<path d="M53.5375 64.7771C52.9637 51.7039 51.7499 44.1887 49.6002 38.0784C49.6355 38.0696 26.8106 39.5408 26.7841 39.5408C26.7577 39.5408 3.93274 38.0696 3.96806 38.0784C1.82284 44.1887 0.60898 51.7039 0.0307429 64.7771C-0.54308 77.8503 7.09318 165.749 8.13931 181.407H23.3589C24.0254 156.131 24.1799 72.0803 24.5021 67.8168H29.0662C29.3884 72.0803 29.5429 156.131 30.2094 181.407H45.429C46.4751 165.749 54.1114 77.8503 53.5375 64.7771V64.7771Z" fill="#0081ED"/>
<path d="M27.4683 40.8352H25.8484V67.8387H27.4683V40.8352Z" fill="#005DAB"/>
<path d="M50.2623 40.1018C50.0548 39.3772 49.8341 38.6747 49.6046 37.9855C49.6752 37.5172 26.8282 37.4112 26.7841 37.8751C26.74 37.4068 3.89739 37.5172 3.9636 37.9855C3.73407 38.6747 3.51778 39.3772 3.30591 40.1018C10.9201 40.8175 18.8344 41.1533 26.7797 41.1577C34.7293 41.1577 42.6437 40.8175 50.2535 40.1018H50.2623Z" fill="#005DAB"/>
<path d="M49.9798 38.4937C34.4425 40.4156 19.1302 40.4156 3.59729 38.4937C3.94158 36.753 4.2947 35.0166 4.66548 33.2759C19.4569 35.1403 34.1203 35.1403 48.9161 33.2759C49.2868 35.0122 49.64 36.753 49.9843 38.4937H49.9798Z" fill="#0081ED"/>
<path d="M26.6605 60.4163V58.7948C28.5453 58.7948 30.0814 57.2573 30.0814 55.3708V40.707H31.7013V55.3708C31.7013 58.1542 29.4369 60.4163 26.6605 60.4163V60.4163Z" fill="#005DAB"/>
<path d="M18.5363 36.2742L16.3823 36.0776L15.6031 44.631L17.7571 44.8275L18.5363 36.2742Z" fill="#0089FC"/>
<path d="M35.7687 44.8333L37.9226 44.6367L37.1434 36.0834L34.9895 36.2799L35.7687 44.8333Z" fill="#0089FC"/>
<path d="M0.847303 53.3651C0.798749 53.3651 0.754609 53.3651 0.706055 53.3651L0.856133 51.7436H0.891446C10.7347 51.726 12.5974 43.7734 12.9329 41.3125L13.0521 40.4509L14.6588 40.6718L14.5396 41.5334C13.7495 47.2813 9.73715 53.3651 0.842892 53.3651H0.847303Z" fill="#005DAB"/>
<path d="M52.6282 53.2194C52.6768 53.2194 52.7209 53.2194 52.7695 53.2194L52.6194 51.5979H52.5841C42.7408 51.5802 40.8781 43.6276 40.5427 41.1667L40.4235 40.3052L38.8168 40.5261L38.936 41.3876C39.7261 47.1356 43.7384 53.2194 52.6327 53.2194H52.6282Z" fill="#005DAB"/>
<path d="M7.99803 51.2487L6.40456 50.9704L7.34916 45.5979L1.97729 44.4404L2.31717 42.8499L9.2163 44.3388L7.99803 51.2487Z" fill="#005DAB"/>
<path d="M24.7824 34.605L23.2468 34.5637L23.0917 40.3405L24.6272 40.3818L24.7824 34.605Z" fill="#005DAB"/>
<path d="M30.8318 37.7869L27.6979 37.862L27.6714 36.7707L30.8053 36.6956C31.1055 36.6867 31.3571 36.9253 31.3659 37.2302C31.3747 37.5306 31.1364 37.7825 30.8318 37.7913V37.7869Z" fill="#005DAB"/>
<path d="M26.0603 37.3006C26.0603 36.6644 26.5767 36.1475 27.2124 36.1475C27.848 36.1475 28.3644 36.6644 28.3644 37.3006C28.3644 37.9368 27.848 38.4537 27.2124 38.4537C26.5767 38.4537 26.0603 37.9368 26.0603 37.3006Z" fill="#D9D9D9"/>
<path d="M26.5769 2C25.3895 2 24.4272 2.96315 24.4272 4.15163V10.7037H28.7265V4.15163C28.7265 2.96315 27.7643 2 26.5769 2Z" fill="#8A827C"/>
<path d="M30.2978 8.26045C29.2914 7.28846 27.9805 6.78038 26.5768 6.79805C26.5327 6.79805 26.4885 6.79805 26.4488 6.79805C23.6812 6.90409 21.4168 9.25451 21.4036 12.0291C21.4036 12.7448 21.5404 13.4429 21.8185 14.1012C22.0745 14.7065 22.7675 14.9893 23.3722 14.733C23.9769 14.4768 24.2594 13.7831 24.0034 13.1778C23.8533 12.8199 23.7739 12.4356 23.7783 12.0424C23.7827 10.5269 25.0142 9.24569 26.5282 9.175C26.5327 9.175 26.5371 9.175 26.5459 9.175C27.3404 9.14408 28.0908 9.42684 28.6602 9.9791C29.2296 10.5269 29.543 11.2648 29.543 12.06C29.543 13.5887 28.8809 14.247 27.9584 15.1571C26.8505 16.2528 25.4733 17.618 25.4733 20.5782V22.5663C25.4733 23.2202 26.003 23.7548 26.6607 23.7548C27.3184 23.7548 27.848 23.2246 27.848 22.5663V20.5782C27.848 18.6121 28.6337 17.8345 29.6313 16.8448C30.6509 15.8375 31.9178 14.5783 31.9178 12.06C31.9178 10.6153 31.3439 9.27221 30.3066 8.26929L30.2978 8.26045Z" fill="white"/>
<path d="M48.4218 31.7206H4.97019C3.20458 31.7206 1.77002 30.2848 1.77002 28.5175V23.7548C1.77002 23.3572 2.09224 23.0391 2.4895 23.0391C2.88677 23.0391 3.20899 23.3616 3.20899 23.7548V28.5175C3.20899 29.4895 3.9991 30.2848 4.9746 30.2848H48.4307C49.4017 30.2848 50.1963 29.4939 50.1963 28.5175V23.7548C50.1963 23.3572 50.5185 23.0391 50.9113 23.0391C51.3042 23.0391 51.6264 23.3616 51.6264 23.7548V28.5175C51.6264 30.2848 50.1919 31.7206 48.4262 31.7206H48.4218Z" fill="#A8A8A8"/>
<path d="M53.0963 20.8831H0.211914V25.7518H53.0963V20.8831Z" fill="white"/>
<path d="M10.2229 28.3098H6.63428V35.3081H10.2229V28.3098Z" fill="white"/>
<path d="M46.3562 28.3098H42.7676V35.3081H46.3562V28.3098Z" fill="white"/>
<path d="M26.5769 15.8685C28.5881 15.8685 30.2184 14.2366 30.2184 12.2236C30.2184 10.2105 28.5881 8.57861 26.5769 8.57861C24.5657 8.57861 22.9353 10.2105 22.9353 12.2236C22.9353 14.2366 24.5657 15.8685 26.5769 15.8685Z" fill="#ADA39C"/>
<path d="M131.231 106.833C136.029 86.2754 136.015 67.6574 135.777 62.2982C135.239 50.1086 134.276 44.7848 132.974 37.3579C133.009 37.3491 108.609 38.9882 108.582 38.9882C108.582 38.9882 108.529 38.9882 108.428 38.9794C108.326 38.9882 108.273 38.9882 108.273 38.9882C108.242 38.9882 83.8461 37.3491 83.8814 37.3579C82.5793 44.7848 81.617 50.1086 81.0785 62.2982C80.8446 67.6574 80.8269 86.2754 85.625 106.833C83.2326 113.557 84.0889 112.912 86.318 118.042C83.0428 127.881 83.9079 123.98 86.6931 152.852H105.342C106.724 127.947 107.064 129.516 105.139 124.099C107.951 92.1029 106.605 77.7484 106.605 65.3556H110.246C110.246 77.7528 108.9 92.1029 111.712 124.099C109.783 129.52 110.127 127.947 111.509 152.852H130.158C132.948 123.984 133.808 127.881 130.533 118.042C132.762 112.912 133.623 113.557 131.226 106.833H131.231Z" fill="#4DC0FF"/>
<path d="M133.049 37.3579C133.085 37.3491 108.309 38.9882 108.278 38.9882C108.247 38.9882 83.8506 37.3491 83.8859 37.3579C83.7535 38.1046 83.6299 38.8248 83.5063 39.5361C91.2662 40.243 100.606 40.6009 108.282 40.6009C115.958 40.6009 125.673 40.243 133.433 39.5361C133.31 38.8248 133.182 38.1002 133.054 37.3579H133.049Z" fill="#3D9DD4"/>
<path d="M108.812 40.2432H107.298V65.3513H108.812V40.2432Z" fill="#3D9DD4"/>
<path d="M133.446 38.0164C117.843 39.4434 99.0921 39.4434 83.4885 38.0164C83.8196 36.3861 84.1683 34.7558 84.5258 33.1255C99.4055 34.5349 117.529 34.5349 132.409 33.1255C132.771 34.7558 133.115 36.3861 133.446 38.0164V38.0164Z" fill="#4DC0FF"/>
<path d="M108.053 58.4503V56.9348C109.809 56.9348 111.244 55.5034 111.244 53.7405V40.2388H112.758V53.7405C112.758 56.334 110.648 58.4459 108.057 58.4459L108.053 58.4503Z" fill="#3D9DD4"/>
<path d="M99.0838 35.948L97.075 35.7646L96.3483 43.7416L98.3571 43.925L99.0838 35.948Z" fill="#96E0FF"/>
<path d="M118.478 43.9236L120.487 43.7402L119.761 35.7633L117.752 35.9466L118.478 43.9236Z" fill="#96E0FF"/>
<path d="M81.6612 51.8804C81.6171 51.8804 81.5729 51.8804 81.5288 51.8804L81.6701 50.3694H81.7054C90.8865 50.3518 92.6213 42.9382 92.9346 40.6452L93.045 39.8411L94.5414 40.0487L94.431 40.8528C93.6983 46.212 89.9552 51.8849 81.6612 51.8849V51.8804Z" fill="#3D9DD4"/>
<path d="M134.894 51.8804C134.938 51.8804 134.983 51.8804 135.027 51.8804L134.885 50.3694H134.85C125.669 50.3518 123.934 42.9382 123.621 40.6452L123.511 39.8411L122.014 40.0487L122.125 40.8528C122.857 46.212 126.6 51.8849 134.894 51.8849V51.8804Z" fill="#3D9DD4"/>
<path d="M88.4941 49.8081L86.9933 49.6093L87.6643 44.5682L82.6146 43.6979L82.8706 42.209L89.3549 43.3223L88.4941 49.8081Z" fill="#3D9DD4"/>
<path d="M106.776 34.1406L105.342 34.1021L105.197 39.4858L106.631 39.5244L106.776 34.1406Z" fill="#3D9DD4"/>
<path d="M112.069 36.9827L109.147 37.0534L109.121 36.0372L112.043 35.9666C112.325 35.9577 112.555 36.183 112.564 36.4614C112.573 36.7441 112.347 36.9739 112.069 36.9827Z" fill="#3D9DD4"/>
<path d="M107.616 36.5275C107.616 35.9354 108.097 35.4539 108.688 35.4539C109.28 35.4539 109.761 35.9354 109.761 36.5275C109.761 37.1195 109.28 37.601 108.688 37.601C108.097 37.601 107.616 37.1195 107.616 36.5275Z" fill="#D9D9D9"/>
<path d="M86.318 118.033L88.6221 112.294L85.6294 116.496C85.828 116.933 86.0576 117.432 86.318 118.033V118.033Z" fill="#3D9DD4"/>
<path d="M102.901 112.652L105.144 124.099L105.687 117.503L102.901 112.652Z" fill="#3D9DD4"/>
<path d="M104.972 158.821C98.686 159.554 92.3961 159.554 86.1105 158.821C85.007 158.693 84.1418 157.818 84.0403 156.709C83.8373 154.478 83.6475 152.158 83.4753 149.746C83.3694 148.279 84.6362 147.069 86.0928 147.268C92.3872 148.111 98.6905 148.111 104.985 147.268C106.441 147.073 107.708 148.279 107.602 149.746C107.43 152.158 107.24 154.478 107.037 156.709C106.936 157.814 106.071 158.693 104.967 158.821H104.972Z" fill="#BAEDFF"/>
<path d="M130.542 118.033L128.238 112.294L131.231 116.496C131.032 116.933 130.803 117.432 130.542 118.033V118.033Z" fill="#3D9DD4"/>
<path d="M113.959 112.652L111.716 124.099L111.178 117.503L113.959 112.652Z" fill="#3D9DD4"/>
<path d="M111.893 158.821C118.178 159.554 124.468 159.554 130.754 158.821C131.857 158.693 132.723 157.818 132.824 156.709C133.027 154.478 133.217 152.158 133.389 149.746C133.495 148.279 132.228 147.069 130.772 147.268C124.477 148.111 118.174 148.111 111.88 147.268C110.423 147.073 109.156 148.279 109.262 149.746C109.434 152.158 109.624 154.478 109.827 156.709C109.929 157.814 110.794 158.693 111.897 158.821H111.893Z" fill="#BAEDFF"/>
<path d="M126.495 125.221C125.85 125.257 125.365 125.835 125.365 126.485V126.564C125.365 126.971 125.003 127.249 124.596 127.201C124.491 127.187 124.376 127.192 124.261 127.209C123.674 127.307 123.263 127.85 123.263 128.446V133.514C123.263 134.163 123.749 134.742 124.393 134.778C125.082 134.813 125.651 134.265 125.651 133.585C125.651 133.138 126.027 132.772 126.472 132.803C126.565 132.807 126.658 132.803 126.755 132.789C127.342 132.692 127.753 132.149 127.753 131.552V126.419C127.753 125.738 127.183 125.19 126.495 125.226V125.221Z" fill="#BAEDFF"/>
<path d="M86.1636 87.7778C86.221 86.6424 87.2406 85.7941 88.375 85.7941H88.5162C89.2269 85.7941 89.7169 85.1535 89.6374 84.4466C89.6153 84.2566 89.6197 84.0578 89.6506 83.8545C89.8184 82.8251 90.7762 82.105 91.8179 82.105H100.708C101.842 82.105 102.862 82.9577 102.919 84.0931C102.981 85.3037 102.019 86.3066 100.827 86.3066C100.041 86.3066 99.4056 86.9649 99.4586 87.7513C99.4718 87.9104 99.4586 88.0783 99.4365 88.2462C99.2688 89.2756 98.311 89.9958 97.2693 89.9958H88.2602C87.064 89.9958 86.1018 88.9928 86.168 87.7823L86.1636 87.7778Z" fill="#BAEDFF"/>
<path d="M108.393 2C107.205 2 106.243 2.96315 106.243 4.15163V10.7037H110.542V4.15163C110.542 2.96315 109.58 2 108.393 2Z" fill="#8A827C"/>
<path d="M112.114 8.26045C111.107 7.28846 109.796 6.78038 108.392 6.79805C108.348 6.79805 108.304 6.79805 108.264 6.79805C105.497 6.90409 103.232 9.25451 103.219 12.0291C103.219 12.7448 103.356 13.4429 103.634 14.1012C103.89 14.7065 104.583 14.9893 105.188 14.733C105.793 14.4768 106.075 13.7831 105.819 13.1778C105.669 12.8199 105.59 12.4356 105.594 12.0424C105.598 10.5269 106.83 9.24569 108.344 9.175C108.348 9.175 108.353 9.175 108.362 9.175C109.156 9.14408 109.906 9.42684 110.476 9.9791C111.045 10.5269 111.359 11.2648 111.359 12.06C111.359 13.5887 110.697 14.247 109.774 15.1571C108.666 16.2528 107.289 17.618 107.289 20.5782V22.5663C107.289 23.2202 107.819 23.7548 108.476 23.7548C109.134 23.7548 109.664 23.2246 109.664 22.5663V20.5782C109.664 18.6121 110.449 17.8345 111.447 16.8448C112.467 15.8375 113.733 14.5783 113.733 12.06C113.733 10.6153 113.16 9.27221 112.122 8.26929L112.114 8.26045Z" fill="white"/>
<path d="M130.242 31.7206H86.7859C85.0203 31.7206 83.5857 30.2848 83.5857 28.5175V23.7548C83.5857 23.3572 83.9079 23.0391 84.3052 23.0391C84.7024 23.0391 85.0247 23.3616 85.0247 23.7548V28.5175C85.0247 29.4895 85.8148 30.2848 86.7903 30.2848H130.246C131.217 30.2848 132.012 29.4939 132.012 28.5175V23.7548C132.012 23.3572 132.334 23.0391 132.727 23.0391C133.12 23.0391 133.442 23.3616 133.442 23.7548V28.5175C133.442 30.2848 132.008 31.7206 130.242 31.7206Z" fill="#A8A8A8"/>
<path d="M134.916 20.8831H82.032V25.7518H134.916V20.8831Z" fill="white"/>
<path d="M92.0386 28.3098H88.45V35.3081H92.0386V28.3098Z" fill="white"/>
<path d="M128.172 28.3098H124.583V35.3081H128.172V28.3098Z" fill="white"/>
<path d="M108.393 15.8685C110.404 15.8685 112.034 14.2366 112.034 12.2236C112.034 10.2105 110.404 8.57861 108.393 8.57861C106.381 8.57861 104.751 10.2105 104.751 12.2236C104.751 14.2366 106.381 15.8685 108.393 15.8685Z" fill="#ADA39C"/>
<path d="M215.734 62.1807C215.169 49.3328 213.978 41.9457 211.868 35.9414C211.903 35.9326 189.471 37.3773 189.444 37.3773C189.418 37.3773 166.986 35.9326 167.021 35.9414C164.911 41.9457 163.719 49.3328 163.154 62.1807C162.903 67.9419 162.426 73.089 167.008 94.972C173.545 126.212 163.976 135.137 166.633 177.547C166.633 177.547 177.672 181.7 186.968 177.547C188.182 144.013 185.295 124.379 185.904 110.422C187.365 76.9902 187.507 68.26 187.48 63.5017H191.409C191.382 68.2556 191.523 76.9858 192.984 110.422C193.594 124.379 190.711 144.013 191.921 177.547C201.217 181.7 212.256 177.547 212.256 177.547C214.913 135.142 205.339 126.212 211.881 94.972C216.463 73.089 215.986 67.9419 215.734 62.1807Z" fill="#008EDB"/>
<path d="M211.868 35.9414C211.903 35.9326 189.471 37.3773 189.445 37.3773C189.418 37.3773 166.986 35.9326 167.021 35.9414C166.805 36.5512 166.602 37.1785 166.408 37.8236C181.835 39.6571 197.063 39.6571 212.486 37.8236C212.292 37.1785 212.084 36.5512 211.872 35.9414H211.868Z" fill="#0C6EA6"/>
<path d="M190.213 39.043H188.619V63.4973H190.213V39.043Z" fill="#0C6EA6"/>
<path d="M212.64 36.3477C197.107 38.2078 181.777 38.2078 166.244 36.3477C166.593 34.6379 166.951 32.9281 167.321 31.2183C182.104 33.0253 196.781 33.0253 211.563 31.2183C211.934 32.9281 212.296 34.6379 212.64 36.3477Z" fill="#008EDB"/>
<path d="M189.418 56.5914V54.9964C191.272 54.9964 192.781 53.4854 192.781 51.6298V38.6538H194.375V51.6298C194.375 54.3646 192.15 56.5914 189.418 56.5914Z" fill="#0C6EA6"/>
<path d="M181.342 34.1764L179.227 33.9834L178.461 42.3915L180.576 42.5845L181.342 34.1764Z" fill="#00A5FF"/>
<path d="M198.28 42.5843L200.394 42.3914L199.628 33.9832L197.514 34.1762L198.28 42.5843Z" fill="#00A5FF"/>
<path d="M163.711 51.1705C163.667 51.1705 163.618 51.1705 163.574 51.1705L163.72 49.5756H163.755C173.43 49.5579 175.258 41.7423 175.593 39.3256L175.708 38.4817L177.288 38.6982L177.173 39.542C176.401 45.1928 172.455 51.1705 163.715 51.1705H163.711Z" fill="#0C6EA6"/>
<path d="M215.174 51.1705C215.218 51.1705 215.266 51.1705 215.311 51.1705L215.165 49.5756H215.13C205.454 49.5579 203.627 41.7423 203.291 39.3256L203.176 38.4817L201.596 38.6982L201.711 39.542C202.483 45.1928 206.43 51.1705 215.169 51.1705H215.174Z" fill="#0C6EA6"/>
<path d="M171.559 48.4311L169.908 49.0806L170.071 43.7214L164.902 43.3503L165.136 41.7598L171.713 42.2325L171.559 48.4311Z" fill="#0C6EA6"/>
<path d="M187.382 32.4261L185.873 32.3853L185.72 38.0604L187.229 38.1013L187.382 32.4261Z" fill="#0C6EA6"/>
<path d="M193.444 35.8617L190.363 35.9368L190.336 34.8632L193.417 34.7881C193.713 34.7792 193.96 35.0134 193.964 35.3094C193.973 35.6054 193.739 35.8529 193.444 35.8573V35.8617Z" fill="#0C6EA6"/>
<path d="M188.751 35.3845C188.751 34.7615 189.259 34.2534 189.881 34.2534C190.504 34.2534 191.011 34.7615 191.011 35.3845C191.011 36.0074 190.504 36.5155 189.881 36.5155C189.259 36.5155 188.751 36.0074 188.751 35.3845Z" fill="#D9D9D9"/>
<path d="M189.361 0C188.173 0 187.211 0.96315 187.211 2.15163V8.70369H191.51V2.15163C191.51 0.96315 190.548 0 189.361 0Z" fill="#8A827C"/>
<path d="M193.082 6.26045C192.075 5.28846 190.764 4.78038 189.361 4.79805C189.316 4.79805 189.272 4.79805 189.233 4.79805C186.465 4.90409 184.201 7.25451 184.187 10.0291C184.187 10.7448 184.324 11.4429 184.602 12.1012C184.858 12.7065 185.551 12.9893 186.156 12.733C186.761 12.4768 187.043 11.7831 186.787 11.1778C186.637 10.8199 186.558 10.4356 186.562 10.0424C186.567 8.52694 187.798 7.24569 189.312 7.175C189.316 7.175 189.321 7.175 189.33 7.175C190.124 7.14408 190.875 7.42684 191.444 7.9791C192.013 8.52695 192.327 9.26476 192.327 10.06C192.327 11.5887 191.665 12.247 190.742 13.1571C189.634 14.2528 188.257 15.618 188.257 18.5782V20.5663C188.257 21.2202 188.787 21.7548 189.444 21.7548C190.102 21.7548 190.632 21.2246 190.632 20.5663V18.5782C190.632 16.6121 191.418 15.8345 192.415 14.8448C193.435 13.8375 194.702 12.5783 194.702 10.06C194.702 8.61529 194.128 7.27221 193.09 6.26929L193.082 6.26045Z" fill="white"/>
<path d="M211.21 29.7206H167.754C165.988 29.7206 164.554 28.2848 164.554 26.5175V21.7548C164.554 21.3572 164.876 21.0391 165.273 21.0391C165.67 21.0391 165.993 21.3616 165.993 21.7548V26.5175C165.993 27.4895 166.783 28.2848 167.758 28.2848H211.214C212.185 28.2848 212.98 27.4939 212.98 26.5175V21.7548C212.98 21.3572 213.302 21.0391 213.695 21.0391C214.088 21.0391 214.415 21.3616 214.415 21.7548V26.5175C214.415 28.2848 212.98 29.7206 211.214 29.7206H211.21Z" fill="#A8A8A8"/>
<path d="M215.884 18.8831H163V23.7518H215.884V18.8831Z" fill="white"/>
<path d="M173.011 26.3098H169.422V33.3081H173.011V26.3098Z" fill="white"/>
<path d="M209.14 26.3098H205.551V33.3081H209.14V26.3098Z" fill="white"/>
<path d="M189.361 13.8685C191.372 13.8685 193.002 12.2366 193.002 10.2236C193.002 8.21052 191.372 6.57861 189.361 6.57861C187.349 6.57861 185.719 8.21052 185.719 10.2236C185.719 12.2366 187.349 13.8685 189.361 13.8685Z" fill="#ADA39C"/>
</svg>
