<svg width="292" height="231" viewBox="0 0 292 231" fill="none" xmlns="http://www.w3.org/2000/svg">
<path d="M68.043 194.132L71.9815 190.261H71.9775L68.043 194.132Z" fill="white"/>
<path d="M207.337 0C161.095 0 123.607 34.0533 123.607 76.063C123.607 93.2504 129.884 109.1 140.465 121.837L139.306 126.156L135.554 140.152L149.549 136.4L154.508 135.07C168.916 145.73 187.303 152.122 207.333 152.122C253.575 152.122 291.063 118.065 291.063 76.059C291.063 34.0533 253.579 0 207.337 0Z" fill="#333333"/>
<path d="M25.1568 202.751L25.1201 202.768L25.1527 202.751H25.1568Z" fill="white"/>
<path d="M25.1558 202.752C25.176 202.744 25.1962 202.736 25.2083 202.728L25.1558 202.752Z" fill="white"/>
<path d="M26.8477 202.752C26.8719 202.743 26.8921 202.739 26.9042 202.735L26.8477 202.752Z" fill="white"/>
<path d="M26.848 202.751L26.8076 202.763L26.848 202.751Z" fill="white"/>
<path d="M0 230.46H10.7992C13.0146 206.519 25.4734 203.144 26.8075 202.763L22.988 189.915C22.0312 190.197 2.5132 196.415 0 230.46Z" fill="#333333"/>
<path d="M75.841 198.487C75.7457 189.899 69.7784 187.339 45.8692 187.609C21.9601 187.875 16.0562 190.57 16.1515 199.158C16.3183 214.146 16.1515 224.068 16.2905 230.46H76.3968C76.4286 224.088 76.0157 214.015 75.841 198.487V198.487Z" fill="#333333"/>
<path d="M64.9624 230.357C65.1847 230.135 65.2919 229.821 65.2483 229.507L59.6184 199.869C59.5866 199.635 59.6382 199.396 59.7613 199.194L60.6387 197.796C60.7856 197.558 60.8293 197.272 60.7579 197.002L60.198 194.894C60.0789 194.453 59.6819 194.148 59.2253 194.148H55.3265C54.8699 194.148 54.4729 194.453 54.3538 194.894L53.7939 197.002C53.7225 197.272 53.7662 197.558 53.9131 197.796L54.7905 199.194C54.9175 199.392 54.9692 199.635 54.9334 199.869L49.3035 229.507C49.2599 229.821 49.3671 230.135 49.5894 230.357L49.649 230.46H64.8949L64.9545 230.357H64.9624Z" fill="#C44043"/>
<path d="M64.5217 225.68L63.9698 222.77C61.3017 225.307 57.7722 228.364 54.8857 230.456H59.0149C61.1271 228.761 63.1281 226.97 64.5217 225.68V225.68Z" fill="white"/>
<path d="M60.2099 202.982C58.1096 204.748 55.5527 206.658 53.4167 207.889L52.7695 211.288C55.4693 210.164 58.59 207.881 60.8014 206.098L60.2099 202.982V202.982Z" fill="white"/>
<path d="M61.8336 211.546C58.1373 214.928 53.8731 218.315 51.1376 219.879L50.4468 223.512C53.9367 222.325 59.1656 218.029 62.5006 215.067L61.8336 211.55V211.546Z" fill="white"/>
<path d="M113.178 187.033L103.53 192.516C107.532 201.223 106.778 204.248 103.939 206.337C103.129 206.932 98.1981 207.174 86.5532 200.703C78.2751 196.101 70.9698 190.555 70.8784 190.483L63.855 199.813C64.1766 200.056 71.7956 205.852 80.7645 210.847C90.9404 216.516 98.9802 218.347 104.753 217.525C106.929 217.215 108.835 216.449 110.486 215.23C114.373 212.371 118.653 207.035 116.974 197.864C116.354 194.477 115.032 190.932 113.182 187.033H113.178Z" fill="#333333"/>
<path opacity="0.33" d="M40.2551 188.581C26.2638 189.125 20.2329 194.116 20.2329 194.116L49.8513 205.018L57.379 195.883L65.5936 204.407L72.3352 193.175C68.8254 189.971 56.0013 187.97 40.2512 188.581H40.2551Z" fill="#D6CBC3"/>
<path d="M40.2551 188.581C26.2638 189.125 20.2329 194.116 20.2329 194.116L49.7878 203.343L57.379 195.887L65.5301 202.732L72.3391 193.175C68.8294 189.971 56.0053 187.97 40.2551 188.581V188.581Z" fill="#333333"/>
<path d="M108.95 181.193L100.787 187.081L103.562 191.448L111.725 185.56L108.95 181.193Z" fill="#F7CFB5"/>
<path d="M97.519 179.041C97.5428 179.533 97.6778 180.013 97.8366 180.565C98.3091 182.173 98.8967 183.753 99.6828 185.238C100.084 185.993 100.532 186.723 101.041 187.414C101.362 187.851 102.005 189.01 102.609 189.054C102.792 189.066 102.97 188.994 103.141 188.919C104.801 188.184 106.385 187.255 107.798 186.112C108.501 185.54 109.164 184.917 109.759 184.234C110.069 183.88 110.331 183.487 110.633 183.13C111.197 182.459 111.185 181.935 110.772 181.153C109.283 178.318 108.695 176.444 106.123 174.598C106.067 174.558 106.007 174.515 105.936 174.507C105.821 174.495 105.722 174.574 105.634 174.65C104.955 175.241 102.51 175.543 101.839 176.146C101.7 176.273 101.549 176.404 101.362 176.44C101.168 176.476 100.969 176.4 100.791 176.321C100.445 176.166 100.112 175.984 99.794 175.777C99.6987 175.718 99.5994 175.65 99.4883 175.642C99.3414 175.63 99.2064 175.721 99.0912 175.817C98.4282 176.349 97.9359 177.087 97.6738 177.897C97.5388 178.314 97.4991 178.687 97.515 179.049L97.519 179.041Z" fill="#F7CFB5"/>
<path d="M101.704 189.756C101.616 189.808 101.553 189.868 101.521 189.939C101.414 190.177 101.577 190.725 101.664 190.963C101.95 191.753 102.546 192.48 103.173 193.024C104.284 193.985 106.087 193.044 107.163 192.488C108.973 191.551 110.883 190.816 112.646 189.784C113.353 189.371 114.21 188.645 113.98 187.728C113.885 187.342 111.868 184.138 111.566 184.365C109.787 185.699 107.985 187.013 106.02 188.065C105.031 188.597 103.999 189.058 102.931 189.407C102.641 189.502 102.021 189.57 101.7 189.76L101.704 189.756Z" fill="#C44043"/>
<path d="M94.6799 127.324C94.7077 127.435 88.0733 128.094 86.4495 128.042C88.1329 127.51 89.324 126.772 90.1617 125.95C93.3141 124.116 96.5301 121.15 97.1177 117.398C96.812 117.318 96.534 117.358 96.2124 117.378C95.069 117.449 93.9256 117.517 92.7821 117.509C85.8698 117.457 80.1089 112.792 74.5148 108.346C62.1314 97.2525 49.4145 93.5919 33.974 94.9021C16.1672 96.4108 15.9767 113.769 16.2188 115.714C9.27479 116.453 4.34368 121.575 3.11288 128.356C2.27118 132.989 3.04142 134.907 4.12134 139.489C6.41617 149.2 10.188 158.907 12.3081 168.662L77.2146 167.686C77.2146 167.686 78.0801 167.733 79.5213 167.733L80.2915 164.748L85.0043 139.254C90.5984 138.782 92.8774 134.78 93.7072 131.711C94.398 130.218 94.9658 128.519 94.6759 127.324H94.6799Z" fill="#553526"/>
<path d="M74.4114 171.283C83.1103 171.66 84.2299 161.591 80.4105 158.975C76.595 156.358 73.5498 161.222 73.5498 161.222L74.4114 171.283V171.283Z" fill="#F7CFB5"/>
<path d="M76.5157 167.555C76.5157 167.555 75.4557 159.674 79.1242 161.016C81.3794 161.841 81.0101 164.462 79.6443 166.042C78.7907 167.035 77.4686 167.642 76.5157 167.555Z" fill="#EDBB9F"/>
<path d="M77.175 163.294C77.4251 158.204 79.037 147.068 78.8782 142.153C78.8782 142.208 68.8691 141.382 67.9916 141.271C61.8258 140.501 55.8624 138.413 50.5382 135.208C46.2543 132.628 43.5108 127.732 38.6353 126.101C36.9796 125.549 35.0977 125.469 33.5453 126.267C31.4768 127.331 30.4882 129.785 30.9289 132.02C31.044 132.6 31.4172 132.85 30.8296 133.12C30.4604 133.287 29.3328 132.858 28.9279 132.787C27.5661 132.54 26.2201 132.394 24.8623 132.775C21.6622 133.672 19.2046 136.411 17.9698 139.5C16.7351 142.589 16.5683 146 16.7232 149.319C16.9574 154.29 17.4378 159.249 17.7674 164.212C18.6527 177.552 18.1088 189.101 20.225 191.122C21.8687 192.694 33.1245 193.481 45.6508 193.409C58.181 193.409 70.9336 192.595 72.5535 191.015C74.6419 188.974 76.5119 176.702 77.167 163.294H77.175Z" fill="#F7CFB5"/>
<path d="M41.5654 146.095C41.5654 146.095 41.3907 146.059 41.0691 146.032C40.7515 146.004 40.2909 145.98 39.7509 145.992C39.211 145.992 38.5797 146.051 37.9167 146.119C37.2496 146.218 36.5548 146.298 35.86 146.448C35.5146 146.524 35.1732 146.615 34.8397 146.742C34.5062 146.865 34.1846 146.961 33.863 147.024C33.5414 147.08 33.2238 147.08 32.9141 147.056C32.6044 147.048 32.3066 147.012 32.0247 146.957C31.7428 146.901 31.4729 146.834 31.2346 146.774C30.9925 146.707 30.7781 146.635 30.5954 146.56C30.2302 146.417 29.9999 146.278 29.9999 146.278L29.9165 145.968C29.9165 145.968 30.4446 145.083 31.5007 144.436C32.0247 144.114 32.6679 143.804 33.4064 143.713C33.7717 143.657 34.1647 143.705 34.5578 143.749C34.9508 143.792 35.3479 143.84 35.7449 143.884C36.138 143.907 36.535 143.975 36.9201 144.019C37.3052 144.066 37.6824 144.162 38.0437 144.237C38.405 144.336 38.7544 144.408 39.076 144.527C39.4015 144.63 39.7033 144.741 39.9772 144.856C41.077 145.301 41.7043 145.809 41.7043 145.809L41.5654 146.099V146.095Z" fill="#4B2B1C"/>
<path d="M64.8311 147.667C64.8311 147.667 65.4623 147.163 66.5661 146.726C66.84 146.619 67.1457 146.508 67.4713 146.405C67.7969 146.29 68.1423 146.222 68.5076 146.123C68.8689 146.051 69.25 145.956 69.6351 145.916C70.0202 145.873 70.4173 145.809 70.8103 145.789C71.2074 145.746 71.6044 145.706 71.9974 145.666C72.3905 145.627 72.7836 145.583 73.1488 145.642C73.8833 145.742 74.5265 146.055 75.0466 146.381C76.0948 147.036 76.6149 147.925 76.6149 147.925L76.5276 148.235C76.5276 148.235 76.2973 148.37 75.932 148.509C75.7494 148.584 75.531 148.652 75.2888 148.719C75.0506 148.775 74.7806 148.843 74.4987 148.894C74.2168 148.946 73.9151 148.978 73.6094 148.985C73.2997 149.009 72.9821 149.005 72.6605 148.946C72.3389 148.878 72.0173 148.783 71.6878 148.652C71.3543 148.521 71.0168 148.43 70.6714 148.35C69.9805 148.195 69.2818 148.108 68.6187 148.005C67.9597 147.933 67.3284 147.866 66.7884 147.862C66.2485 147.846 65.7879 147.862 65.4703 147.894C65.1487 147.921 64.974 147.953 64.974 147.953L64.839 147.663L64.8311 147.667Z" fill="#4B2B1C"/>
<path d="M89.4473 127.137C89.4473 127.137 88.9113 127.355 87.9704 127.685L87.1922 127.955C86.9063 128.046 86.5847 128.11 86.2433 128.193C85.5644 128.352 84.7822 128.57 83.9326 128.654C83.5077 128.713 83.0631 128.773 82.6025 128.836C82.142 128.896 81.6655 128.888 81.1772 128.916C80.1965 128.983 79.1682 128.947 78.1002 128.892C77.5682 128.88 77.0362 128.785 76.4922 128.729C75.9523 128.665 75.4004 128.606 74.8604 128.483C74.3165 128.372 73.7686 128.276 73.2247 128.153L71.6088 127.717C70.5407 127.399 69.4886 127.042 68.4802 126.629C67.4677 126.232 66.499 125.783 65.5858 125.311C64.6647 124.862 63.823 124.334 63.017 123.857C62.2269 123.357 61.4885 122.885 60.8413 122.388C60.1822 121.92 59.5946 121.463 59.0944 121.035C58.5862 120.622 58.1574 120.244 57.8159 119.919C57.1291 119.276 56.7559 118.887 56.7559 118.887C56.7559 118.887 57.2521 119.089 58.0859 119.486C58.9197 119.871 60.1108 120.423 61.548 121.086C62.2587 121.428 63.0567 121.733 63.8667 122.118C64.7004 122.46 65.5739 122.833 66.4871 123.186C66.9437 123.365 67.4082 123.548 67.8806 123.73C68.3571 123.897 68.8375 124.068 69.3258 124.239C69.8062 124.425 70.3105 124.56 70.8067 124.727C71.307 124.882 71.7993 125.06 72.3115 125.187L73.8281 125.616C74.3403 125.735 74.8485 125.854 75.3527 125.974C76.3652 126.212 77.3776 126.386 78.3622 126.561C79.3508 126.692 80.3116 126.875 81.2328 126.938C82.1578 127.042 83.0353 127.093 83.8571 127.129C84.6829 127.188 85.4254 127.169 86.1043 127.185C86.7753 127.2 87.3828 127.192 87.883 127.165C88.8796 127.129 89.4552 127.137 89.4552 127.137H89.4473Z" fill="#4B2B1C"/>
<path d="M39.3536 114.65C39.2107 114.464 39.0678 114.277 38.9248 114.091C37.7496 112.51 36.0225 111.387 34.1287 111.014C33.6562 110.922 33.1758 110.871 32.6954 110.875C32.215 110.863 31.7306 110.93 31.2502 111.01L30.5038 111.196C30.2418 111.264 30.0631 111.355 29.8368 111.43C29.408 111.605 28.9475 111.823 28.5385 112.093C28.3241 112.213 28.1256 112.363 27.9271 112.514C27.7206 112.653 27.534 112.816 27.3514 112.987C27.1608 113.15 26.9822 113.32 26.8194 113.515C26.6487 113.697 26.4779 113.88 26.331 114.091C26.0174 114.484 25.7474 114.916 25.5092 115.365C25.267 115.814 25.0764 116.29 24.9176 116.774C24.7588 117.263 24.6556 117.763 24.5762 118.271L24.4968 119.042L24.4888 119.816C24.5245 120.324 24.5523 120.86 24.6675 121.344C24.7786 121.845 24.9414 122.341 25.1399 122.833L25.6521 124.104L24.4213 123.746C22.3369 123.139 20.1334 122.94 17.9775 123.321C17.4336 123.413 16.9095 123.524 16.3775 123.675C15.8494 123.822 15.3293 124 14.8211 124.207C13.8008 124.62 12.8161 125.14 11.895 125.783C12.7407 125.033 13.6697 124.37 14.6663 123.834C15.1665 123.568 15.6827 123.329 16.2147 123.119C16.7428 122.913 17.2946 122.726 17.8386 122.583C20.058 121.999 21.253 121.741 23.532 122.257C23.2818 121.733 23.532 122.313 23.3612 121.729C23.1826 121.134 23.1151 120.542 23.0357 119.939L22.988 119.026L23.0277 118.108C23.0952 117.501 23.1945 116.894 23.3573 116.298C23.524 115.706 23.7305 115.123 23.9925 114.567C24.2546 114.011 24.5603 113.471 24.9176 112.971C25.0844 112.709 25.2829 112.475 25.4814 112.24C25.672 111.998 25.8824 111.772 26.1087 111.561C26.3231 111.339 26.5494 111.129 26.7916 110.942C27.0298 110.744 27.268 110.549 27.5301 110.39C28.0422 110.037 28.5703 109.759 29.1539 109.501C29.4437 109.39 29.7693 109.247 30.0353 109.167L30.881 108.929C31.4805 108.806 32.084 108.707 32.6994 108.699C33.3108 108.671 33.9262 108.719 34.5337 108.818C39.0519 109.541 41.3388 113.559 44.0425 116.624C44.4118 117.04 44.789 117.453 45.1582 117.866C45.9284 118.72 46.7185 119.558 47.5205 120.383C48.3305 121.209 49.1603 122.015 50.002 122.813C50.8556 123.603 51.7171 124.386 52.6025 125.144C53.4958 125.898 54.3812 126.664 55.3063 127.383C56.2194 128.126 57.1723 128.816 58.1292 129.507L59.5863 130.52L61.0831 131.484C61.5754 131.818 62.0955 132.108 62.6037 132.421C63.1119 132.739 63.628 133.037 64.1561 133.315C65.1963 133.91 66.2802 134.43 67.3641 134.962C68.4718 135.439 69.5716 135.959 70.715 136.372C71.8465 136.836 73.0218 137.174 74.193 137.547C75.3881 137.849 76.5791 138.19 77.806 138.401C78.4174 138.528 79.0288 138.647 79.6522 138.714C80.2755 138.79 80.8949 138.889 81.5222 138.945C82.7807 139.032 84.0512 139.143 85.3217 139.103C86.6041 139.151 87.8985 138.996 89.1888 138.925C87.9104 139.139 86.6597 139.449 85.3614 139.536C84.0711 139.699 82.7807 139.711 81.4864 139.739C80.8432 139.739 80.2001 139.679 79.5569 139.651C78.9137 139.631 78.2745 139.56 77.6392 139.477C76.3608 139.358 75.1101 139.107 73.8595 138.861C72.6287 138.552 71.39 138.27 70.1909 137.865C68.98 137.511 67.8127 137.047 66.6415 136.59C65.498 136.09 64.3506 135.602 63.2469 135.03C62.6871 134.764 62.1392 134.478 61.5992 134.176C61.0632 133.875 60.5074 133.601 59.9873 133.275L58.415 132.318L56.8865 131.31C55.882 130.623 54.8815 129.932 53.9246 129.194C52.9559 128.471 52.0149 127.721 51.0938 126.95C47.0957 123.576 43.439 119.82 40.1953 115.766C39.9015 115.397 39.6157 115.02 39.3298 114.642L39.3536 114.65Z" fill="#4B2B1C"/>
<path d="M19.3158 171.537C19.3158 171.537 14.6308 173.264 10.053 170.294C5.47132 167.324 4.24846 157.26 10.8431 155.679C17.4418 154.103 18.5018 161.591 18.5018 161.591L19.3197 171.533L19.3158 171.537Z" fill="#F7CFB5"/>
<path d="M16.7389 168.21C16.7389 168.21 16.0282 157.26 10.8986 160.392C7.75014 162.318 9.07225 165.696 11.5854 167.32C13.1617 168.337 15.3294 168.674 16.7389 168.21Z" fill="#EDBB9F"/>
<path d="M68.8176 174.3C68.8176 174.3 61.949 175.297 53.6193 174.403C45.3094 173.514 38.949 170.914 38.949 170.914C38.949 170.914 37.0869 185.151 51.8604 187.128C66.7093 189.113 68.8176 174.3 68.8176 174.3V174.3Z" fill="#331313"/>
<path d="M51.8563 187.132C47.1554 186.505 44.142 184.631 42.2124 182.372C44.5588 179.795 48.3902 178.115 52.7258 178.115C57.6886 178.115 61.9964 180.319 64.1602 183.547C61.6153 186.068 57.7363 187.922 51.8563 187.132V187.132Z" fill="#C65044"/>
<path d="M121.642 148.918C127.141 158.391 131.064 166.379 130.405 166.76C129.746 167.141 124.751 159.777 119.252 150.303C113.753 140.83 109.831 132.842 110.49 132.461C111.149 132.08 116.143 139.445 121.642 148.918Z" fill="white"/>
<path d="M130.349 166.963C129.15 166.971 122.96 157.061 119.093 150.399C116.429 145.813 114.051 141.43 112.395 138.055C109.751 132.675 110.188 132.421 110.398 132.298C110.442 132.27 110.494 132.259 110.545 132.259C111.744 132.251 117.934 142.16 121.801 148.823C124.461 153.408 126.843 157.792 128.499 161.166C131.143 166.546 130.706 166.8 130.5 166.923C130.456 166.951 130.405 166.963 130.353 166.963H130.349ZM110.597 132.648C110.498 133.501 113.424 139.889 119.415 150.212C125.406 160.535 129.511 166.24 130.297 166.578C130.397 165.724 127.475 159.336 121.479 149.013C115.484 138.69 111.383 132.985 110.597 132.648V132.648Z" fill="#D85853"/>
<path d="M86.9377 168.138C87.3982 168.936 87.1243 169.953 86.3302 170.413C85.5322 170.874 84.5158 170.6 84.0552 169.806C83.5947 169.012 83.8686 167.991 84.6627 167.531C85.4607 167.07 86.4771 167.34 86.9416 168.138H86.9377Z" fill="#EF6F63"/>
<path d="M123.262 148.005C124.23 149.676 124.08 151.574 122.928 152.241C121.777 152.908 120.058 152.094 119.089 150.419C118.12 148.747 118.271 146.849 119.422 146.182C120.574 145.515 122.293 146.333 123.258 148.005H123.262Z" fill="white"/>
<path d="M108.036 185.798C107.651 185.798 107.258 185.703 106.9 185.492C101.914 182.562 98.3919 174.888 98.0067 174.026C97.5065 172.902 98.0107 171.588 99.1343 171.088C100.258 170.588 101.572 171.092 102.072 172.216C102.962 174.209 105.971 179.787 109.155 181.657C110.215 182.28 110.569 183.642 109.945 184.702C109.533 185.405 108.798 185.798 108.036 185.802V185.798Z" fill="#C44043"/>
<path d="M119.422 146.182C118.271 146.849 118.12 148.743 119.089 150.419C120.058 152.09 121.773 152.908 122.928 152.241C123.083 152.154 123.218 152.039 123.337 151.908L119.899 146C119.736 146.035 119.577 146.099 119.426 146.182H119.422Z" fill="white"/>
<path d="M96.9468 149.676L88.9268 153.766L100.576 173.903L108.699 169.004C113.253 167.193 124.036 163.509 129.904 166.534L110.442 132.914C110.442 132.914 108.345 143.729 96.9507 149.676" fill="#F5F5F5"/>
<path d="M97.4072 168.432L100.572 173.907L108.695 169.008C113.249 167.197 124.032 163.513 129.9 166.538L122.976 154.58L97.4072 168.436V168.432Z" fill="#EBEBEB"/>
<path d="M110.438 132.917C110.438 132.917 108.342 143.733 96.9468 149.68L88.9268 153.769L92.5636 160.058L118.128 146.202L110.438 132.917V132.917Z" fill="white"/>
<path d="M84.8693 168.357L85.9135 170.163C88.8356 175.209 95.3866 176.885 100.568 173.919L88.9468 153.762C83.7695 156.767 81.9432 163.298 84.8693 168.357V168.357Z" fill="#D85853"/>
<path d="M83.5907 164.918L92.5477 160.066L88.9188 153.77C84.8612 156.124 82.8641 160.642 83.5947 164.922L83.5907 164.918Z" fill="#EF6F63"/>
<path d="M88.6011 173.208C91.9242 175.741 96.637 176.158 100.568 173.911L97.4112 168.432L88.6011 173.204V173.208Z" fill="#C44043"/>
<path d="M130.035 167.11C129.841 167.11 129.654 167.011 129.551 166.832L110.069 133.152C109.914 132.886 110.005 132.544 110.271 132.394C110.537 132.239 110.879 132.33 111.029 132.596L130.512 166.276C130.667 166.542 130.575 166.884 130.309 167.038C130.222 167.09 130.127 167.114 130.035 167.114V167.11Z" fill="#EF6F63"/>
<path d="M89.4753 162.966L85.9946 164.851L86.3482 165.504L89.8289 163.619L89.4753 162.966Z" fill="#C44043"/>
<path d="M89.9763 163.859L86.4956 165.745L86.8492 166.397L90.3299 164.512L89.9763 163.859Z" fill="#C44043"/>
<path d="M90.4587 164.796L86.978 166.681L87.3316 167.334L90.8123 165.449L90.4587 164.796Z" fill="#C44043"/>
<path d="M91.0072 165.709L87.5278 167.597L87.8819 168.249L91.3612 166.362L91.0072 165.709Z" fill="#C44043"/>
<path d="M91.4982 166.633L88.0195 168.521L88.3738 169.174L91.8525 167.285L91.4982 166.633Z" fill="#C44043"/>
<path d="M92.0385 167.543L88.5581 169.429L88.9118 170.082L92.3921 168.196L92.0385 167.543Z" fill="#C44043"/>
<path d="M92.5417 168.405L89.062 170.292L89.4159 170.944L92.8956 169.057L92.5417 168.405Z" fill="#C44043"/>
<path d="M109.815 180.831C109.227 181.133 108.683 181.542 108.163 181.943C107.754 182.257 107.29 182.709 107.469 183.273C107.568 183.583 107.858 183.825 108.183 183.861C108.541 183.904 108.882 183.718 109.168 183.503C109.712 183.09 110.315 182.705 110.831 182.253C111.034 182.074 111.205 181.844 111.228 181.574C111.244 181.355 111.161 181.141 111.026 180.97C110.923 180.843 110.788 180.744 110.637 180.692C110.383 180.613 110.101 180.684 109.863 180.808L109.827 180.827L109.815 180.831Z" fill="#F7CFB5"/>
<path d="M108.683 178.715C108.628 178.747 108.576 178.783 108.525 178.822C107.989 179.227 107.449 179.628 106.921 180.041C106.575 180.315 106.123 180.537 105.972 180.982C105.829 181.415 106.027 181.919 106.408 182.157C106.559 182.253 106.738 182.308 106.917 182.3C107.413 182.284 107.885 181.836 108.263 181.55C108.711 181.212 109.144 180.855 109.601 180.529C109.875 180.331 110.137 180.085 110.236 179.763C110.339 179.426 110.236 179.033 109.986 178.79C109.62 178.437 109.096 178.477 108.683 178.719V178.715Z" fill="#F7CFB5"/>
<path d="M107.104 176.595C106.575 176.905 106.17 177.373 105.678 177.727C105.269 178.02 104.781 178.274 104.563 178.755C104.257 179.43 104.713 180.283 105.456 180.375C105.877 180.426 106.29 180.236 106.635 179.994C106.738 179.918 108.021 178.933 108.021 178.937L108.009 178.918L108.569 178.481C109.029 178.124 109.156 177.437 108.858 176.936C108.604 176.512 108.064 176.281 107.584 176.396C107.421 176.436 107.258 176.508 107.107 176.595H107.104Z" fill="#F7CFB5"/>
<path d="M105.598 174.638C105.463 174.721 105.332 174.82 105.209 174.916L103.518 176.206C103.145 176.492 102.771 176.913 102.771 177.409C102.771 177.881 103.145 178.362 103.609 178.461C103.974 178.537 104.352 178.398 104.669 178.195C105.213 177.85 105.709 177.425 106.249 177.064C106.726 176.746 107.262 176.361 107.389 175.769C107.464 175.42 107.365 175.035 107.127 174.769C106.885 174.503 106.512 174.368 106.154 174.419C105.956 174.451 105.773 174.534 105.602 174.638H105.598Z" fill="#F7CFB5"/>
<path d="M97.5189 179.041C97.503 178.675 97.5427 178.302 97.6777 177.889C97.8723 177.29 98.1899 176.73 98.6147 176.265L99.1666 175.757L100.695 174.352C101.247 173.844 102.12 173.863 102.645 174.395C102.982 174.733 103.093 175.197 102.986 175.622C102.926 175.864 102.799 176.091 102.597 176.273L99.4723 179.152C98.9244 179.656 98.0549 179.64 97.5269 179.116C97.5269 179.092 97.5229 179.068 97.5189 179.049V179.041Z" fill="#F7CFB5"/>
<path d="M38.2062 153.694C33.5729 153.706 31.7068 158.189 33.1838 159.078C34.6409 159.956 35.0975 156.509 38.2102 156.501C41.3229 156.493 41.7954 159.936 43.2525 159.054C44.7254 158.157 42.8356 153.686 38.2062 153.698V153.694Z" fill="#4B2B1C"/>
<path d="M68.1461 153.937C63.5128 153.948 61.6468 158.431 63.1237 159.32C64.5808 160.198 65.0374 156.751 68.1501 156.744C71.2628 156.736 71.7353 160.178 73.1924 159.296C74.6654 158.399 72.7755 153.929 68.1461 153.94V153.937Z" fill="#4B2B1C"/>
<path d="M161.973 28.8H164.053V38.24H169.909V40H161.973V28.8ZM179.313 35.776C179.313 35.9147 179.302 36.112 179.281 36.368H172.577C172.694 36.9973 172.998 37.4987 173.489 37.872C173.99 38.2347 174.609 38.416 175.345 38.416C176.283 38.416 177.057 38.1067 177.665 37.488L178.737 38.72C178.353 39.1787 177.867 39.5253 177.281 39.76C176.694 39.9947 176.033 40.112 175.297 40.112C174.358 40.112 173.531 39.9253 172.817 39.552C172.102 39.1787 171.547 38.6613 171.153 38C170.769 37.328 170.577 36.5707 170.577 35.728C170.577 34.896 170.763 34.1493 171.137 33.488C171.521 32.816 172.049 32.2933 172.721 31.92C173.393 31.5467 174.15 31.36 174.993 31.36C175.825 31.36 176.566 31.5467 177.217 31.92C177.878 32.2827 178.39 32.8 178.753 33.472C179.126 34.1333 179.313 34.9013 179.313 35.776ZM174.993 32.96C174.353 32.96 173.809 33.152 173.361 33.536C172.923 33.9093 172.657 34.4107 172.561 35.04H177.409C177.323 34.4213 177.062 33.92 176.625 33.536C176.187 33.152 175.643 32.96 174.993 32.96ZM184.264 31.36C185.522 31.36 186.482 31.664 187.144 32.272C187.816 32.8693 188.152 33.776 188.152 34.992V40H186.264V38.96C186.018 39.3333 185.666 39.6213 185.208 39.824C184.76 40.016 184.216 40.112 183.576 40.112C182.936 40.112 182.376 40.0053 181.896 39.792C181.416 39.568 181.042 39.264 180.776 38.88C180.52 38.4853 180.392 38.0427 180.392 37.552C180.392 36.784 180.674 36.1707 181.24 35.712C181.816 35.2427 182.717 35.008 183.944 35.008H186.152V34.88C186.152 34.2827 185.97 33.824 185.608 33.504C185.256 33.184 184.728 33.024 184.024 33.024C183.544 33.024 183.069 33.0987 182.6 33.248C182.141 33.3973 181.752 33.6053 181.432 33.872L180.648 32.416C181.096 32.0747 181.634 31.8133 182.264 31.632C182.893 31.4507 183.56 31.36 184.264 31.36ZM183.992 38.656C184.493 38.656 184.936 38.544 185.32 38.32C185.714 38.0853 185.992 37.7547 186.152 37.328V36.336H184.088C182.936 36.336 182.36 36.7147 182.36 37.472C182.36 37.8347 182.504 38.1227 182.792 38.336C183.08 38.5493 183.48 38.656 183.992 38.656ZM192.622 32.704C193.198 31.808 194.212 31.36 195.662 31.36V33.264C195.492 33.232 195.337 33.216 195.198 33.216C194.42 33.216 193.812 33.4453 193.374 33.904C192.937 34.352 192.718 35.0027 192.718 35.856V40H190.718V31.456H192.622V32.704ZM202.207 31.36C203.284 31.36 204.148 31.6747 204.799 32.304C205.45 32.9333 205.775 33.8667 205.775 35.104V40H203.775V35.36C203.775 34.6133 203.599 34.0533 203.247 33.68C202.895 33.296 202.394 33.104 201.743 33.104C201.007 33.104 200.426 33.328 199.999 33.776C199.572 34.2133 199.359 34.848 199.359 35.68V40H197.359V31.456H199.263V32.56C199.594 32.1653 200.01 31.8667 200.511 31.664C201.012 31.4613 201.578 31.36 202.207 31.36ZM223.214 40L223.198 32.576L219.518 38.72H218.59L214.91 32.672V40H212.926V28.8H214.638L219.086 36.224L223.454 28.8H225.166L225.182 40H223.214ZM231.855 40.112C230.991 40.112 230.212 39.9253 229.519 39.552C228.826 39.1787 228.282 38.6613 227.887 38C227.503 37.328 227.311 36.5707 227.311 35.728C227.311 34.8853 227.503 34.1333 227.887 33.472C228.282 32.8107 228.826 32.2933 229.519 31.92C230.212 31.5467 230.991 31.36 231.855 31.36C232.73 31.36 233.514 31.5467 234.207 31.92C234.9 32.2933 235.439 32.8107 235.823 33.472C236.218 34.1333 236.415 34.8853 236.415 35.728C236.415 36.5707 236.218 37.328 235.823 38C235.439 38.6613 234.9 39.1787 234.207 39.552C233.514 39.9253 232.73 40.112 231.855 40.112ZM231.855 38.4C232.591 38.4 233.199 38.1547 233.679 37.664C234.159 37.1733 234.399 36.528 234.399 35.728C234.399 34.928 234.159 34.2827 233.679 33.792C233.199 33.3013 232.591 33.056 231.855 33.056C231.119 33.056 230.511 33.3013 230.031 33.792C229.562 34.2827 229.327 34.928 229.327 35.728C229.327 36.528 229.562 37.1733 230.031 37.664C230.511 38.1547 231.119 38.4 231.855 38.4ZM240.232 32.704C240.808 31.808 241.821 31.36 243.272 31.36V33.264C243.101 33.232 242.946 33.216 242.808 33.216C242.029 33.216 241.421 33.4453 240.984 33.904C240.546 34.352 240.328 35.0027 240.328 35.856V40H238.328V31.456H240.232V32.704ZM252.922 35.776C252.922 35.9147 252.911 36.112 252.89 36.368H246.186C246.303 36.9973 246.607 37.4987 247.098 37.872C247.599 38.2347 248.218 38.416 248.954 38.416C249.893 38.416 250.666 38.1067 251.274 37.488L252.346 38.72C251.962 39.1787 251.477 39.5253 250.89 39.76C250.303 39.9947 249.642 40.112 248.906 40.112C247.967 40.112 247.141 39.9253 246.426 39.552C245.711 39.1787 245.157 38.6613 244.762 38C244.378 37.328 244.186 36.5707 244.186 35.728C244.186 34.896 244.373 34.1493 244.746 33.488C245.13 32.816 245.658 32.2933 246.33 31.92C247.002 31.5467 247.759 31.36 248.602 31.36C249.434 31.36 250.175 31.5467 250.826 31.92C251.487 32.2827 251.999 32.8 252.362 33.472C252.735 34.1333 252.922 34.9013 252.922 35.776ZM248.602 32.96C247.962 32.96 247.418 33.152 246.97 33.536C246.533 33.9093 246.266 34.4107 246.17 35.04H251.018C250.933 34.4213 250.671 33.92 250.234 33.536C249.797 33.152 249.253 32.96 248.602 32.96ZM167.701 51.36C168.96 51.36 169.92 51.664 170.581 52.272C171.253 52.8693 171.589 53.776 171.589 54.992V60H169.701V58.96C169.456 59.3333 169.104 59.6213 168.645 59.824C168.197 60.016 167.653 60.112 167.013 60.112C166.373 60.112 165.813 60.0053 165.333 59.792C164.853 59.568 164.48 59.264 164.213 58.88C163.957 58.4853 163.829 58.0427 163.829 57.552C163.829 56.784 164.112 56.1707 164.677 55.712C165.253 55.2427 166.154 55.008 167.381 55.008H169.589V54.88C169.589 54.2827 169.408 53.824 169.045 53.504C168.693 53.184 168.165 53.024 167.461 53.024C166.981 53.024 166.506 53.0987 166.037 53.248C165.578 53.3973 165.189 53.6053 164.869 53.872L164.085 52.416C164.533 52.0747 165.072 51.8133 165.701 51.632C166.33 51.4507 166.997 51.36 167.701 51.36ZM167.429 58.656C167.93 58.656 168.373 58.544 168.757 58.32C169.152 58.0853 169.429 57.7547 169.589 57.328V56.336H167.525C166.373 56.336 165.797 56.7147 165.797 57.472C165.797 57.8347 165.941 58.1227 166.229 58.336C166.517 58.5493 166.917 58.656 167.429 58.656ZM178.892 51.36C179.724 51.36 180.465 51.5413 181.116 51.904C181.777 52.2667 182.294 52.7787 182.668 53.44C183.041 54.1013 183.228 54.864 183.228 55.728C183.228 56.592 183.041 57.36 182.668 58.032C182.294 58.6933 181.777 59.2053 181.116 59.568C180.465 59.9307 179.724 60.112 178.892 60.112C178.305 60.112 177.766 60.0107 177.276 59.808C176.796 59.6053 176.39 59.3013 176.06 58.896V60H174.156V48.128H176.156V52.496C176.497 52.1227 176.897 51.84 177.356 51.648C177.825 51.456 178.337 51.36 178.892 51.36ZM178.668 58.4C179.404 58.4 180.006 58.1547 180.476 57.664C180.956 57.1733 181.196 56.528 181.196 55.728C181.196 54.928 180.956 54.2827 180.476 53.792C180.006 53.3013 179.404 53.056 178.668 53.056C178.188 53.056 177.756 53.168 177.372 53.392C176.988 53.6053 176.684 53.9147 176.46 54.32C176.236 54.7253 176.124 55.1947 176.124 55.728C176.124 56.2613 176.236 56.7307 176.46 57.136C176.684 57.5413 176.988 57.856 177.372 58.08C177.756 58.2933 178.188 58.4 178.668 58.4ZM188.965 60.112C188.101 60.112 187.322 59.9253 186.629 59.552C185.935 59.1787 185.391 58.6613 184.997 58C184.613 57.328 184.421 56.5707 184.421 55.728C184.421 54.8853 184.613 54.1333 184.997 53.472C185.391 52.8107 185.935 52.2933 186.629 51.92C187.322 51.5467 188.101 51.36 188.965 51.36C189.839 51.36 190.623 51.5467 191.317 51.92C192.01 52.2933 192.549 52.8107 192.933 53.472C193.327 54.1333 193.525 54.8853 193.525 55.728C193.525 56.5707 193.327 57.328 192.933 58C192.549 58.6613 192.01 59.1787 191.317 59.552C190.623 59.9253 189.839 60.112 188.965 60.112ZM188.965 58.4C189.701 58.4 190.309 58.1547 190.789 57.664C191.269 57.1733 191.509 56.528 191.509 55.728C191.509 54.928 191.269 54.2827 190.789 53.792C190.309 53.3013 189.701 53.056 188.965 53.056C188.229 53.056 187.621 53.3013 187.141 53.792C186.671 54.2827 186.437 54.928 186.437 55.728C186.437 56.528 186.671 57.1733 187.141 57.664C187.621 58.1547 188.229 58.4 188.965 58.4ZM203.709 51.456V60H201.805V58.912C201.485 59.296 201.085 59.5947 200.605 59.808C200.125 60.0107 199.608 60.112 199.053 60.112C197.912 60.112 197.01 59.7973 196.349 59.168C195.698 58.528 195.373 57.584 195.373 56.336V51.456H197.373V56.064C197.373 56.832 197.544 57.408 197.885 57.792C198.237 58.1653 198.733 58.352 199.373 58.352C200.088 58.352 200.653 58.1333 201.069 57.696C201.496 57.248 201.709 56.608 201.709 55.776V51.456H203.709ZM211.464 59.536C211.229 59.728 210.941 59.872 210.6 59.968C210.269 60.064 209.917 60.112 209.544 60.112C208.605 60.112 207.88 59.8667 207.368 59.376C206.856 58.8853 206.6 58.1707 206.6 57.232V53.12H205.192V51.52H206.6V49.568H208.6V51.52H210.888V53.12H208.6V57.184C208.6 57.6 208.701 57.92 208.904 58.144C209.106 58.3573 209.4 58.464 209.784 58.464C210.232 58.464 210.605 58.3467 210.904 58.112L211.464 59.536ZM219.803 50.544V53.952H225.211V55.712H219.803V60H217.723V48.8H225.899V50.544H219.803ZM230.717 51.36C231.975 51.36 232.935 51.664 233.597 52.272C234.269 52.8693 234.605 53.776 234.605 54.992V60H232.717V58.96C232.471 59.3333 232.119 59.6213 231.661 59.824C231.213 60.016 230.669 60.112 230.029 60.112C229.389 60.112 228.829 60.0053 228.349 59.792C227.869 59.568 227.495 59.264 227.229 58.88C226.973 58.4853 226.845 58.0427 226.845 57.552C226.845 56.784 227.127 56.1707 227.693 55.712C228.269 55.2427 229.17 55.008 230.397 55.008H232.605V54.88C232.605 54.2827 232.423 53.824 232.061 53.504C231.709 53.184 231.181 53.024 230.477 53.024C229.997 53.024 229.522 53.0987 229.053 53.248C228.594 53.3973 228.205 53.6053 227.885 53.872L227.101 52.416C227.549 52.0747 228.087 51.8133 228.717 51.632C229.346 51.4507 230.013 51.36 230.717 51.36ZM230.445 58.656C230.946 58.656 231.389 58.544 231.773 58.32C232.167 58.0853 232.445 57.7547 232.605 57.328V56.336H230.541C229.389 56.336 228.813 56.7147 228.813 57.472C228.813 57.8347 228.957 58.1227 229.245 58.336C229.533 58.5493 229.933 58.656 230.445 58.656ZM239.811 60.112C239.118 60.112 238.441 60.0213 237.779 59.84C237.118 59.6587 236.59 59.4293 236.195 59.152L236.963 57.632C237.347 57.888 237.806 58.096 238.339 58.256C238.883 58.4053 239.417 58.48 239.939 58.48C241.134 58.48 241.731 58.1653 241.731 57.536C241.731 57.2373 241.577 57.0293 241.267 56.912C240.969 56.7947 240.483 56.6827 239.811 56.576C239.107 56.4693 238.531 56.3467 238.083 56.208C237.646 56.0693 237.262 55.8293 236.931 55.488C236.611 55.136 236.451 54.6507 236.451 54.032C236.451 53.2213 236.787 52.576 237.459 52.096C238.142 51.6053 239.059 51.36 240.211 51.36C240.798 51.36 241.385 51.4293 241.971 51.568C242.558 51.696 243.038 51.872 243.411 52.096L242.643 53.616C241.918 53.1893 241.102 52.976 240.195 52.976C239.609 52.976 239.161 53.0667 238.851 53.248C238.553 53.4187 238.403 53.648 238.403 53.936C238.403 54.256 238.563 54.4853 238.883 54.624C239.214 54.752 239.721 54.8747 240.403 54.992C241.086 55.0987 241.646 55.2213 242.083 55.36C242.521 55.4987 242.894 55.7333 243.203 56.064C243.523 56.3947 243.683 56.864 243.683 57.472C243.683 58.272 243.337 58.912 242.643 59.392C241.95 59.872 241.006 60.112 239.811 60.112ZM250.542 59.536C250.307 59.728 250.019 59.872 249.678 59.968C249.347 60.064 248.995 60.112 248.622 60.112C247.683 60.112 246.958 59.8667 246.446 59.376C245.934 58.8853 245.678 58.1707 245.678 57.232V53.12H244.27V51.52H245.678V49.568H247.678V51.52H249.966V53.12H247.678V57.184C247.678 57.6 247.779 57.92 247.982 58.144C248.184 58.3573 248.478 58.464 248.862 58.464C249.31 58.464 249.683 58.3467 249.982 58.112L250.542 59.536ZM166.022 70.544V73.952H171.43V75.712H166.022V80H163.942V68.8H172.118V70.544H166.022ZM176.935 71.36C178.194 71.36 179.154 71.664 179.815 72.272C180.487 72.8693 180.823 73.776 180.823 74.992V80H178.935V78.96C178.69 79.3333 178.338 79.6213 177.879 79.824C177.431 80.016 176.887 80.112 176.247 80.112C175.607 80.112 175.047 80.0053 174.567 79.792C174.087 79.568 173.714 79.264 173.447 78.88C173.191 78.4853 173.063 78.0427 173.063 77.552C173.063 76.784 173.346 76.1707 173.911 75.712C174.487 75.2427 175.389 75.008 176.615 75.008H178.823V74.88C178.823 74.2827 178.642 73.824 178.279 73.504C177.927 73.184 177.399 73.024 176.695 73.024C176.215 73.024 175.741 73.0987 175.271 73.248C174.813 73.3973 174.423 73.6053 174.103 73.872L173.319 72.416C173.767 72.0747 174.306 71.8133 174.935 71.632C175.565 71.4507 176.231 71.36 176.935 71.36ZM176.663 78.656C177.165 78.656 177.607 78.544 177.991 78.32C178.386 78.0853 178.663 77.7547 178.823 77.328V76.336H176.759C175.607 76.336 175.031 76.7147 175.031 77.472C175.031 77.8347 175.175 78.1227 175.463 78.336C175.751 78.5493 176.151 78.656 176.663 78.656ZM186.03 80.112C185.337 80.112 184.659 80.0213 183.998 79.84C183.337 79.6587 182.809 79.4293 182.414 79.152L183.182 77.632C183.566 77.888 184.025 78.096 184.558 78.256C185.102 78.4053 185.635 78.48 186.158 78.48C187.353 78.48 187.95 78.1653 187.95 77.536C187.95 77.2373 187.795 77.0293 187.486 76.912C187.187 76.7947 186.702 76.6827 186.03 76.576C185.326 76.4693 184.75 76.3467 184.302 76.208C183.865 76.0693 183.481 75.8293 183.15 75.488C182.83 75.136 182.67 74.6507 182.67 74.032C182.67 73.2213 183.006 72.576 183.678 72.096C184.361 71.6053 185.278 71.36 186.43 71.36C187.017 71.36 187.603 71.4293 188.19 71.568C188.777 71.696 189.257 71.872 189.63 72.096L188.862 73.616C188.137 73.1893 187.321 72.976 186.414 72.976C185.827 72.976 185.379 73.0667 185.07 73.248C184.771 73.4187 184.622 73.648 184.622 73.936C184.622 74.256 184.782 74.4853 185.102 74.624C185.433 74.752 185.939 74.8747 186.622 74.992C187.305 75.0987 187.865 75.2213 188.302 75.36C188.739 75.4987 189.113 75.7333 189.422 76.064C189.742 76.3947 189.902 76.864 189.902 77.472C189.902 78.272 189.555 78.912 188.862 79.392C188.169 79.872 187.225 80.112 186.03 80.112ZM196.473 71.36C197.55 71.36 198.414 71.6747 199.065 72.304C199.715 72.9333 200.041 73.8667 200.041 75.104V80H198.041V75.36C198.041 74.6133 197.865 74.0533 197.513 73.68C197.161 73.296 196.659 73.104 196.009 73.104C195.273 73.104 194.691 73.328 194.265 73.776C193.838 74.2133 193.625 74.848 193.625 75.68V80H191.625V68.128H193.625V72.448C193.955 72.096 194.361 71.8293 194.841 71.648C195.331 71.456 195.875 71.36 196.473 71.36ZM202.578 71.456H204.578V80H202.578V71.456ZM203.586 70.048C203.223 70.048 202.919 69.936 202.674 69.712C202.428 69.4773 202.306 69.1893 202.306 68.848C202.306 68.5067 202.428 68.224 202.674 68C202.919 67.7653 203.223 67.648 203.586 67.648C203.948 67.648 204.252 67.76 204.498 67.984C204.743 68.1973 204.866 68.4693 204.866 68.8C204.866 69.152 204.743 69.4507 204.498 69.696C204.263 69.9307 203.959 70.048 203.586 70.048ZM211.043 80.112C210.179 80.112 209.4 79.9253 208.707 79.552C208.013 79.1787 207.469 78.6613 207.075 78C206.691 77.328 206.499 76.5707 206.499 75.728C206.499 74.8853 206.691 74.1333 207.075 73.472C207.469 72.8107 208.013 72.2933 208.707 71.92C209.4 71.5467 210.179 71.36 211.043 71.36C211.917 71.36 212.701 71.5467 213.395 71.92C214.088 72.2933 214.627 72.8107 215.011 73.472C215.405 74.1333 215.603 74.8853 215.603 75.728C215.603 76.5707 215.405 77.328 215.011 78C214.627 78.6613 214.088 79.1787 213.395 79.552C212.701 79.9253 211.917 80.112 211.043 80.112ZM211.043 78.4C211.779 78.4 212.387 78.1547 212.867 77.664C213.347 77.1733 213.587 76.528 213.587 75.728C213.587 74.928 213.347 74.2827 212.867 73.792C212.387 73.3013 211.779 73.056 211.043 73.056C210.307 73.056 209.699 73.3013 209.219 73.792C208.749 74.2827 208.515 74.928 208.515 75.728C208.515 76.528 208.749 77.1733 209.219 77.664C209.699 78.1547 210.307 78.4 211.043 78.4ZM222.363 71.36C223.44 71.36 224.304 71.6747 224.955 72.304C225.606 72.9333 225.931 73.8667 225.931 75.104V80H223.931V75.36C223.931 74.6133 223.755 74.0533 223.403 73.68C223.051 73.296 222.55 73.104 221.899 73.104C221.163 73.104 220.582 73.328 220.155 73.776C219.728 74.2133 219.515 74.848 219.515 75.68V80H217.515V71.456H219.419V72.56C219.75 72.1653 220.166 71.8667 220.667 71.664C221.168 71.4613 221.734 71.36 222.363 71.36ZM237.626 71.36C238.458 71.36 239.199 71.5413 239.85 71.904C240.511 72.2667 241.029 72.7787 241.402 73.44C241.775 74.1013 241.962 74.864 241.962 75.728C241.962 76.592 241.775 77.36 241.402 78.032C241.029 78.6933 240.511 79.2053 239.85 79.568C239.199 79.9307 238.458 80.112 237.626 80.112C237.039 80.112 236.501 80.0107 236.01 79.808C235.53 79.6053 235.125 79.3013 234.794 78.896V80H232.89V68.128H234.89V72.496C235.231 72.1227 235.631 71.84 236.09 71.648C236.559 71.456 237.071 71.36 237.626 71.36ZM237.402 78.4C238.138 78.4 238.741 78.1547 239.21 77.664C239.69 77.1733 239.93 76.528 239.93 75.728C239.93 74.928 239.69 74.2827 239.21 73.792C238.741 73.3013 238.138 73.056 237.402 73.056C236.922 73.056 236.49 73.168 236.106 73.392C235.722 73.6053 235.418 73.9147 235.194 74.32C234.97 74.7253 234.858 75.1947 234.858 75.728C234.858 76.2613 234.97 76.7307 235.194 77.136C235.418 77.5413 235.722 77.856 236.106 78.08C236.49 78.2933 236.922 78.4 237.402 78.4ZM251.625 71.456L247.625 80.688C247.251 81.616 246.798 82.2667 246.265 82.64C245.731 83.024 245.086 83.216 244.329 83.216C243.902 83.216 243.481 83.1467 243.065 83.008C242.649 82.8693 242.307 82.6773 242.04 82.432L242.84 80.96C243.033 81.1413 243.257 81.2853 243.513 81.392C243.779 81.4987 244.046 81.552 244.312 81.552C244.665 81.552 244.953 81.4613 245.177 81.28C245.411 81.0987 245.625 80.7947 245.817 80.368L245.961 80.032L242.232 71.456H244.312L247.001 77.776L249.705 71.456H251.625ZM166.749 91.456L163.597 100H161.677L159.469 94.112L157.229 100H155.309L152.173 91.456H154.061L156.317 97.76L158.669 91.456H160.349L162.653 97.792L164.973 91.456H166.749ZM171.123 91.36C172.382 91.36 173.342 91.664 174.003 92.272C174.675 92.8693 175.011 93.776 175.011 94.992V100H173.123V98.96C172.878 99.3333 172.526 99.6213 172.067 99.824C171.619 100.016 171.075 100.112 170.435 100.112C169.795 100.112 169.235 100.005 168.755 99.792C168.275 99.568 167.902 99.264 167.635 98.88C167.379 98.4853 167.251 98.0427 167.251 97.552C167.251 96.784 167.534 96.1707 168.099 95.712C168.675 95.2427 169.576 95.008 170.803 95.008H173.011V94.88C173.011 94.2827 172.83 93.824 172.467 93.504C172.115 93.184 171.587 93.024 170.883 93.024C170.403 93.024 169.928 93.0987 169.459 93.248C169 93.3973 168.611 93.6053 168.291 93.872L167.507 92.416C167.955 92.0747 168.494 91.8133 169.123 91.632C169.752 91.4507 170.419 91.36 171.123 91.36ZM170.851 98.656C171.352 98.656 171.795 98.544 172.179 98.32C172.574 98.0853 172.851 97.7547 173.011 97.328V96.336H170.947C169.795 96.336 169.219 96.7147 169.219 97.472C169.219 97.8347 169.363 98.1227 169.651 98.336C169.939 98.5493 170.339 98.656 170.851 98.656ZM182.714 99.536C182.479 99.728 182.191 99.872 181.85 99.968C181.519 100.064 181.167 100.112 180.794 100.112C179.855 100.112 179.13 99.8667 178.618 99.376C178.106 98.8853 177.85 98.1707 177.85 97.232V93.12H176.442V91.52H177.85V89.568H179.85V91.52H182.138V93.12H179.85V97.184C179.85 97.6 179.951 97.92 180.154 98.144C180.356 98.3573 180.65 98.464 181.034 98.464C181.482 98.464 181.855 98.3467 182.154 98.112L182.714 99.536ZM187.998 100.112C187.112 100.112 186.318 99.9253 185.614 99.552C184.91 99.1787 184.36 98.6613 183.966 98C183.571 97.328 183.374 96.5707 183.374 95.728C183.374 94.8853 183.571 94.1333 183.966 93.472C184.36 92.8107 184.904 92.2933 185.598 91.92C186.302 91.5467 187.102 91.36 187.998 91.36C188.84 91.36 189.576 91.5307 190.206 91.872C190.846 92.2133 191.326 92.704 191.646 93.344L190.11 94.24C189.864 93.8453 189.555 93.552 189.182 93.36C188.819 93.1573 188.419 93.056 187.982 93.056C187.235 93.056 186.616 93.3013 186.126 93.792C185.635 94.272 185.39 94.9173 185.39 95.728C185.39 96.5387 185.63 97.1893 186.11 97.68C186.6 98.16 187.224 98.4 187.982 98.4C188.419 98.4 188.819 98.304 189.182 98.112C189.555 97.9093 189.864 97.6107 190.11 97.216L191.646 98.112C191.315 98.752 190.83 99.248 190.19 99.6C189.56 99.9413 188.83 100.112 187.998 100.112ZM198.144 91.36C199.222 91.36 200.086 91.6747 200.736 92.304C201.387 92.9333 201.712 93.8667 201.712 95.104V100H199.712V95.36C199.712 94.6133 199.536 94.0533 199.184 93.68C198.832 93.296 198.331 93.104 197.68 93.104C196.944 93.104 196.363 93.328 195.936 93.776C195.51 94.2133 195.296 94.848 195.296 95.68V100H193.296V88.128H195.296V92.448C195.627 92.096 196.032 91.8293 196.512 91.648C197.003 91.456 197.547 91.36 198.144 91.36ZM204.25 91.456H206.25V100H204.25V91.456ZM205.258 90.048C204.895 90.048 204.591 89.936 204.346 89.712C204.1 89.4773 203.978 89.1893 203.978 88.848C203.978 88.5067 204.1 88.224 204.346 88C204.591 87.7653 204.895 87.648 205.258 87.648C205.62 87.648 205.924 87.76 206.17 87.984C206.415 88.1973 206.538 88.4693 206.538 88.8C206.538 89.152 206.415 89.4507 206.17 89.696C205.935 89.9307 205.631 90.048 205.258 90.048ZM213.723 91.36C214.8 91.36 215.664 91.6747 216.315 92.304C216.965 92.9333 217.291 93.8667 217.291 95.104V100H215.291V95.36C215.291 94.6133 215.115 94.0533 214.763 93.68C214.411 93.296 213.909 93.104 213.259 93.104C212.523 93.104 211.941 93.328 211.515 93.776C211.088 94.2133 210.875 94.848 210.875 95.68V100H208.875V91.456H210.779V92.56C211.109 92.1653 211.525 91.8667 212.027 91.664C212.528 91.4613 213.093 91.36 213.723 91.36ZM228.386 91.456V98.704C228.386 101.712 226.85 103.216 223.778 103.216C222.956 103.216 222.178 103.109 221.442 102.896C220.706 102.693 220.098 102.395 219.618 102L220.514 100.496C220.887 100.805 221.356 101.051 221.922 101.232C222.498 101.424 223.079 101.52 223.666 101.52C224.604 101.52 225.292 101.307 225.73 100.88C226.167 100.453 226.386 99.8027 226.386 98.928V98.48C226.044 98.8533 225.628 99.136 225.138 99.328C224.647 99.52 224.108 99.616 223.522 99.616C222.711 99.616 221.975 99.4453 221.314 99.104C220.663 98.752 220.146 98.2613 219.762 97.632C219.388 97.0027 219.202 96.2827 219.202 95.472C219.202 94.6613 219.388 93.9467 219.762 93.328C220.146 92.6987 220.663 92.2133 221.314 91.872C221.975 91.5307 222.711 91.36 223.522 91.36C224.14 91.36 224.7 91.4613 225.202 91.664C225.714 91.8667 226.14 92.176 226.482 92.592V91.456H228.386ZM223.826 97.92C224.583 97.92 225.202 97.696 225.682 97.248C226.172 96.7893 226.418 96.1973 226.418 95.472C226.418 94.7573 226.172 94.176 225.682 93.728C225.202 93.28 224.583 93.056 223.826 93.056C223.058 93.056 222.428 93.28 221.938 93.728C221.458 94.176 221.218 94.7573 221.218 95.472C221.218 96.1973 221.458 96.7893 221.938 97.248C222.428 97.696 223.058 97.92 223.826 97.92ZM240.573 99.536C240.338 99.728 240.05 99.872 239.709 99.968C239.378 100.064 239.026 100.112 238.653 100.112C237.714 100.112 236.989 99.8667 236.477 99.376C235.965 98.8853 235.709 98.1707 235.709 97.232V93.12H234.301V91.52H235.709V89.568H237.709V91.52H239.997V93.12H237.709V97.184C237.709 97.6 237.81 97.92 238.013 98.144C238.216 98.3573 238.509 98.464 238.893 98.464C239.341 98.464 239.714 98.3467 240.013 98.112L240.573 99.536ZM247.066 91.36C248.144 91.36 249.008 91.6747 249.658 92.304C250.309 92.9333 250.634 93.8667 250.634 95.104V100H248.634V95.36C248.634 94.6133 248.458 94.0533 248.106 93.68C247.754 93.296 247.253 93.104 246.602 93.104C245.866 93.104 245.285 93.328 244.858 93.776C244.432 94.2133 244.218 94.848 244.218 95.68V100H242.218V88.128H244.218V92.448C244.549 92.096 244.954 91.8293 245.434 91.648C245.925 91.456 246.469 91.36 247.066 91.36ZM261.282 95.776C261.282 95.9147 261.271 96.112 261.25 96.368H254.546C254.663 96.9973 254.967 97.4987 255.458 97.872C255.959 98.2347 256.578 98.416 257.314 98.416C258.252 98.416 259.026 98.1067 259.634 97.488L260.706 98.72C260.322 99.1787 259.836 99.5253 259.25 99.76C258.663 99.9947 258.002 100.112 257.266 100.112C256.327 100.112 255.5 99.9253 254.786 99.552C254.071 99.1787 253.516 98.6613 253.122 98C252.738 97.328 252.546 96.5707 252.546 95.728C252.546 94.896 252.732 94.1493 253.106 93.488C253.49 92.816 254.018 92.2933 254.69 91.92C255.362 91.5467 256.119 91.36 256.962 91.36C257.794 91.36 258.535 91.5467 259.186 91.92C259.847 92.2827 260.359 92.8 260.722 93.472C261.095 94.1333 261.282 94.9013 261.282 95.776ZM256.962 92.96C256.322 92.96 255.778 93.152 255.33 93.536C254.892 93.9093 254.626 94.4107 254.53 95.04H259.378C259.292 94.4213 259.031 93.92 258.594 93.536C258.156 93.152 257.612 92.96 256.962 92.96ZM164.687 111.456L161.023 120H158.959L155.295 111.456H157.375L160.031 117.792L162.767 111.456H164.687ZM165.937 111.456H167.937V120H165.937V111.456ZM166.945 110.048C166.582 110.048 166.278 109.936 166.033 109.712C165.788 109.477 165.665 109.189 165.665 108.848C165.665 108.507 165.788 108.224 166.033 108C166.278 107.765 166.582 107.648 166.945 107.648C167.308 107.648 167.612 107.76 167.857 107.984C168.102 108.197 168.225 108.469 168.225 108.8C168.225 109.152 168.102 109.451 167.857 109.696C167.622 109.931 167.318 110.048 166.945 110.048ZM178.93 108.128V120H177.01V118.896C176.679 119.301 176.269 119.605 175.778 119.808C175.298 120.011 174.765 120.112 174.178 120.112C173.357 120.112 172.615 119.931 171.954 119.568C171.303 119.205 170.791 118.693 170.418 118.032C170.045 117.36 169.858 116.592 169.858 115.728C169.858 114.864 170.045 114.101 170.418 113.44C170.791 112.779 171.303 112.267 171.954 111.904C172.615 111.541 173.357 111.36 174.178 111.36C174.743 111.36 175.261 111.456 175.73 111.648C176.199 111.84 176.599 112.128 176.93 112.512V108.128H178.93ZM174.418 118.4C174.898 118.4 175.33 118.293 175.714 118.08C176.098 117.856 176.402 117.541 176.626 117.136C176.85 116.731 176.962 116.261 176.962 115.728C176.962 115.195 176.85 114.725 176.626 114.32C176.402 113.915 176.098 113.605 175.714 113.392C175.33 113.168 174.898 113.056 174.418 113.056C173.938 113.056 173.506 113.168 173.122 113.392C172.738 113.605 172.434 113.915 172.21 114.32C171.986 114.725 171.874 115.195 171.874 115.728C171.874 116.261 171.986 116.731 172.21 117.136C172.434 117.541 172.738 117.856 173.122 118.08C173.506 118.293 173.938 118.4 174.418 118.4ZM189.578 115.776C189.578 115.915 189.568 116.112 189.546 116.368H182.842C182.96 116.997 183.264 117.499 183.754 117.872C184.256 118.235 184.874 118.416 185.61 118.416C186.549 118.416 187.322 118.107 187.93 117.488L189.002 118.72C188.618 119.179 188.133 119.525 187.546 119.76C186.96 119.995 186.298 120.112 185.562 120.112C184.624 120.112 183.797 119.925 183.082 119.552C182.368 119.179 181.813 118.661 181.418 118C181.034 117.328 180.842 116.571 180.842 115.728C180.842 114.896 181.029 114.149 181.402 113.488C181.786 112.816 182.314 112.293 182.986 111.92C183.658 111.547 184.416 111.36 185.258 111.36C186.09 111.36 186.832 111.547 187.482 111.92C188.144 112.283 188.656 112.8 189.018 113.472C189.392 114.133 189.578 114.901 189.578 115.776ZM185.258 112.96C184.618 112.96 184.074 113.152 183.626 113.536C183.189 113.909 182.922 114.411 182.826 115.04H187.674C187.589 114.421 187.328 113.92 186.89 113.536C186.453 113.152 185.909 112.96 185.258 112.96ZM195.34 120.112C194.476 120.112 193.697 119.925 193.004 119.552C192.31 119.179 191.766 118.661 191.372 118C190.988 117.328 190.796 116.571 190.796 115.728C190.796 114.885 190.988 114.133 191.372 113.472C191.766 112.811 192.31 112.293 193.004 111.92C193.697 111.547 194.476 111.36 195.34 111.36C196.214 111.36 196.998 111.547 197.692 111.92C198.385 112.293 198.924 112.811 199.308 113.472C199.702 114.133 199.9 114.885 199.9 115.728C199.9 116.571 199.702 117.328 199.308 118C198.924 118.661 198.385 119.179 197.692 119.552C196.998 119.925 196.214 120.112 195.34 120.112ZM195.34 118.4C196.076 118.4 196.684 118.155 197.164 117.664C197.644 117.173 197.884 116.528 197.884 115.728C197.884 114.928 197.644 114.283 197.164 113.792C196.684 113.301 196.076 113.056 195.34 113.056C194.604 113.056 193.996 113.301 193.516 113.792C193.046 114.283 192.812 114.928 192.812 115.728C192.812 116.528 193.046 117.173 193.516 117.664C193.996 118.155 194.604 118.4 195.34 118.4ZM210.97 111.36C211.802 111.36 212.543 111.541 213.194 111.904C213.855 112.267 214.373 112.779 214.746 113.44C215.119 114.101 215.306 114.864 215.306 115.728C215.306 116.592 215.119 117.36 214.746 118.032C214.373 118.693 213.855 119.205 213.194 119.568C212.543 119.931 211.802 120.112 210.97 120.112C210.383 120.112 209.845 120.011 209.354 119.808C208.874 119.605 208.469 119.301 208.138 118.896V120H206.234V108.128H208.234V112.496C208.575 112.123 208.975 111.84 209.434 111.648C209.903 111.456 210.415 111.36 210.97 111.36ZM210.746 118.4C211.482 118.4 212.085 118.155 212.554 117.664C213.034 117.173 213.274 116.528 213.274 115.728C213.274 114.928 213.034 114.283 212.554 113.792C212.085 113.301 211.482 113.056 210.746 113.056C210.266 113.056 209.834 113.168 209.45 113.392C209.066 113.605 208.762 113.915 208.538 114.32C208.314 114.725 208.202 115.195 208.202 115.728C208.202 116.261 208.314 116.731 208.538 117.136C208.762 117.541 209.066 117.856 209.45 118.08C209.834 118.293 210.266 118.4 210.746 118.4ZM225.235 115.776C225.235 115.915 225.224 116.112 225.203 116.368H218.499C218.616 116.997 218.92 117.499 219.411 117.872C219.912 118.235 220.531 118.416 221.267 118.416C222.205 118.416 222.979 118.107 223.587 117.488L224.659 118.72C224.275 119.179 223.789 119.525 223.203 119.76C222.616 119.995 221.955 120.112 221.219 120.112C220.28 120.112 219.453 119.925 218.739 119.552C218.024 119.179 217.469 118.661 217.075 118C216.691 117.328 216.499 116.571 216.499 115.728C216.499 114.896 216.685 114.149 217.059 113.488C217.443 112.816 217.971 112.293 218.643 111.92C219.315 111.547 220.072 111.36 220.915 111.36C221.747 111.36 222.488 111.547 223.139 111.92C223.8 112.283 224.312 112.8 224.675 113.472C225.048 114.133 225.235 114.901 225.235 115.776ZM220.915 112.96C220.275 112.96 219.731 113.152 219.283 113.536C218.845 113.909 218.579 114.411 218.483 115.04H223.331C223.245 114.421 222.984 113.92 222.547 113.536C222.109 113.152 221.565 112.96 220.915 112.96ZM227.156 108.128H229.156V120H227.156V108.128ZM235.621 120.112C234.757 120.112 233.978 119.925 233.285 119.552C232.591 119.179 232.047 118.661 231.653 118C231.269 117.328 231.077 116.571 231.077 115.728C231.077 114.885 231.269 114.133 231.653 113.472C232.047 112.811 232.591 112.293 233.285 111.92C233.978 111.547 234.757 111.36 235.621 111.36C236.495 111.36 237.279 111.547 237.973 111.92C238.666 112.293 239.205 112.811 239.589 113.472C239.983 114.133 240.181 114.885 240.181 115.728C240.181 116.571 239.983 117.328 239.589 118C239.205 118.661 238.666 119.179 237.973 119.552C237.279 119.925 236.495 120.112 235.621 120.112ZM235.621 118.4C236.357 118.4 236.965 118.155 237.445 117.664C237.925 117.173 238.165 116.528 238.165 115.728C238.165 114.928 237.925 114.283 237.445 113.792C236.965 113.301 236.357 113.056 235.621 113.056C234.885 113.056 234.277 113.301 233.797 113.792C233.327 114.283 233.093 114.928 233.093 115.728C233.093 116.528 233.327 117.173 233.797 117.664C234.277 118.155 234.885 118.4 235.621 118.4ZM255.187 111.456L252.035 120H250.115L247.907 114.112L245.667 120H243.747L240.611 111.456H242.499L244.755 117.76L247.107 111.456H248.787L251.091 117.792L253.411 111.456H255.187ZM256.671 120.112C256.308 120.112 255.999 119.989 255.743 119.744C255.487 119.488 255.359 119.168 255.359 118.784C255.359 118.389 255.481 118.069 255.727 117.824C255.983 117.579 256.297 117.456 256.671 117.456C257.044 117.456 257.353 117.579 257.599 117.824C257.855 118.069 257.983 118.389 257.983 118.784C257.983 119.168 257.855 119.488 257.599 119.744C257.343 119.989 257.033 120.112 256.671 120.112Z" fill="white"/>
</svg>
