<svg width="212" height="244" viewBox="0 0 212 244" fill="none" xmlns="http://www.w3.org/2000/svg">
<path opacity="0.5" d="M132.734 236.668C132.734 240.718 103.019 244 66.3658 244C29.7124 244 0 240.718 0 236.668C0 232.619 29.7125 229.337 66.3681 229.337C103.024 229.337 132.736 232.619 132.736 236.668H132.734Z" fill="#FFDEA9"/>
<path d="M77.4256 221.766H71.8969V228.911H77.4256V221.766Z" fill="#FCCFB2"/>
<path d="M57.6142 221.766H52.0854V228.911H57.6142V221.766Z" fill="#FCCFB2"/>
<path d="M87.5617 235.134H69.5933V237.669H87.5617V235.134Z" fill="white"/>
<path d="M78.5775 228.323V225.687C76.9649 225.793 76.1379 227.067 76.1379 228.219L71.8969 228.224L69.5933 235.134H87.5617V233.619L78.5775 228.323Z" fill="#373737"/>
<path d="M59.6876 235.134H49.5515V237.669H59.6876V235.134Z" fill="white"/>
<path d="M52.0855 228.219H52.5578C52.5578 226.837 53.546 225.583 54.972 225.583C56.3979 225.583 57.3816 226.797 57.3862 228.219H57.612L59.6852 235.134H49.5492L52.0832 228.219H52.0855Z" fill="#373737"/>
<path d="M47.0175 150.089V161.048C47.4782 163.037 49.0792 165.224 50.5743 166.393L50.7517 221.766H58.6002L58.4804 167.006L70.54 167.084L70.5838 221.764H77.8864V150.087H47.0175V150.089Z" fill="#2B72B6"/>
<path d="M79.0382 218.309H69.8236V221.766H79.0382V218.309Z" fill="#80B3DD"/>
<path d="M59.4571 218.309H50.2426V221.766H59.4571V218.309Z" fill="#80B3DD"/>
<path d="M89.1558 164.252L82.2771 163.583C82.2909 163.438 83.6823 148.891 83.346 136.586C83.058 126.129 79.6002 108.766 79.5657 108.593L86.3407 107.233C86.4881 107.968 89.9505 125.346 90.2546 136.397C90.6048 149.142 89.2157 163.641 89.1558 164.252Z" fill="#FCCFB2"/>
<path d="M79.9596 113.73L89.2226 110.008C88.4002 99.8625 78.3586 87.8987 62.3528 87.8987C46.3471 87.8987 36.2916 99.8625 35.4692 110.008L44.7138 113.73V160.922H79.9596V113.73Z" fill="#333333"/>
<path d="M68.8122 88.59C67.9092 88.3756 67.3932 88.3065 66.2782 88.1498L65.6954 82.0676L59.2383 81.8325L58.9918 88.0783C57.6649 88.2097 56.9507 88.3249 55.8934 88.5808C55.8657 88.9034 55.8934 89.18 55.9049 89.5119C56.0638 93.4852 59.0793 96.5597 62.6407 96.3845C66.2022 96.2071 68.962 92.8445 68.803 88.8711C68.8007 88.8066 68.8145 88.6545 68.8099 88.59H68.8122Z" fill="#FCCFB2"/>
<path d="M85.9145 64.7547C85.9007 67.5411 83.6385 69.7905 80.858 69.7767C78.0798 69.7651 75.8361 67.495 75.8476 64.7086C75.8614 61.9222 78.1236 59.6728 80.9041 59.6866C83.6823 59.7004 85.926 61.9683 85.9122 64.7547H85.9145Z" fill="#FCCFB2"/>
<path d="M81.5583 64.4735C81.5652 75.3402 72.9703 84.1558 62.4795 84.1627C51.9887 84.1696 43.3823 75.3656 43.3754 64.4988L43.6034 59.1426C43.5965 48.2759 51.9611 39.4603 62.4519 39.4534C72.9427 39.4465 81.3188 48.2505 81.3257 59.1173L81.5606 64.4735H81.5583Z" fill="#FCCFB2"/>
<path d="M48.7014 65.5429C48.6876 68.3293 46.4254 70.5787 43.6449 70.5649C40.8667 70.551 38.623 68.2832 38.6368 65.4945C38.6506 62.7081 40.9128 60.4586 43.6933 60.4725C46.4715 60.4863 48.7152 62.7542 48.7014 65.5406V65.5429Z" fill="#FCCFB2"/>
<path opacity="0.5" d="M62.4795 84.1626C51.9887 84.1695 43.3823 75.3655 43.3754 64.4987V63.5976C43.38 63.4662 43.3823 63.3371 43.38 63.2104L45.4648 63.3463C45.4648 63.3463 45.9255 73.2083 52.8019 73.0538C55.2299 72.9985 58.4228 69.7765 62.6316 69.7166C67.0384 69.6521 69.8489 72.8672 72.4105 72.8625C79.2892 72.851 79.4482 62.8739 79.4482 62.8739L81.5238 62.7148C81.5238 62.8762 81.5353 63.0421 81.5537 63.2127V64.4733C81.5629 75.3401 72.968 84.1557 62.4772 84.1626H62.4795Z" fill="#AF928B"/>
<path d="M43.4883 55.538C43.8684 49.5388 48.7521 39.1629 62.111 38.5591C75.4191 39.02 80.9318 49.0502 81.3764 55.0448C81.5192 56.9761 81.5284 62.7149 81.5284 62.7149L79.4528 62.8739C79.4528 62.8739 80.2384 45.2013 69.607 48.2551C67.2458 48.9326 64.387 49.6218 62.2262 49.6609C59.9018 49.6563 57.5474 49.2784 55.1793 48.6238C44.518 45.6807 45.4648 63.3464 45.4648 63.3464L43.3754 63.2104C43.3754 63.2104 43.3662 57.4693 43.4883 55.5357V55.538Z" fill="#706053"/>
<path d="M71.4591 73.948L55.1976 73.6438C55.1976 73.6438 57.9574 79.4471 63.2189 79.4471C68.4805 79.4471 71.2264 75.1119 71.4591 73.948Z" fill="white"/>
<path d="M69.6139 67.5456C69.9433 68.7417 71.1274 69.4585 72.2561 69.1474C73.3872 68.8362 74.0346 67.6124 73.7051 66.4186C73.3757 65.2224 72.1916 64.5057 71.0606 64.8168C69.9318 65.1279 69.2821 66.3517 69.6116 67.5479L69.6139 67.5456Z" fill="#333333"/>
<path d="M52.1177 67.5456C52.4471 68.7417 53.6312 69.4585 54.76 69.1474C55.8911 68.8362 56.5384 67.6124 56.209 66.4186C55.8796 65.2224 54.6955 64.5057 53.5644 64.8168C52.4333 65.1279 51.786 66.3517 52.1154 67.5479L52.1177 67.5456Z" fill="#333333"/>
<path d="M46.9921 46.2154L49.7588 49.0617C49.7588 49.0617 68.0359 52.2791 76.7299 49.5089C80.9318 48.1698 81.9315 46.6026 84.4356 38.2111C74.6175 41.7281 74.0508 42.4748 74.0508 42.4748C74.0508 42.4748 78.9069 37.4252 83.1847 35.5445C78.3747 33.279 69.7452 33.7561 64.7993 36.8144C65.0988 35.7335 66.3405 34.2885 72.6801 32.0483C67.0753 31.7925 52.8618 32.258 50.9406 40.1148C50.9406 40.1148 49.0009 39.3289 50.7839 36.5886C47.7086 37.6534 43.6703 40.6795 46.9921 46.2154Z" fill="#373737"/>
<path d="M69.4297 128.656C69.4297 128.031 68.9229 127.503 68.2986 127.503H62.5855C62.8597 126.581 63.4701 124.908 63.2836 124.164C63.0232 123.122 62.6869 122.071 62.1686 121.707C61.648 121.343 60.8371 121.624 60.8371 122.092V124.797L57.969 128.653C57.969 128.653 47.7754 128.967 46.4024 128.994C39.8186 129.128 36.4829 128.821 34.8473 128.543C35.8333 125.703 38.5286 119.946 42.4033 112.801L35.9669 110.208C35.1169 111.79 34.1701 113.59 33.2233 115.447C27.0172 127.632 27.3812 129.725 27.6001 130.976C28.2497 134.719 32.9952 135.3 35.0201 135.547C37.1648 135.809 39.9845 135.941 43.4192 135.941C43.8131 135.941 57.946 135.793 57.946 135.793C58.5173 136.107 59.6346 136.492 61.1181 136.492H66.7367C67.361 136.492 67.8678 135.964 67.8678 135.339C67.8678 134.715 67.361 134.187 66.7367 134.187H67.2827C67.907 134.187 68.4138 133.774 68.4138 133.15C68.4138 132.525 67.907 132.113 67.2827 132.113H67.907C68.5313 132.113 69.0381 131.585 69.0381 130.96C69.0381 130.336 68.5313 129.808 67.907 129.808H68.2963C68.9206 129.808 69.4274 129.28 69.4274 128.656H69.4297Z" fill="#FCCFB2"/>
<path d="M159.169 0C129.991 0 106.337 15.6706 106.337 35.0019C106.337 41.8109 109.273 48.1643 114.353 53.5385L93 70L123.648 60.9087C133.03 66.5578 145.491 70 159.169 70C188.346 70 212 54.3294 212 34.9981C212 15.6669 188.346 0 159.169 0Z" fill="#4B4B4B"/>
<path d="M127.768 19.3579H125.156V18.1195H131.844V19.3579H129.232V26H127.768V19.3579ZM136.218 19.9208C136.976 19.9208 137.584 20.1422 138.042 20.585C138.5 21.0278 138.729 21.6845 138.729 22.5551V26H137.321V22.7352C137.321 22.2099 137.197 21.8158 136.95 21.5531C136.702 21.283 136.349 21.1479 135.892 21.1479C135.374 21.1479 134.965 21.3055 134.664 21.6207C134.364 21.9284 134.214 22.375 134.214 22.9604V26H132.807V17.6467H134.214V20.6863C134.447 20.4386 134.732 20.251 135.07 20.1234C135.415 19.9883 135.798 19.9208 136.218 19.9208ZM142.81 19.9208C143.696 19.9208 144.371 20.1347 144.837 20.5625C145.31 20.9827 145.546 21.6207 145.546 22.4763V26H144.218V25.2682C144.045 25.5309 143.797 25.7336 143.475 25.8762C143.159 26.0113 142.777 26.0788 142.326 26.0788C141.876 26.0788 141.482 26.0038 141.144 25.8536C140.806 25.696 140.544 25.4821 140.356 25.212C140.176 24.9343 140.086 24.6228 140.086 24.2775C140.086 23.7372 140.285 23.3056 140.683 22.9829C141.088 22.6527 141.722 22.4875 142.585 22.4875H144.139V22.3975C144.139 21.9772 144.011 21.6545 143.756 21.4293C143.508 21.2042 143.137 21.0916 142.641 21.0916C142.304 21.0916 141.97 21.1441 141.639 21.2492C141.317 21.3543 141.043 21.5006 140.818 21.6882L140.266 20.6638C140.581 20.4236 140.96 20.2397 141.403 20.1121C141.846 19.9846 142.315 19.9208 142.81 19.9208ZM142.619 25.0543C142.972 25.0543 143.283 24.9755 143.553 24.8179C143.831 24.6528 144.026 24.4201 144.139 24.1199V23.422H142.686C141.876 23.422 141.471 23.6884 141.471 24.2213C141.471 24.4764 141.572 24.6791 141.775 24.8292C141.977 24.9793 142.259 25.0543 142.619 25.0543ZM150.966 25.6735C150.801 25.8086 150.598 25.9099 150.358 25.9775C150.125 26.045 149.877 26.0788 149.615 26.0788C148.954 26.0788 148.444 25.9062 148.084 25.5609C147.723 25.2157 147.543 24.7129 147.543 24.0524V21.1591H146.553V20.0333H147.543V18.6599H148.951V20.0333H150.56V21.1591H148.951V24.0186C148.951 24.3113 149.022 24.5365 149.164 24.6941C149.307 24.8442 149.513 24.9192 149.784 24.9192C150.099 24.9192 150.362 24.8367 150.572 24.6716L150.966 25.6735ZM152.585 17.5679C152.848 17.5679 153.065 17.6542 153.238 17.8268C153.411 17.9994 153.497 18.2208 153.497 18.491C153.497 18.6261 153.478 18.7574 153.441 18.885C153.411 19.0126 153.347 19.204 153.249 19.4592L152.664 21.0578H151.752L152.202 19.3241C152.037 19.2641 151.906 19.1627 151.808 19.0201C151.718 18.87 151.673 18.6937 151.673 18.491C151.673 18.2208 151.759 17.9994 151.932 17.8268C152.105 17.6542 152.322 17.5679 152.585 17.5679ZM156.543 26.0788C156.055 26.0788 155.578 26.015 155.113 25.8874C154.647 25.7598 154.276 25.5985 153.998 25.4033L154.539 24.3338C154.809 24.514 155.132 24.6603 155.507 24.7729C155.89 24.878 156.265 24.9305 156.633 24.9305C157.473 24.9305 157.893 24.7091 157.893 24.2663C157.893 24.0561 157.785 23.9098 157.567 23.8272C157.357 23.7447 157.015 23.6659 156.543 23.5908C156.047 23.5158 155.642 23.4295 155.327 23.3319C155.019 23.2343 154.749 23.0655 154.516 22.8253C154.291 22.5776 154.178 22.2361 154.178 21.8008C154.178 21.2304 154.415 20.7764 154.888 20.4386C155.368 20.0934 156.013 19.9208 156.824 19.9208C157.237 19.9208 157.65 19.9695 158.062 20.0671C158.475 20.1572 158.813 20.281 159.076 20.4386L158.535 21.5081C158.025 21.2079 157.451 21.0578 156.813 21.0578C156.4 21.0578 156.085 21.1216 155.867 21.2492C155.657 21.3693 155.552 21.5306 155.552 21.7333C155.552 21.9584 155.664 22.1198 155.89 22.2174C156.122 22.3074 156.479 22.3937 156.959 22.4763C157.439 22.5513 157.833 22.6377 158.141 22.7352C158.449 22.8328 158.712 22.9979 158.929 23.2306C159.154 23.4632 159.267 23.7935 159.267 24.2213C159.267 24.7842 159.023 25.2345 158.535 25.5722C158.047 25.9099 157.383 26.0788 156.543 26.0788ZM164.93 20.8664C165.335 20.236 166.048 19.9208 167.069 19.9208V21.2604C166.949 21.2379 166.84 21.2267 166.742 21.2267C166.194 21.2267 165.767 21.388 165.459 21.7108C165.151 22.026 164.997 22.4838 164.997 23.0842V26H163.59V19.9883H164.93V20.8664ZM168.263 19.9883H169.67V26H168.263V19.9883ZM168.972 18.9976C168.717 18.9976 168.503 18.9188 168.33 18.7612C168.157 18.5961 168.071 18.3934 168.071 18.1533C168.071 17.9131 168.157 17.7142 168.33 17.5566C168.503 17.3915 168.717 17.3089 168.972 17.3089C169.227 17.3089 169.441 17.3877 169.613 17.5454C169.786 17.6955 169.872 17.8868 169.872 18.1195C169.872 18.3672 169.786 18.5773 169.613 18.7499C169.448 18.9151 169.234 18.9976 168.972 18.9976ZM177.483 19.9883V25.0881C177.483 27.2046 176.403 28.2628 174.241 28.2628C173.663 28.2628 173.115 28.1878 172.598 28.0377C172.08 27.8951 171.652 27.6849 171.314 27.4072L171.945 26.349C172.207 26.5666 172.537 26.7393 172.935 26.8669C173.341 27.0019 173.75 27.0695 174.162 27.0695C174.823 27.0695 175.307 26.9194 175.615 26.6192C175.922 26.319 176.076 25.8612 176.076 25.2457V24.9305C175.836 25.1932 175.543 25.3921 175.198 25.5272C174.853 25.6623 174.474 25.7298 174.061 25.7298C173.491 25.7298 172.973 25.6097 172.507 25.3696C172.05 25.1219 171.686 24.7766 171.415 24.3338C171.153 23.891 171.021 23.3844 171.021 22.814C171.021 22.2436 171.153 21.7408 171.415 21.3055C171.686 20.8627 172.05 20.5212 172.507 20.281C172.973 20.0408 173.491 19.9208 174.061 19.9208C174.496 19.9208 174.89 19.9921 175.243 20.1347C175.603 20.2773 175.904 20.4949 176.144 20.7876V19.9883H177.483ZM174.275 24.5365C174.808 24.5365 175.243 24.3789 175.581 24.0636C175.926 23.7409 176.099 23.3244 176.099 22.814C176.099 22.3112 175.926 21.9021 175.581 21.5869C175.243 21.2717 174.808 21.1141 174.275 21.1141C173.735 21.1141 173.292 21.2717 172.947 21.5869C172.609 21.9021 172.44 22.3112 172.44 22.814C172.44 23.3244 172.609 23.7409 172.947 24.0636C173.292 24.3789 173.735 24.5365 174.275 24.5365ZM182.745 19.9208C183.503 19.9208 184.111 20.1422 184.568 20.585C185.026 21.0278 185.255 21.6845 185.255 22.5551V26H183.848V22.7352C183.848 22.2099 183.724 21.8158 183.476 21.5531C183.229 21.283 182.876 21.1479 182.418 21.1479C181.9 21.1479 181.491 21.3055 181.191 21.6207C180.891 21.9284 180.741 22.375 180.741 22.9604V26H179.334V17.6467H180.741V20.6863C180.973 20.4386 181.259 20.251 181.596 20.1234C181.942 19.9883 182.324 19.9208 182.745 19.9208ZM190.654 25.6735C190.489 25.8086 190.286 25.9099 190.046 25.9775C189.813 26.045 189.566 26.0788 189.303 26.0788C188.643 26.0788 188.132 25.9062 187.772 25.5609C187.412 25.2157 187.232 24.7129 187.232 24.0524V21.1591H186.241V20.0333H187.232V18.6599H188.639V20.0333H190.249V21.1591H188.639V24.0186C188.639 24.3113 188.71 24.5365 188.853 24.6941C188.995 24.8442 189.202 24.9192 189.472 24.9192C189.787 24.9192 190.05 24.8367 190.26 24.6716L190.654 25.6735Z" fill="white"/>
<path d="M165.909 37.0233C165.509 36.6215 164.86 36.6215 164.459 37.0233L156.931 44.5778L154.771 42.4097C154.371 42.0078 153.721 42.0078 153.321 42.4097C152.921 42.8115 152.921 43.4629 153.321 43.8647L156.477 47.0318C156.727 47.2829 157.133 47.2829 157.383 47.0318L165.909 38.4783C166.31 38.0765 166.31 37.4251 165.909 37.0233Z" fill="#3FB84F"/>
<path d="M163.889 41.8389C163.978 42.2811 164.025 42.7389 164.025 43.2076C164.025 47.0018 160.96 50.0778 157.179 50.0778C153.398 50.0778 150.333 47.0018 150.333 43.2076C150.333 39.4133 153.398 36.3373 157.179 36.3373C159.008 36.3373 160.671 37.0578 161.899 38.2316L162.841 37.2858C161.372 35.8703 159.376 35 157.179 35C152.662 35 149 38.6747 149 43.2076C149 47.7404 152.662 51.4151 157.179 51.4151C161.696 51.4151 165.357 47.7404 165.357 43.2076C165.357 42.3485 165.226 41.5203 164.982 40.7421L163.889 41.8389Z" fill="#3FB84F"/>
</svg>
