<svg width="19" height="18" viewBox="0 0 19 18" fill="none" xmlns="http://www.w3.org/2000/svg">
<path d="M17.5508 7.98106H10.8793V1.30955C10.8793 1.01465 10.7622 0.731831 10.5537 0.523305C10.3451 0.31478 10.0623 0.197632 9.76742 0.197632C9.47252 0.197632 9.1897 0.31478 8.98117 0.523305C8.77265 0.731831 8.6555 1.01465 8.6555 1.30955V7.98106H1.98399C1.68909 7.98106 1.40627 8.09821 1.19774 8.30674C0.989219 8.51526 0.87207 8.79808 0.87207 9.09298C0.87207 9.38788 0.989219 9.6707 1.19774 9.87923C1.40627 10.0878 1.68909 10.2049 1.98399 10.2049H8.6555V16.8764C8.6555 17.1713 8.77265 17.4541 8.98117 17.6627C9.1897 17.8712 9.47252 17.9883 9.76742 17.9883C10.0623 17.9883 10.3451 17.8712 10.5537 17.6627C10.7622 17.4541 10.8793 17.1713 10.8793 16.8764V10.2049H17.5508C17.8457 10.2049 18.1286 10.0878 18.3371 9.87923C18.5456 9.6707 18.6628 9.38788 18.6628 9.09298C18.6628 8.79808 18.5456 8.51526 18.3371 8.30674C18.1286 8.09821 17.8457 7.98106 17.5508 7.98106Z" fill="#333333"/>
</svg>
