<svg width="34" height="38" viewBox="0 0 34 38" fill="none" xmlns="http://www.w3.org/2000/svg">
<path d="M33.3462 24.0086L29.2245 15.7667C28.948 15.2145 28.5433 14.7365 28.0443 14.3728C27.5453 14.009 26.9664 13.77 26.3561 13.6757L18.1436 12.41C17.3086 12.2852 16.4554 12.4188 15.6985 12.7929C14.9416 13.1669 14.3172 13.7635 13.9091 14.5025L11.3853 9.45044C12.0169 8.47667 12.3564 7.34242 12.3636 6.18181C12.3636 2.77254 9.59107 0 6.18181 0C2.77254 0 0 2.77254 0 6.18181C0 9.41798 2.50827 12.0514 5.67799 12.3126L12.8721 26.7008C12.9321 26.8181 12.9606 26.9491 12.9546 27.0808C12.9487 27.2125 12.9085 27.3404 12.8381 27.4519C12.7697 27.5646 12.6733 27.6577 12.5581 27.7219C12.443 27.7861 12.3131 27.8193 12.1813 27.8181H5.73826C5.28715 27.8189 4.84369 27.9348 4.44989 28.1549C4.05609 28.3749 3.72497 28.6918 3.48788 29.0756C3.2508 29.4594 3.1156 29.8974 3.09508 30.348C3.07456 30.7987 3.1694 31.2471 3.37063 31.6508L3.94554 32.8007C3.99211 32.8934 4.05689 32.9759 4.13602 33.043C4.21514 33.1102 4.30699 33.1608 4.40608 33.1917L15.3216 36.6025C17.9667 37.431 20.83 37.2005 23.3085 35.9596L30.5721 32.3278C31.6047 31.8159 32.4732 31.025 33.0791 30.0446C33.685 29.0642 34.004 27.9336 33.9999 26.7811C33.9999 25.8245 33.7743 24.8648 33.3462 24.0086ZM10.5307 7.74117L9.07798 4.83726C8.81699 4.3112 8.41385 3.86877 7.91426 3.56011C7.41466 3.25145 6.8386 3.0889 6.25135 3.0909C4.50963 3.0909 3.0909 4.50808 3.0909 6.39044C3.0909 6.88035 3.20681 7.36871 3.42472 7.80453L4.81563 10.5894C3.87156 10.2999 3.04489 9.71585 2.45651 8.92281C1.86812 8.12976 1.54887 7.16928 1.54545 6.18181C1.54545 3.62563 3.62563 1.54545 6.18181 1.54545C8.73798 1.54545 10.8182 3.62563 10.8182 6.18181C10.8182 6.71808 10.7146 7.24199 10.5307 7.74271V7.74117Z" fill="#303C42"/>
<path d="M29.8813 30.9446L22.6177 34.5764C20.4938 35.6288 18.0472 35.8263 15.7821 35.1282L5.18033 31.8147L4.75224 30.9601C4.66827 30.7919 4.62864 30.6051 4.63711 30.4174C4.64557 30.2296 4.70185 30.0471 4.80061 29.8872C4.89937 29.7273 5.03734 29.5953 5.20143 29.5037C5.36552 29.412 5.5503 29.3638 5.73824 29.3636H12.1812C12.991 29.3636 13.7267 28.9525 14.1532 28.2648C14.5782 27.5755 14.6169 26.7317 14.2552 26.0084L4.80633 7.1122C4.69506 6.88966 4.63633 6.64084 4.63633 6.25139C4.63769 5.88821 4.7613 5.53607 4.98724 5.25173C5.21318 4.96739 5.52829 4.76741 5.88177 4.68404C6.23525 4.60067 6.60651 4.63876 6.9357 4.79217C7.26489 4.94558 7.53283 5.20537 7.69633 5.52966L13.2182 16.5735C13.481 17.0974 14.3387 17.0974 14.5999 16.5735L15.2227 15.3263C15.4682 14.8428 15.8595 14.4487 16.3412 14.1997C16.8229 13.9506 17.3707 13.8593 17.9071 13.9385L26.1212 15.2026C26.863 15.317 27.5059 15.7853 27.8413 16.4576L31.963 24.6994C32.2845 25.3424 32.4545 26.0625 32.4545 26.7812C32.4573 27.6462 32.2178 28.4948 31.763 29.2307C31.3082 29.9666 30.6563 30.5603 29.8813 30.9446Z" fill="#FFE082"/>
<path opacity="0.1" d="M31.963 24.6994L27.8413 16.4575C27.6755 16.1262 27.4329 15.8395 27.1336 15.6212C26.8344 15.4029 26.4873 15.2593 26.1212 15.2026L25.3068 15.0774C25.877 15.2721 26.3608 15.6739 26.6343 16.221L30.7545 24.4645C31.0759 25.1074 31.2459 25.826 31.2459 26.5462C31.2488 27.4113 31.0092 28.2598 30.5544 28.9957C30.0996 29.7316 29.4478 30.3253 28.6728 30.7096L21.4076 34.3414C19.8476 35.1122 18.102 35.4277 16.371 35.2517C18.4542 35.7494 20.6998 35.5361 22.6146 34.5779L29.8798 30.9461C30.6555 30.5618 31.308 29.9676 31.7632 29.2311C32.2183 28.4946 32.4578 27.6453 32.4545 26.7796C32.4545 26.0609 32.2845 25.3407 31.963 24.6978V24.6994Z" fill="#333333"/>
<path d="M33.3462 24.0086L29.2245 15.7667C28.948 15.2145 28.5433 14.7365 28.0443 14.3728C27.5453 14.009 26.9664 13.77 26.3561 13.6757L18.1436 12.41C17.3086 12.2852 16.4554 12.4188 15.6985 12.7929C14.9416 13.1669 14.3172 13.7635 13.9091 14.5025L11.3853 9.45044C12.0169 8.47667 12.3564 7.34242 12.3636 6.18181C12.3636 2.77254 9.59107 0 6.18181 0C2.77254 0 0 2.77254 0 6.18181C0 9.41798 2.50827 12.0514 5.67799 12.3126L12.8721 26.7008C12.9321 26.8181 12.9606 26.9491 12.9546 27.0808C12.9487 27.2125 12.9085 27.3404 12.8381 27.4519C12.7697 27.5646 12.6733 27.6577 12.5581 27.7219C12.443 27.7861 12.3131 27.8193 12.1813 27.8181H5.73826C5.28715 27.8189 4.84369 27.9348 4.44989 28.1549C4.05609 28.3749 3.72497 28.6918 3.48788 29.0756C3.2508 29.4594 3.1156 29.8974 3.09508 30.348C3.07456 30.7987 3.1694 31.2471 3.37063 31.6508L3.94554 32.8007C3.99211 32.8934 4.05689 32.9759 4.13602 33.043C4.21514 33.1102 4.30699 33.1608 4.40608 33.1917L15.3216 36.6025C17.9667 37.431 20.83 37.2005 23.3085 35.9596L30.5721 32.3278C31.6047 31.8159 32.4732 31.025 33.0791 30.0446C33.685 29.0642 34.004 27.9336 33.9999 26.7811C33.9999 25.8245 33.7743 24.8648 33.3462 24.0086ZM10.5307 7.74117L9.07798 4.83726C8.81699 4.3112 8.41385 3.86877 7.91426 3.56011C7.41466 3.25145 6.8386 3.0889 6.25135 3.0909C4.50963 3.0909 3.0909 4.50808 3.0909 6.39044C3.0909 6.88035 3.20681 7.36871 3.42472 7.80453L4.81563 10.5894C3.87156 10.2999 3.04489 9.71585 2.45651 8.92281C1.86812 8.12976 1.54887 7.16928 1.54545 6.18181C1.54545 3.62563 3.62563 1.54545 6.18181 1.54545C8.73798 1.54545 10.8182 3.62563 10.8182 6.18181C10.8182 6.71808 10.7146 7.24199 10.5307 7.74271V7.74117Z" fill="url(#paint0_linear_176_184)"/>
<defs>
<linearGradient id="paint0_linear_176_184" x1="-3.44636" y1="12.2044" x2="33.4266" y2="29.3991" gradientUnits="userSpaceOnUse">
<stop stop-color="white" stop-opacity="0.2"/>
<stop offset="1" stop-color="white" stop-opacity="0"/>
</linearGradient>
</defs>
</svg>
