<svg width="390" height="348" viewBox="0 0 390 348" fill="none" xmlns="http://www.w3.org/2000/svg">
<g opacity="0.15">
<path opacity="0.15" d="M224.313 93.1178L268.258 64.9612L269.671 108.002L297.286 102.573L290.031 129.724L347.886 125.701L308.196 165.095L371.472 175.782L313.414 191.668L339.016 209.169L308.172 219.223L340.226 256.031L281.562 246.575L285.594 268.499L257.777 257.436L263.797 303.56L222.9 272.32H222.939L209.029 297.662L191.086 272.32L150.193 303.56L156.213 257.436L128.393 268.499L132.425 246.575L73.7641 256.031L105.815 219.223L74.9709 209.169L100.573 191.668L42.5186 175.782L105.791 165.095L66.1009 125.701L123.956 129.724L116.701 102.573L144.319 108.002L145.728 64.9612L189.677 93.1178L205.398 64.9612L224.348 93.1178H224.313Z" fill="black"/>
</g>
<path d="M216.019 86.4989L259.967 58.3422L261.377 101.383L288.995 95.9541L281.736 123.105L339.595 119.082L299.905 158.479L363.177 169.163L305.123 185.053L330.725 202.55L299.881 212.607L331.932 249.412L273.271 239.96L277.303 261.88L249.483 250.821L255.503 296.941L214.61 265.701H214.644L200.738 291.043L182.795 265.701L141.899 296.941L147.919 250.821L120.102 261.88L124.134 239.96L65.4696 249.412L97.5243 212.607L66.68 202.55L92.2819 185.053L34.2241 169.163L97.4999 158.479L57.81 119.082L115.665 123.105L108.41 95.9541L136.028 101.383L137.438 58.3422L181.383 86.4989L197.107 58.3422L216.057 86.4989H216.019Z" fill="#006837"/>
<path d="M210.689 93.8034L249.517 68.9214L250.766 106.951L275.168 102.155L268.754 126.147L319.874 122.59L284.809 157.4L340.715 166.842L289.417 180.88L312.036 196.342L284.785 205.226L313.107 237.747L261.272 229.395L264.837 248.764L240.257 238.992L245.576 279.743L209.44 252.143H209.472L197.183 274.534L181.33 252.143L145.195 279.743L150.514 238.992L125.934 248.764L129.495 229.395L77.6637 237.747L105.986 205.226L78.7345 196.342L101.354 180.88L50.0562 166.842L105.965 157.4L70.897 122.59L122.017 126.147L115.603 102.155L140.005 106.951L141.253 68.9214L180.082 93.8034L193.978 68.9214L210.72 93.8034H210.689Z" fill="#6EAB3B"/>
<g opacity="0.54">
<path opacity="0.15" d="M145.338 191.431C146.464 187.036 147.015 182.514 146.977 177.978C147.014 173.504 146.527 169.041 145.526 164.681C144.671 160.897 143.169 157.289 141.086 154.014C139.27 151.23 137.239 149.25 134.993 148.074C132.789 146.914 130.301 146.403 127.818 146.602C125.223 146.768 122.734 147.687 120.657 149.247C118.564 150.801 116.753 152.972 115.223 155.758C113.514 158.929 112.268 162.327 111.522 165.85C110.683 169.831 110.277 173.892 110.311 177.96C110.28 182.215 110.738 186.459 111.675 190.61C112.492 194.287 113.86 197.821 115.732 201.092C117.269 203.683 119.092 205.667 121.201 207.043C123.243 208.403 125.603 209.213 128.051 209.395C130.438 209.599 132.831 209.083 134.919 207.913L134.958 207.888L135.017 207.986C136.668 210.811 138.653 214.187 140.971 218.113L148.449 207.164C146.615 203.503 144.953 200.09 143.465 196.923C144.219 195.139 144.845 193.304 145.338 191.431ZM131.037 188.943C130.673 189.576 130.187 190.13 129.607 190.575C129.126 190.945 128.533 191.139 127.926 191.125C127.272 191.111 126.64 190.882 126.13 190.474C125.549 189.996 125.074 189.404 124.734 188.734C123.974 187.256 123.476 185.657 123.262 184.009C122.962 182.138 122.809 180.248 122.805 178.354C122.816 176.51 122.977 174.67 123.287 172.852C123.501 171.252 123.966 169.696 124.665 168.241C125.031 167.522 125.527 166.875 126.126 166.334C126.602 165.929 127.203 165.702 127.828 165.69C128.47 165.664 129.1 165.859 129.614 166.243C130.145 166.641 130.594 167.136 130.939 167.701C131.7 168.908 132.24 170.561 132.561 172.66C132.867 174.608 133.027 176.577 133.039 178.548C133.032 180.493 132.855 182.432 132.513 184.346C132.171 186.358 131.682 187.89 131.048 188.943H131.037Z" fill="black"/>
<path opacity="0.15" d="M171.63 158.528C171.63 161.653 171.63 164.205 171.63 166.184C171.63 168.256 171.63 170.667 171.63 173.419C171.63 176.17 171.63 178.859 171.63 181.486C171.63 184.592 171.212 186.962 170.375 188.595C169.541 190.224 168.422 191.031 167.026 190.976C165.631 190.92 164.557 190.109 163.727 188.494C162.897 186.88 162.481 184.527 162.481 181.412C162.481 178.837 162.481 176.359 162.481 173.979C162.481 171.599 162.481 169.074 162.481 166.403C162.481 164.589 162.481 162.054 162.481 158.799C162.481 155.544 162.481 151.312 162.481 146.101L148.09 147.061C148.09 152.664 148.09 156.505 148.09 158.584C148.09 160.662 148.09 163.38 148.09 166.737C148.09 170.247 148.09 173.311 148.09 175.928C148.09 178.545 148.09 180.763 148.09 182.582C148.09 187.63 148.555 191.888 149.485 195.357C150.415 198.825 151.74 201.766 153.458 204.179C154.931 206.253 156.743 208.066 158.819 209.541C160.86 210.979 163.594 211.824 167.044 212.071C169.855 212.278 172.329 211.96 174.466 211.118C176.603 210.276 178.812 208.604 181.093 206.103C182.954 204.057 184.493 201.164 185.712 197.424C186.93 193.684 187.543 189.044 187.55 183.504C187.55 181.532 187.55 179.124 187.55 176.279C187.55 173.435 187.55 170.108 187.55 166.299C187.55 163.424 187.56 160.573 187.581 157.745C187.602 154.917 187.611 150.478 187.609 144.427L171.63 145.485C171.63 151.058 171.63 155.405 171.63 158.528Z" fill="black"/>
<path opacity="0.15" d="M207.832 143.251L190.741 144.382C190.741 149.978 190.751 155.582 190.769 161.194C190.788 166.806 190.798 171.606 190.801 175.594C190.801 184.305 190.79 191.509 190.769 197.205C190.748 202.9 190.739 207.725 190.741 211.678L207.832 212.837C207.832 206.461 207.821 200.866 207.798 196.049C207.774 191.233 207.764 184.389 207.766 175.517C207.766 169.868 207.777 164.195 207.798 158.497C207.818 152.799 207.83 147.717 207.832 143.251Z" fill="black"/>
<path opacity="0.15" d="M246.043 190.861C244.911 190.835 243.516 190.793 241.858 190.735C240.2 190.677 238.77 190.634 237.568 190.607L237.533 190.168C243.682 180.139 248.171 172.789 250.923 168.244L257.481 157.421L251.854 140.352C248.134 140.598 244.885 140.823 242.109 141.027C239.332 141.231 236.542 141.424 233.738 141.605C230.082 141.848 226.192 142.097 222.067 142.349C218.007 142.6 214.568 142.819 211.725 143.007V165.996C213.078 165.966 214.51 165.925 216.019 165.874C217.528 165.823 218.947 165.783 220.278 165.752C221.324 165.728 222.538 165.711 223.957 165.697C225.377 165.683 226.685 165.662 227.864 165.638L227.93 165.906C225.677 169.926 223.177 174.374 220.431 179.248C217.717 184.076 214.286 189.867 210.138 196.62L214.78 213.195C218.075 213.416 220.964 213.601 223.445 213.752C225.926 213.903 228.559 214.071 231.345 214.257C234.805 214.49 239.116 214.789 244.313 215.158C249.612 215.534 254.348 215.854 258.496 216.143V191.087C256.491 191.038 254.343 190.996 252.05 190.962C249.762 190.941 247.777 190.902 246.043 190.861Z" fill="black"/>
<path opacity="0.15" d="M260.853 216.077L282.057 217.493V193.752L260.853 193.182V216.077Z" fill="black"/>
<path opacity="0.15" d="M263.288 187.656L279.542 187.937C280.337 182.861 281.151 176.101 281.984 167.656C282.816 159.211 283.326 149.494 283.512 138.504L259.546 140.074C259.778 150.871 260.265 160.159 261.007 167.938C261.749 175.717 262.509 182.289 263.288 187.656Z" fill="black"/>
</g>
<path d="M141.759 184.809C142.868 180.44 143.412 175.948 143.378 171.442C143.416 167.01 142.937 162.589 141.951 158.267C141.112 154.535 139.632 150.976 137.577 147.747C135.791 145.012 133.793 143.076 131.581 141.939C129.402 140.82 126.946 140.352 124.508 140.592C121.941 140.794 119.49 141.74 117.455 143.313C115.397 144.886 113.612 147.066 112.101 149.852C110.417 153.018 109.189 156.405 108.456 159.913C107.628 163.873 107.227 167.909 107.259 171.954C107.228 176.167 107.679 180.37 108.602 184.482C109.408 188.112 110.756 191.6 112.6 194.831C114.118 197.383 115.914 199.325 117.988 200.657C120.005 201.974 122.332 202.742 124.738 202.884C127.105 203.048 129.467 202.5 131.518 201.311L131.557 201.287L131.616 201.381C133.244 204.165 135.198 207.485 137.479 211.34L144.836 200.368C143.036 196.763 141.402 193.399 139.935 190.276C140.67 188.498 141.279 186.671 141.759 184.809ZM127.682 182.55C127.328 183.182 126.854 183.739 126.286 184.189C125.815 184.562 125.231 184.763 124.63 184.76C123.988 184.755 123.366 184.537 122.861 184.141C122.292 183.675 121.826 183.095 121.494 182.439C120.743 180.976 120.252 179.395 120.043 177.765C119.745 175.911 119.593 174.037 119.589 172.159C119.599 170.327 119.755 168.499 120.057 166.692C120.269 165.1 120.728 163.55 121.417 162.098C121.777 161.38 122.264 160.731 122.854 160.184C123.329 159.782 123.925 159.549 124.548 159.524C125.171 159.499 125.784 159.682 126.29 160.045C126.814 160.434 127.258 160.919 127.598 161.475C128.349 162.663 128.88 164.295 129.192 166.372C129.494 168.303 129.651 170.254 129.663 172.208C129.655 174.139 129.483 176.066 129.147 177.967C128.802 179.962 128.314 181.49 127.682 182.55Z" fill="#F2F2F2"/>
<path d="M167.661 151.832C167.661 154.93 167.661 157.458 167.661 159.419C167.661 161.474 167.661 163.867 167.661 166.598C167.661 169.329 167.661 171.997 167.661 174.602C167.652 177.681 167.231 180.032 166.398 181.656C165.566 183.28 164.468 184.082 163.106 184.061C161.757 184.042 160.675 183.238 159.858 181.649C159.042 180.06 158.634 177.725 158.634 174.644C158.634 172.092 158.634 169.634 158.634 167.27C158.634 164.906 158.634 162.4 158.634 159.753C158.634 157.957 158.634 155.443 158.634 152.212C158.634 148.98 158.634 144.781 158.634 139.614L144.469 140.762C144.469 146.33 144.469 150.142 144.469 152.198C144.469 154.253 144.469 156.949 144.469 160.285C144.469 163.765 144.469 166.806 144.469 169.406C144.469 172.007 144.469 174.211 144.469 176.018C144.469 181.03 144.922 185.25 145.826 188.679C146.731 192.108 148.034 195.008 149.736 197.379C151.184 199.411 152.967 201.184 155.01 202.619C157.023 204.011 159.712 204.812 163.106 205.01C165.871 205.17 168.304 204.822 170.406 203.966C172.508 203.11 174.682 201.421 176.929 198.899C178.754 196.842 180.266 193.951 181.463 190.227C182.661 186.504 183.263 181.893 183.27 176.394C183.27 174.438 183.27 172.052 183.27 169.236C183.27 166.419 183.27 163.12 183.27 159.339C183.27 156.485 183.279 153.658 183.298 150.858C183.316 148.058 183.327 143.656 183.329 137.651L167.661 138.922C167.652 144.429 167.652 148.733 167.661 151.832Z" fill="#F2F2F2"/>
<path d="M203.28 136.214L186.465 137.568C186.465 143.115 186.475 148.67 186.496 154.234C186.517 159.797 186.528 164.553 186.528 168.502C186.528 177.139 186.517 184.282 186.496 189.931C186.475 195.581 186.465 200.362 186.465 204.276L203.28 205.177C203.28 198.858 203.27 193.311 203.249 188.536C203.228 183.761 203.218 176.98 203.218 168.192C203.218 162.596 203.228 156.972 203.249 151.321C203.27 145.669 203.28 140.634 203.28 136.214Z" fill="#F2F2F2"/>
<path d="M240.822 182.881C239.709 182.881 238.342 182.85 236.727 182.815C235.112 182.78 233.717 182.759 232.517 182.749L232.482 182.314C238.516 172.291 242.925 164.945 245.621 160.414L252.057 149.602L246.514 132.766C242.854 133.062 239.666 133.328 236.95 133.562C234.234 133.797 231.5 134.029 228.746 134.258C225.158 134.548 221.338 134.847 217.285 135.153C213.295 135.456 209.918 135.717 207.128 135.943V158.74C208.453 158.692 209.858 158.631 211.341 158.559C212.825 158.487 214.22 158.428 215.527 158.382C216.545 158.345 217.75 158.309 219.14 158.274C220.531 158.239 221.81 158.202 222.977 158.163L223.043 158.427C220.83 162.438 218.374 166.88 215.677 171.752C213.01 176.568 209.638 182.357 205.562 189.117L210.124 205.473C213.361 205.647 216.204 205.79 218.635 205.901C221.066 206.013 223.675 206.141 226.395 206.287C229.793 206.468 234.02 206.702 239.123 206.983C244.324 207.279 248.973 207.533 253.04 207.753V182.94C251.073 182.919 248.965 182.909 246.717 182.909C244.468 182.909 242.503 182.9 240.822 182.881Z" fill="#F2F2F2"/>
<path d="M255.419 207.697L276.218 208.797V185.286L255.419 185.018V207.697Z" fill="#F2F2F2"/>
<path d="M257.808 179.509L273.752 179.561C274.531 174.522 275.332 167.817 276.155 159.447C276.978 151.076 277.474 141.448 277.641 130.563L254.135 132.435C254.368 143.125 254.846 152.318 255.569 160.014C256.292 167.709 257.039 174.208 257.808 179.509Z" fill="#F2F2F2"/>
</svg>
