<svg width="352" height="302" viewBox="0 0 352 302" fill="none" xmlns="http://www.w3.org/2000/svg">
<path d="M122.816 261.929C122.802 261.929 122.79 261.932 122.777 261.932C122.786 261.639 122.816 261.35 122.816 261.054C122.816 248.87 114.194 238.992 103.559 238.992C99.88 238.992 96.4553 240.196 93.5322 242.245C90.4077 230.225 80.7001 221.456 69.1943 221.456C56.473 221.456 45.9664 232.18 44.1114 246.162C41.5871 244.325 38.6005 243.246 35.3894 243.246C26.3835 243.246 19.0826 251.61 19.0826 261.928C19.0826 262.427 19.1137 262.919 19.1475 263.409C17.4101 262.469 15.4754 261.928 13.4257 261.928C6.01113 261.928 0 268.815 0 277.309C0 285.803 6.01113 292.69 13.4257 292.69H122.816C130.23 292.69 136.242 285.803 136.242 277.309C136.242 268.815 130.23 261.928 122.816 261.928V261.929Z" fill="#60912F"/>
<g style="mix-blend-mode:multiply">
<path d="M70.138 221.456C80.4986 222.487 91.8083 243.441 87.0262 254.315C92.3167 247.709 101.88 247.505 101.88 247.505C101.88 247.505 97.234 245.201 93.808 246.455C94.0108 243.744 93.5321 242.242 93.5321 242.242C93.5321 242.242 88.823 222.436 70.1366 221.453L70.138 221.456Z" fill="#D9D9D9"/>
</g>
<g style="mix-blend-mode:multiply">
<path d="M119.876 249.341C121.613 253.368 121.921 267.527 113.884 272.406C120.497 267.833 126.296 266.714 131.382 269.357C124.871 264.479 122.633 265.496 122.633 265.496C122.633 265.496 124.139 257.376 119.876 249.342V249.341Z" fill="#D9D9D9"/>
</g>
<g style="mix-blend-mode:screen">
<path d="M29.3418 247.846C21.8137 248.861 18.0834 259.296 21.9489 264.885C20.8362 254.365 29.3418 247.846 29.3418 247.846Z" fill="#3C3E40"/>
</g>
<g style="mix-blend-mode:multiply">
<path d="M39.5159 265.496C49.1803 260.211 56.3028 269.764 56.3028 269.764C56.3028 269.764 53.861 256.145 63.6281 254.315C53.1498 253.197 52.3359 261.734 52.3359 262.954C46.8426 257.262 39.5173 265.494 39.5173 265.494L39.5159 265.496Z" fill="#D9D9D9"/>
</g>
<g style="mix-blend-mode:multiply">
<path d="M136.063 279.711C134.516 286.451 114.658 292.606 104.321 285.822C106.865 289.074 74.0034 295.883 62.2029 286.024C58.8458 290.496 13.4257 292.69 13.4257 292.69H122.816C129.515 292.69 135.053 287.062 136.062 279.71L136.063 279.711Z" fill="#D9D9D9"/>
</g>
<path d="M227.797 261.929C227.81 261.929 227.823 261.932 227.836 261.932C227.827 261.639 227.797 261.35 227.797 261.054C227.797 248.87 236.419 238.992 247.054 238.992C250.733 238.992 254.158 240.196 257.081 242.245C260.205 230.225 269.913 221.456 281.419 221.456C294.14 221.456 304.646 232.18 306.501 246.162C309.026 244.325 312.012 243.246 315.223 243.246C324.229 243.246 331.53 251.61 331.53 261.928C331.53 262.427 331.499 262.919 331.465 263.409C333.203 262.469 335.137 261.928 337.187 261.928C344.602 261.928 350.613 268.815 350.613 277.309C350.613 285.803 344.602 292.69 337.187 292.69H227.797C220.382 292.69 214.371 285.803 214.371 277.309C214.371 268.815 220.382 261.928 227.797 261.928V261.929Z" fill="#60912F"/>
<g style="mix-blend-mode:multiply">
<path d="M280.476 221.456C270.116 222.487 258.806 243.441 263.588 254.315C258.298 247.709 248.735 247.505 248.735 247.505C248.735 247.505 253.38 245.201 256.806 246.455C256.603 243.744 257.082 242.242 257.082 242.242C257.082 242.242 261.791 222.436 280.478 221.453L280.476 221.456Z" fill="#D9D9D9"/>
</g>
<g style="mix-blend-mode:multiply">
<path d="M230.738 249.341C229.002 253.368 228.693 267.527 236.73 272.406C230.117 267.833 224.318 266.714 219.232 269.357C225.743 264.479 227.981 265.496 227.981 265.496C227.981 265.496 226.475 257.376 230.738 249.342V249.341Z" fill="#D9D9D9"/>
</g>
<g style="mix-blend-mode:screen">
<path d="M321.272 247.846C328.801 248.861 332.531 259.296 328.665 264.885C329.778 254.365 321.272 247.846 321.272 247.846Z" fill="#3C3E40"/>
</g>
<g style="mix-blend-mode:multiply">
<path d="M311.098 265.496C301.434 260.211 294.312 269.764 294.312 269.764C294.312 269.764 296.753 256.145 286.986 254.315C297.464 253.197 298.278 261.734 298.278 262.954C303.772 257.262 311.097 265.494 311.097 265.494L311.098 265.496Z" fill="#D9D9D9"/>
</g>
<g style="mix-blend-mode:multiply">
<path d="M214.551 279.711C216.098 286.451 235.957 292.606 246.293 285.822C243.75 289.074 276.611 295.883 288.411 286.024C291.768 290.496 337.189 292.69 337.189 292.69H227.798C221.099 292.69 215.561 287.062 214.553 279.71L214.551 279.711Z" fill="#D9D9D9"/>
</g>
<path d="M331.813 0H25.7305V11.2319H331.813V0Z" fill="#57595C"/>
<path d="M37.7555 64.4783L37.7555 292.691H319.788V64.4783L37.7555 64.4783Z" fill="#7F897D"/>
<path d="M331.813 40.1937H25.7305V69.6512H331.813V40.1937Z" fill="#57595C"/>
<path d="M352 292.691H5.54333V301.203H352V292.691Z" fill="#57595C"/>
<path d="M37.7555 11.2319V40.1937L319.788 40.1937V11.2319L37.7555 11.2319Z" fill="#57595C"/>
<path d="M45.3673 11.2319V40.1937L312.174 40.1937V11.2319L45.3673 11.2319Z" fill="white"/>
<path d="M171.002 85.9077H61.6107V239.578H171.002V85.9077Z" fill="#57595C"/>
<path d="M164.491 233.075V92.4137H68.1221L68.1221 233.075H164.491Z" fill="#202021"/>
<path d="M162.863 231.45V94.04H69.7486L69.7486 231.45H162.863Z" fill="#C2F6FF"/>
<path d="M119.551 228.468V206.909L126.85 136.73L130.946 132.766L137.762 123.822C136.183 122.005 131.596 120.141 128.008 118.58C119.387 117.977 120.696 110.304 120.696 110.304H112.977C112.977 110.304 115.47 117.876 105.239 118.804C101.651 120.364 98.6847 122.004 97.1056 123.82L103.923 132.764L108.018 136.728L115.317 206.908V228.467H93.7052V231.448H141.166V228.467H119.553L119.551 228.468Z" fill="#57595C"/>
<path d="M124.749 149.041L128.855 138.4C129.288 137.278 129.257 136.03 128.769 134.931C128.37 134.032 128.274 133.029 128.496 132.071L131.284 120.017L128.006 118.581C128.006 118.581 124.795 124.504 122.906 127.984C121.173 131.177 117.404 131.346 116.791 131.353C116.791 131.353 116.775 131.353 116.748 131.353C116.721 131.353 116.705 131.353 116.705 131.353C116.092 131.359 112.32 131.264 110.524 128.106C108.567 124.664 105.239 118.805 105.239 118.805L101.99 120.306L105.016 132.304C105.257 133.257 105.181 134.262 104.8 135.168C104.334 136.277 104.327 137.527 104.782 138.639L109.097 149.196C109.097 149.196 90.2332 164.381 89.4612 201.096C104.772 209.121 131.088 208.746 145.404 200.545C144.809 162.69 124.748 149.042 124.748 149.042L124.749 149.041Z" fill="#FFC95E"/>
<path d="M125.777 146.376C125.777 146.376 115.712 148.667 108.017 146.552L109.097 149.195C109.097 149.195 115.097 152.943 124.749 149.041L125.777 146.377V146.376Z" fill="#57595C"/>
<g style="mix-blend-mode:screen">
<path d="M103.898 205.781C103.866 205.71 93.7431 183.217 109.456 151.383C109.456 151.383 94.9788 166.068 93.7039 202.999C96.8446 204.208 100.291 205.134 103.898 205.78V205.781Z" fill="#242424"/>
</g>
<g style="mix-blend-mode:screen">
<path d="M117.493 206.795C117.493 206.795 118.946 199.711 114.814 187.137C114.391 191.367 113.541 206.798 113.542 206.833C114.859 206.89 116.18 206.914 117.5 206.905C117.497 206.837 117.493 206.795 117.493 206.795Z" fill="#1A1A1A"/>
</g>
<g style="mix-blend-mode:multiply">
<g style="mix-blend-mode:multiply">
<path d="M131.283 120.015C130.932 121.535 126.668 132.175 127.146 133.864C127.625 135.55 131.715 144.203 109.364 142.192C118.464 143.487 126.288 141.948 124.748 149.039L128.854 138.399C129.286 137.277 129.255 136.029 128.767 134.929C128.368 134.031 128.272 133.027 128.494 132.07L131.282 120.015H131.283Z" fill="#EDEDED"/>
</g>
<g style="mix-blend-mode:multiply">
<path d="M136.026 204.386C139.485 203.393 142.665 202.111 145.405 200.542C144.811 162.687 124.749 149.039 124.749 149.039C130.078 157.755 143.131 188.93 136.026 204.386Z" fill="#EDEDED"/>
</g>
</g>
<path d="M295.933 85.9077H186.541V292.69H295.933V85.9077Z" fill="#57595C"/>
<g style="mix-blend-mode:multiply">
<path d="M238.494 211.53H193.052V283.485H238.494V211.53Z" stroke="#E6E6E6" stroke-width="12.04" stroke-miterlimit="10"/>
</g>
<g style="mix-blend-mode:multiply">
<path d="M289.423 211.53H243.981V283.485H289.423V211.53Z" stroke="#E6E6E6" stroke-width="12.04" stroke-miterlimit="10"/>
</g>
<path d="M289.423 205.025V92.4137H193.054V205.025H289.423Z" fill="#202021"/>
<path d="M287.795 203.399V94.04H194.68V203.399H287.795Z" fill="#C2F6FF"/>
<g style="mix-blend-mode:screen">
<path d="M69.7486 169.358L144.323 94.0385H82.044L69.7486 106.458V169.358Z" fill="#57595C"/>
</g>
<g style="mix-blend-mode:screen">
<path d="M69.7486 196.67L162.863 102.624V94.0385H156.389L69.7486 181.545V196.67Z" fill="#57595C"/>
</g>
<g style="mix-blend-mode:screen">
<path d="M115.12 231.449L162.863 183.229V154.386L86.5624 231.449H115.12Z" fill="#57595C"/>
</g>
<g style="mix-blend-mode:screen">
<path d="M194.68 168.914L269.254 94.0385H206.976L194.68 106.383V168.914Z" fill="#57595C"/>
</g>
<g style="mix-blend-mode:screen">
<path d="M194.68 196.065L287.795 102.575V94.0385H281.321L194.68 181.029V196.065Z" fill="#57595C"/>
</g>
<g style="mix-blend-mode:screen">
<path d="M267.183 203.399L287.795 182.703V154.03L238.625 203.399H267.183Z" fill="#57595C"/>
</g>
<g style="mix-blend-mode:multiply">
<path d="M37.7555 69.6512L319.788 125.504V69.6512H37.7555Z" fill="#EDEDED"/>
</g>
<g style="mix-blend-mode:multiply">
<path d="M71.6415 233.075V92.4124H68.1208V233.075H120.234H71.6415Z" fill="#D9D9D9"/>
</g>
<g style="mix-blend-mode:multiply">
<path d="M277.892 234.633C283.137 234.633 287.388 230.387 287.388 225.148C287.388 219.909 283.137 215.662 277.892 215.662C272.648 215.662 268.397 219.909 268.397 225.148C268.397 230.387 272.648 234.633 277.892 234.633Z" fill="#E6E6E6"/>
</g>
<path d="M282.911 229.619C286.619 225.915 286.619 219.909 282.911 216.204C279.203 212.5 273.191 212.5 269.483 216.204C265.774 219.909 265.774 225.915 269.483 229.619C273.191 233.323 279.203 233.323 282.911 229.619Z" fill="white"/>
<g style="mix-blend-mode:multiply">
<path d="M280.407 214.42C281.301 215.866 281.826 217.564 281.826 219.389C281.826 224.628 277.575 228.874 272.33 228.874C270.816 228.874 269.39 228.511 268.119 227.882C269.791 230.588 272.778 232.398 276.196 232.398C281.44 232.398 285.691 228.152 285.691 222.913C285.691 219.186 283.536 215.972 280.407 214.42Z" fill="#EDEDED"/>
</g>
<g style="mix-blend-mode:multiply">
<path d="M197.337 205.025V92.4124H193.052V205.025H256.476H197.337Z" fill="#D9D9D9"/>
</g>
<path d="M167.995 261.929C167.982 261.929 167.97 261.932 167.956 261.932C167.965 261.639 167.995 261.35 167.995 261.054C167.995 248.87 159.373 238.992 148.738 238.992C145.059 238.992 141.635 240.196 138.712 242.245C135.587 230.225 125.879 221.456 114.374 221.456C101.652 221.456 91.1457 232.18 89.2907 246.162C86.7665 244.325 83.7799 243.246 80.5688 243.246C71.5629 243.246 64.2619 251.61 64.2619 261.928C64.2619 262.427 64.293 262.919 64.3268 263.409C62.5895 262.469 60.6547 261.928 58.6051 261.928C51.1905 261.928 45.1794 268.815 45.1794 277.309C45.1794 285.803 51.1905 292.69 58.6051 292.69H167.995C175.41 292.69 181.421 285.803 181.421 277.309C181.421 268.815 175.41 261.928 167.995 261.928V261.929Z" fill="#60912F"/>
<g style="mix-blend-mode:multiply">
<path d="M115.316 221.456C125.677 222.487 136.986 243.441 132.204 254.315C137.495 247.709 147.058 247.505 147.058 247.505C147.058 247.505 142.412 245.201 138.986 246.455C139.189 243.744 138.71 242.242 138.71 242.242C138.71 242.242 134.001 222.436 115.315 221.453L115.316 221.456Z" fill="#D9D9D9"/>
</g>
<g style="mix-blend-mode:multiply">
<path d="M165.055 249.341C166.791 253.368 167.099 267.527 159.062 272.406C165.675 267.833 171.474 266.714 176.56 269.357C170.049 264.479 167.811 265.496 167.811 265.496C167.811 265.496 169.318 257.376 165.055 249.342V249.341Z" fill="#D9D9D9"/>
</g>
<g style="mix-blend-mode:screen">
<path d="M74.52 247.846C66.9919 248.861 63.2616 259.296 67.1271 264.885C66.0143 254.365 74.52 247.846 74.52 247.846Z" fill="#3C3E40"/>
</g>
<g style="mix-blend-mode:multiply">
<path d="M84.6939 265.496C94.3582 260.211 101.481 269.764 101.481 269.764C101.481 269.764 99.039 256.145 108.806 254.315C98.3278 253.197 97.5139 261.734 97.5139 262.954C92.0206 257.262 84.6953 265.494 84.6953 265.494L84.6939 265.496Z" fill="#D9D9D9"/>
</g>
<g style="mix-blend-mode:multiply">
<path d="M181.241 279.711C179.694 286.451 159.836 292.606 149.499 285.822C152.043 289.074 119.182 295.883 107.381 286.024C104.024 290.496 58.6038 292.69 58.6038 292.69H167.994C174.693 292.69 180.231 287.062 181.24 279.71L181.241 279.711Z" fill="#D9D9D9"/>
</g>
<g style="mix-blend-mode:multiply">
<path d="M299.71 143.549L309.468 178.929L212.084 194.246L203.094 160.051L299.71 143.549Z" fill="#DEDEDE"/>
</g>
<path d="M279.753 152.725C279.331 152.797 278.881 152.678 278.543 152.365L246.383 122.472L225.992 161.341C225.627 162.035 224.767 162.307 224.071 161.941C223.374 161.576 223.107 160.717 223.472 160.023L244.728 119.506C245.141 118.72 246.308 118.522 246.958 119.125L280.483 150.286C281.058 150.82 281.09 151.72 280.556 152.294C280.336 152.532 280.052 152.677 279.755 152.727L279.753 152.725Z" fill="#A1A1A1"/>
<path d="M299.704 143.563L203.087 160.061L208.721 192.982L305.337 176.484L299.704 143.563Z" fill="white"/>
<path d="M247.046 126.927C249.02 126.927 250.621 125.328 250.621 123.356C250.621 121.383 249.02 119.785 247.046 119.785C245.072 119.785 243.471 121.383 243.471 123.356C243.471 125.328 245.072 126.927 247.046 126.927Z" fill="white"/>
<g style="mix-blend-mode:screen">
<path d="M167.11 44.447H29.8339V62.6051C29.8339 62.6051 44.2128 48.7002 167.11 44.447Z" fill="#57595C"/>
</g>
</svg>
