<svg width="387" height="557" viewBox="0 0 387 557" fill="none" xmlns="http://www.w3.org/2000/svg">
<path d="M-4.54141 91.0694C-13.0431 91.0694 -19.9355 85.6643 -19.9355 78.9955C-19.9355 72.3267 -13.0743 66.9216 -4.54141 66.9216C3.99149 66.9216 10.8465 72.3267 10.8465 78.9955C10.8465 85.6643 3.9603 91.0694 -4.54141 91.0694Z" fill="#888888"/>
<path d="M245.626 286.876C254.121 286.876 261.014 292.281 261.014 298.957C261.014 305.632 254.153 311.03 245.626 311.03C237.099 311.03 230.226 305.619 230.226 298.957C230.226 292.294 237.124 286.876 245.626 286.876Z" fill="#888888"/>
<path d="M132.565 341.931C141.066 341.931 147.959 347.336 147.959 354.005C147.959 360.674 141.098 366.079 132.565 366.079C124.032 366.079 117.171 360.674 117.171 354.005C117.171 347.336 124.069 341.931 132.565 341.931Z" fill="#888888"/>
<path d="M11.25 194.576C12.3946 170.624 29.9708 152.136 53.6231 147.009C48.2101 137.855 45.3271 127.497 45.8406 116.712C46.7178 98.4114 57.2282 83.2697 72.7129 74.867C64.0532 71.1576 58.0572 63.1304 58.0572 53.8214C58.0572 40.9843 69.4448 30.5747 83.4907 30.5747C89.1013 30.5101 94.6201 32.3008 99.4515 35.7536C111.342 11.8596 138.877 -2.95839 170.114 0.498505C209.449 4.8617 240.232 36.6081 240.585 72.3099C265.344 81.8325 282.642 105.053 281.444 130.151C280.642 146.937 271.736 161.063 258.327 169.77C284.097 178.833 302.315 202.578 301.09 228.31C299.641 258.587 271.832 280.222 238.787 276.972C231.117 307.734 199.88 328.269 163.69 324.229C160.142 323.837 156.613 323.21 153.121 322.352C150.447 332.58 140.396 340.193 128.383 340.193C114.332 340.193 102.944 329.79 102.944 316.959C102.944 309.579 106.688 303.009 112.572 298.756C101.19 286.559 94.0439 271.1 93.2897 254.696C85.3612 256.861 77.1989 257.488 69.1079 256.554C35.694 252.851 9.78977 225.099 11.25 194.576Z" fill="#888888"/>
<path d="M100.46 504.498C94.4226 500.843 88.1664 501.724 86.4947 506.442C84.8231 511.16 88.366 517.978 94.3976 521.627C100.429 525.276 106.686 524.394 108.357 519.683C110.029 514.971 106.498 508.14 100.46 504.498Z" fill="#93929A"/>
<path d="M312.398 480.311C306.292 483.759 302.618 490.434 304.202 495.217C305.787 500 312.012 501.102 318.118 497.654C324.225 494.206 327.899 487.537 326.32 482.748C324.742 477.959 318.53 476.87 312.398 480.311Z" fill="#93929A"/>
<path d="M96.5061 474.07C90.3995 477.518 86.7256 484.193 88.31 488.976C89.8943 493.759 96.1193 494.861 102.232 491.419C108.345 487.978 112.006 481.296 110.428 476.513C108.85 471.73 102.613 470.629 96.5061 474.07Z" fill="#93929A"/>
<path d="M372.403 396.001C366.365 399.65 362.828 406.449 364.5 411.186C366.172 415.924 372.428 416.805 378.466 413.13C384.504 409.456 388.04 402.683 386.369 397.946C384.697 393.208 378.441 392.353 372.403 396.001Z" fill="#93929A"/>
<path d="M370.631 382.929C376.738 386.377 382.975 385.282 384.554 380.493C386.132 375.703 382.464 369.028 376.357 365.587C370.251 362.145 364.013 363.234 362.435 368.023C360.857 372.813 364.525 379.488 370.631 382.929Z" fill="#93929A"/>
<path d="M372.08 340.338C376.334 333.102 378.812 324.89 379.296 316.426C380.406 296.627 370.499 277.774 353.858 263.819C359.067 258.004 362.396 250.642 363.377 242.762C366.802 214.985 340.886 186.418 305.485 178.947C270.083 171.476 238.617 187.946 235.192 215.718C234.38 222.749 235.293 229.879 237.845 236.445C235.705 235.727 233.527 235.134 231.323 234.669C207.583 229.661 186.48 240.703 184.182 259.331C183.244 266.917 185.575 274.595 190.288 281.368C185.798 281.492 181.327 282.026 176.927 282.966C163.834 274.589 145.456 271.388 125.862 275.518C90.4605 283.018 64.5393 311.557 67.9695 339.334C68.9511 347.213 72.2796 354.576 77.4887 360.39C60.837 374.363 50.9514 393.198 52.0504 412.997C52.5372 421.461 55.0149 429.672 59.2662 436.909C51.2733 438.426 46.4443 440.37 46.4443 442.562C46.4443 447.345 70.1786 451.216 99.4524 451.216C108.272 451.216 116.587 450.864 123.875 450.241C113.884 458.542 107.906 469.792 108.561 481.618C109.593 500.078 126.478 514.137 148.475 516.612C149.191 525.565 155.963 535.753 166.004 541.822C171.771 545.283 177.627 546.835 182.656 546.547C186.974 552.771 195.389 557 205.058 557C219.134 557 230.546 548.047 230.546 537.005C230.535 534.244 229.831 531.534 228.503 529.142C250.645 522.796 266.403 505.443 265.354 486.596C264.993 480.511 262.92 474.669 259.393 469.797C281.828 460.469 296.987 441.42 295.849 420.952C295.778 419.688 295.644 418.429 295.449 417.179C310.991 411.71 321.937 399.803 322.758 385.047C323.413 373.22 317.446 361.971 307.444 353.67C314.76 354.287 323.074 354.644 331.866 354.644C361.14 354.644 384.875 350.762 384.875 345.991C384.908 343.828 380.073 341.855 372.08 340.338Z" fill="#B5B5B5"/>
<path d="M163.649 391.474C164.739 392.269 165.57 393.37 166.037 394.637C166.332 395.498 166.124 395.553 166.39 397.867C166.693 400.499 166.847 401.814 167.23 402.859C167.55 403.733 167.905 404.383 167.602 404.759C167.298 405.134 166.576 405.09 166.075 404.811C165.528 404.504 165.4 403.961 164.951 402.689C164.746 402.11 164.431 401.258 163.994 400.222C163.674 401.978 163.354 403.734 163.031 405.491C162.93 406.809 162.801 407.958 162.675 408.904C162.56 409.773 162.465 410.36 161.98 410.79C161.594 411.106 161.111 411.276 160.613 411.273C160.43 409.012 160.254 406.752 160.085 404.493C159.059 407.388 158.783 409.197 158.758 410.373C158.758 410.697 158.758 411.506 158.211 412.114C157.664 412.723 156.879 412.827 156.332 412.857L156.02 411.127C155.686 410.729 155.354 410.329 155.024 409.929C154.918 409.162 154.811 408.393 154.701 407.624L153.905 406.162C153.854 404.633 153.803 403.103 153.752 401.573L157.133 389.947L163.649 391.474Z" fill="#F7AC83"/>
<path d="M223.787 266.785C220.763 264.712 217.334 263.305 213.728 262.656C210.121 262.008 206.419 262.133 202.864 263.024L206.146 264.121C205.275 264.375 204.428 264.706 203.613 265.107C201.962 265.926 200.464 267.023 199.185 268.351C200.498 268.204 201.823 268.066 203.159 267.937C210.277 267.249 217.162 266.887 223.787 266.785Z" fill="#231F20"/>
<path d="M226.131 271.024C225.961 269.419 225.539 267.85 224.881 266.377C223.735 263.843 221.942 261.656 219.684 260.039C220.889 261.715 221.566 263.714 221.629 265.779C220.901 264.686 219.957 263.754 218.855 263.041C217.753 262.329 216.516 261.851 215.222 261.637L226.131 271.024Z" fill="#231F20"/>
<path d="M239.707 322.333L223.114 313.769C219.819 310.397 215.852 307.758 211.472 306.024C207.752 312.395 204.033 318.768 200.314 325.143C203.214 326.371 207.79 328.208 213.532 330.064C228.64 334.944 244.489 340.076 250.46 333.628C253.16 330.711 254.093 325.143 252.162 322.55C251.483 321.642 250.715 321.453 247.303 319.022C245.597 317.81 244.256 316.765 243.416 316.099C242.176 318.175 240.94 320.253 239.707 322.333Z" fill="#4ABBBF"/>
<path d="M207.725 522.259C209.585 522.533 211.554 522.807 213.647 522.988C215.786 523.185 217.827 523.298 219.75 523.353C221.985 523.605 224.356 523.799 226.862 523.901C230.658 524.057 234.46 523.997 238.249 523.72C238.387 523.324 238.49 522.917 238.556 522.503C238.581 522.366 238.6 522.223 238.613 522.075C238.679 521.405 238.649 520.729 238.523 520.068C236.246 519.914 233.989 519.547 231.78 518.972C226.615 517.602 221.801 515.143 217.66 511.759L210.646 512.672C209.508 513.629 208.735 514.951 208.458 516.414C208.166 517.868 207.96 519.338 207.842 520.817C207.782 521.39 207.758 521.889 207.725 522.259Z" fill="#453C3E"/>
<path d="M219.569 507.011C219.204 509.719 218.84 512.428 218.475 515.136C215.546 516.151 212.356 516.119 209.448 515.046C209.995 512.094 210.542 509.142 211.089 506.188L219.569 507.011Z" fill="#231F20"/>
<path d="M188.957 506.553C187.977 508.975 187.363 511.53 187.135 514.133C184.537 514.948 181.739 514.851 179.203 513.859C179.249 512.529 179.334 511.117 179.476 509.659C179.621 508.146 179.807 506.715 180.023 505.366L188.957 506.553Z" fill="#231F20"/>
<path d="M231.23 457.889C230.995 470.017 229.466 487.201 223.571 507.559C218.395 508.915 212.93 508.66 207.903 506.827C210.033 496.425 211.289 485.863 211.658 475.251C212.837 440.889 204.273 415.988 201.704 408.997C201.321 407.95 200.998 407.103 200.796 406.576C200.916 402.345 201.036 398.114 201.154 393.883L201.335 387.578C201.335 387.463 201.335 387.345 201.335 387.227L221.558 387.411C221.779 388.269 222.05 389.33 222.356 390.594C222.663 391.857 223.016 393.305 223.38 394.895C231.739 431.124 231.23 457.889 231.23 457.889Z" fill="#453C3E"/>
<path d="M205.539 388.134L205.236 406.278L201.712 408.835C201.652 413.222 201.576 419.801 201.529 427.765C201.442 443.444 201.581 452.91 201.529 455.888C201.349 466.612 199.36 483.45 190.415 507.745C185.822 508.524 181.101 507.822 176.932 505.739C177.98 498.611 179.211 488.81 180.031 477.068C180.797 466.086 181.339 457.521 180.759 446.575C179.46 422.071 173.795 412.281 177.121 390.451C177.507 387.923 177.917 385.856 178.215 384.488L201.346 387.578L205.539 388.134Z" fill="#453C3E"/>
<path d="M176.027 522.569C176.027 523.136 176.058 523.704 176.12 524.268C179.533 524.715 182.975 524.899 186.416 524.817C188.038 524.778 189.589 524.682 191.066 524.543C191.164 524.037 191.228 523.525 191.257 523.01C191.338 521.858 191.18 520.701 190.792 519.613C190.155 517.856 189.315 517.554 188.878 515.501C188.705 514.679 188.664 513.919 188.15 512.856C187.862 512.26 187.494 511.706 187.056 511.211L179.944 510.388C179.032 511.117 178.313 512.058 177.848 513.13C177.403 514.202 177.575 514.596 177.121 516.784C176.697 518.78 176.442 518.933 176.21 520.348C176.09 521.082 176.028 521.825 176.027 522.569Z" fill="#453C3E"/>
<path d="M187.956 518.698C187.144 518.871 186.321 518.993 185.494 519.062C183.543 519.225 181.578 519.102 179.662 518.698C179.322 517.409 179.079 516.097 178.934 514.772C178.767 513.224 178.737 511.664 178.844 510.111C180.055 509.702 181.316 509.457 182.592 509.385C184.608 509.272 186.625 509.583 188.514 510.298C188.324 513.098 188.138 515.898 187.956 518.698Z" fill="#453C3E"/>
<path d="M222.37 390.588C216.869 392.284 211.189 393.334 205.446 393.716C203.994 393.815 202.566 393.867 201.16 393.883C193.021 393.931 184.921 392.773 177.121 390.445C177.444 388.373 177.808 386.385 178.215 384.483L201.346 387.572C201.346 387.457 201.346 387.339 201.346 387.221L221.569 387.405C221.793 388.263 222.064 389.335 222.37 390.588Z" fill="#231F20"/>
<path d="M217.017 388.773C217.23 390.235 217.443 391.697 217.654 393.16L214.098 393.982C213.949 392.37 213.797 390.757 213.644 389.143L217.017 388.773Z" fill="#453C3E"/>
<path d="M187.836 388.948C187.622 390.411 187.41 391.873 187.198 393.335L190.754 394.157C190.907 392.542 191.06 390.929 191.211 389.319L187.836 388.948Z" fill="#453C3E"/>
<path d="M202.35 408.86C203.427 408.494 204.522 408.099 205.632 407.673C207.965 406.79 210.181 405.872 212.282 404.931C212.162 404.292 212.04 403.652 211.918 403.012C210.824 403.744 209.701 404.475 208.548 405.206C206.434 406.535 204.363 407.747 202.35 408.86Z" fill="#231F20"/>
<path d="M194.354 304.568C192.866 304.938 191.561 305.495 188.954 306.608C183.837 308.788 178.975 311.526 174.456 314.772C174.322 322.631 174.277 330.62 174.322 338.738C174.414 354.259 174.824 369.311 175.553 383.896C175.628 385.704 175.704 387.512 175.78 389.321C180.705 390.321 185.701 390.931 190.721 391.147C201.962 391.607 213.197 390.114 223.929 386.733L219.227 368.245C219.077 364.522 219.066 360.569 219.243 356.418C219.644 347.181 220.943 338.006 223.122 329.022C223.511 326.371 224.071 319.808 220.212 313.766C214.322 304.568 202.09 302.649 194.354 304.568Z" fill="#4ABBBF"/>
<path d="M206.631 406.892L205.722 406.812C206.023 403.372 206.083 399.915 205.903 396.466C205.843 395.292 205.75 394.1 205.629 392.929L206.535 392.836C206.655 394.023 206.748 395.229 206.808 396.419C206.992 399.91 206.933 403.409 206.631 406.892Z" fill="#231F20"/>
<path d="M195.643 405.746L195.458 406.64L201.897 407.98L202.082 407.086L195.643 405.746Z" fill="#231F20"/>
<path d="M217.693 368.552C215.384 368.53 212.999 368.442 210.539 368.278C206.254 367.979 201.989 367.437 197.765 366.655L197.461 372.099L217.693 368.552Z" fill="#34A4A8"/>
<path d="M220.176 510.358C219.533 510.358 218.669 510.479 218.171 511.09C217.758 511.594 217.805 512.186 217.747 512.853C217.617 514.089 217.202 515.277 216.533 516.323C217.319 516.72 218.148 517.106 219.022 517.48C221.796 518.657 224.687 519.535 227.647 520.098C227.897 520.07 228.137 519.984 228.348 519.846C228.558 519.709 228.734 519.524 228.861 519.306C229.012 519.005 229.054 518.662 228.982 518.333C225.345 516.574 222.289 513.806 220.176 510.358Z" fill="#453C3E"/>
<path d="M209.511 512.762C210.446 512.834 211.346 513.149 212.123 513.675C212.865 514.193 213.144 514.703 214.005 515.685C214.717 516.492 215.489 517.245 216.314 517.935C215.416 518.267 214.476 518.471 213.521 518.544C211.751 518.672 209.976 518.358 208.357 517.631C208.397 516.77 208.52 515.914 208.723 515.076C208.914 514.282 209.178 513.507 209.511 512.762Z" fill="#453C3E"/>
<path d="M207.725 522.259C209.585 522.533 211.554 522.807 213.647 522.988C215.786 523.185 217.827 523.298 219.75 523.353C221.985 523.605 224.356 523.799 226.862 523.901C230.658 524.057 234.46 523.997 238.249 523.72C238.387 523.324 238.49 522.917 238.556 522.503C234.863 522.548 231.074 522.527 227.19 522.44C224.845 522.385 222.537 522.304 220.267 522.198C218.177 522.146 215.89 521.998 213.464 521.71C211.461 521.472 209.582 521.162 207.842 520.817C207.782 521.39 207.758 521.889 207.725 522.259Z" fill="#231F20"/>
<path d="M176.027 522.569C176.027 523.136 176.058 523.704 176.12 524.268C179.533 524.715 182.975 524.899 186.416 524.817C188.038 524.778 189.589 524.682 191.066 524.543C191.164 524.037 191.228 523.525 191.257 523.01C187.745 523.417 184.2 523.473 180.677 523.175C179.036 523.032 177.474 522.824 176.027 522.569Z" fill="#231F20"/>
<path d="M180.693 517.694C182.722 517.396 184.788 517.457 186.796 517.875L186.615 514.407C184.598 514.028 182.528 514.028 180.51 514.407C180.574 515.502 180.635 516.598 180.693 517.694Z" fill="#231F20"/>
<path d="M178.809 411.664L178.275 410.924L186.514 404.942L188.421 395.983L189.313 396.172L187.332 405.474L178.809 411.664Z" fill="#231F20"/>
<path d="M224.933 408.142L218.103 403.539L215.997 394.599L216.883 394.39L218.907 402.982L225.439 407.385L224.933 408.142Z" fill="#231F20"/>
<path d="M224.485 289.246C224.162 290.197 223.841 291.148 223.522 292.1C223.484 292.53 223.451 292.991 223.434 293.471C223.407 294.208 223.412 294.888 223.434 295.5C223.539 295.614 223.659 295.712 223.793 295.79C223.934 295.874 224.09 295.93 224.252 295.955C224.738 295.678 225.188 295.345 225.595 294.962C226.199 294.388 226.723 293.737 227.154 293.024C227.359 292.551 227.535 292.067 227.682 291.574C227.88 290.906 228.027 290.224 228.123 289.534C228.053 289.235 227.967 288.941 227.866 288.651C227.656 288.051 227.36 287.484 226.988 286.968C226.667 287.064 226.362 287.208 226.085 287.396C225.415 287.879 224.867 288.513 224.485 289.246Z" fill="#F59173"/>
<path d="M225.584 291.05L225.245 290.916C225.458 290.369 225.77 289.867 226.164 289.433C226.416 289.16 226.699 288.917 227.007 288.709L227.209 289.011C226.471 289.507 225.904 290.219 225.584 291.05Z" fill="#231F20"/>
<path d="M197.606 299.996C196.851 300.843 196.003 301.72 195.06 302.608C194.42 303.214 193.785 303.773 193.17 304.289C193.131 305.512 193.217 306.737 193.427 307.943C194.844 316.047 201.504 320.899 204.043 322.558C204.888 321.732 205.655 320.829 206.332 319.86C207.071 318.805 207.699 317.676 208.206 316.491C208.79 317.127 209.327 317.805 209.812 318.52C210.546 319.607 211.159 320.772 211.639 321.993C212.633 321.174 213.479 320.189 214.139 319.082C217.969 312.587 213.592 304.374 213.07 303.417L197.606 299.996Z" fill="#D0FAFA"/>
<path d="M215.838 301.61L213.672 308.497C212.446 311.372 210.567 313.921 208.184 315.94C206.448 314.927 204.807 313.759 203.28 312.45C200.44 310.011 198.02 307.119 196.118 303.891C196.862 302.076 197.605 300.261 198.345 298.444C199.279 294.834 200.211 291.223 201.141 287.61C206.637 291.603 211.579 296.312 215.838 301.61Z" fill="#F7AC83"/>
<path d="M211.984 307.263C209.65 306.761 207.199 306.153 204.658 305.418C203.181 304.99 201.757 304.545 200.385 304.083C200.246 302.679 200.137 301.221 200.065 299.697C199.923 296.615 199.945 293.529 200.131 290.45L201.57 290.321C201.816 292.972 202.531 295.558 203.682 297.959C205.539 301.769 208.412 304.989 211.984 307.263Z" fill="#F59173"/>
<path d="M227.874 272.633L228.719 273.817C228.606 274.362 228.458 274.898 228.276 275.424C227.893 276.541 227.366 277.602 226.709 278.582C226.023 276.109 225.337 273.637 224.652 271.166L227.874 272.633Z" fill="#231F20"/>
<path d="M225.426 272.348C226.01 273.392 226.486 274.495 226.845 275.637C227.783 278.694 227.921 281.94 227.245 285.065C227.009 285.666 226.739 286.302 226.424 286.965C226.109 287.629 225.806 288.185 225.497 288.72C225.571 289.542 225.62 290.414 225.628 291.352C225.628 292.396 225.595 293.372 225.524 294.266C225.331 295.112 225.1 295.986 224.832 296.887C223.987 299.698 222.848 302.413 221.435 304.985C219.233 305.937 216.903 306.556 214.52 306.822C210.152 305.25 206.11 302.889 202.593 299.856C202.32 297.983 202.112 296.018 201.989 293.959C201.522 285.842 202.428 277.705 204.669 269.891C211.669 268.435 218.952 269.301 225.417 272.359L225.426 272.348Z" fill="#F7AC83"/>
<path d="M225.576 285.225C225.627 285.755 225.549 286.289 225.349 286.783C225.148 287.276 224.831 287.713 224.424 288.056C224.482 288.331 224.539 288.605 224.594 288.879C223.979 288.849 223.322 288.838 222.627 288.857C221.712 288.882 220.799 288.955 219.892 289.076C219.958 287.632 220.492 286.248 221.413 285.134L225.576 285.225Z" fill="#F59173"/>
<path d="M215.781 283.769C215.844 284.24 215.844 284.718 215.781 285.189C215.631 286.276 215.165 287.296 214.44 288.119C213.469 287.67 212.432 287.226 211.336 286.795C210.356 286.412 209.408 286.068 208.491 285.765C208.466 285.274 208.506 284.783 208.611 284.303C208.833 283.328 209.305 282.428 209.979 281.691C212.098 281.69 214.152 282.427 215.789 283.777L215.781 283.769Z" fill="#F59173"/>
<path d="M224.312 287.223C223.957 287.264 223.601 287.311 223.24 287.36C222.299 287.49 221.387 287.634 220.505 287.793L220.119 288.396L220.423 288.863L221.243 288.651L223.73 288.591C223.768 288.438 223.804 288.284 223.839 288.131L223.407 288.059C223.437 287.936 223.47 287.813 223.5 287.692L224.312 287.223Z" fill="#231F20"/>
<path d="M214.555 286.475C214.359 286.427 214.168 286.363 213.983 286.283C213.689 286.159 213.413 285.995 213.163 285.798C212.649 285.607 212.123 285.455 211.587 285.342C210.662 285.144 209.716 285.061 208.77 285.093C208.72 285.255 208.674 285.416 208.625 285.578C209.242 285.714 209.85 285.89 210.444 286.105C210.862 286.258 211.248 286.42 211.601 286.584L213.549 287.681L213.494 287.259C213.559 287.042 213.628 286.826 213.696 286.609L214.194 286.675L214.369 286.949C214.535 286.848 214.684 286.722 214.812 286.576C215.056 286.302 215.228 285.946 215.179 285.904C215.13 285.863 215.02 285.978 214.555 286.475Z" fill="#231F20"/>
<path d="M226.109 285.962C225.801 285.855 225.486 285.771 225.166 285.71C223.894 285.486 222.586 285.62 221.385 286.096L220.789 285.677C220.987 284.91 221.355 284.199 221.867 283.596C222.388 283.537 222.912 283.508 223.437 283.508C224.654 283.51 225.865 283.678 227.037 284.007C227.07 284.283 227.046 284.564 226.966 284.83C226.819 285.295 226.516 285.694 226.109 285.962Z" fill="#231F20"/>
<path d="M220.628 285.872C220.606 286.067 220.573 286.261 220.529 286.453C220.51 286.538 220.488 286.628 220.461 286.727L220.422 286.875C220.422 286.913 220.398 286.974 220.387 287.023C220.338 287.231 220.288 287.453 220.236 287.675C220.184 287.898 220.13 288.117 220.078 288.325C220.026 288.534 219.982 288.728 219.938 288.895C219.853 289.233 219.777 289.457 219.777 289.457C219.744 289.264 219.728 289.067 219.73 288.871C219.729 288.67 219.74 288.47 219.763 288.27C219.777 288.161 219.788 288.048 219.81 287.933C219.832 287.818 219.853 287.706 219.881 287.59C219.908 287.475 219.938 287.363 219.974 287.253C220.009 287.144 220.045 287.031 220.081 286.93C220.102 286.875 220.113 286.837 220.141 286.774L220.206 286.634C220.247 286.543 220.291 286.461 220.332 286.381C220.42 286.206 220.519 286.035 220.628 285.872Z" fill="#231F20"/>
<path d="M218.029 282.412C218.034 282.616 218.025 282.82 218.002 283.023C217.98 283.223 217.947 283.42 217.909 283.615V283.637C217.849 283.792 217.777 283.941 217.693 284.084C217.652 284.155 217.608 284.224 217.559 284.295C217.509 284.366 217.46 284.429 217.411 284.492C217.36 284.558 217.305 284.62 217.247 284.679C217.192 284.739 217.129 284.794 217.069 284.849C216.945 284.956 216.809 285.048 216.664 285.123C216.743 284.978 216.828 284.849 216.91 284.704L217.151 284.301L217.266 284.098L217.378 283.895C217.449 283.758 217.523 283.621 217.591 283.484V283.514C217.649 283.322 217.712 283.133 217.786 282.943C217.855 282.761 217.937 282.584 218.029 282.412Z" fill="#231F20"/>
<path d="M216.377 282.253C216.443 282.555 216.475 282.864 216.473 283.174C216.472 283.566 216.418 283.956 216.311 284.334L215.69 284.756C215.212 284.408 214.715 284.086 214.202 283.791C212.622 282.882 210.909 282.227 209.125 281.85C209.125 281.609 209.104 281.367 209.09 281.126C209.424 280.947 209.773 280.797 210.132 280.676C210.532 280.54 210.944 280.442 211.363 280.383C212.41 280.637 213.438 280.966 214.438 281.367C215.143 281.65 215.792 281.951 216.377 282.253Z" fill="#231F20"/>
<path d="M219.651 292.873C219.733 293.246 219.799 293.624 219.867 294V294.044L219.823 294.08C219.655 294.223 219.478 294.354 219.293 294.474L219.151 294.559L219.008 294.642C218.91 294.694 218.811 294.746 218.71 294.792C218.509 294.887 218.302 294.966 218.089 295.031C217.877 295.097 217.66 295.15 217.441 295.19H217.397L217.356 295.176C217.009 295.061 216.664 294.938 216.33 294.792C215.997 294.647 215.663 294.491 215.343 294.315C215.023 294.14 214.708 293.956 214.407 293.751C214.106 293.545 213.811 293.331 213.527 293.104L213.491 293.073V293.054C213.493 292.851 213.537 292.65 213.622 292.465C213.705 292.286 213.826 292.127 213.978 292.001C213.86 292.147 213.772 292.314 213.719 292.493C213.666 292.672 213.649 292.86 213.669 293.046L213.633 292.977C213.934 293.172 214.243 293.353 214.552 293.526C214.861 293.698 215.176 293.871 215.499 294.027C215.822 294.184 216.142 294.337 216.47 294.472C216.798 294.606 217.132 294.746 217.468 294.855H217.383C217.589 294.82 217.797 294.784 217.999 294.729C218.201 294.675 218.4 294.61 218.595 294.535C218.694 294.499 218.792 294.458 218.885 294.414L219.03 294.345L219.172 294.274C219.36 294.177 219.543 294.07 219.72 293.953L219.684 294.033C219.673 293.638 219.654 293.257 219.651 292.873Z" fill="#231F20"/>
<path d="M219.397 294.334C219.646 294.608 219.897 294.91 220.144 295.242C220.92 296.293 221.525 297.46 221.935 298.702C221.945 299.153 221.928 299.604 221.883 300.053C221.823 300.702 221.706 301.344 221.536 301.972L222.417 301.366C222.704 300.917 222.988 300.442 223.262 299.943C224.241 298.167 225.005 296.279 225.538 294.321C225.375 295.626 225.215 296.931 225.056 298.238C224.735 299.667 224.298 301.067 223.752 302.424C223.264 303.636 222.689 304.811 222.031 305.939C221.144 306.475 220.212 306.934 219.246 307.31C217.561 307.978 215.787 308.394 213.981 308.543C212.276 307.803 210.455 306.92 208.559 305.868C206.007 304.447 203.559 302.846 201.234 301.076C200.991 299.524 200.777 297.924 200.591 296.275C200.086 291.747 199.864 287.192 199.926 282.636L203.684 282.28L204.095 285.537C203.846 286.507 203.611 287.574 203.419 288.725C203.228 289.877 203.105 290.943 203.028 291.936C203.362 292.86 203.699 293.786 204.04 294.713C204.556 296.122 205.074 297.522 205.594 298.913L207.427 300.061C207.428 298.778 207.698 297.51 208.22 296.338C209.698 294.737 211.628 293.625 213.754 293.153C214.179 293.467 214.624 293.755 215.086 294.014C215.84 294.436 216.635 294.782 217.457 295.047C217.766 294.972 218.071 294.88 218.371 294.773C218.721 294.647 219.064 294.501 219.397 294.334Z" fill="#231F20"/>
<path d="M201.887 270.026C201.384 270.848 200.933 271.702 200.536 272.581C199.919 273.938 199.432 275.351 199.081 276.8C199.108 277.348 199.148 277.915 199.201 278.5C199.384 280.524 199.706 282.534 200.164 284.514L203.791 284.254C203.563 281.952 203.717 279.628 204.245 277.376L206.469 274.793L208.305 271.786L201.887 270.026Z" fill="#231F20"/>
<path d="M208.091 319.712C208.302 320.768 208.48 321.892 208.611 323.082C208.969 326.346 208.921 329.643 208.469 332.896C207.424 333.408 206.242 333.568 205.099 333.354C205.582 331.914 205.992 330.45 206.327 328.968C207.016 325.908 207.376 322.783 207.402 319.646L208.091 319.712Z" fill="#D0FAFA"/>
<path d="M201.376 285.378C201.439 286.392 201.502 287.409 201.562 288.424C201.447 288.843 201.307 289.285 201.141 289.742C200.906 290.388 200.637 291.021 200.334 291.637C200.139 291.703 199.937 291.747 199.732 291.768C199.503 291.79 199.272 291.78 199.045 291.738C198.513 291.309 198.031 290.821 197.609 290.283C197.032 289.547 196.571 288.727 196.241 287.851C196.15 287.336 196.101 286.814 196.097 286.291C196.089 285.592 196.157 284.894 196.299 284.21C196.516 283.954 196.75 283.712 196.999 283.486C197.552 282.988 198.176 282.576 198.851 282.264C199.235 282.47 199.59 282.724 199.91 283.02C200.597 283.663 201.103 284.476 201.376 285.378Z" fill="#F7AC83"/>
<path d="M198.774 284.852C198.621 285.16 198.49 285.479 198.383 285.806C198.11 286.677 197.877 287.374 198.159 287.999C198.501 288.744 199.415 288.98 199.694 289.041L199.439 288.073C199.663 287.371 199.888 286.666 200.115 285.965C199.934 285.718 199.723 285.496 199.486 285.304C199.267 285.125 199.029 284.973 198.774 284.852Z" fill="#F59173"/>
<path d="M197.609 285.787C197.585 285.669 197.578 285.549 197.59 285.43C197.59 285.373 197.606 285.312 197.617 285.252C197.628 285.192 197.631 285.192 197.639 285.162C197.647 285.131 197.661 285.101 197.669 285.074C197.711 284.957 197.768 284.846 197.839 284.745C197.912 284.644 197.997 284.552 198.091 284.471L198.143 284.424L198.23 284.446C198.379 284.483 198.525 284.53 198.668 284.586C198.811 284.644 198.95 284.712 199.084 284.789C199.218 284.865 199.346 284.952 199.467 285.049C199.589 285.145 199.703 285.25 199.808 285.364C199.913 285.478 200.009 285.598 200.096 285.726L200.216 285.926C200.249 285.989 200.287 286.063 200.317 286.132C200.44 286.41 200.512 286.708 200.528 287.012C200.413 286.744 200.274 286.487 200.112 286.244L199.989 286.069L199.858 285.907C199.767 285.8 199.671 285.698 199.568 285.603C199.467 285.505 199.36 285.413 199.248 285.329C199.136 285.244 199.021 285.167 198.9 285.093C198.78 285.019 198.657 284.959 198.531 284.896C198.404 284.834 198.273 284.779 198.14 284.731L198.279 284.706C198.193 284.765 198.113 284.833 198.041 284.909C198.006 284.95 197.97 284.989 197.937 285.033C197.903 285.074 197.872 285.118 197.844 285.164L197.803 285.236L197.765 285.307C197.74 285.357 197.719 285.408 197.699 285.46C197.659 285.566 197.628 285.675 197.609 285.787Z" fill="#231F20"/>
<path d="M200.063 285.968C200.049 286.148 200.019 286.324 199.989 286.499V286.565L199.97 286.634L199.94 286.763C199.918 286.85 199.89 286.935 199.869 287.02C199.822 287.19 199.765 287.357 199.713 287.527C199.661 287.697 199.598 287.862 199.538 288.026V287.933C199.564 288.097 199.598 288.259 199.641 288.418C199.661 288.498 199.685 288.58 199.71 288.654L199.795 288.893C199.919 289.211 200.065 289.521 200.232 289.819C199.948 289.602 199.711 289.327 199.538 289.013C199.494 288.937 199.45 288.852 199.414 288.775C199.379 288.698 199.343 288.608 199.313 288.52C199.254 288.349 199.209 288.172 199.179 287.993V287.947L199.196 287.9C199.259 287.736 199.321 287.569 199.387 287.407C199.453 287.245 199.524 287.081 199.6 286.922C199.639 286.839 199.674 286.76 199.715 286.68L199.773 286.562L199.803 286.505L199.83 286.445C199.896 286.286 199.972 286.124 200.063 285.968Z" fill="#231F20"/>
<path d="M217.619 295.993C217.621 296.124 217.6 296.254 217.556 296.377C217.516 296.504 217.459 296.625 217.386 296.736C217.348 296.801 217.303 296.863 217.252 296.92C217.202 296.979 217.148 297.035 217.091 297.087C217.032 297.139 216.97 297.188 216.905 297.232C216.842 297.275 216.776 297.314 216.708 297.347C216.589 297.406 216.463 297.449 216.333 297.476C216.207 297.506 216.076 297.513 215.948 297.495L216.032 297.435L216.251 297.282C216.339 297.219 216.437 297.15 216.541 297.071L216.694 296.947L216.845 296.818L216.995 296.679L217.132 296.539C217.222 296.446 217.302 296.355 217.375 296.265L217.548 296.062L217.619 295.993Z" fill="#F7AC83"/>
<path d="M226.479 274.637C225.312 274.377 224.132 274.18 222.945 274.045C218.841 273.581 216.213 274.045 214.191 274.121C211.672 274.209 208.091 273.76 203.578 271.292C210.857 270.003 218.331 270.348 225.461 272.304C225.647 272.638 225.836 273.008 226.008 273.417C226.181 273.825 226.358 274.256 226.479 274.637Z" fill="#F59173"/>
<path d="M226.823 273.384C219.115 270.601 214.054 274.078 206.291 272.378C204.375 271.954 202.525 271.274 200.79 270.355C200.727 269.992 200.727 269.621 200.79 269.258C200.97 268.481 201.39 267.78 201.991 267.257C203.685 265.579 206.962 264.386 207.413 264.225C211.795 263.284 216.337 263.393 220.669 264.543C222.849 265.853 224.777 267.546 226.358 269.54C227.202 270.613 227.94 271.765 228.56 272.981C228.467 273.313 228.372 273.644 228.287 273.976C228 273.842 227.474 273.62 226.823 273.384Z" fill="#231F20"/>
<path d="M226.085 272.537H225.357C224.895 272.537 224.236 272.537 223.442 272.586C223.048 272.608 222.622 272.638 222.17 272.68C221.719 272.721 221.243 272.781 220.762 272.849C220.28 272.918 219.774 273.006 219.265 273.104C218.757 273.203 218.245 273.316 217.725 273.425C217.206 273.535 216.68 273.628 216.155 273.686C215.639 273.741 215.119 273.751 214.601 273.716C214.119 273.688 213.64 273.623 213.168 273.521C212.746 273.431 212.33 273.313 211.924 273.168C211.317 272.952 210.731 272.686 210.17 272.37C209.965 272.26 209.812 272.161 209.708 272.096L209.544 271.994L209.716 272.079C209.825 272.134 209.99 272.211 210.2 272.307C210.779 272.571 211.376 272.793 211.986 272.97C212.843 273.218 213.727 273.361 214.618 273.395C215.117 273.414 215.618 273.394 216.114 273.335C216.623 273.277 217.137 273.176 217.651 273.061C218.166 272.945 218.685 272.844 219.2 272.751C219.714 272.658 220.226 272.581 220.721 272.523C221.216 272.466 221.692 272.427 222.151 272.403C222.611 272.378 223.04 272.367 223.437 272.37C224.233 272.37 224.895 272.419 225.352 272.457C225.584 272.477 225.765 272.499 225.899 272.512L226.085 272.537Z" fill="#231F20"/>
<path d="M208.187 315.97L206.204 314.682C207.551 314.464 208.836 313.96 209.973 313.203C211.11 312.447 212.073 311.455 212.796 310.295C211.914 311.877 210.834 313.339 209.582 314.646C209.125 315.134 208.647 315.573 208.187 315.97Z" fill="#231F20"/>
<path d="M156.641 385.612L155.547 391.764C156.339 392.13 157.163 392.424 158.009 392.641C160.621 393.287 163.357 393.231 165.941 392.48L166.105 386.383L156.641 385.612Z" fill="#231F20"/>
<path d="M163.307 390.155C163.287 390.313 163.315 390.474 163.386 390.616C163.457 390.759 163.569 390.877 163.707 390.956C163.845 391.035 164.004 391.071 164.163 391.06C164.321 391.048 164.473 390.99 164.599 390.892C164.724 390.794 164.818 390.661 164.868 390.51C164.918 390.358 164.923 390.196 164.88 390.042C164.838 389.888 164.751 389.75 164.631 389.646C164.511 389.542 164.362 389.476 164.204 389.456C163.993 389.43 163.78 389.488 163.611 389.619C163.443 389.75 163.334 389.943 163.307 390.155Z" fill="#D0FAFA"/>
<path d="M188.998 307.08C187.193 307.293 185.413 307.686 183.686 308.253C182.25 308.724 180.444 309.311 178.625 310.512C177.386 311.334 175.006 313.179 173.212 316.817C162.202 338.571 156.116 362.492 155.388 386.873C159.009 388.372 162.926 389.02 166.836 388.765C169.093 369.351 175.095 350.563 184.506 333.444C185.747 330.486 186.742 327.429 187.483 324.307C188.824 318.67 189.335 312.865 188.998 307.08Z" fill="#4ABBBF"/>
<path d="M182.189 337.4C179.722 343.446 177.253 349.492 174.782 355.538L179.159 354.077L182.189 337.4Z" fill="#231F20"/>
<path d="M222.277 322.388C223.132 325.08 223.264 327.951 222.66 330.711L225.839 324.839L222.277 322.388Z" fill="#231F20"/>
<path d="M222.942 282.009C222.764 282.064 222.586 282.108 222.395 282.149C222.203 282.19 222.034 282.228 221.848 282.261C221.662 282.294 221.487 282.327 221.301 282.354C221.115 282.382 220.937 282.409 220.754 282.431H220.699L220.644 282.401C220.436 282.286 220.228 282.162 220.023 282.036C219.818 281.91 219.616 281.779 219.413 281.65C219.006 281.386 218.616 281.098 218.245 280.786C218.696 280.96 219.138 281.16 219.566 281.384C219.78 281.499 219.993 281.609 220.201 281.729C220.409 281.85 220.619 281.968 220.825 282.094L220.715 282.072C220.898 282.053 221.082 282.039 221.262 282.025C221.443 282.012 221.629 282.006 221.809 281.995C221.99 281.984 222.176 281.995 222.356 281.995C222.537 281.995 222.759 281.998 222.942 282.009Z" fill="#231F20"/>
<path d="M213.228 301.32L211.04 302.965C211.744 303.861 212.27 304.885 212.588 305.98C212.881 307.011 212.84 307.644 213.316 307.99C213.792 308.335 214.637 308.316 216.232 307.442C216.235 306.258 215.965 305.09 215.443 304.029C214.921 302.967 214.161 302.041 213.223 301.323L213.228 301.32Z" fill="#F59173"/>
<path d="M218.409 296.391L213.187 297.457C212.558 298.307 211.931 299.159 211.305 300.012C211.314 300.432 211.407 300.846 211.579 301.229C211.784 301.692 212.096 302.099 212.49 302.416C212.413 302.9 212.413 303.394 212.49 303.878C212.69 305.141 213.373 305.958 214.405 307.167C215.737 308.727 216.771 309.909 217.414 310.635C219.747 310.825 222.064 310.106 223.883 308.629C223.849 306.856 223.542 305.099 222.972 303.42C222.045 300.739 220.479 298.326 218.409 296.391Z" fill="#F7AC83"/>
<path d="M218.409 296.391C220.785 298.029 222.769 300.175 224.219 302.674C225.594 304.632 226.971 306.59 228.35 308.549C228.396 309.459 228.391 311.839 226.791 313.92C226.369 314.47 225.87 314.958 225.311 315.367C223.503 315.078 221.861 314.142 220.688 312.733C219.731 311.547 219.159 310.097 219.047 308.577L218.409 296.391Z" fill="#F7AC83"/>
<path d="M221.265 306.83L218.653 308.475L219.928 308.903C220.01 309.267 220.092 309.632 220.171 309.999C220.536 308.937 220.9 307.881 221.265 306.83Z" fill="#231F20"/>
<path d="M213.248 301.473L215.313 299.828L218.106 299.647L213.248 301.473Z" fill="#231F20"/>
<path d="M241.491 313.728C238.97 315.184 236.839 317.232 235.281 319.696C233.724 322.159 232.786 324.964 232.549 327.871C234.385 328.572 236.407 328.616 238.272 327.995C240.137 327.373 241.73 326.125 242.782 324.461C243.834 322.798 244.281 320.821 244.045 318.865C243.81 316.91 242.907 315.096 241.491 313.731V313.728Z" fill="#231F20"/>
<path d="M224.583 305.747C226.067 306.831 227.618 307.907 229.233 308.974C234.493 312.449 240.005 315.521 245.725 318.166C245.815 318.747 246.447 323.169 243.293 326.566C241.833 328.108 239.913 329.133 237.822 329.489C235.361 327.197 232.778 324.606 230.163 321.697C227.177 318.367 224.379 314.871 221.782 311.228C222.717 309.402 223.651 307.575 224.583 305.747Z" fill="#F7AC83"/>
<path d="M241.491 313.728C243.427 315.274 245.362 316.822 247.295 318.372C247.5 318.764 249.459 322.681 247.44 326.665C245.832 329.839 242.352 331.767 238.624 331.528L236.939 329.911L232.549 327.871C233.2 327.811 237.423 327.358 240.153 323.6C243.362 319.186 241.644 314.164 241.491 313.728Z" fill="#D0FAFA"/>
<path d="M212.558 290.348C212.536 289.142 211.004 288.267 210.493 287.974C209.35 287.322 206.97 286.516 205.695 287.73C204.264 289.101 204.842 292.418 206.666 293.454C208.92 294.732 212.591 292.232 212.558 290.348Z" fill="#F59173"/>
<path d="M224.717 290.653C224.093 290.047 222.901 290.134 222.471 290.167C222.042 290.2 220.849 290.285 220.346 290.957C219.252 292.424 221.44 296.511 223.018 296.374C224.597 296.237 226.041 291.957 224.717 290.653Z" fill="#F59173"/>
<path d="M219.055 292.053C219.156 292.621 219.26 293.188 219.361 293.759C219.107 293.918 218.843 294.06 218.571 294.184C218.237 294.334 217.891 294.456 217.537 294.548C216.324 294.153 215.207 293.511 214.254 292.662L215.168 291.445C216.402 291.934 217.728 292.141 219.052 292.053H219.055Z" fill="#F59173"/>
<path d="M234.085 296.214L229.258 297.036L229.746 299.917L234.573 299.096L234.085 296.214Z" fill="#231F20"/>
<path d="M231.404 301.616L231.265 304.535L238.918 304.901L239.057 301.982L231.404 301.616Z" fill="#231F20"/>
<path d="M183.891 333.869L188.629 328.636C188.913 329.65 189.197 330.665 189.48 331.679L183.891 333.869Z" fill="#231F20"/>
<path d="M155.861 402.59C155.617 403.442 155.374 404.294 155.134 405.148C155.052 404.009 154.97 402.873 154.89 401.738L155.861 402.59Z" fill="#231F20"/>
</svg>
