<svg width="390" height="846" viewBox="0 0 390 846" fill="none" xmlns="http://www.w3.org/2000/svg">
<g clip-path="url(#clip0_1174_579)">
<rect width="390" height="846" fill="white"/>
<rect y="510" width="390" height="70" fill="#D9D9D9"/>
<rect y="580" width="390" height="30" fill="#B2B2B2"/>
<rect y="610" width="390" height="236" fill="#737375"/>
<rect x="-1" width="391" height="510" fill="url(#paint0_linear_1174_579)"/>
<path d="M140.816 503.049C140.802 503.049 140.79 503.052 140.777 503.052C140.786 502.759 140.816 502.47 140.816 502.174C140.816 489.99 132.194 480.113 121.559 480.113C117.88 480.113 114.455 481.316 111.532 483.365C108.408 471.346 98.7001 462.576 87.1943 462.576C74.473 462.576 63.9664 473.3 62.1114 487.282C59.5871 485.445 56.6005 484.366 53.3894 484.366C44.3835 484.366 37.0826 492.73 37.0826 503.048C37.0826 503.548 37.1137 504.039 37.1475 504.53C35.4101 503.589 33.4754 503.048 31.4257 503.048C24.0111 503.048 18 509.935 18 518.429C18 526.923 24.0111 533.81 31.4257 533.81H140.816C148.23 533.81 154.242 526.923 154.242 518.429C154.242 509.935 148.23 503.048 140.816 503.048V503.049Z" fill="#60912F"/>
<g style="mix-blend-mode:multiply">
<path d="M88.138 462.576C98.4986 463.608 109.808 484.561 105.026 495.435C110.317 488.829 119.88 488.625 119.88 488.625C119.88 488.625 115.234 486.321 111.808 487.575C112.011 484.864 111.532 483.362 111.532 483.362C111.532 483.362 106.823 463.556 88.1366 462.573L88.138 462.576Z" fill="#D9D9D9"/>
</g>
<g style="mix-blend-mode:multiply">
<path d="M137.877 490.461C139.613 494.489 139.921 508.647 131.884 513.526C138.497 508.953 144.296 507.834 149.382 510.477C142.871 505.599 140.633 506.616 140.633 506.616C140.633 506.616 142.139 498.496 137.877 490.462V490.461Z" fill="#D9D9D9"/>
</g>
<g style="mix-blend-mode:screen">
<path d="M47.3418 488.966C39.8137 489.982 36.0835 500.417 39.9489 506.006C38.8362 495.485 47.3418 488.966 47.3418 488.966Z" fill="#3C3E40"/>
</g>
<g style="mix-blend-mode:multiply">
<path d="M57.5159 506.616C67.1802 501.331 74.3027 510.884 74.3027 510.884C74.3027 510.884 71.861 497.265 81.628 495.435C71.1498 494.317 70.3359 502.854 70.3359 504.074C64.8426 498.382 57.5173 506.615 57.5173 506.615L57.5159 506.616Z" fill="#D9D9D9"/>
</g>
<g style="mix-blend-mode:multiply">
<path d="M154.063 520.832C152.516 527.571 132.658 533.726 122.321 526.942C124.865 530.194 92.0034 537.003 80.2029 527.144C76.8458 531.616 31.4257 533.81 31.4257 533.81H140.816C147.515 533.81 153.053 528.182 154.062 520.83L154.063 520.832Z" fill="#D9D9D9"/>
</g>
<path d="M245.797 503.049C245.811 503.049 245.823 503.052 245.836 503.052C245.827 502.759 245.797 502.47 245.797 502.174C245.797 489.99 254.419 480.113 265.054 480.113C268.733 480.113 272.158 481.316 275.081 483.365C278.205 471.346 287.913 462.576 299.419 462.576C312.14 462.576 322.646 473.3 324.501 487.282C327.026 485.445 330.012 484.366 333.223 484.366C342.229 484.366 349.53 492.73 349.53 503.048C349.53 503.548 349.499 504.039 349.465 504.53C351.203 503.589 353.137 503.048 355.187 503.048C362.602 503.048 368.613 509.935 368.613 518.429C368.613 526.923 362.602 533.81 355.187 533.81H245.797C238.382 533.81 232.371 526.923 232.371 518.429C232.371 509.935 238.382 503.048 245.797 503.048V503.049Z" fill="#60912F"/>
<g style="mix-blend-mode:multiply">
<path d="M298.476 462.576C288.116 463.608 276.806 484.561 281.588 495.435C276.298 488.829 266.735 488.625 266.735 488.625C266.735 488.625 271.38 486.321 274.806 487.575C274.603 484.864 275.082 483.362 275.082 483.362C275.082 483.362 279.791 463.556 298.478 462.573L298.476 462.576Z" fill="#D9D9D9"/>
</g>
<g style="mix-blend-mode:multiply">
<path d="M248.738 490.461C247.002 494.489 246.693 508.647 254.73 513.526C248.117 508.953 242.318 507.834 237.232 510.477C243.743 505.599 245.981 506.616 245.981 506.616C245.981 506.616 244.475 498.496 248.738 490.462V490.461Z" fill="#D9D9D9"/>
</g>
<g style="mix-blend-mode:screen">
<path d="M339.272 488.966C346.801 489.982 350.531 500.417 346.665 506.006C347.778 495.485 339.272 488.966 339.272 488.966Z" fill="#3C3E40"/>
</g>
<g style="mix-blend-mode:multiply">
<path d="M329.098 506.616C319.434 501.331 312.312 510.884 312.312 510.884C312.312 510.884 314.753 497.265 304.986 495.435C315.464 494.317 316.278 502.854 316.278 504.074C321.772 498.382 329.097 506.615 329.097 506.615L329.098 506.616Z" fill="#D9D9D9"/>
</g>
<g style="mix-blend-mode:multiply">
<path d="M232.551 520.832C234.098 527.571 253.957 533.726 264.293 526.942C261.75 530.194 294.611 537.003 306.411 527.144C309.768 531.616 355.189 533.81 355.189 533.81H245.798C239.099 533.81 233.561 528.182 232.553 520.83L232.551 520.832Z" fill="#D9D9D9"/>
</g>
<path d="M349.813 241.12H43.7305V252.352H349.813V241.12Z" fill="#57595C"/>
<path d="M55.7555 305.598L55.7555 533.811H337.788V305.598H55.7555Z" fill="#7F897D"/>
<path d="M349.813 281.314H43.7305V310.771H349.813V281.314Z" fill="#57595C"/>
<path d="M370 533.811H23.5433V542.323H370V533.811Z" fill="#57595C"/>
<path d="M55.7555 252.352V281.314H337.788V252.352L55.7555 252.352Z" fill="#57595C"/>
<path d="M63.3673 252.352V281.314H330.174V252.352L63.3673 252.352Z" fill="white"/>
<path d="M189.002 327.028H79.6107V480.699H189.002V327.028Z" fill="#57595C"/>
<path d="M182.491 474.195V333.534H86.1221L86.1221 474.195H182.491Z" fill="#202021"/>
<path d="M180.863 472.57V335.16H87.7486L87.7486 472.57H180.863Z" fill="#C2F6FF"/>
<path d="M137.551 469.588V448.029L144.85 377.85L148.946 373.886L155.762 364.942C154.183 363.125 149.596 361.261 146.008 359.7C137.387 359.097 138.696 351.424 138.696 351.424H130.977C130.977 351.424 133.47 358.996 123.239 359.924C119.651 361.484 116.685 363.124 115.106 364.94L121.923 373.884L126.018 377.848L133.317 448.028V469.587H111.705V472.568H159.166V469.587H137.553L137.551 469.588Z" fill="#57595C"/>
<path d="M142.749 390.161L146.855 379.521C147.288 378.398 147.257 377.15 146.769 376.051C146.37 375.153 146.274 374.149 146.496 373.191L149.284 361.137L146.006 359.701C146.006 359.701 142.795 365.624 140.906 369.104C139.173 372.297 135.404 372.466 134.791 372.473C134.791 372.473 134.775 372.473 134.748 372.473C134.721 372.473 134.705 372.473 134.705 372.473C134.092 372.48 130.32 372.384 128.524 369.226C126.567 365.784 123.239 359.925 123.239 359.925L119.99 361.426L123.016 373.424C123.257 374.377 123.181 375.382 122.8 376.288C122.334 377.397 122.327 378.647 122.782 379.76L127.097 390.316C127.097 390.316 108.233 405.501 107.461 442.216C122.772 450.242 149.088 449.866 163.404 441.665C162.809 403.81 142.748 390.162 142.748 390.162L142.749 390.161Z" fill="#FFC95E"/>
<path d="M143.777 387.496C143.777 387.496 133.712 389.787 126.017 387.672L127.097 390.315C127.097 390.315 133.097 394.063 142.749 390.161L143.777 387.497V387.496Z" fill="#57595C"/>
<g style="mix-blend-mode:screen">
<path d="M121.898 446.901C121.866 446.83 111.743 424.338 127.456 392.503C127.456 392.503 112.979 407.188 111.704 444.119C114.845 445.328 118.291 446.254 121.898 446.9V446.901Z" fill="#242424"/>
</g>
<g style="mix-blend-mode:screen">
<path d="M135.493 447.916C135.493 447.916 136.946 440.831 132.814 428.257C132.391 432.487 131.541 447.918 131.542 447.953C132.859 448.01 134.18 448.034 135.5 448.025C135.497 447.957 135.493 447.916 135.493 447.916V447.916Z" fill="#1A1A1A"/>
</g>
<g style="mix-blend-mode:multiply">
<g style="mix-blend-mode:multiply">
<path d="M149.283 361.135C148.932 362.655 144.668 373.295 145.146 374.984C145.625 376.671 149.715 385.323 127.364 383.312C136.464 384.607 144.288 383.069 142.748 390.159L146.854 379.519C147.287 378.397 147.255 377.149 146.767 376.049C146.368 375.151 146.273 374.148 146.494 373.19L149.282 361.135H149.283Z" fill="#EDEDED"/>
</g>
<g style="mix-blend-mode:multiply">
<path d="M154.026 445.506C157.485 444.513 160.665 443.232 163.406 441.662C162.811 403.808 142.749 390.159 142.749 390.159C148.078 398.875 161.131 430.051 154.026 445.506Z" fill="#EDEDED"/>
</g>
</g>
<path d="M313.933 327.028H204.541V533.81H313.933V327.028Z" fill="#57595C"/>
<g style="mix-blend-mode:multiply">
<path d="M256.494 452.65H211.052V524.605H256.494V452.65Z" stroke="#E6E6E6" stroke-width="12.04" stroke-miterlimit="10"/>
</g>
<g style="mix-blend-mode:multiply">
<path d="M307.423 452.65H261.981V524.605H307.423V452.65Z" stroke="#E6E6E6" stroke-width="12.04" stroke-miterlimit="10"/>
</g>
<path d="M307.423 446.145V333.534H211.054V446.145H307.423Z" fill="#202021"/>
<path d="M305.795 444.519V335.16H212.68V444.519H305.795Z" fill="#C2F6FF"/>
<g style="mix-blend-mode:screen">
<path d="M87.7486 410.479L162.323 335.159H100.044L87.7486 347.578V410.479Z" fill="#57595C"/>
</g>
<g style="mix-blend-mode:screen">
<path d="M87.7486 437.79L180.863 343.745V335.159H174.389L87.7486 422.665V437.79Z" fill="#57595C"/>
</g>
<g style="mix-blend-mode:screen">
<path d="M133.12 472.569L180.863 424.35V395.507L104.562 472.569H133.12Z" fill="#57595C"/>
</g>
<g style="mix-blend-mode:screen">
<path d="M212.68 410.034L287.254 335.159H224.976L212.68 347.503V410.034Z" fill="#57595C"/>
</g>
<g style="mix-blend-mode:screen">
<path d="M212.68 437.185L305.795 343.695V335.159H299.321L212.68 422.149V437.185Z" fill="#57595C"/>
</g>
<g style="mix-blend-mode:screen">
<path d="M285.183 444.519L305.795 423.823V395.15L256.625 444.519H285.183Z" fill="#57595C"/>
</g>
<g style="mix-blend-mode:multiply">
<path d="M55.7555 310.771L337.788 366.625V310.771H55.7555Z" fill="#EDEDED"/>
</g>
<g style="mix-blend-mode:multiply">
<path d="M89.6415 474.195V333.533H86.1208V474.195H138.234H89.6415Z" fill="#D9D9D9"/>
</g>
<g style="mix-blend-mode:multiply">
<path d="M295.892 475.754C301.137 475.754 305.388 471.507 305.388 466.268C305.388 461.029 301.137 456.782 295.892 456.782C290.648 456.782 286.397 461.029 286.397 466.268C286.397 471.507 290.648 475.754 295.892 475.754Z" fill="#E6E6E6"/>
</g>
<path d="M300.911 470.739C304.619 467.035 304.619 461.029 300.911 457.324C297.203 453.62 291.191 453.62 287.483 457.324C283.774 461.029 283.774 467.035 287.483 470.739C291.191 474.443 297.203 474.443 300.911 470.739Z" fill="white"/>
<g style="mix-blend-mode:multiply">
<path d="M298.407 455.54C299.301 456.986 299.826 458.684 299.826 460.509C299.826 465.748 295.575 469.995 290.33 469.995C288.816 469.995 287.39 469.631 286.119 469.002C287.791 471.709 290.778 473.518 294.196 473.518C299.44 473.518 303.691 469.272 303.691 464.033C303.691 460.306 301.536 457.092 298.407 455.54V455.54Z" fill="#EDEDED"/>
</g>
<g style="mix-blend-mode:multiply">
<path d="M215.337 446.145V333.533H211.052V446.145H274.476H215.337Z" fill="#D9D9D9"/>
</g>
<path d="M185.995 503.049C185.982 503.049 185.97 503.052 185.956 503.052C185.965 502.759 185.995 502.47 185.995 502.174C185.995 489.99 177.373 480.113 166.738 480.113C163.059 480.113 159.635 481.316 156.712 483.365C153.587 471.346 143.879 462.576 132.374 462.576C119.652 462.576 109.146 473.3 107.291 487.282C104.767 485.445 101.78 484.366 98.5688 484.366C89.5629 484.366 82.2619 492.73 82.2619 503.048C82.2619 503.548 82.293 504.039 82.3268 504.53C80.5895 503.589 78.6547 503.048 76.6051 503.048C69.1905 503.048 63.1794 509.935 63.1794 518.429C63.1794 526.923 69.1905 533.81 76.6051 533.81H185.995C193.41 533.81 199.421 526.923 199.421 518.429C199.421 509.935 193.41 503.048 185.995 503.048V503.049Z" fill="#60912F"/>
<g style="mix-blend-mode:multiply">
<path d="M133.316 462.576C143.677 463.608 154.986 484.561 150.204 495.435C155.495 488.829 165.058 488.625 165.058 488.625C165.058 488.625 160.412 486.321 156.986 487.575C157.189 484.864 156.71 483.362 156.71 483.362C156.71 483.362 152.001 463.556 133.315 462.573L133.316 462.576Z" fill="#D9D9D9"/>
</g>
<g style="mix-blend-mode:multiply">
<path d="M183.055 490.461C184.791 494.489 185.099 508.647 177.062 513.526C183.675 508.953 189.474 507.834 194.56 510.477C188.049 505.599 185.811 506.616 185.811 506.616C185.811 506.616 187.318 498.496 183.055 490.462V490.461Z" fill="#D9D9D9"/>
</g>
<g style="mix-blend-mode:screen">
<path d="M92.5199 488.966C84.9918 489.982 81.2616 500.417 85.127 506.006C84.0143 495.485 92.5199 488.966 92.5199 488.966Z" fill="#3C3E40"/>
</g>
<g style="mix-blend-mode:multiply">
<path d="M102.694 506.616C112.358 501.331 119.481 510.884 119.481 510.884C119.481 510.884 117.039 497.265 126.806 495.435C116.328 494.317 115.514 502.854 115.514 504.074C110.021 498.382 102.695 506.615 102.695 506.615L102.694 506.616Z" fill="#D9D9D9"/>
</g>
<g style="mix-blend-mode:multiply">
<path d="M199.241 520.832C197.694 527.571 177.836 533.726 167.5 526.942C170.043 530.194 137.182 537.003 125.381 527.144C122.024 531.616 76.6038 533.81 76.6038 533.81H185.994C192.693 533.81 198.231 528.182 199.24 520.83L199.241 520.832Z" fill="#D9D9D9"/>
</g>
<g style="mix-blend-mode:multiply">
<path d="M317.71 384.669L327.468 420.049L230.084 435.366L221.094 401.172L317.71 384.669Z" fill="#DEDEDE"/>
</g>
<path d="M297.753 393.845C297.331 393.917 296.881 393.798 296.543 393.485L264.383 363.592L243.992 402.461C243.627 403.155 242.767 403.427 242.071 403.061C241.374 402.696 241.107 401.837 241.472 401.143L262.728 360.626C263.141 359.84 264.308 359.642 264.958 360.246L298.483 391.406C299.058 391.94 299.09 392.841 298.556 393.415C298.336 393.652 298.052 393.797 297.755 393.847L297.753 393.845Z" fill="#A1A1A1"/>
<path d="M317.704 384.683L221.087 401.181L226.721 434.102L323.337 417.604L317.704 384.683Z" fill="white"/>
<path d="M265.046 368.047C267.02 368.047 268.621 366.448 268.621 364.476C268.621 362.504 267.02 360.905 265.046 360.905C263.072 360.905 261.471 362.504 261.471 364.476C261.471 366.448 263.072 368.047 265.046 368.047Z" fill="white"/>
<g style="mix-blend-mode:screen">
<path d="M185.11 285.567H47.8339V303.725C47.8339 303.725 62.2128 289.82 185.11 285.567Z" fill="#57595C"/>
</g>
<rect x="6" y="711" width="33" height="9" rx="3" fill="#C4C4C4"/>
<rect x="49" y="711" width="33" height="9" rx="3" fill="#C4C4C4"/>
<rect x="92" y="711" width="33" height="9" rx="3" fill="#C4C4C4"/>
<rect x="135" y="711" width="33" height="9" rx="3" fill="#C4C4C4"/>
<rect x="178" y="711" width="33" height="9" rx="3" fill="#C4C4C4"/>
<rect x="221" y="711" width="33" height="9" rx="3" fill="#C4C4C4"/>
<rect x="264" y="711" width="33" height="9" rx="3" fill="#C4C4C4"/>
<rect x="307" y="711" width="33" height="9" rx="3" fill="#C4C4C4"/>
<rect x="350" y="711" width="33" height="9" rx="3" fill="#C4C4C4"/>
</g>
<defs>
<linearGradient id="paint0_linear_1174_579" x1="194.5" y1="0" x2="194.5" y2="847" gradientUnits="userSpaceOnUse">
<stop stop-color="#8CD3FF"/>
<stop offset="1" stop-color="#8CD3FF" stop-opacity="0"/>
</linearGradient>
<clipPath id="clip0_1174_579">
<rect width="390" height="846" fill="white"/>
</clipPath>
</defs>
</svg>
