<svg width="321" height="109" viewBox="0 0 321 109" fill="none" xmlns="http://www.w3.org/2000/svg">
<g clip-path="url(#clip0_1158_610)">
<path d="M95 51C95 51.8682 95.6755 52.5714 96.5094 52.5714H109.845L103.366 59.3168C102.777 59.9296 102.777 60.9236 103.366 61.5404C103.66 61.8468 104.045 62 104.434 62C104.823 62 105.208 61.8468 105.502 61.5404L114.558 52.1118C114.63 52.0371 114.691 51.9586 114.747 51.8721C114.774 51.8329 114.789 51.7936 114.811 51.7504C114.838 51.6993 114.868 51.6521 114.887 51.6011C114.906 51.55 114.921 51.495 114.936 51.44C114.947 51.3968 114.966 51.3536 114.974 51.3064C115.011 51.1021 115.011 50.8939 114.974 50.6896C114.966 50.6425 114.947 50.5993 114.936 50.5561C114.921 50.5011 114.909 50.45 114.887 50.395C114.864 50.3439 114.838 50.2929 114.811 50.2457C114.789 50.2064 114.774 50.1632 114.747 50.1239C114.691 50.0375 114.63 49.9589 114.558 49.8843L105.502 40.4596C104.913 39.8468 103.955 39.8468 103.366 40.4596C102.777 41.0725 102.777 42.0664 103.366 42.6832L109.845 49.4286H96.5094C95.6755 49.4286 95 50.1318 95 51Z" fill="#333333"/>
</g>
<g clip-path="url(#clip1_1158_610)">
<path d="M190 51C190 51.8682 190.675 52.5714 191.509 52.5714H204.845L198.366 59.3168C197.777 59.9296 197.777 60.9236 198.366 61.5404C198.66 61.8468 199.045 62 199.434 62C199.823 62 200.208 61.8468 200.502 61.5404L209.558 52.1118C209.63 52.0371 209.691 51.9586 209.747 51.8721C209.774 51.8329 209.789 51.7936 209.811 51.7504C209.838 51.6993 209.868 51.6521 209.887 51.6011C209.906 51.55 209.921 51.495 209.936 51.44C209.947 51.3968 209.966 51.3536 209.974 51.3064C210.011 51.1021 210.011 50.8939 209.974 50.6896C209.966 50.6425 209.947 50.5993 209.936 50.5561C209.921 50.5011 209.909 50.45 209.887 50.395C209.864 50.3439 209.838 50.2929 209.811 50.2457C209.789 50.2064 209.774 50.1632 209.747 50.1239C209.691 50.0375 209.63 49.9589 209.558 49.8843L200.502 40.4596C199.913 39.8468 198.955 39.8468 198.366 40.4596C197.777 41.0725 197.777 42.0664 198.366 42.6832L204.845 49.4286H191.509C190.675 49.4286 190 50.1318 190 51Z" fill="#333333"/>
</g>
<path d="M46.7429 6.00002H17.6568V19.0696L0 102.368L22.0731 109L40.3812 42.6737L46.7429 6.00002Z" fill="#333333"/>
<path d="M34.2766 6.00002H63.3627V19.0696L81.0195 102.368L58.9464 109L40.6383 42.6737L34.2766 6.00002Z" fill="#333333"/>
<path d="M63.3627 17.4445H17.6567V11.7222H63.3627V17.4445Z" fill="#E6E7E8"/>
<path d="M43.3665 40.3333H37.6533L26.2268 34.6111H54.793L43.3665 40.3333Z" fill="#E6E7E8"/>
<path d="M23.3701 14.5833H29.0834V5.99998H23.3701V14.5833ZM51.9363 14.5833H57.6496V5.99998H51.9363V14.5833ZM34.7966 37.4722H40.5099V17.4444H34.7966V37.4722Z" fill="#E6E7E8"/>
<path d="M178.825 48.532L156.494 12L135.797 48.2845C130.978 55.9707 130.559 65.97 135.619 74.2477C142.817 86.0169 158.321 89.7954 170.252 82.6984C182.181 75.5992 186.021 60.31 178.825 48.532Z" fill="#333333"/>
<path d="M252.268 50.8824H235.307L238.134 14.1341H249.441L252.268 50.8824Z" fill="black"/>
<path d="M280.536 50.8824H263.575L266.402 14.1341H277.709L280.536 50.8824Z" fill="black"/>
<path d="M308.804 50.8824H291.843L294.67 14.1341H305.977L308.804 50.8824Z" fill="black"/>
<path d="M236.831 31.0949L236.396 36.7485H251.182L250.747 31.0949H236.831Z" fill="#E6E7E8"/>
<path d="M237.699 19.7876L237.263 25.4412H250.309L249.876 19.7876H237.699Z" fill="#E6E7E8"/>
<path d="M252.05 48.0557L251.615 42.4021H235.96L235.525 48.0557H252.05Z" fill="#E6E7E8"/>
<path d="M265.099 31.0949L264.663 36.7485H279.45L279.015 31.0949H265.099Z" fill="#E6E7E8"/>
<path d="M265.967 19.7876L265.531 25.4412H278.577L278.144 19.7876H265.967Z" fill="#E6E7E8"/>
<path d="M280.318 48.0557L279.886 42.4021H264.228L263.793 48.0557H280.318Z" fill="#E6E7E8"/>
<path d="M293.364 31.0949L292.931 36.7485H307.716L307.283 31.0949H293.364Z" fill="#E6E7E8"/>
<path d="M308.586 48.0557L308.154 42.4021H292.496L292.061 48.0557H308.586Z" fill="#E6E7E8"/>
<path d="M294.235 19.7876L293.802 25.4412H306.848L306.415 19.7876H294.235Z" fill="#E6E7E8"/>
<path d="M320.111 96.1112C320.111 99.232 317.578 101.765 314.458 101.765H229.654C226.533 101.765 224 99.232 224 96.1112V56.5361C224 53.4153 226.533 50.8825 229.654 50.8825H314.458C317.578 50.8825 320.111 53.4153 320.111 56.5361V96.1112Z" fill="#231F20"/>
<path d="M320.111 62.1897H224V56.5361H320.111V62.1897Z" fill="#A7A9AC"/>
<path d="M249.441 79.1504H238.134V67.8432H249.441V79.1504ZM277.709 79.1504H266.402V67.8432H277.709V79.1504ZM305.977 79.1504H294.67V67.8432H305.977V79.1504ZM249.441 96.1112H238.134V84.804H249.441V96.1112ZM277.709 96.1112H266.402V84.804H277.709V96.1112ZM305.977 96.1112H294.67V84.804H305.977V96.1112Z" fill="#A7A9AC"/>
<path d="M246.614 -1.7643e-05C243.494 -1.7643e-05 240.961 2.53279 240.961 5.65358C240.961 6.94542 241.41 8.12137 242.139 9.07118C241.441 9.58848 240.961 10.3743 240.961 11.3072C240.961 12.8676 242.227 14.134 243.787 14.134C245.348 14.134 246.614 12.8676 246.614 11.3072C249.735 11.3072 252.268 8.77436 252.268 5.65358C252.268 2.53279 249.735 -1.7643e-05 246.614 -1.7643e-05Z" fill="#D1D3D4"/>
<path d="M274.882 -1.7643e-05C271.762 -1.7643e-05 269.229 2.53279 269.229 5.65358C269.229 6.94542 269.678 8.12137 270.408 9.07118C269.709 9.58848 269.229 10.3743 269.229 11.3072C269.229 12.8676 270.495 14.134 272.056 14.134C273.616 14.134 274.882 12.8676 274.882 11.3072C278.003 11.3072 280.536 8.77436 280.536 5.65358C280.536 2.53279 278.003 -1.7643e-05 274.882 -1.7643e-05Z" fill="#D1D3D4"/>
<path d="M303.15 -1.7643e-05C300.03 -1.7643e-05 297.497 2.53279 297.497 5.65358C297.497 6.94542 297.946 8.12137 298.676 9.07118C297.977 9.58848 297.497 10.3743 297.497 11.3072C297.497 12.8676 298.76 14.134 300.324 14.134C301.887 14.134 303.15 12.8676 303.15 11.3072C306.271 11.3072 308.804 8.77436 308.804 5.65358C308.804 2.53279 306.271 -1.7643e-05 303.15 -1.7643e-05Z" fill="#D1D3D4"/>
<defs>
<clipPath id="clip0_1158_610">
<rect width="20" height="22" fill="white" transform="translate(95 40)"/>
</clipPath>
<clipPath id="clip1_1158_610">
<rect width="20" height="22" fill="white" transform="translate(190 40)"/>
</clipPath>
</defs>
</svg>
