<svg width="390" height="846" viewBox="0 0 390 846" fill="none" xmlns="http://www.w3.org/2000/svg">
<g clip-path="url(#clip0_176_180)">
<rect width="390" height="846" fill="white"/>
<rect y="510" width="390" height="70" fill="#D9D9D9"/>
<rect y="580" width="390" height="30" fill="#B2B2B2"/>
<rect y="610" width="390" height="236" fill="#737375"/>
<rect x="-1" width="391" height="510" fill="url(#paint0_linear_176_180)"/>
<path d="M140.816 503.049C140.802 503.049 140.79 503.052 140.777 503.052C140.786 502.759 140.816 502.47 140.816 502.174C140.816 489.99 132.194 480.113 121.559 480.113C117.88 480.113 114.455 481.316 111.532 483.365C108.408 471.346 98.7001 462.576 87.1943 462.576C74.473 462.576 63.9664 473.3 62.1114 487.282C59.5871 485.445 56.6005 484.366 53.3894 484.366C44.3835 484.366 37.0826 492.73 37.0826 503.048C37.0826 503.548 37.1137 504.039 37.1475 504.53C35.4101 503.59 33.4754 503.048 31.4257 503.048C24.0111 503.048 18 509.935 18 518.429C18 526.923 24.0111 533.81 31.4257 533.81H140.816C148.23 533.81 154.242 526.923 154.242 518.429C154.242 509.935 148.23 503.048 140.816 503.048V503.049Z" fill="#60912F"/>
<g style="mix-blend-mode:multiply">
<path d="M88.138 462.576C98.4986 463.608 109.808 484.561 105.026 495.435C110.317 488.829 119.88 488.626 119.88 488.626C119.88 488.626 115.234 486.321 111.808 487.575C112.011 484.864 111.532 483.362 111.532 483.362C111.532 483.362 106.823 463.556 88.1366 462.573L88.138 462.576Z" fill="#D9D9D9"/>
</g>
<g style="mix-blend-mode:multiply">
<path d="M137.876 490.461C139.613 494.489 139.921 508.647 131.884 513.526C138.497 508.953 144.296 507.834 149.382 510.477C142.871 505.599 140.633 506.616 140.633 506.616C140.633 506.616 142.139 498.496 137.876 490.462V490.461Z" fill="#D9D9D9"/>
</g>
<g style="mix-blend-mode:screen">
<path d="M47.3417 488.966C39.8136 489.982 36.0834 500.417 39.9488 506.006C38.8361 495.485 47.3417 488.966 47.3417 488.966Z" fill="#3C3E40"/>
</g>
<g style="mix-blend-mode:multiply">
<path d="M57.5159 506.616C67.1802 501.331 74.3027 510.884 74.3027 510.884C74.3027 510.884 71.8609 497.266 81.628 495.435C71.1498 494.317 70.3358 502.854 70.3358 504.074C64.8425 498.383 57.5172 506.615 57.5172 506.615L57.5159 506.616Z" fill="#D9D9D9"/>
</g>
<g style="mix-blend-mode:multiply">
<path d="M154.063 520.832C152.516 527.571 132.658 533.726 122.321 526.942C124.864 530.194 92.0033 537.003 80.2028 527.145C76.8457 531.617 31.4255 533.81 31.4255 533.81H140.816C147.515 533.81 153.053 528.182 154.062 520.83L154.063 520.832Z" fill="#D9D9D9"/>
</g>
<path d="M245.797 503.049C245.811 503.049 245.823 503.052 245.836 503.052C245.827 502.759 245.797 502.47 245.797 502.174C245.797 489.99 254.419 480.113 265.054 480.113C268.733 480.113 272.158 481.316 275.081 483.365C278.205 471.346 287.913 462.576 299.419 462.576C312.14 462.576 322.646 473.3 324.501 487.282C327.026 485.445 330.012 484.366 333.223 484.366C342.229 484.366 349.53 492.73 349.53 503.048C349.53 503.548 349.499 504.039 349.465 504.53C351.203 503.59 353.137 503.048 355.187 503.048C362.602 503.048 368.613 509.935 368.613 518.429C368.613 526.923 362.602 533.81 355.187 533.81H245.797C238.382 533.81 232.371 526.923 232.371 518.429C232.371 509.935 238.382 503.048 245.797 503.048V503.049Z" fill="#60912F"/>
<g style="mix-blend-mode:multiply">
<path d="M298.476 462.576C288.116 463.608 276.806 484.561 281.588 495.435C276.298 488.829 266.735 488.626 266.735 488.626C266.735 488.626 271.38 486.321 274.806 487.575C274.603 484.864 275.082 483.362 275.082 483.362C275.082 483.362 279.791 463.556 298.478 462.573L298.476 462.576Z" fill="#D9D9D9"/>
</g>
<g style="mix-blend-mode:multiply">
<path d="M248.738 490.461C247.002 494.489 246.693 508.647 254.73 513.526C248.117 508.953 242.318 507.834 237.232 510.477C243.743 505.599 245.981 506.616 245.981 506.616C245.981 506.616 244.475 498.496 248.738 490.462V490.461Z" fill="#D9D9D9"/>
</g>
<g style="mix-blend-mode:screen">
<path d="M339.272 488.966C346.801 489.982 350.531 500.417 346.665 506.006C347.778 495.485 339.272 488.966 339.272 488.966Z" fill="#3C3E40"/>
</g>
<g style="mix-blend-mode:multiply">
<path d="M329.098 506.616C319.434 501.331 312.312 510.884 312.312 510.884C312.312 510.884 314.753 497.266 304.986 495.435C315.464 494.317 316.278 502.854 316.278 504.074C321.772 498.383 329.097 506.615 329.097 506.615L329.098 506.616Z" fill="#D9D9D9"/>
</g>
<g style="mix-blend-mode:multiply">
<path d="M232.551 520.832C234.098 527.571 253.957 533.726 264.293 526.942C261.75 530.194 294.611 537.003 306.411 527.145C309.768 531.617 355.188 533.81 355.188 533.81H245.798C239.099 533.81 233.561 528.182 232.553 520.83L232.551 520.832Z" fill="#D9D9D9"/>
</g>
<path d="M349.813 241.12H43.7305V252.352H349.813V241.12Z" fill="#57595C"/>
<path d="M55.7554 305.598L55.7554 533.811H337.788V305.598H55.7554Z" fill="#7F897D"/>
<path d="M349.813 281.314H43.7305V310.771H349.813V281.314Z" fill="#57595C"/>
<path d="M370 533.811H23.5432V542.323H370V533.811Z" fill="#57595C"/>
<path d="M55.7554 252.352V281.314H337.788V252.352L55.7554 252.352Z" fill="#57595C"/>
<path d="M63.3672 252.352V281.314H330.174V252.352L63.3672 252.352Z" fill="white"/>
<path d="M189.002 327.028H79.6107V480.699H189.002V327.028Z" fill="#57595C"/>
<path d="M182.491 474.195V333.534H86.1221L86.1221 474.195H182.491Z" fill="#202021"/>
<path d="M180.863 472.571V335.16H87.7486L87.7486 472.571H180.863Z" fill="#C2F6FF"/>
<path d="M137.551 469.588V448.029L144.85 377.85L148.946 373.886L155.762 364.942C154.183 363.125 149.596 361.261 146.008 359.7C137.387 359.097 138.696 351.424 138.696 351.424H130.977C130.977 351.424 133.47 358.996 123.239 359.924C119.651 361.484 116.685 363.124 115.106 364.94L121.923 373.884L126.018 377.848L133.317 448.028V469.587H111.705V472.568H159.166V469.587H137.553L137.551 469.588Z" fill="#57595C"/>
<path d="M142.749 390.161L146.855 379.521C147.288 378.398 147.257 377.15 146.769 376.051C146.37 375.153 146.274 374.149 146.496 373.191L149.284 361.137L146.006 359.701C146.006 359.701 142.795 365.624 140.906 369.104C139.173 372.297 135.404 372.466 134.791 372.473C134.791 372.473 134.775 372.473 134.748 372.473C134.721 372.473 134.705 372.473 134.705 372.473C134.092 372.48 130.32 372.384 128.524 369.226C126.567 365.784 123.239 359.925 123.239 359.925L119.99 361.426L123.016 373.424C123.257 374.377 123.181 375.382 122.8 376.288C122.334 377.397 122.327 378.647 122.782 379.76L127.097 390.316C127.097 390.316 108.233 405.501 107.461 442.216C122.772 450.242 149.088 449.866 163.404 441.665C162.809 403.81 142.748 390.162 142.748 390.162L142.749 390.161Z" fill="#FFC95E"/>
<path d="M143.777 387.496C143.777 387.496 133.712 389.787 126.016 387.672L127.097 390.315C127.097 390.315 133.097 394.063 142.749 390.161L143.777 387.497V387.496Z" fill="#57595C"/>
<g style="mix-blend-mode:screen">
<path d="M121.898 446.902C121.866 446.83 111.743 424.338 127.456 392.503C127.456 392.503 112.979 407.188 111.704 444.119C114.845 445.328 118.291 446.255 121.898 446.9V446.902Z" fill="#242424"/>
</g>
<g style="mix-blend-mode:screen">
<path d="M135.493 447.916C135.493 447.916 136.946 440.832 132.814 428.257C132.391 432.487 131.541 447.918 131.542 447.954C132.859 448.01 134.18 448.035 135.5 448.025C135.497 447.958 135.493 447.916 135.493 447.916V447.916Z" fill="#1A1A1A"/>
</g>
<g style="mix-blend-mode:multiply">
<g style="mix-blend-mode:multiply">
<path d="M149.283 361.135C148.932 362.655 144.668 373.295 145.146 374.984C145.625 376.671 149.715 385.323 127.364 383.312C136.464 384.607 144.288 383.069 142.748 390.159L146.854 379.519C147.286 378.397 147.255 377.149 146.767 376.049C146.368 375.151 146.272 374.148 146.494 373.19L149.282 361.135H149.283Z" fill="#EDEDED"/>
</g>
<g style="mix-blend-mode:multiply">
<path d="M154.026 445.506C157.485 444.513 160.665 443.232 163.405 441.662C162.811 403.808 142.749 390.159 142.749 390.159C148.078 398.875 161.131 430.051 154.026 445.506Z" fill="#EDEDED"/>
</g>
</g>
<path d="M313.933 327.028H204.541V533.81H313.933V327.028Z" fill="#57595C"/>
<g style="mix-blend-mode:multiply">
<path d="M256.494 452.65H211.052V524.605H256.494V452.65Z" stroke="#E6E6E6" stroke-width="12.04" stroke-miterlimit="10"/>
</g>
<g style="mix-blend-mode:multiply">
<path d="M307.423 452.65H261.981V524.605H307.423V452.65Z" stroke="#E6E6E6" stroke-width="12.04" stroke-miterlimit="10"/>
</g>
<path d="M307.423 446.145V333.534H211.054V446.145H307.423Z" fill="#202021"/>
<path d="M305.795 444.519V335.16H212.68V444.519H305.795Z" fill="#C2F6FF"/>
<g style="mix-blend-mode:screen">
<path d="M87.7485 410.479L162.323 335.159H100.044L87.7485 347.578V410.479Z" fill="#57595C"/>
</g>
<g style="mix-blend-mode:screen">
<path d="M87.7485 437.79L180.863 343.745V335.159H174.389L87.7485 422.665V437.79Z" fill="#57595C"/>
</g>
<g style="mix-blend-mode:screen">
<path d="M133.12 472.569L180.863 424.35V395.507L104.562 472.569H133.12Z" fill="#57595C"/>
</g>
<g style="mix-blend-mode:screen">
<path d="M212.68 410.034L287.254 335.159H224.976L212.68 347.504V410.034Z" fill="#57595C"/>
</g>
<g style="mix-blend-mode:screen">
<path d="M212.68 437.185L305.795 343.695V335.159H299.321L212.68 422.15V437.185Z" fill="#57595C"/>
</g>
<g style="mix-blend-mode:screen">
<path d="M285.183 444.519L305.795 423.823V395.15L256.625 444.519H285.183Z" fill="#57595C"/>
</g>
<g style="mix-blend-mode:multiply">
<path d="M55.7554 310.771L337.788 366.625V310.771H55.7554Z" fill="#EDEDED"/>
</g>
<g style="mix-blend-mode:multiply">
<path d="M89.6415 474.195V333.532H86.1208V474.195H138.234H89.6415Z" fill="#D9D9D9"/>
</g>
<g style="mix-blend-mode:multiply">
<path d="M295.892 475.754C301.137 475.754 305.388 471.507 305.388 466.268C305.388 461.029 301.137 456.782 295.892 456.782C290.648 456.782 286.397 461.029 286.397 466.268C286.397 471.507 290.648 475.754 295.892 475.754Z" fill="#E6E6E6"/>
</g>
<path d="M300.911 470.739C304.619 467.035 304.619 461.029 300.911 457.324C297.203 453.62 291.191 453.62 287.483 457.324C283.774 461.029 283.774 467.035 287.483 470.739C291.191 474.443 297.203 474.443 300.911 470.739Z" fill="white"/>
<g style="mix-blend-mode:multiply">
<path d="M298.407 455.54C299.301 456.987 299.826 458.684 299.826 460.509C299.826 465.748 295.575 469.995 290.33 469.995C288.816 469.995 287.39 469.631 286.119 469.002C287.791 471.709 290.778 473.519 294.196 473.519C299.44 473.519 303.691 469.272 303.691 464.033C303.691 460.306 301.536 457.092 298.407 455.54V455.54Z" fill="#EDEDED"/>
</g>
<g style="mix-blend-mode:multiply">
<path d="M215.337 446.145V333.532H211.052V446.145H274.476H215.337Z" fill="#D9D9D9"/>
</g>
<path d="M185.995 503.049C185.982 503.049 185.97 503.052 185.956 503.052C185.966 502.759 185.995 502.47 185.995 502.174C185.995 489.99 177.373 480.113 166.738 480.113C163.059 480.113 159.635 481.316 156.712 483.365C153.587 471.346 143.879 462.576 132.374 462.576C119.652 462.576 109.146 473.3 107.291 487.282C104.767 485.445 101.78 484.366 98.5689 484.366C89.563 484.366 82.262 492.73 82.262 503.048C82.262 503.548 82.2931 504.039 82.3269 504.53C80.5895 503.59 78.6548 503.048 76.6051 503.048C69.1906 503.048 63.1794 509.935 63.1794 518.429C63.1794 526.923 69.1906 533.81 76.6051 533.81H185.995C193.41 533.81 199.421 526.923 199.421 518.429C199.421 509.935 193.41 503.048 185.995 503.048V503.049Z" fill="#60912F"/>
<g style="mix-blend-mode:multiply">
<path d="M133.316 462.576C143.677 463.608 154.986 484.561 150.204 495.435C155.495 488.829 165.058 488.626 165.058 488.626C165.058 488.626 160.412 486.321 156.986 487.575C157.189 484.864 156.71 483.362 156.71 483.362C156.71 483.362 152.001 463.556 133.315 462.573L133.316 462.576Z" fill="#D9D9D9"/>
</g>
<g style="mix-blend-mode:multiply">
<path d="M183.055 490.461C184.791 494.489 185.099 508.647 177.062 513.526C183.675 508.953 189.474 507.834 194.56 510.477C188.049 505.599 185.811 506.616 185.811 506.616C185.811 506.616 187.318 498.496 183.055 490.462V490.461Z" fill="#D9D9D9"/>
</g>
<g style="mix-blend-mode:screen">
<path d="M92.52 488.966C84.9919 489.982 81.2616 500.417 85.1271 506.006C84.0143 495.485 92.52 488.966 92.52 488.966Z" fill="#3C3E40"/>
</g>
<g style="mix-blend-mode:multiply">
<path d="M102.694 506.616C112.358 501.331 119.481 510.884 119.481 510.884C119.481 510.884 117.039 497.266 126.806 495.435C116.328 494.317 115.514 502.854 115.514 504.074C110.021 498.383 102.695 506.615 102.695 506.615L102.694 506.616Z" fill="#D9D9D9"/>
</g>
<g style="mix-blend-mode:multiply">
<path d="M199.241 520.832C197.694 527.571 177.836 533.726 167.499 526.942C170.043 530.194 137.182 537.003 125.381 527.145C122.024 531.617 76.6038 533.81 76.6038 533.81H185.994C192.693 533.81 198.231 528.182 199.24 520.83L199.241 520.832Z" fill="#D9D9D9"/>
</g>
<g style="mix-blend-mode:multiply">
<path d="M317.71 384.669L327.468 420.05L230.084 435.366L221.094 401.172L317.71 384.669Z" fill="#DEDEDE"/>
</g>
<path d="M297.753 393.845C297.331 393.917 296.881 393.798 296.543 393.485L264.383 363.592L243.992 402.461C243.627 403.155 242.767 403.427 242.071 403.061C241.374 402.696 241.107 401.837 241.472 401.143L262.728 360.626C263.141 359.84 264.308 359.642 264.958 360.245L298.483 391.406C299.058 391.94 299.09 392.84 298.556 393.415C298.336 393.652 298.052 393.797 297.755 393.847L297.753 393.845Z" fill="#A1A1A1"/>
<path d="M317.704 384.683L221.087 401.181L226.721 434.102L323.337 417.604L317.704 384.683Z" fill="white"/>
<path d="M265.046 368.047C267.02 368.047 268.621 366.448 268.621 364.476C268.621 362.504 267.02 360.905 265.046 360.905C263.072 360.905 261.471 362.504 261.471 364.476C261.471 366.448 263.072 368.047 265.046 368.047Z" fill="white"/>
<g style="mix-blend-mode:screen">
<path d="M185.11 285.567H47.834V303.725C47.834 303.725 62.2128 289.82 185.11 285.567Z" fill="#57595C"/>
</g>
<path d="M321.346 482.009L317.224 473.767C316.948 473.215 316.543 472.737 316.044 472.373C315.545 472.009 314.966 471.77 314.356 471.676L306.144 470.41C305.309 470.285 304.455 470.419 303.699 470.793C302.942 471.167 302.317 471.763 301.909 472.503L299.385 467.45C300.017 466.477 300.356 465.342 300.364 464.182C300.364 460.773 297.591 458 294.182 458C290.773 458 288 460.773 288 464.182C288 467.418 290.508 470.051 293.678 470.313L300.872 484.701C300.932 484.818 300.961 484.949 300.955 485.081C300.949 485.213 300.908 485.34 300.838 485.452C300.77 485.565 300.673 485.658 300.558 485.722C300.443 485.786 300.313 485.819 300.181 485.818H293.738C293.287 485.819 292.844 485.935 292.45 486.155C292.056 486.375 291.725 486.692 291.488 487.076C291.251 487.459 291.116 487.897 291.095 488.348C291.075 488.799 291.169 489.247 291.371 489.651L291.946 490.801C291.992 490.893 292.057 490.976 292.136 491.043C292.215 491.11 292.307 491.161 292.406 491.192L303.322 494.602C305.967 495.431 308.83 495.2 311.309 493.96L318.572 490.328C319.605 489.816 320.473 489.025 321.079 488.045C321.685 487.064 322.004 485.934 322 484.781C322 483.824 321.774 482.865 321.346 482.009ZM298.531 465.741L297.078 462.837C296.817 462.311 296.414 461.869 295.914 461.56C295.415 461.251 294.839 461.089 294.251 461.091C292.51 461.091 291.091 462.508 291.091 464.39C291.091 464.88 291.207 465.369 291.425 465.805L292.816 468.589C291.872 468.3 291.045 467.716 290.457 466.923C289.868 466.13 289.549 465.169 289.545 464.182C289.545 461.626 291.626 459.545 294.182 459.545C296.738 459.545 298.818 461.626 298.818 464.182C298.818 464.718 298.715 465.242 298.531 465.743V465.741Z" fill="#303C42"/>
<path d="M317.881 488.945L310.618 492.576C308.494 493.629 306.047 493.826 303.782 493.128L293.18 489.815L292.752 488.96C292.668 488.792 292.629 488.605 292.637 488.417C292.646 488.23 292.702 488.047 292.801 487.887C292.899 487.727 293.037 487.595 293.201 487.504C293.366 487.412 293.55 487.364 293.738 487.364H300.181C300.991 487.364 301.727 486.953 302.153 486.265C302.578 485.576 302.617 484.732 302.255 484.008L292.806 465.112C292.695 464.89 292.636 464.641 292.636 464.251C292.638 463.888 292.761 463.536 292.987 463.252C293.213 462.967 293.528 462.767 293.882 462.684C294.235 462.601 294.607 462.639 294.936 462.792C295.265 462.946 295.533 463.205 295.696 463.53L301.218 474.573C301.481 475.097 302.339 475.097 302.6 474.573L303.223 473.326C303.468 472.843 303.86 472.449 304.341 472.2C304.823 471.951 305.371 471.859 305.907 471.938L314.121 473.203C314.863 473.317 315.506 473.785 315.841 474.458L319.963 482.699C320.284 483.342 320.454 484.063 320.454 484.781C320.457 485.646 320.218 486.495 319.763 487.231C319.308 487.967 318.656 488.56 317.881 488.945V488.945Z" fill="#FFE082"/>
<path opacity="0.1" d="M319.963 482.699L315.841 474.457C315.676 474.126 315.433 473.839 315.134 473.621C314.834 473.403 314.487 473.259 314.121 473.203L313.307 473.077C313.877 473.272 314.361 473.674 314.634 474.221L318.754 482.464C319.076 483.107 319.246 483.826 319.246 484.546C319.249 485.411 319.009 486.26 318.554 486.996C318.1 487.732 317.448 488.325 316.673 488.71L309.408 492.341C307.848 493.112 306.102 493.428 304.371 493.252C306.454 493.749 308.7 493.536 310.615 492.578L317.88 488.946C318.656 488.562 319.308 487.968 319.763 487.231C320.218 486.495 320.458 485.645 320.454 484.78C320.454 484.061 320.284 483.341 319.963 482.698V482.699Z" fill="#333333"/>
<path d="M321.346 482.009L317.224 473.767C316.948 473.215 316.543 472.737 316.044 472.373C315.545 472.009 314.966 471.77 314.356 471.676L306.144 470.41C305.309 470.285 304.455 470.419 303.699 470.793C302.942 471.167 302.317 471.763 301.909 472.503L299.385 467.45C300.017 466.477 300.356 465.342 300.364 464.182C300.364 460.773 297.591 458 294.182 458C290.773 458 288 460.773 288 464.182C288 467.418 290.508 470.051 293.678 470.313L300.872 484.701C300.932 484.818 300.961 484.949 300.955 485.081C300.949 485.213 300.908 485.34 300.838 485.452C300.77 485.565 300.673 485.658 300.558 485.722C300.443 485.786 300.313 485.819 300.181 485.818H293.738C293.287 485.819 292.844 485.935 292.45 486.155C292.056 486.375 291.725 486.692 291.488 487.076C291.251 487.459 291.116 487.897 291.095 488.348C291.075 488.799 291.169 489.247 291.371 489.651L291.946 490.801C291.992 490.893 292.057 490.976 292.136 491.043C292.215 491.11 292.307 491.161 292.406 491.192L303.322 494.602C305.967 495.431 308.83 495.2 311.309 493.96L318.572 490.328C319.605 489.816 320.473 489.025 321.079 488.045C321.685 487.064 322.004 485.934 322 484.781C322 483.824 321.774 482.865 321.346 482.009ZM298.531 465.741L297.078 462.837C296.817 462.311 296.414 461.869 295.914 461.56C295.415 461.251 294.839 461.089 294.251 461.091C292.51 461.091 291.091 462.508 291.091 464.39C291.091 464.88 291.207 465.369 291.425 465.805L292.816 468.589C291.872 468.3 291.045 467.716 290.457 466.923C289.868 466.13 289.549 465.169 289.545 464.182C289.545 461.626 291.626 459.545 294.182 459.545C296.738 459.545 298.818 461.626 298.818 464.182C298.818 464.718 298.715 465.242 298.531 465.743V465.741Z" fill="url(#paint1_linear_176_180)"/>
<rect x="6" y="711" width="33" height="9" rx="3" fill="#C4C4C4"/>
<rect x="49" y="711" width="33" height="9" rx="3" fill="#C4C4C4"/>
<rect x="92" y="711" width="33" height="9" rx="3" fill="#C4C4C4"/>
<rect x="135" y="711" width="33" height="9" rx="3" fill="#C4C4C4"/>
<rect x="178" y="711" width="33" height="9" rx="3" fill="#C4C4C4"/>
<rect x="221" y="711" width="33" height="9" rx="3" fill="#C4C4C4"/>
<rect x="264" y="711" width="33" height="9" rx="3" fill="#C4C4C4"/>
<rect x="307" y="711" width="33" height="9" rx="3" fill="#C4C4C4"/>
<rect x="350" y="711" width="33" height="9" rx="3" fill="#C4C4C4"/>
<path d="M108.309 115.459C107.741 112.614 106.521 109.939 104.745 107.644C102.969 105.349 100.686 103.497 98.074 102.232C95.4622 100.968 92.5931 100.326 89.6915 100.356C86.79 100.387 83.935 101.089 81.3504 102.408C78.0429 98.8603 73.8228 96.2909 69.1524 94.9814C64.482 93.6719 59.5413 93.6729 54.8714 94.9841C50.2015 96.2954 45.9824 98.8664 42.6763 102.416C39.3701 105.965 37.1044 110.355 36.1271 115.106C33.6426 115.215 31.2079 115.84 28.9781 116.941C26.7483 118.042 24.7723 119.596 23.176 121.503C21.5797 123.41 20.3981 125.628 19.7065 128.017C19.0149 130.406 18.8283 132.912 19.1588 135.377C19.4893 137.842 20.3296 140.211 21.6261 142.333C22.9226 144.456 24.6469 146.284 26.6892 147.704C28.7314 149.123 31.0469 150.101 33.488 150.576C35.9291 151.051 38.4424 151.012 40.8678 150.462C42.3495 152.298 44.1793 153.822 46.2521 154.948C48.3249 156.074 50.5998 156.78 52.946 157.024C55.2923 157.268 57.6636 157.046 59.9238 156.37C62.1839 155.695 64.2883 154.579 66.1161 153.088C67.9489 155.425 70.2985 157.304 72.9802 158.58C75.6619 159.855 78.6028 160.492 81.5719 160.439C84.541 160.386 87.4575 159.646 90.0923 158.276C92.7272 156.907 95.0086 154.945 96.7575 152.545C99.3018 153.783 102.084 154.457 104.913 154.521C107.742 154.585 110.551 154.037 113.148 152.914C115.746 151.791 118.07 150.121 119.962 148.017C121.854 145.913 123.27 143.425 124.111 140.723C124.953 138.022 125.201 135.17 124.838 132.364C124.475 129.557 123.511 126.862 122.01 124.463C120.51 122.064 118.509 120.018 116.144 118.464C113.779 116.91 111.107 115.885 108.309 115.459V115.459Z" fill="white"/>
<path d="M314 202.881C314 200.886 313.607 198.91 312.844 197.067C312.081 195.224 310.962 193.549 309.551 192.138C308.141 190.727 306.466 189.608 304.623 188.845C302.78 188.081 300.804 187.688 298.809 187.688H298.524C299.429 184.162 299.385 180.46 298.395 176.956C297.406 173.453 295.507 170.274 292.892 167.742C290.277 165.21 287.038 163.415 283.505 162.54C279.971 161.665 276.269 161.74 272.774 162.758C270.469 158.377 266.859 154.821 262.444 152.582C258.029 150.343 253.027 149.531 248.13 150.26C243.233 150.988 238.684 153.221 235.112 156.648C231.54 160.076 229.122 164.529 228.191 169.391C225.792 169.634 223.485 170.444 221.461 171.756C219.437 173.067 217.755 174.842 216.553 176.932C216.242 176.919 215.931 176.91 215.617 176.91C210.149 176.91 204.905 179.082 201.039 182.949C197.172 186.815 195 192.059 195 197.527C195 202.995 197.172 208.239 201.039 212.106C204.905 215.972 210.149 218.144 215.617 218.144H215.834H299.17V218.067C303.135 217.972 306.906 216.331 309.677 213.493C312.448 210.656 314 206.847 314 202.881V202.881Z" fill="white"/>
<path d="M333.987 65.9935C333.987 58.7917 328.451 52.8597 321.31 52.0313C321.681 50.667 321.868 49.2595 321.867 47.8457C321.867 38.8538 314.41 31.5623 305.21 31.5623C302.357 31.5584 299.549 32.2773 297.049 33.6518C295.707 30.0471 293.399 26.881 290.378 24.5C287.357 22.1189 283.74 20.6148 279.921 20.1522C276.102 19.6896 272.23 20.2863 268.728 21.877C265.226 23.4677 262.229 25.9912 260.065 29.1712C255.622 27.4309 250.89 26.5469 246.118 26.5658C232.129 26.5658 220.344 33.8289 216.876 43.6973H213.733V43.8918C203.868 44.2524 196 52.1865 196 61.9107C196 71.4075 203.508 79.1776 213.035 79.888C214.269 82.1058 216.028 83.987 218.158 85.3664C220.288 86.7458 222.724 87.5812 225.253 87.7994C227.781 88.0176 230.325 87.6118 232.66 86.6177C234.995 85.6235 237.05 84.0715 238.645 82.0977C241.422 85.3959 244.898 88.035 248.821 89.8239C252.744 91.6128 257.015 92.5067 261.327 92.4408C265.638 92.3749 269.88 91.3509 273.746 89.4429C277.613 87.5349 281.006 84.7907 283.681 81.4092C285.761 84.4779 288.588 86.9666 291.895 88.6408C295.203 90.3151 298.882 91.1199 302.586 90.9793C306.29 90.8387 309.898 89.7574 313.069 87.8372C316.24 85.9171 318.87 83.2213 320.711 80.0038C328.138 79.4574 333.987 73.3965 333.987 65.9935Z" fill="white"/>
<g clip-path="url(#clip1_176_180)">
<path d="M109.762 688.255L120.746 685.784L132.418 688.723C132.418 688.723 134.283 683.412 134.395 682.89C134.507 682.368 131.98 674.072 131.306 673.141C130.632 672.209 120.913 668.383 120.744 668.383C120.575 668.383 109.733 669.369 109.226 670.007C108.72 670.644 103.494 675.345 103.494 675.345C103.494 675.345 102.651 678.836 102.82 679.872C102.989 680.908 104.899 683.818 104.899 683.818L109.762 688.255Z" fill="#820001"/>
<path d="M31.4533 686.419L43.0134 685.473L54.2552 686.904L56.834 680.511C56.834 680.511 50.8512 670.806 46.8478 669.586C42.8445 668.366 30.7526 670.24 30.3311 671.632C29.9096 673.025 30.2048 679.596 30.2048 679.596L31.4533 686.419Z" fill="#820001"/>
<path d="M141.554 670.38C138.578 666.364 130.62 665.548 125.273 664.268C119.927 662.987 113.011 659.829 108.429 656.792C103.848 653.756 90.6002 645.825 71.4816 645.136C52.3629 644.447 34.7364 646.565 33.7262 647.192C32.716 647.818 25.3673 657.873 24.4016 659.925C23.4359 661.977 22.5556 664.435 22.5431 668.809C22.5342 671.407 22.0096 672.893 21.5916 673.672C21.2639 674.288 21.1509 675.001 21.2715 675.693L22.0932 680.667C22.2817 681.818 22.7739 682.892 23.5153 683.772C24.2568 684.652 25.2188 685.304 26.2957 685.655C27.5602 686.065 28.9012 686.407 29.8527 686.403C30.0021 686.403 30.5498 686.403 31.4533 686.427C31.4533 685.953 31.4533 685.484 31.4693 684.9C31.7219 678.738 36.4295 673.675 42.3945 673.42C48.6388 673.15 54.2854 678.103 54.2854 684.571C54.2854 685.407 54.2712 686.182 54.2463 686.912C72.5113 687.312 92.1173 687.865 109.762 688.262C109.73 687.356 109.715 686.375 109.722 685.308C109.765 679.132 114.327 673.898 120.29 673.442C126.682 672.953 132.562 677.972 132.562 684.571C132.562 686.146 132.515 687.522 132.425 688.731C133.801 688.674 136.871 688.418 138.516 688.179C144.883 687.261 145.808 684.533 145.986 682.24C146.164 679.947 144.526 674.394 141.554 670.38Z" fill="#D00001"/>
<path d="M130.349 679.409V679.128L139.452 678.897C140.694 678.865 141.923 678.62 143.087 678.171L145.315 677.313L145.41 677.576L143.183 678.435C141.991 678.894 140.732 679.142 139.461 679.17L130.349 679.409Z" fill="#850001"/>
<path d="M32.3195 676.209C31.3751 676.209 30.4823 676.139 29.9061 675.93C29.0169 675.606 28.2023 674.897 27.482 674.276C26.8062 673.69 26.1677 673.137 25.7035 673.137H21.4583V672.851H25.7071C26.2673 672.851 26.9111 673.402 27.6634 674.056C28.3659 674.666 29.1645 675.358 30.0039 675.663C31.6846 676.277 36.4064 675.628 36.458 675.623L36.4954 675.9C35.1104 676.086 33.7161 676.19 32.3195 676.209Z" fill="#850001"/>
<path d="M22.8261 660.064L116.612 663.125C116.612 663.125 128.173 665.82 139.377 668.513C145.173 669.908 143.201 671.23 143.201 671.23C143.201 671.23 34.5462 667.115 30.9253 667.115C27.3043 667.115 20.6101 667.115 20.6101 663.187C20.6101 659.26 22.8261 660.064 22.8261 660.064Z" fill="#ED2F30"/>
<path d="M108.253 662.772L116.299 662.965C113.252 661.646 110.313 660.072 107.514 658.258C106.176 657.373 104.508 656.348 102.534 655.284C103.982 657.227 105.251 659.305 106.324 661.492C106.501 661.867 106.775 662.185 107.115 662.411C107.455 662.637 107.849 662.762 108.253 662.772V662.772Z" fill="#49586B"/>
<path d="M98.6248 653.335C91.27 649.961 83.4263 647.865 75.4103 647.131C76.1697 649.787 78.1278 656.653 79.1718 660.474C79.2997 660.941 79.5692 661.354 79.9408 661.651C80.3124 661.949 80.7665 662.116 81.2366 662.127L102.063 662.625C102.232 662.628 102.399 662.586 102.548 662.504C102.697 662.421 102.823 662.3 102.914 662.152C103.004 662.005 103.057 661.835 103.066 661.661C103.075 661.486 103.041 661.312 102.966 661.155C101.716 658.583 99.9906 655.269 98.6248 653.335Z" fill="#49586B"/>
<path d="M45.7256 647.59C39.9117 648.009 35.7181 648.481 34.5532 648.748C33.1677 650.171 26.7901 658.835 25.9186 660.689L40.6658 661.042C41.0937 661.053 41.5117 660.907 41.8459 660.631C42.1801 660.355 42.409 659.965 42.4923 659.532C43.4225 654.856 45.0462 649.672 45.7256 647.59Z" fill="#49586B"/>
<path d="M48.6833 661.225L72.675 661.922C72.9219 661.928 73.1669 661.877 73.3926 661.773C73.6183 661.67 73.8189 661.516 73.9801 661.323C74.1413 661.129 74.2591 660.902 74.3249 660.656C74.3908 660.41 74.4031 660.152 74.361 659.901L72.1468 646.912L71.4194 646.881C68.9295 646.791 66.2618 646.747 63.4696 646.747C56.7114 646.747 55.1961 647.004 49.5476 647.342C47.9808 650.544 47.305 655.521 47.0151 659.322C46.9974 659.562 47.0271 659.802 47.1024 660.03C47.1778 660.257 47.2971 660.466 47.4532 660.644C47.6093 660.822 47.7989 660.966 48.0103 661.065C48.2218 661.165 48.4508 661.22 48.6833 661.225V661.225Z" fill="#49586B"/>
<path d="M33.2215 689.355C31.0181 683.86 33.5442 677.56 38.8637 675.284C44.1832 673.008 50.2818 675.617 52.4852 681.112C54.6886 686.607 52.1625 692.907 46.843 695.183C41.5235 697.459 35.4249 694.85 33.2215 689.355Z" fill="#3E454F"/>
<path d="M36.1872 688.086C34.6623 684.283 36.4105 679.923 40.0921 678.348C43.7737 676.772 47.9944 678.578 49.5193 682.381C51.0443 686.184 49.296 690.544 45.6145 692.119C41.9329 693.695 37.7122 691.889 36.1872 688.086Z" fill="#68798F"/>
<path d="M48.3455 685.233C48.3455 686.354 48.0235 687.451 47.4203 688.384C46.817 689.317 45.9596 690.044 44.9564 690.473C43.9532 690.903 42.8492 691.015 41.7841 690.797C40.7189 690.579 39.7403 690.039 38.972 689.246C38.2037 688.453 37.6802 687.443 37.4677 686.343C37.2552 685.243 37.3632 684.102 37.7781 683.065C38.1929 682.029 38.896 681.142 39.7985 680.518C40.7009 679.894 41.7622 679.561 42.8482 679.56C43.5699 679.559 44.2847 679.705 44.9518 679.989C45.6188 680.274 46.225 680.692 46.7355 681.219C47.2461 681.746 47.6511 682.371 47.9274 683.06C48.2036 683.749 48.3457 684.487 48.3455 685.233V685.233ZM45.8716 685.233C45.8719 684.617 45.6957 684.015 45.365 683.503C45.0344 682.991 44.5642 682.592 44.014 682.355C43.4637 682.119 42.858 682.057 42.2733 682.176C41.6887 682.295 41.1514 682.591 40.7292 683.025C40.3071 683.459 40.0191 684.013 39.9017 684.617C39.7842 685.22 39.8426 685.846 40.0693 686.416C40.296 686.985 40.681 687.472 41.1756 687.815C41.6702 688.159 42.2523 688.343 42.8482 688.345C43.2446 688.346 43.6375 688.266 44.0041 688.11C44.3708 687.955 44.7041 687.726 44.9849 687.437C45.2657 687.147 45.4886 686.804 45.6408 686.426C45.7929 686.048 45.8714 685.642 45.8716 685.233V685.233Z" fill="#C0C7D1"/>
<path d="M42.8553 686.063C42.4113 686.063 42.0514 685.691 42.0514 685.233C42.0514 684.774 42.4113 684.402 42.8553 684.402C43.2993 684.402 43.6592 684.774 43.6592 685.233C43.6592 685.691 43.2993 686.063 42.8553 686.063Z" fill="#EBEBEB"/>
<path d="M42.1741 683.904C42.1741 683.961 42.1579 684.016 42.1276 684.063C42.0973 684.109 42.0543 684.146 42.0039 684.167C41.9535 684.189 41.8981 684.195 41.8446 684.184C41.7912 684.173 41.742 684.146 41.7035 684.106C41.6649 684.066 41.6387 684.015 41.628 683.96C41.6174 683.905 41.6229 683.847 41.6437 683.795C41.6646 683.743 41.6999 683.699 41.7453 683.668C41.7906 683.636 41.8439 683.62 41.8984 683.62C41.9347 683.619 41.9706 683.627 42.0042 683.641C42.0377 683.655 42.0682 683.676 42.0939 683.702C42.1195 683.729 42.1398 683.76 42.1536 683.795C42.1673 683.83 42.1743 683.867 42.1741 683.904V683.904Z" fill="#EBEBEB"/>
<path d="M44.1216 683.904C44.1216 683.961 44.1054 684.016 44.0751 684.063C44.0448 684.109 44.0018 684.146 43.9514 684.167C43.9011 684.189 43.8456 684.195 43.7922 684.184C43.7387 684.173 43.6896 684.146 43.651 684.106C43.6125 684.066 43.5862 684.015 43.5756 683.96C43.5649 683.905 43.5704 683.847 43.5913 683.795C43.6121 683.743 43.6474 683.699 43.6928 683.668C43.7381 683.636 43.7914 683.62 43.8459 683.62C43.919 683.62 43.9891 683.65 44.0408 683.703C44.0925 683.756 44.1216 683.829 44.1216 683.904V683.904Z" fill="#EBEBEB"/>
<path d="M43.1167 686.822C43.1167 686.878 43.1003 686.934 43.0697 686.981C43.0391 687.028 42.9956 687.064 42.9448 687.085C42.894 687.107 42.8382 687.112 42.7846 687.1C42.7309 687.089 42.6818 687.061 42.6436 687.02C42.6053 686.98 42.5796 686.928 42.5698 686.873C42.56 686.817 42.5665 686.759 42.5884 686.708C42.6104 686.656 42.6468 686.612 42.6931 686.581C42.7394 686.551 42.7933 686.535 42.8481 686.537C42.9199 686.539 42.9879 686.57 43.038 686.623C43.0881 686.677 43.1163 686.748 43.1167 686.822V686.822Z" fill="#EBEBEB"/>
<path d="M41.678 685.729C41.678 685.785 41.6618 685.84 41.6315 685.887C41.6012 685.934 41.5582 685.97 41.5078 685.992C41.4574 686.013 41.402 686.019 41.3485 686.008C41.2951 685.997 41.2459 685.97 41.2074 685.93C41.1688 685.89 41.1426 685.839 41.1319 685.784C41.1213 685.729 41.1268 685.672 41.1476 685.62C41.1685 685.568 41.2038 685.523 41.2492 685.492C41.2945 685.461 41.3478 685.444 41.4023 685.444C41.4385 685.444 41.4744 685.451 41.5078 685.466C41.5412 685.48 41.5716 685.501 41.5972 685.527C41.6228 685.554 41.6431 685.585 41.657 685.62C41.6708 685.654 41.678 685.691 41.678 685.729V685.729Z" fill="#EBEBEB"/>
<path d="M44.5857 685.74C44.5857 685.796 44.5695 685.851 44.5391 685.898C44.5087 685.945 44.4656 685.981 44.4151 686.003C44.3646 686.024 44.3091 686.03 44.2556 686.019C44.2021 686.008 44.153 685.98 44.1145 685.94C44.076 685.9 44.0499 685.849 44.0395 685.794C44.029 685.739 44.0347 685.681 44.0559 685.629C44.077 685.577 44.1126 685.533 44.1582 685.502C44.2037 685.471 44.2572 685.454 44.3118 685.455C44.3479 685.455 44.3837 685.462 44.417 685.477C44.4504 685.491 44.4806 685.512 44.5061 685.538C44.5316 685.565 44.5517 685.596 44.5653 685.631C44.579 685.665 44.5859 685.702 44.5857 685.74V685.74Z" fill="#EBEBEB"/>
<path d="M50.4636 685.233C50.4636 686.787 50.0174 688.307 49.1815 689.599C48.3455 690.892 47.1573 691.9 45.767 692.495C44.3767 693.09 42.8469 693.246 41.3708 692.943C39.8947 692.64 38.5387 691.892 37.4742 690.793C36.4097 689.694 35.6845 688.294 35.3903 686.77C35.096 685.245 35.246 683.665 35.8211 682.228C36.3963 680.792 37.3709 679.564 38.6217 678.699C39.8725 677.835 41.3433 677.373 42.8482 677.372C43.848 677.371 44.8382 677.574 45.7621 677.968C46.686 678.363 47.5256 678.942 48.2328 679.672C48.94 680.402 49.501 681.269 49.8838 682.223C50.2666 683.177 50.4636 684.2 50.4636 685.233V685.233ZM49.9425 685.233C49.9429 683.784 49.5275 682.369 48.749 681.164C47.9705 679.96 46.8638 679.021 45.5688 678.466C44.2738 677.912 42.8487 677.766 41.4736 678.048C40.0985 678.33 38.8351 679.027 37.8433 680.05C36.8515 681.074 36.1758 682.378 35.9015 683.798C35.6272 685.218 35.7667 686.691 36.3024 688.029C36.8381 689.367 37.7459 690.511 38.911 691.317C40.0761 692.122 41.4462 692.552 42.8482 692.553C43.7795 692.554 44.7018 692.366 45.5625 691.998C46.4232 691.631 47.2053 691.092 47.8642 690.412C48.5231 689.732 49.0458 688.925 49.4024 688.036C49.759 687.147 49.9425 686.195 49.9425 685.233V685.233Z" fill="#C0C7D1"/>
<path d="M118.73 695.715C113.126 694.348 109.656 688.548 110.978 682.76C112.301 676.971 117.916 673.386 123.52 674.752C129.124 676.119 132.594 681.919 131.272 687.707C129.949 693.496 124.334 697.081 118.73 695.715Z" fill="#3E454F"/>
<path d="M119.468 692.487C115.589 691.542 113.187 687.528 114.103 683.521C115.018 679.515 118.904 677.034 122.782 677.98C126.661 678.925 129.063 682.939 128.147 686.946C127.232 690.952 123.346 693.433 119.468 692.487Z" fill="#68798F"/>
<path d="M126.689 685.233C126.689 686.37 126.363 687.482 125.751 688.427C125.139 689.373 124.27 690.11 123.252 690.545C122.235 690.98 121.116 691.094 120.036 690.872C118.956 690.65 117.964 690.102 117.186 689.298C116.407 688.494 115.877 687.469 115.663 686.353C115.448 685.238 115.559 684.081 115.98 683.031C116.402 681.98 117.116 681.082 118.031 680.451C118.947 679.819 120.023 679.482 121.124 679.482C121.855 679.482 122.579 679.631 123.254 679.92C123.93 680.209 124.543 680.633 125.06 681.167C125.577 681.701 125.987 682.335 126.266 683.032C126.546 683.73 126.689 684.478 126.689 685.233V685.233ZM124.178 685.233C124.178 684.608 123.999 683.998 123.664 683.478C123.328 682.959 122.851 682.554 122.293 682.315C121.734 682.076 121.12 682.013 120.527 682.135C119.934 682.257 119.389 682.557 118.962 682.999C118.535 683.441 118.244 684.003 118.126 684.615C118.008 685.228 118.069 685.863 118.3 686.439C118.532 687.016 118.923 687.509 119.426 687.856C119.929 688.202 120.52 688.387 121.124 688.387C121.934 688.386 122.711 688.054 123.283 687.462C123.856 686.871 124.178 686.069 124.178 685.233V685.233Z" fill="#C0C7D1"/>
<path d="M121.928 685.233C121.928 685.397 121.88 685.557 121.792 685.693C121.703 685.83 121.578 685.936 121.431 685.998C121.284 686.061 121.122 686.077 120.966 686.045C120.811 686.013 120.668 685.933 120.555 685.817C120.443 685.701 120.367 685.553 120.336 685.392C120.305 685.231 120.321 685.064 120.382 684.913C120.443 684.761 120.546 684.631 120.678 684.54C120.81 684.449 120.965 684.4 121.124 684.4C121.23 684.4 121.335 684.422 121.432 684.464C121.53 684.506 121.619 684.567 121.693 684.644C121.768 684.722 121.827 684.813 121.868 684.914C121.908 685.015 121.928 685.123 121.928 685.233V685.233Z" fill="#EBEBEB"/>
<path d="M120.443 683.904C120.443 683.961 120.427 684.016 120.397 684.063C120.366 684.11 120.323 684.146 120.273 684.168C120.222 684.189 120.167 684.195 120.113 684.184C120.06 684.172 120.01 684.145 119.972 684.105C119.934 684.065 119.907 684.014 119.897 683.959C119.887 683.903 119.892 683.846 119.913 683.794C119.935 683.742 119.97 683.698 120.016 683.667C120.061 683.636 120.115 683.619 120.169 683.62C120.205 683.62 120.241 683.627 120.275 683.641C120.308 683.656 120.338 683.677 120.364 683.703C120.389 683.73 120.409 683.761 120.423 683.796C120.437 683.83 120.443 683.867 120.443 683.904V683.904Z" fill="#EBEBEB"/>
<path d="M122.391 683.904C122.391 683.961 122.374 684.016 122.344 684.063C122.314 684.109 122.271 684.146 122.22 684.167C122.17 684.189 122.115 684.195 122.061 684.184C122.008 684.173 121.959 684.146 121.92 684.106C121.881 684.066 121.855 684.015 121.845 683.96C121.834 683.905 121.839 683.847 121.86 683.795C121.881 683.743 121.916 683.699 121.962 683.668C122.007 683.636 122.06 683.62 122.115 683.62C122.151 683.619 122.187 683.627 122.221 683.641C122.254 683.655 122.285 683.676 122.31 683.702C122.336 683.729 122.356 683.76 122.37 683.795C122.384 683.83 122.391 683.867 122.391 683.904V683.904Z" fill="#EBEBEB"/>
<path d="M121.386 686.822C121.386 686.878 121.37 686.932 121.34 686.979C121.31 687.026 121.267 687.062 121.218 687.084C121.168 687.106 121.113 687.112 121.059 687.102C121.006 687.091 120.957 687.065 120.918 687.026C120.879 686.987 120.852 686.937 120.841 686.883C120.829 686.828 120.833 686.771 120.853 686.719C120.872 686.667 120.906 686.622 120.951 686.589C120.995 686.557 121.047 686.539 121.101 686.537C121.138 686.536 121.175 686.542 121.209 686.556C121.244 686.57 121.275 686.591 121.302 686.617C121.328 686.644 121.35 686.675 121.364 686.711C121.378 686.746 121.386 686.784 121.386 686.822V686.822Z" fill="#EBEBEB"/>
<path d="M119.947 685.729C119.947 685.785 119.931 685.84 119.901 685.887C119.87 685.934 119.827 685.97 119.777 685.992C119.726 686.013 119.671 686.019 119.618 686.008C119.564 685.997 119.515 685.97 119.476 685.93C119.438 685.89 119.412 685.839 119.401 685.784C119.39 685.729 119.396 685.672 119.417 685.62C119.438 685.568 119.473 685.523 119.518 685.492C119.564 685.461 119.617 685.444 119.671 685.444C119.708 685.444 119.744 685.451 119.777 685.465C119.811 685.479 119.841 685.5 119.867 685.527C119.892 685.553 119.913 685.585 119.927 685.619C119.94 685.654 119.947 685.691 119.947 685.729V685.729Z" fill="#EBEBEB"/>
<path d="M122.857 685.74C122.857 685.796 122.84 685.851 122.81 685.898C122.78 685.945 122.737 685.981 122.686 686.003C122.636 686.024 122.581 686.03 122.527 686.019C122.474 686.008 122.425 685.981 122.386 685.941C122.347 685.901 122.321 685.85 122.311 685.795C122.3 685.74 122.305 685.683 122.326 685.631C122.347 685.579 122.382 685.534 122.428 685.503C122.473 685.472 122.526 685.455 122.581 685.455C122.617 685.455 122.653 685.462 122.687 685.476C122.72 685.49 122.751 685.511 122.776 685.538C122.802 685.564 122.822 685.596 122.836 685.63C122.85 685.665 122.857 685.702 122.857 685.74V685.74Z" fill="#EBEBEB"/>
<path d="M128.733 685.233C128.732 686.787 128.286 688.306 127.45 689.598C126.613 690.891 125.425 691.898 124.035 692.492C122.644 693.087 121.115 693.242 119.639 692.939C118.163 692.635 116.808 691.887 115.744 690.787C114.68 689.688 113.955 688.288 113.662 686.763C113.369 685.239 113.519 683.659 114.095 682.223C114.671 680.787 115.646 679.559 116.898 678.696C118.149 677.832 119.62 677.372 121.124 677.372C122.124 677.372 123.113 677.575 124.036 677.97C124.96 678.365 125.798 678.944 126.505 679.674C127.211 680.404 127.772 681.271 128.154 682.224C128.536 683.178 128.733 684.2 128.733 685.233V685.233ZM128.212 685.233C128.212 683.784 127.796 682.368 127.018 681.164C126.239 679.959 125.132 679.02 123.836 678.466C122.541 677.911 121.115 677.766 119.74 678.049C118.365 678.331 117.101 679.029 116.11 680.053C115.118 681.077 114.443 682.382 114.17 683.803C113.896 685.223 114.037 686.696 114.573 688.034C115.11 689.372 116.019 690.516 117.185 691.32C118.351 692.125 119.722 692.554 121.124 692.553C122.055 692.554 122.977 692.365 123.838 691.997C124.698 691.63 125.48 691.09 126.138 690.411C126.797 689.731 127.319 688.923 127.675 688.035C128.032 687.147 128.215 686.194 128.215 685.233H128.212Z" fill="#C0C7D1"/>
<path d="M141.865 670.025C139.915 668.491 137.58 667.565 135.137 667.356C133.554 667.218 131.834 667.104 131.461 667.212C130.735 667.422 133.359 669.808 135.226 671.858C137.093 673.909 139.573 673.576 142.03 673.648C144.488 673.719 144.892 672.83 144.892 672.83C143.958 671.813 142.945 670.874 141.865 670.025V670.025Z" fill="#C7E4FC"/>
<path d="M144.056 682.703C144.056 682.703 143.748 683.621 142.96 683.954C142.173 684.286 139.519 684.321 139.519 684.321C139.152 683.413 138.742 682.525 138.288 681.659C137.73 680.667 138.788 680.21 139.48 680.23C140.172 680.25 142.621 680.857 144.056 682.703Z" fill="#F00001"/>
<path d="M132.542 666.004C132.626 666.004 136.988 671.748 137.682 672.801C138.376 673.854 137.541 674.511 137.008 674.802C136.474 675.092 129.844 668.699 129.789 668.528C129.734 668.357 130.94 666.961 130.94 666.961L132.542 666.004Z" fill="#ED9600"/>
<path d="M101.787 658.264C101.14 657.086 100.473 655.966 99.788 654.957C93.0724 651.906 82.5083 649.089 75.1809 648.259C75.5971 649.714 76.4614 651.614 77.372 653.568C85.6072 654.538 93.7659 656.107 101.787 658.264V658.264Z" fill="#6A809C"/>
<path d="M43.9987 652.899C44.8008 651.283 45.5584 649.819 45.9124 648.691C41.3061 649.047 34.3807 649.589 33.1073 649.822C32.355 650.669 30.7455 652.646 29.1306 654.737C32.6396 654.14 37.7242 653.416 43.9987 652.899Z" fill="#6A809C"/>
<path d="M73.1267 653.113L72.9489 647.912C70.4999 647.823 66.212 647.785 63.4696 647.785C56.256 647.785 53.2024 648.084 48.6833 648.347C48.1166 649.734 47.6881 651.177 47.4045 652.653C56.0853 652.097 61.5043 652.001 73.1267 653.113Z" fill="#6A809C"/>
<path d="M105.586 683.272L55.2548 680.087L55.6105 681.23C55.8697 682.057 56.3738 682.779 57.0515 683.294C57.7293 683.809 58.5466 684.091 59.388 684.101L102.329 684.582C103.526 684.596 104.681 684.136 105.559 683.296L105.586 683.272Z" fill="#ED2F30"/>
<path d="M106.471 686.588L55.1569 685.334V685.196C55.1569 684.986 55.1569 684.777 55.1569 684.564C55.1569 678.676 50.6947 673.541 44.7777 672.643L44.6657 672.625V672.509C44.4558 667.286 44.4273 663.338 44.5821 660.772C44.9378 655.04 46.8941 649.014 47.7282 646.697L47.7584 646.611H47.8474C52.7542 646.286 55.1854 645.904 63.4695 645.904C66.2689 645.904 68.9526 645.95 71.4478 646.04C81.3146 646.375 91.0151 648.758 99.9711 653.048L99.8572 653.302C90.9343 649.027 81.2694 646.653 71.4389 646.321C68.949 646.231 66.2653 646.185 63.4695 646.185C55.2423 646.185 52.8573 646.561 47.9523 646.879C47.1093 649.251 45.1939 655.163 44.8542 660.788C44.6995 663.327 44.7261 667.227 44.9324 672.382C47.794 672.84 50.4191 674.292 52.3754 676.497C54.331 678.699 55.4211 681.576 55.4326 684.564C55.4326 684.731 55.4326 684.896 55.4326 685.06L106.475 686.309L106.471 686.588Z" fill="#850001"/>
<path d="M77.5925 685.822H77.3204C77.3204 685.617 77.3986 665.177 76.8188 662.524C76.2391 659.871 73.4753 646.525 73.4397 646.391L73.7065 646.332C73.7332 646.466 76.4934 659.796 77.0767 662.463C77.66 665.131 77.596 684.979 77.5925 685.822Z" fill="#850001"/>
<path d="M106.553 686.546H106.281C106.281 686.362 106.349 668.484 106.103 666.426C105.908 664.797 105.629 664.207 104.883 662.631C104.681 662.203 104.451 661.712 104.172 661.115C102.884 658.284 99.7471 653.261 99.7151 653.215L99.9374 653.057C99.9694 653.109 103.117 658.148 104.412 660.996C104.686 661.594 104.915 662.079 105.123 662.507C105.883 664.115 106.167 664.712 106.368 666.391C106.621 668.465 106.557 685.809 106.553 686.546Z" fill="#850001"/>
<path d="M83.7728 667.251H81.4145C80.7908 667.251 80.2852 666.729 80.2852 666.084V666.033C80.2852 665.389 80.7908 664.866 81.4145 664.866H83.7728C84.3965 664.866 84.9021 665.389 84.9021 666.033V666.084C84.9021 666.729 84.3965 667.251 83.7728 667.251Z" fill="#960001"/>
<path d="M84.9856 666.204H80.2157C80.0046 666.204 79.8334 666.027 79.8334 665.809V665.792C79.8334 665.574 80.0046 665.397 80.2157 665.397H84.9856C85.1968 665.397 85.368 665.574 85.368 665.792V665.809C85.368 666.027 85.1968 666.204 84.9856 666.204Z" fill="#FFABAC"/>
<path d="M51.4454 667.251H49.0871C48.4634 667.251 47.9578 666.729 47.9578 666.084V666.033C47.9578 665.389 48.4634 664.866 49.0871 664.866H51.4454C52.0691 664.866 52.5747 665.389 52.5747 666.033V666.084C52.5747 666.729 52.0691 667.251 51.4454 667.251Z" fill="#960001"/>
<path d="M52.6103 666.204H47.8404C47.6292 666.204 47.458 666.027 47.458 665.809V665.792C47.458 665.574 47.6292 665.397 47.8404 665.397H52.6103C52.8214 665.397 52.9926 665.574 52.9926 665.792V665.809C52.9926 666.027 52.8214 666.204 52.6103 666.204Z" fill="#FFABAC"/>
<path d="M23.7384 661.078L24.8055 661.495C25.1159 661.617 25.3934 661.814 25.6145 662.07C25.8356 662.326 25.9936 662.633 26.0753 662.965C26.3273 663.951 26.4687 664.963 26.4968 665.982C26.4968 666.998 26.4844 668.522 26.4719 669.705C26.4698 669.935 26.4169 670.162 26.3172 670.368C26.2175 670.573 26.0736 670.753 25.8966 670.892C25.7195 671.032 25.514 671.127 25.2956 671.172C25.0772 671.217 24.8518 671.21 24.6365 671.151C23.4306 670.802 22.2625 670.325 21.1507 669.729C17.672 667.905 23.7384 661.078 23.7384 661.078Z" fill="#8C0000"/>
<path d="M19.9999 664.58L26.0876 667.033C26.0876 666.654 26.0876 666.298 26.0876 665.987C26.0876 665.759 26.0752 665.526 26.0556 665.291L20.8571 663.289C20.5503 663.704 20.2642 664.135 19.9999 664.58V664.58Z" fill="#FA7D00"/>
<path d="M25.9524 664.42C25.8741 663.922 25.7745 663.454 25.6803 663.074C25.6159 662.806 25.4897 662.558 25.3126 662.352C25.1354 662.146 24.9126 661.987 24.663 661.889L22.6177 661.119C22.2869 661.505 21.8494 662.014 21.3977 662.589L25.9524 664.42Z" fill="#FA7D00"/>
<path d="M143.672 682.236C143.672 682.236 143.364 683.155 142.576 683.487C141.789 683.82 139.133 683.844 139.133 683.844C138.767 682.938 138.357 682.053 137.904 681.191C137.346 680.197 138.404 679.741 139.096 679.76C139.788 679.778 142.23 680.388 143.672 682.236Z" fill="#960001"/>
<path d="M109.746 664.093L108.207 662.864L106.503 662.851L106.82 664.211C106.82 664.211 106.955 664.44 108.111 664.534C109.267 664.628 109.746 664.093 109.746 664.093Z" fill="#D10000"/>
<path d="M108.438 663.187C108.438 663.187 103.477 662.487 102.964 662.357C102.452 662.226 103.42 659.401 103.955 659.085C104.49 658.769 106.057 658.791 106.61 659.109C107.163 659.427 108.296 660.689 108.527 661.403C108.759 662.118 108.997 663.026 108.438 663.187Z" fill="#FF5456"/>
</g>
<g clip-path="url(#clip2_176_180)">
<path d="M325.733 753.331L329.084 749.967H352.316C356.002 749.967 358.906 752.77 358.906 752.77L325.733 753.331Z" fill="#353C57"/>
<path d="M287.304 750.983L286.928 750.826C285.41 750.192 283.667 750.915 283.036 752.439L280.773 757.905C280.142 759.43 280.861 761.18 282.38 761.814L282.755 761.971C284.274 762.604 286.017 761.882 286.648 760.357L288.91 754.891C289.542 753.366 288.822 751.617 287.304 750.983Z" fill="#DBC17B"/>
<path d="M287.283 744.065H286.948C285.59 744.065 284.49 745.17 284.49 746.533V749.635C284.49 750.997 285.59 752.102 286.948 752.102H287.283C288.64 752.102 289.74 750.997 289.74 749.635V746.533C289.74 745.17 288.64 744.065 287.283 744.065Z" fill="#DBC17B"/>
<path d="M321.693 750.488L321.317 750.331C319.799 749.697 318.056 750.42 317.425 751.945L315.163 757.411C314.532 758.936 315.252 760.686 316.771 761.32L317.146 761.476C318.665 762.11 320.408 761.387 321.039 759.862L323.3 754.396C323.931 752.871 323.212 751.121 321.693 750.488Z" fill="#DBC17B"/>
<path d="M321.66 743.587H321.325C319.968 743.587 318.868 744.692 318.868 746.055V749.157C318.868 750.519 319.968 751.624 321.325 751.624H321.66C323.017 751.624 324.118 750.519 324.118 749.157V746.055C324.118 744.692 323.017 743.587 321.66 743.587Z" fill="#DBC17B"/>
<path d="M204.655 779.453L223.978 780.126L241.961 778.444C241.961 778.444 242.296 763.752 237.493 760.612C232.69 757.472 221.186 754.107 213.702 759.042C206.218 763.976 204.655 779.453 204.655 779.453Z" fill="#333333"/>
<path d="M319.925 778.332L339.695 779.678L358.46 775.864C358.46 775.864 360.805 765.659 351.199 760.724C341.593 755.789 328.972 750.294 323.164 759.266C317.356 768.238 319.925 778.332 319.925 778.332Z" fill="#333333"/>
<path d="M348.086 786.132C353.224 780.972 353.224 772.607 348.086 767.448C342.947 762.289 334.616 762.289 329.478 767.448C324.34 772.607 324.34 780.972 329.478 786.132C334.616 791.291 342.947 791.291 348.086 786.132Z" fill="#3E454F"/>
<path d="M338.781 785.931C343.81 785.931 347.887 781.838 347.887 776.789C347.887 771.739 343.81 767.646 338.781 767.646C333.752 767.646 329.676 771.739 329.676 776.789C329.676 781.838 333.752 785.931 338.781 785.931Z" fill="#4C5461"/>
<path d="M338.783 768.79C337.207 768.79 335.666 769.258 334.356 770.137C333.045 771.016 332.023 772.266 331.42 773.728C330.816 775.189 330.658 776.798 330.965 778.35C331.273 779.903 332.031 781.328 333.146 782.448C334.26 783.567 335.68 784.329 337.226 784.638C338.771 784.947 340.374 784.788 341.83 784.183C343.286 783.577 344.531 782.552 345.406 781.236C346.282 779.92 346.749 778.373 346.749 776.791C346.749 774.669 345.91 772.635 344.416 771.134C342.922 769.634 340.896 768.791 338.783 768.79V768.79ZM338.783 781.18C337.918 781.181 337.072 780.924 336.352 780.441C335.633 779.959 335.072 779.273 334.74 778.47C334.409 777.668 334.322 776.785 334.491 775.932C334.66 775.08 335.076 774.298 335.688 773.683C336.3 773.069 337.08 772.65 337.928 772.481C338.777 772.312 339.657 772.399 340.456 772.732C341.255 773.064 341.938 773.628 342.419 774.35C342.899 775.073 343.155 775.922 343.155 776.791C343.154 777.955 342.694 779.071 341.874 779.894C341.054 780.717 339.942 781.18 338.783 781.18V781.18Z" fill="#D5DDE8"/>
<path d="M339.797 776.791C339.797 776.993 339.738 777.19 339.626 777.358C339.514 777.526 339.355 777.657 339.17 777.734C338.984 777.811 338.779 777.831 338.582 777.792C338.385 777.752 338.204 777.655 338.062 777.512C337.92 777.369 337.823 777.187 337.784 776.989C337.745 776.79 337.765 776.585 337.843 776.399C337.92 776.212 338.051 776.053 338.218 775.941C338.385 775.829 338.582 775.77 338.783 775.77C338.917 775.77 339.049 775.797 339.172 775.848C339.295 775.899 339.407 775.975 339.501 776.069C339.595 776.164 339.67 776.277 339.721 776.4C339.772 776.524 339.798 776.657 339.797 776.791V776.791Z" fill="#EBEBEB"/>
<path d="M337.577 775.508C337.768 775.508 337.923 775.352 337.923 775.16C337.923 774.968 337.768 774.812 337.577 774.812C337.386 774.812 337.231 774.968 337.231 775.16C337.231 775.352 337.386 775.508 337.577 775.508Z" fill="#EBEBEB"/>
<path d="M340.381 775.16C340.381 775.23 340.361 775.298 340.323 775.355C340.285 775.413 340.23 775.458 340.166 775.485C340.103 775.512 340.032 775.519 339.965 775.506C339.897 775.492 339.835 775.459 339.786 775.41C339.737 775.361 339.704 775.298 339.69 775.23C339.677 775.162 339.684 775.092 339.711 775.027C339.737 774.963 339.782 774.909 339.84 774.871C339.898 774.832 339.965 774.812 340.034 774.813C340.08 774.813 340.125 774.822 340.167 774.839C340.209 774.856 340.247 774.882 340.279 774.914C340.311 774.947 340.337 774.985 340.354 775.027C340.372 775.069 340.381 775.115 340.381 775.16V775.16Z" fill="#EBEBEB"/>
<path d="M339.112 778.74C339.112 778.809 339.092 778.877 339.054 778.935C339.016 778.993 338.961 779.038 338.898 779.065C338.834 779.092 338.764 779.099 338.696 779.086C338.628 779.072 338.566 779.039 338.517 778.99C338.468 778.941 338.435 778.878 338.421 778.81C338.408 778.742 338.415 778.671 338.442 778.607C338.468 778.543 338.513 778.489 338.571 778.45C338.629 778.412 338.696 778.392 338.765 778.392C338.811 778.392 338.856 778.401 338.898 778.419C338.94 778.436 338.978 778.462 339.01 778.494C339.042 778.526 339.068 778.565 339.085 778.607C339.103 778.649 339.112 778.694 339.112 778.74V778.74Z" fill="#EBEBEB"/>
<path d="M337.296 777.401C337.295 777.47 337.274 777.537 337.236 777.593C337.198 777.65 337.144 777.695 337.08 777.721C337.017 777.747 336.947 777.753 336.88 777.739C336.813 777.726 336.752 777.692 336.704 777.644C336.655 777.595 336.623 777.533 336.61 777.466C336.596 777.398 336.603 777.329 336.63 777.265C336.656 777.202 336.7 777.148 336.757 777.109C336.814 777.071 336.881 777.051 336.949 777.051C336.995 777.051 337.04 777.06 337.082 777.078C337.124 777.095 337.163 777.121 337.195 777.154C337.227 777.186 337.253 777.225 337.27 777.267C337.287 777.31 337.296 777.355 337.296 777.401Z" fill="#EBEBEB"/>
<path d="M340.964 777.414C340.964 777.484 340.943 777.551 340.905 777.609C340.866 777.667 340.812 777.711 340.748 777.738C340.684 777.764 340.614 777.771 340.546 777.757C340.479 777.744 340.417 777.71 340.368 777.661C340.319 777.612 340.286 777.549 340.273 777.481C340.26 777.413 340.267 777.343 340.294 777.279C340.321 777.215 340.366 777.161 340.423 777.122C340.481 777.084 340.548 777.064 340.617 777.064C340.663 777.064 340.708 777.074 340.75 777.091C340.793 777.109 340.831 777.135 340.863 777.167C340.895 777.2 340.921 777.238 340.938 777.281C340.955 777.323 340.964 777.369 340.964 777.414V777.414Z" fill="#EBEBEB"/>
<path d="M338.783 767.148C336.883 767.148 335.026 767.714 333.447 768.774C331.867 769.833 330.636 771.34 329.909 773.102C329.182 774.865 328.991 776.804 329.362 778.675C329.733 780.546 330.648 782.264 331.991 783.613C333.334 784.962 335.046 785.881 336.909 786.253C338.773 786.625 340.704 786.434 342.459 785.704C344.215 784.974 345.715 783.738 346.77 782.152C347.826 780.566 348.389 778.701 348.389 776.793C348.389 775.527 348.141 774.272 347.658 773.102C347.175 771.932 346.468 770.869 345.576 769.973C344.684 769.078 343.625 768.367 342.459 767.882C341.294 767.398 340.045 767.148 338.783 767.148V767.148ZM338.783 785.765C337.016 785.765 335.288 785.239 333.819 784.253C332.349 783.267 331.204 781.866 330.528 780.227C329.852 778.587 329.675 776.783 330.019 775.043C330.364 773.302 331.215 771.704 332.465 770.449C333.715 769.194 335.307 768.34 337.04 767.993C338.773 767.647 340.57 767.825 342.203 768.504C343.836 769.183 345.231 770.333 346.213 771.809C347.195 773.284 347.719 775.019 347.719 776.793C347.72 777.972 347.489 779.139 347.041 780.229C346.592 781.318 345.934 782.308 345.104 783.142C344.274 783.976 343.289 784.637 342.204 785.088C341.12 785.54 339.957 785.772 338.783 785.772V785.765Z" fill="#D5DDE8"/>
<path d="M327.279 777.305H327.247C327.126 777.301 327.007 777.274 326.896 777.224C326.785 777.174 326.686 777.102 326.603 777.013C326.52 776.925 326.455 776.82 326.412 776.706C326.369 776.592 326.35 776.471 326.354 776.349C326.469 773.165 327.792 770.147 330.054 767.912C332.315 765.677 335.342 764.396 338.515 764.332C341.687 764.267 344.763 765.424 347.113 767.565C349.462 769.705 350.907 772.668 351.15 775.844C351.169 776.089 351.089 776.331 350.93 776.517C350.771 776.703 350.545 776.817 350.301 776.836C350.058 776.854 349.817 776.775 349.632 776.615C349.447 776.455 349.332 776.228 349.314 775.983C349.112 773.274 347.883 770.746 345.881 768.919C343.88 767.091 341.256 766.103 338.551 766.158C335.846 766.214 333.265 767.307 331.339 769.215C329.412 771.123 328.287 773.699 328.195 776.414C328.186 776.653 328.086 776.878 327.915 777.044C327.744 777.21 327.516 777.304 327.279 777.305V777.305Z" fill="#565F6E"/>
<path d="M232.537 786.13C237.675 780.97 237.675 772.605 232.537 767.446C227.398 762.287 219.067 762.287 213.929 767.446C208.79 772.605 208.79 780.97 213.929 786.13C219.067 791.289 227.398 791.289 232.537 786.13Z" fill="#3E454F"/>
<path d="M223.232 785.931C228.261 785.931 232.337 781.838 232.337 776.789C232.337 771.739 228.261 767.646 223.232 767.646C218.203 767.646 214.126 771.739 214.126 776.789C214.126 781.838 218.203 785.931 223.232 785.931Z" fill="#4C5461"/>
<path d="M223.236 768.79C221.66 768.79 220.119 769.258 218.809 770.137C217.498 771.016 216.476 772.266 215.873 773.728C215.269 775.189 215.111 776.798 215.419 778.35C215.726 779.903 216.485 781.328 217.599 782.448C218.713 783.567 220.133 784.329 221.679 784.638C223.225 784.947 224.827 784.788 226.283 784.183C227.739 783.577 228.984 782.552 229.859 781.236C230.735 779.92 231.203 778.373 231.203 776.791C231.203 774.669 230.363 772.635 228.869 771.134C227.376 769.634 225.349 768.791 223.236 768.79V768.79ZM223.236 781.18C222.371 781.181 221.525 780.924 220.805 780.441C220.086 779.959 219.525 779.273 219.193 778.47C218.862 777.668 218.775 776.785 218.944 775.932C219.113 775.08 219.529 774.298 220.141 773.683C220.753 773.069 221.533 772.65 222.381 772.481C223.23 772.312 224.11 772.399 224.909 772.732C225.708 773.064 226.391 773.628 226.872 774.35C227.352 775.073 227.609 775.922 227.608 776.791C227.608 777.955 227.147 779.071 226.327 779.894C225.507 780.717 224.396 781.18 223.236 781.18V781.18Z" fill="#D5DDE8"/>
<path d="M224.248 776.791C224.248 776.993 224.189 777.19 224.077 777.358C223.965 777.526 223.806 777.657 223.62 777.734C223.434 777.811 223.23 777.831 223.033 777.792C222.836 777.752 222.654 777.655 222.512 777.512C222.37 777.369 222.274 777.187 222.235 776.989C222.196 776.79 222.216 776.585 222.293 776.399C222.371 776.212 222.501 776.053 222.669 775.941C222.836 775.829 223.033 775.77 223.234 775.77C223.367 775.77 223.5 775.797 223.623 775.848C223.746 775.899 223.858 775.975 223.952 776.069C224.046 776.164 224.121 776.277 224.172 776.4C224.223 776.524 224.249 776.657 224.248 776.791V776.791Z" fill="#EBEBEB"/>
<path d="M222.028 775.508C222.219 775.508 222.374 775.352 222.374 775.16C222.374 774.968 222.219 774.812 222.028 774.812C221.837 774.812 221.682 774.968 221.682 775.16C221.682 775.352 221.837 775.508 222.028 775.508Z" fill="#EBEBEB"/>
<path d="M224.831 775.16C224.832 775.23 224.812 775.298 224.774 775.355C224.735 775.413 224.681 775.458 224.617 775.485C224.554 775.512 224.483 775.519 224.415 775.506C224.348 775.492 224.285 775.459 224.236 775.41C224.188 775.361 224.154 775.298 224.141 775.23C224.128 775.162 224.135 775.092 224.161 775.027C224.188 774.963 224.233 774.909 224.291 774.871C224.348 774.832 224.416 774.812 224.485 774.813C224.531 774.813 224.576 774.822 224.618 774.839C224.66 774.856 224.698 774.882 224.73 774.914C224.762 774.947 224.788 774.985 224.805 775.027C224.822 775.069 224.831 775.115 224.831 775.16V775.16Z" fill="#EBEBEB"/>
<path d="M223.562 778.74C223.563 778.809 223.543 778.877 223.505 778.935C223.467 778.993 223.412 779.038 223.348 779.065C223.285 779.092 223.214 779.099 223.147 779.086C223.079 779.072 223.016 779.039 222.968 778.99C222.919 778.941 222.885 778.878 222.872 778.81C222.859 778.742 222.866 778.671 222.892 778.607C222.919 778.543 222.964 778.489 223.022 778.45C223.079 778.412 223.147 778.392 223.216 778.392C223.262 778.392 223.307 778.401 223.349 778.419C223.391 778.436 223.429 778.462 223.461 778.494C223.493 778.526 223.519 778.565 223.536 778.607C223.554 778.649 223.562 778.694 223.562 778.74V778.74Z" fill="#EBEBEB"/>
<path d="M221.746 777.401C221.746 777.47 221.725 777.537 221.687 777.593C221.649 777.65 221.594 777.695 221.531 777.721C221.468 777.747 221.398 777.753 221.331 777.739C221.264 777.726 221.203 777.692 221.154 777.644C221.106 777.595 221.074 777.533 221.06 777.466C221.047 777.398 221.054 777.329 221.08 777.265C221.107 777.202 221.151 777.148 221.208 777.109C221.265 777.071 221.332 777.051 221.4 777.051C221.446 777.051 221.491 777.06 221.533 777.078C221.575 777.095 221.614 777.121 221.646 777.154C221.678 777.186 221.703 777.225 221.721 777.267C221.738 777.31 221.747 777.355 221.746 777.401V777.401Z" fill="#EBEBEB"/>
<path d="M225.419 777.414C225.419 777.484 225.398 777.551 225.36 777.609C225.322 777.667 225.267 777.711 225.203 777.738C225.139 777.764 225.069 777.771 225.002 777.757C224.934 777.744 224.872 777.71 224.823 777.661C224.775 777.612 224.742 777.549 224.728 777.481C224.715 777.413 224.722 777.343 224.749 777.279C224.776 777.215 224.821 777.161 224.878 777.122C224.936 777.084 225.004 777.064 225.073 777.064C225.118 777.064 225.164 777.074 225.206 777.091C225.248 777.109 225.286 777.135 225.318 777.167C225.35 777.2 225.376 777.238 225.393 777.281C225.41 777.323 225.419 777.369 225.419 777.414V777.414Z" fill="#EBEBEB"/>
<path d="M223.236 767.148C221.336 767.148 219.479 767.714 217.9 768.774C216.32 769.833 215.089 771.34 214.362 773.102C213.635 774.865 213.444 776.804 213.815 778.675C214.186 780.546 215.101 782.264 216.444 783.613C217.787 784.962 219.499 785.881 221.362 786.253C223.226 786.625 225.157 786.434 226.912 785.704C228.668 784.974 230.168 783.738 231.223 782.152C232.279 780.566 232.842 778.701 232.842 776.793C232.842 774.235 231.83 771.782 230.029 769.973C228.227 768.164 225.784 767.148 223.236 767.148V767.148ZM223.236 785.765C221.469 785.765 219.741 785.239 218.272 784.253C216.802 783.267 215.657 781.866 214.981 780.227C214.305 778.587 214.128 776.783 214.472 775.043C214.817 773.302 215.668 771.704 216.918 770.449C218.168 769.194 219.76 768.34 221.493 767.993C223.226 767.647 225.023 767.825 226.656 768.504C228.289 769.183 229.684 770.333 230.666 771.809C231.648 773.284 232.172 775.019 232.172 776.793C232.173 777.972 231.942 779.139 231.494 780.229C231.045 781.318 230.387 782.308 229.557 783.142C228.727 783.976 227.742 784.637 226.657 785.088C225.573 785.54 224.41 785.772 223.236 785.772V785.765Z" fill="#D5DDE8"/>
<path d="M211.729 777.305H211.698C211.577 777.301 211.458 777.274 211.347 777.224C211.236 777.174 211.137 777.102 211.053 777.013C210.97 776.925 210.906 776.82 210.863 776.706C210.82 776.592 210.8 776.471 210.805 776.349C210.919 773.165 212.243 770.147 214.505 767.912C216.766 765.677 219.793 764.396 222.965 764.332C226.137 764.267 229.214 765.424 231.564 767.565C233.913 769.705 235.358 772.668 235.601 775.844C235.61 775.965 235.595 776.087 235.558 776.202C235.52 776.318 235.46 776.425 235.381 776.517C235.302 776.609 235.206 776.684 235.098 776.739C234.99 776.794 234.873 776.827 234.752 776.836C234.632 776.845 234.51 776.83 234.396 776.792C234.281 776.754 234.174 776.694 234.083 776.615C233.991 776.536 233.916 776.439 233.861 776.331C233.807 776.223 233.774 776.104 233.765 775.983C233.563 773.274 232.334 770.746 230.332 768.919C228.33 767.091 225.707 766.103 223.002 766.158C220.297 766.214 217.716 767.307 215.789 769.215C213.863 771.123 212.738 773.699 212.645 776.414C212.637 776.653 212.537 776.878 212.366 777.044C212.195 777.21 211.967 777.304 211.729 777.305V777.305Z" fill="#565F6E"/>
<path d="M369.428 767.747L368.966 767.298C368.966 767.298 367.384 756.532 366.846 755.069C366.548 754.345 366.109 753.689 365.555 753.138C365.119 752.714 364.549 752.458 363.944 752.414C359.923 751.965 349.87 751.315 336.831 751.795C327.672 752.131 269.521 754.39 257.304 754.174C245.086 753.959 242.895 752.411 242.895 752.411C242.895 752.411 220.167 752.575 207.422 754.78C194.678 756.985 192.368 760.401 190.489 766.668C188.611 772.935 189.484 779.121 189.484 779.121C192.965 782.331 206.482 782.423 206.482 782.423L209.281 782.481C209.058 779.841 208.955 777.641 208.975 776.546C209.057 772.828 210.58 769.289 213.222 766.682C215.863 764.075 219.414 762.606 223.118 762.588H223.373C231.173 762.725 237.272 769.209 237.272 777.042C237.272 779.305 237.23 781.304 237.151 783.044L325.083 782.991C324.964 781.185 324.904 779.081 324.904 776.618C324.904 768.992 331.32 762.797 338.908 762.797H339.161C341.001 762.824 342.817 763.218 344.504 763.955C346.191 764.693 347.716 765.759 348.99 767.092C351.59 769.795 352.92 773.352 352.92 777.112C352.92 778.343 352.92 779.491 352.884 780.566L353.369 780.514C353.369 780.514 361.067 779.37 363.533 778.594C367.858 777.23 368.8 774.146 369.484 771.746C369.81 770.618 370.279 768.552 369.428 767.747Z" fill="#424657"/>
<path d="M242.895 752.411C242.647 752.187 256.122 743.98 267.736 739.231C268.979 738.729 270.326 738.538 271.659 738.674C272.992 738.811 274.272 739.271 275.389 740.014L275.595 740.149L251.066 754.412C251.066 754.412 247.139 756.227 242.895 752.411Z" fill="#383C4A"/>
<path d="M323.126 773.817C323.126 773.817 322.934 775.331 322.867 777.157C322.831 778.127 322.422 779.046 321.725 779.72C321.029 780.394 320.099 780.77 319.132 780.77H247.769L247.91 780.49C248.543 779.228 249.503 778.16 250.689 777.399C251.875 776.637 253.243 776.211 254.65 776.163L323.126 773.817Z" fill="#5A5E73"/>
<path d="M191.363 764.732C191.363 764.732 190.916 758.714 208.508 757.144C226.1 755.574 352.133 753.21 357.343 753.107C368.363 752.882 367.322 755.798 367.322 755.798L367.293 757.173C367.293 757.173 213.887 760.32 204.208 760.612C194.528 760.904 191.363 764.732 191.363 764.732Z" fill="#5A5E73"/>
<path d="M254.386 779.938H253.912C253.216 779.935 252.543 779.68 252.018 779.22C251.493 778.761 251.149 778.127 251.051 777.435L250.772 775.497C250.751 775.354 250.741 775.21 250.743 775.066V774.202C250.756 771.511 250.789 764.32 250.939 761.339C251.129 757.712 253.238 754.78 253.26 754.76L253.519 754.953C253.499 754.98 251.446 757.826 251.265 761.363C251.116 764.338 251.08 771.511 251.069 774.211V775.077C251.067 775.206 251.076 775.334 251.096 775.461L251.373 777.396C251.464 778.01 251.77 778.572 252.237 778.978C252.704 779.385 253.301 779.611 253.919 779.615C263.007 779.635 291.382 779.267 295.818 778.942C296.725 778.875 297.563 778.875 298.372 778.875C301.928 778.875 304.278 778.875 305.348 772.868C306.673 765.45 306.771 760.204 306.512 758.488C306.253 756.772 302.764 753.185 302.732 753.149L302.956 752.925C303.103 753.075 306.55 756.651 306.818 758.436C307.042 759.93 307.091 764.883 305.654 772.919C304.537 779.186 301.946 779.189 298.363 779.2C297.559 779.2 296.728 779.2 295.83 779.267C291.469 779.583 263.945 779.938 254.386 779.938Z" fill="#1E2233"/>
<path d="M189.676 762.534L203.933 762.785C203.933 762.785 204.784 763.068 203.506 765.63C202.229 768.191 200.129 768.801 200.129 768.801L187 768.406L189.676 762.534Z" fill="#C7E4FC"/>
<path d="M267.061 738.007C268.625 738.056 272.528 739.7 272.528 739.7L246.398 753.434C246.398 753.434 244.228 753.273 241.575 751.9C238.921 750.527 242.468 743.666 242.691 743.585C242.915 743.504 260.817 737.809 267.061 738.007Z" fill="#C7E4FC"/>
<path d="M367.934 757.247C367.934 757.247 363.756 757.133 362.219 757.55C360.682 757.967 360.571 762.245 361.399 763.068C362.228 763.891 370.002 763.178 370.002 763.178L367.934 757.247Z" fill="#EB4B3F"/>
<path d="M368.182 758.833H362.373C362.313 758.833 362.252 758.822 362.196 758.798C362.14 758.775 362.089 758.741 362.046 758.698C362.003 758.655 361.969 758.603 361.946 758.547C361.922 758.49 361.911 758.43 361.911 758.369V758.369C361.91 758.309 361.92 758.249 361.942 758.194C361.964 758.138 361.996 758.087 362.038 758.044C362.08 758.001 362.129 757.967 362.184 757.944C362.239 757.921 362.298 757.909 362.358 757.909L368.166 757.718C368.229 757.716 368.292 757.727 368.35 757.75C368.409 757.773 368.462 757.808 368.506 757.853C368.551 757.897 368.586 757.95 368.609 758.009C368.633 758.068 368.644 758.131 368.642 758.194V758.387C368.638 758.507 368.588 758.62 368.502 758.703C368.416 758.787 368.301 758.833 368.182 758.833V758.833Z" fill="#FFBB00"/>
<path d="M368.217 760.246H362.409C362.289 760.243 362.176 760.192 362.092 760.106C362.009 760.02 361.962 759.904 361.962 759.784V759.784C361.962 759.665 362.009 759.551 362.093 759.467C362.177 759.383 362.291 759.336 362.409 759.336L368.217 759.143C368.28 759.14 368.343 759.151 368.402 759.175C368.461 759.198 368.514 759.233 368.559 759.278C368.603 759.322 368.638 759.376 368.661 759.435C368.685 759.494 368.695 759.557 368.693 759.62V759.813C368.686 759.933 368.632 760.046 368.543 760.127C368.454 760.208 368.337 760.251 368.217 760.246V760.246Z" fill="#FFBB00"/>
<path d="M248.906 755.783L250.503 753.246L252.764 753.863L252.938 755.78C252.938 755.78 251.853 756.453 250.964 756.485C250.075 756.516 249.523 756.364 248.906 755.783Z" fill="#282B38"/>
<path d="M250.278 751.799C250.278 751.799 249.677 752.355 249.641 752.757C249.605 753.158 250.928 754.3 251.301 754.39C251.56 754.45 253.725 754.45 255.041 754.446C255.307 754.444 255.563 754.337 255.752 754.148C255.941 753.959 256.048 753.702 256.05 753.434V750.909C256.051 750.751 256.003 750.596 255.915 750.465C255.827 750.334 255.701 750.233 255.554 750.175C255.036 749.969 254.189 749.711 253.401 749.823C252.152 749.998 250.278 751.799 250.278 751.799Z" fill="#64697D"/>
<path d="M299.366 759.526H295.885C295.566 759.526 295.26 759.399 295.034 759.172C294.808 758.945 294.681 758.638 294.681 758.317V758.317C294.681 758.158 294.712 758.001 294.772 757.854C294.833 757.707 294.921 757.573 295.033 757.461C295.145 757.348 295.278 757.259 295.424 757.198C295.57 757.137 295.727 757.106 295.885 757.106H299.366C299.686 757.106 299.993 757.234 300.219 757.461C300.445 757.688 300.572 757.996 300.572 758.317C300.572 758.476 300.541 758.634 300.48 758.78C300.42 758.927 300.331 759.061 300.219 759.173C300.107 759.285 299.974 759.374 299.827 759.435C299.681 759.495 299.524 759.526 299.366 759.526V759.526Z" fill="#333333"/>
<path d="M300.827 758.735H294.458C294.392 758.735 294.327 758.722 294.266 758.697C294.205 758.672 294.149 758.635 294.103 758.588C294.056 758.542 294.019 758.486 293.994 758.425C293.968 758.364 293.955 758.298 293.955 758.232C293.955 758.166 293.968 758.1 293.994 758.039C294.019 757.978 294.056 757.923 294.103 757.876C294.149 757.829 294.205 757.792 294.266 757.767C294.327 757.742 294.392 757.729 294.458 757.73H300.827C300.96 757.73 301.087 757.783 301.181 757.877C301.275 757.971 301.327 758.099 301.327 758.232C301.327 758.365 301.275 758.493 301.181 758.587C301.087 758.682 300.96 758.735 300.827 758.735Z" fill="#858BA8"/>
</g>
<path d="M149.486 261.294V266.511H157.763V269.205H149.486V275.768H146.302V258.625H158.816V261.294H149.486ZM166.191 262.543C168.117 262.543 169.587 263.009 170.599 263.939C171.627 264.854 172.142 266.241 172.142 268.103V275.768H169.252V274.176C168.876 274.747 168.338 275.188 167.636 275.498C166.95 275.792 166.117 275.939 165.138 275.939C164.158 275.939 163.301 275.776 162.566 275.449C161.831 275.107 161.26 274.641 160.852 274.054C160.46 273.449 160.264 272.772 160.264 272.021C160.264 270.845 160.697 269.907 161.562 269.205C162.444 268.486 163.823 268.127 165.701 268.127H169.08V267.931C169.08 267.017 168.803 266.315 168.248 265.825C167.709 265.335 166.901 265.09 165.823 265.09C165.089 265.09 164.362 265.205 163.644 265.433C162.942 265.662 162.346 265.98 161.856 266.388L160.656 264.16C161.342 263.637 162.166 263.237 163.129 262.96C164.093 262.682 165.113 262.543 166.191 262.543ZM165.774 273.711C166.542 273.711 167.219 273.539 167.807 273.196C168.411 272.837 168.836 272.331 169.08 271.678V270.16H165.921C164.158 270.16 163.276 270.739 163.276 271.898C163.276 272.454 163.497 272.894 163.938 273.221C164.378 273.547 164.991 273.711 165.774 273.711ZM180.111 275.939C179.05 275.939 178.013 275.8 177.001 275.523C175.989 275.245 175.181 274.894 174.576 274.47L175.752 272.143C176.34 272.535 177.042 272.854 177.858 273.098C178.691 273.327 179.507 273.441 180.307 273.441C182.136 273.441 183.05 272.96 183.05 271.996C183.05 271.539 182.813 271.221 182.34 271.041C181.883 270.862 181.14 270.69 180.111 270.527C179.034 270.364 178.152 270.176 177.466 269.964C176.797 269.751 176.209 269.384 175.703 268.862C175.213 268.323 174.968 267.58 174.968 266.633C174.968 265.392 175.483 264.405 176.511 263.67C177.556 262.919 178.96 262.543 180.723 262.543C181.621 262.543 182.519 262.649 183.417 262.862C184.315 263.058 185.05 263.327 185.621 263.67L184.446 265.996C183.336 265.343 182.087 265.017 180.699 265.017C179.801 265.017 179.115 265.156 178.642 265.433C178.185 265.694 177.956 266.045 177.956 266.486C177.956 266.976 178.201 267.327 178.691 267.539C179.197 267.735 179.972 267.923 181.017 268.103C182.062 268.266 182.919 268.454 183.589 268.666C184.258 268.878 184.83 269.237 185.303 269.743C185.793 270.249 186.038 270.968 186.038 271.898C186.038 273.123 185.507 274.103 184.446 274.837C183.385 275.572 181.94 275.939 180.111 275.939ZM196.094 262.543C197.743 262.543 199.066 263.025 200.062 263.988C201.058 264.951 201.556 266.38 201.556 268.274V275.768H198.494V268.666C198.494 267.523 198.225 266.666 197.686 266.094C197.147 265.507 196.38 265.213 195.384 265.213C194.258 265.213 193.368 265.556 192.715 266.241C192.062 266.911 191.735 267.882 191.735 269.156V275.768H188.674V257.596H191.735V264.209C192.241 263.67 192.862 263.262 193.596 262.984C194.347 262.69 195.18 262.543 196.094 262.543ZM211.436 275.939C210.114 275.939 208.922 275.654 207.861 275.082C206.799 274.511 205.967 273.719 205.363 272.707C204.775 271.678 204.481 270.519 204.481 269.229C204.481 267.939 204.775 266.788 205.363 265.776C205.967 264.764 206.799 263.972 207.861 263.4C208.922 262.829 210.114 262.543 211.436 262.543C212.775 262.543 213.975 262.829 215.036 263.4C216.097 263.972 216.922 264.764 217.51 265.776C218.114 266.788 218.416 267.939 218.416 269.229C218.416 270.519 218.114 271.678 217.51 272.707C216.922 273.719 216.097 274.511 215.036 275.082C213.975 275.654 212.775 275.939 211.436 275.939ZM211.436 273.319C212.563 273.319 213.493 272.943 214.228 272.192C214.963 271.441 215.33 270.454 215.33 269.229C215.33 268.005 214.963 267.017 214.228 266.266C213.493 265.515 212.563 265.139 211.436 265.139C210.31 265.139 209.379 265.515 208.644 266.266C207.926 267.017 207.567 268.005 207.567 269.229C207.567 270.454 207.926 271.441 208.644 272.192C209.379 272.943 210.31 273.319 211.436 273.319ZM221.343 262.69H224.404V275.768H221.343V262.69ZM222.886 260.535C222.331 260.535 221.865 260.364 221.49 260.021C221.114 259.662 220.927 259.221 220.927 258.698C220.927 258.176 221.114 257.743 221.49 257.4C221.865 257.041 222.331 256.862 222.886 256.862C223.441 256.862 223.906 257.033 224.282 257.376C224.657 257.703 224.845 258.119 224.845 258.625C224.845 259.164 224.657 259.621 224.282 259.996C223.923 260.356 223.457 260.535 222.886 260.535ZM241.23 257.596V275.768H238.291V274.078C237.785 274.698 237.157 275.164 236.406 275.474C235.671 275.784 234.855 275.939 233.957 275.939C232.7 275.939 231.565 275.662 230.553 275.107C229.557 274.551 228.773 273.768 228.202 272.756C227.63 271.727 227.345 270.551 227.345 269.229C227.345 267.907 227.63 266.739 228.202 265.727C228.773 264.715 229.557 263.931 230.553 263.376C231.565 262.821 232.7 262.543 233.957 262.543C234.822 262.543 235.614 262.69 236.332 262.984C237.051 263.278 237.663 263.719 238.169 264.307V257.596H241.23ZM234.324 273.319C235.059 273.319 235.72 273.156 236.308 272.829C236.896 272.486 237.361 272.005 237.704 271.384C238.047 270.764 238.218 270.045 238.218 269.229C238.218 268.413 238.047 267.694 237.704 267.074C237.361 266.454 236.896 265.98 236.308 265.654C235.72 265.311 235.059 265.139 234.324 265.139C233.589 265.139 232.928 265.311 232.34 265.654C231.753 265.98 231.287 266.454 230.945 267.074C230.602 267.694 230.43 268.413 230.43 269.229C230.43 270.045 230.602 270.764 230.945 271.384C231.287 272.005 231.753 272.486 232.34 272.829C232.928 273.156 233.589 273.319 234.324 273.319Z" fill="#333333"/>
<path d="M238.845 419.357L239.074 420.718L231.127 422.053L229.288 411.102L237.016 409.804L237.244 411.165L231.081 412.2L231.646 415.564L237.136 414.642L237.36 415.971L231.869 416.893L232.463 420.429L238.845 419.357ZM244.409 411.217C245.463 411.04 246.349 411.207 247.067 411.719C247.795 412.219 248.257 413.058 248.455 414.237L249.256 419.008L247.755 419.26L246.982 414.661C246.847 413.858 246.553 413.285 246.099 412.943C245.645 412.602 245.058 412.491 244.338 412.612C243.525 412.748 242.923 413.096 242.535 413.655C242.144 414.203 242.023 414.92 242.172 415.806L242.89 420.077L241.388 420.329L239.995 412.038L241.435 411.797L241.645 413.048C241.875 412.57 242.227 412.173 242.699 411.858C243.182 411.541 243.752 411.327 244.409 411.217ZM256.616 417.273C256.429 417.498 256.182 417.689 255.876 417.848C255.569 417.996 255.243 418.099 254.899 418.157C254.064 418.297 253.38 418.181 252.846 417.81C252.312 417.438 251.974 416.836 251.834 416.001L251.07 411.449L249.662 411.686L249.454 410.45L250.862 410.213L250.558 408.399L252.059 408.146L252.364 409.961L254.742 409.562L254.949 410.798L252.572 411.197L253.326 415.687C253.401 416.135 253.568 416.461 253.828 416.664C254.097 416.865 254.441 416.931 254.858 416.861C255.317 416.784 255.686 416.588 255.965 416.273L256.616 417.273ZM265.043 412.142C265.062 412.257 265.077 412.41 265.088 412.601L258.361 413.731C258.578 414.445 258.995 414.981 259.612 415.338C260.239 415.684 260.958 415.788 261.772 415.651C262.763 415.485 263.504 415.017 263.997 414.248L264.989 415.079C264.687 415.58 264.274 415.992 263.749 416.316C263.235 416.639 262.634 416.858 261.946 416.973C261.07 417.12 260.263 417.074 259.525 416.833C258.786 416.582 258.175 416.164 257.691 415.581C257.217 414.995 256.912 414.296 256.775 413.483C256.64 412.68 256.696 411.925 256.942 411.219C257.198 410.511 257.61 409.927 258.176 409.468C258.751 408.996 259.435 408.693 260.227 408.56C261.02 408.427 261.754 408.491 262.431 408.753C263.116 409.002 263.685 409.422 264.138 410.01C264.601 410.597 264.903 411.308 265.043 412.142ZM260.44 409.827C259.72 409.948 259.152 410.269 258.736 410.789C258.329 411.308 258.144 411.928 258.18 412.652L263.499 411.758C263.298 411.074 262.916 410.553 262.352 410.198C261.797 409.83 261.16 409.706 260.44 409.827ZM268.097 408.75C268.277 408.227 268.602 407.797 269.071 407.461C269.54 407.125 270.139 406.895 270.869 406.773L271.114 408.228C271.029 408.231 270.913 408.245 270.767 408.27C269.954 408.406 269.353 408.759 268.966 409.328C268.588 409.885 268.474 410.612 268.625 411.509L269.318 415.639L267.817 415.891L266.424 407.6L267.863 407.358L268.097 408.75ZM286.231 401.539L288.07 412.489L286.506 412.752L285.686 407.871L279.398 408.927L280.217 413.808L278.653 414.071L276.814 403.12L278.378 402.858L279.169 407.566L285.458 406.51L284.667 401.802L286.231 401.539ZM297.934 406.618C297.953 406.733 297.968 406.886 297.979 407.077L291.252 408.207C291.469 408.921 291.886 409.457 292.503 409.815C293.129 410.16 293.849 410.264 294.663 410.127C295.654 409.961 296.395 409.493 296.888 408.724L297.88 409.555C297.578 410.056 297.165 410.469 296.64 410.793C296.126 411.115 295.525 411.334 294.837 411.449C293.961 411.596 293.154 411.55 292.416 411.309C291.677 411.058 291.066 410.64 290.582 410.057C290.108 409.472 289.803 408.772 289.666 407.959C289.531 407.156 289.587 406.401 289.833 405.695C290.089 404.987 290.501 404.403 291.067 403.944C291.642 403.472 292.325 403.169 293.118 403.036C293.911 402.903 294.645 402.967 295.322 403.229C296.007 403.478 296.576 403.898 297.029 404.486C297.492 405.073 297.794 405.784 297.934 406.618ZM293.331 404.303C292.611 404.424 292.043 404.745 291.627 405.265C291.22 405.784 291.035 406.405 291.071 407.128L296.39 406.234C296.189 405.55 295.806 405.03 295.243 404.674C294.688 404.306 294.05 404.182 293.331 404.303ZM300.988 403.226C301.168 402.703 301.493 402.273 301.962 401.937C302.431 401.601 303.03 401.371 303.76 401.249L304.005 402.704C303.919 402.707 303.804 402.721 303.658 402.746C302.844 402.882 302.244 403.235 301.857 403.804C301.479 404.361 301.365 405.088 301.516 405.985L302.209 410.115L300.707 410.367L299.315 402.076L300.754 401.834L300.988 403.226ZM313.745 403.963C313.765 404.078 313.78 404.231 313.79 404.422L307.064 405.552C307.28 406.266 307.697 406.802 308.315 407.159C308.941 407.504 309.661 407.609 310.474 407.472C311.465 407.306 312.207 406.838 312.7 406.069L313.692 406.899C313.39 407.4 312.976 407.813 312.452 408.137C311.938 408.459 311.336 408.678 310.648 408.794C309.772 408.941 308.965 408.894 308.228 408.653C307.489 408.402 306.877 407.985 306.393 407.401C305.919 406.816 305.614 406.117 305.478 405.303C305.343 404.5 305.398 403.746 305.644 403.039C305.901 402.332 306.312 401.748 306.878 401.288C307.453 400.816 308.137 400.514 308.929 400.381C309.722 400.248 310.457 400.312 311.133 400.574C311.819 400.823 312.388 401.242 312.84 401.831C313.303 402.418 313.605 403.129 313.745 403.963ZM309.142 401.648C308.423 401.769 307.855 402.089 307.438 402.61C307.032 403.128 306.847 403.749 306.882 404.472L312.201 403.579C312 402.894 311.618 402.374 311.054 402.018C310.499 401.65 309.862 401.527 309.142 401.648Z" fill="#333333"/>
<path d="M93.3499 301.091C92.2967 301.091 91.3447 300.858 90.494 300.392C89.6534 299.926 88.99 299.283 88.5039 298.463C88.0279 297.633 87.7899 296.706 87.7899 295.683C87.7899 294.66 88.0279 293.739 88.5039 292.918C88.99 292.088 89.6585 291.44 90.5092 290.974C91.3599 290.508 92.3119 290.275 93.3651 290.275C94.1551 290.275 94.8842 290.407 95.5527 290.67C96.2211 290.933 96.7882 291.318 97.2541 291.825L96.5401 292.538C95.7096 291.698 94.6614 291.278 93.3955 291.278C92.5549 291.278 91.7903 291.47 91.1016 291.855C90.413 292.24 89.8711 292.766 89.4762 293.435C89.0913 294.103 88.8989 294.853 88.8989 295.683C88.8989 296.514 89.0913 297.263 89.4762 297.931C89.8711 298.6 90.413 299.126 91.1016 299.511C91.7903 299.896 92.5549 300.089 93.3955 300.089C94.6716 300.089 95.7198 299.663 96.5401 298.812L97.2541 299.526C96.7882 300.033 96.216 300.423 95.5375 300.696C94.869 300.959 94.1399 301.091 93.3499 301.091ZM99.4226 289.728H100.501V301H99.4226V289.728ZM103.502 293.009H104.581V301H103.502V293.009ZM104.049 291.262C103.826 291.262 103.639 291.186 103.487 291.035C103.335 290.883 103.259 290.7 103.259 290.488C103.259 290.285 103.335 290.108 103.487 289.956C103.639 289.804 103.826 289.728 104.049 289.728C104.272 289.728 104.459 289.804 104.611 289.956C104.763 290.098 104.839 290.27 104.839 290.472C104.839 290.695 104.763 290.883 104.611 291.035C104.459 291.186 104.272 291.262 104.049 291.262ZM110.894 301.076C110.104 301.076 109.395 300.904 108.767 300.559C108.149 300.215 107.663 299.734 107.309 299.116C106.954 298.488 106.777 297.785 106.777 297.005C106.777 296.225 106.954 295.526 107.309 294.908C107.663 294.291 108.149 293.809 108.767 293.465C109.395 293.121 110.104 292.949 110.894 292.949C111.582 292.949 112.195 293.085 112.732 293.359C113.279 293.622 113.709 294.012 114.023 294.529L113.218 295.075C112.955 294.68 112.62 294.387 112.215 294.194C111.81 293.992 111.37 293.891 110.894 293.891C110.316 293.891 109.795 294.022 109.329 294.285C108.873 294.539 108.514 294.903 108.25 295.379C107.997 295.855 107.871 296.397 107.871 297.005C107.871 297.622 107.997 298.169 108.25 298.645C108.514 299.111 108.873 299.476 109.329 299.739C109.795 299.992 110.316 300.119 110.894 300.119C111.37 300.119 111.81 300.023 112.215 299.83C112.62 299.638 112.955 299.344 113.218 298.949L114.023 299.496C113.709 300.013 113.279 300.408 112.732 300.681C112.185 300.944 111.572 301.076 110.894 301.076ZM118.985 296.99L117.102 298.721V301H116.023V289.728H117.102V297.369L121.872 293.009H123.209L119.791 296.276L123.528 301H122.206L118.985 296.99ZM132.389 301.076C131.619 301.076 130.925 300.904 130.308 300.559C129.69 300.205 129.204 299.719 128.849 299.101C128.495 298.483 128.317 297.785 128.317 297.005C128.317 296.225 128.495 295.526 128.849 294.908C129.204 294.291 129.69 293.809 130.308 293.465C130.925 293.121 131.619 292.949 132.389 292.949C133.158 292.949 133.852 293.121 134.47 293.465C135.088 293.809 135.569 294.291 135.913 294.908C136.268 295.526 136.445 296.225 136.445 297.005C136.445 297.785 136.268 298.483 135.913 299.101C135.569 299.719 135.088 300.205 134.47 300.559C133.852 300.904 133.158 301.076 132.389 301.076ZM132.389 300.119C132.956 300.119 133.462 299.992 133.908 299.739C134.364 299.476 134.718 299.106 134.971 298.63C135.224 298.154 135.351 297.612 135.351 297.005C135.351 296.397 135.224 295.855 134.971 295.379C134.718 294.903 134.364 294.539 133.908 294.285C133.462 294.022 132.956 293.891 132.389 293.891C131.822 293.891 131.31 294.022 130.854 294.285C130.409 294.539 130.054 294.903 129.791 295.379C129.538 295.855 129.411 296.397 129.411 297.005C129.411 297.612 129.538 298.154 129.791 298.63C130.054 299.106 130.409 299.476 130.854 299.739C131.31 299.992 131.822 300.119 132.389 300.119ZM142.718 292.949C143.721 292.949 144.516 293.242 145.103 293.83C145.701 294.407 145.999 295.253 145.999 296.367V301H144.921V296.473C144.921 295.643 144.713 295.01 144.298 294.574C143.883 294.139 143.29 293.921 142.521 293.921C141.66 293.921 140.976 294.179 140.47 294.696C139.973 295.202 139.725 295.906 139.725 296.807V301H138.647V293.009H139.68V294.483C139.973 293.997 140.379 293.622 140.895 293.359C141.422 293.085 142.029 292.949 142.718 292.949ZM157.111 300.514C156.909 300.696 156.656 300.838 156.352 300.939C156.058 301.03 155.749 301.076 155.425 301.076C154.676 301.076 154.098 300.873 153.693 300.468C153.288 300.063 153.086 299.491 153.086 298.752V293.921H151.658V293.009H153.086V291.262H154.164V293.009H156.595V293.921H154.164V298.691C154.164 299.167 154.281 299.532 154.514 299.785C154.757 300.028 155.101 300.149 155.547 300.149C155.769 300.149 155.982 300.114 156.185 300.043C156.397 299.972 156.58 299.871 156.732 299.739L157.111 300.514ZM163.146 292.949C164.149 292.949 164.944 293.242 165.531 293.83C166.129 294.407 166.427 295.253 166.427 296.367V301H165.349V296.473C165.349 295.643 165.141 295.01 164.726 294.574C164.311 294.139 163.718 293.921 162.949 293.921C162.088 293.921 161.404 294.179 160.898 294.696C160.402 295.202 160.153 295.906 160.153 296.807V301H159.075V289.728H160.153V294.407C160.447 293.941 160.852 293.582 161.369 293.328C161.885 293.075 162.478 292.949 163.146 292.949ZM176.343 297.339H169.659C169.719 298.169 170.038 298.843 170.616 299.359C171.193 299.866 171.922 300.119 172.803 300.119C173.3 300.119 173.755 300.033 174.17 299.861C174.586 299.678 174.945 299.415 175.249 299.071L175.857 299.77C175.502 300.195 175.057 300.519 174.52 300.742C173.993 300.965 173.411 301.076 172.773 301.076C171.953 301.076 171.223 300.904 170.585 300.559C169.957 300.205 169.466 299.719 169.112 299.101C168.757 298.483 168.58 297.785 168.58 297.005C168.58 296.225 168.747 295.526 169.081 294.908C169.426 294.291 169.892 293.809 170.479 293.465C171.077 293.121 171.745 292.949 172.484 292.949C173.224 292.949 173.887 293.121 174.474 293.465C175.062 293.809 175.522 294.291 175.857 294.908C176.191 295.516 176.358 296.215 176.358 297.005L176.343 297.339ZM172.484 293.875C171.715 293.875 171.066 294.123 170.54 294.62C170.023 295.106 169.73 295.744 169.659 296.534H175.325C175.254 295.744 174.955 295.106 174.429 294.62C173.912 294.123 173.264 293.875 172.484 293.875ZM189.821 289.728V301H188.788V299.42C188.464 299.957 188.033 300.367 187.497 300.651C186.97 300.934 186.373 301.076 185.704 301.076C184.955 301.076 184.276 300.904 183.669 300.559C183.061 300.215 182.585 299.734 182.241 299.116C181.896 298.499 181.724 297.795 181.724 297.005C181.724 296.215 181.896 295.511 182.241 294.893C182.585 294.275 183.061 293.799 183.669 293.465C184.276 293.121 184.955 292.949 185.704 292.949C186.352 292.949 186.935 293.085 187.451 293.359C187.978 293.622 188.408 294.012 188.742 294.529V289.728H189.821ZM185.795 300.119C186.352 300.119 186.854 299.992 187.299 299.739C187.755 299.476 188.109 299.106 188.363 298.63C188.626 298.154 188.758 297.612 188.758 297.005C188.758 296.397 188.626 295.855 188.363 295.379C188.109 294.903 187.755 294.539 187.299 294.285C186.854 294.022 186.352 293.891 185.795 293.891C185.228 293.891 184.717 294.022 184.261 294.285C183.815 294.539 183.461 294.903 183.198 295.379C182.944 295.855 182.818 296.397 182.818 297.005C182.818 297.612 182.944 298.154 183.198 298.63C183.461 299.106 183.815 299.476 184.261 299.739C184.717 299.992 185.228 300.119 185.795 300.119ZM196.091 301.076C195.321 301.076 194.627 300.904 194.01 300.559C193.392 300.205 192.906 299.719 192.551 299.101C192.197 298.483 192.02 297.785 192.02 297.005C192.02 296.225 192.197 295.526 192.551 294.908C192.906 294.291 193.392 293.809 194.01 293.465C194.627 293.121 195.321 292.949 196.091 292.949C196.861 292.949 197.554 293.121 198.172 293.465C198.79 293.809 199.271 294.291 199.615 294.908C199.97 295.526 200.147 296.225 200.147 297.005C200.147 297.785 199.97 298.483 199.615 299.101C199.271 299.719 198.79 300.205 198.172 300.559C197.554 300.904 196.861 301.076 196.091 301.076ZM196.091 300.119C196.658 300.119 197.164 299.992 197.61 299.739C198.066 299.476 198.42 299.106 198.673 298.63C198.927 298.154 199.053 297.612 199.053 297.005C199.053 296.397 198.927 295.855 198.673 295.379C198.42 294.903 198.066 294.539 197.61 294.285C197.164 294.022 196.658 293.891 196.091 293.891C195.524 293.891 195.012 294.022 194.557 294.285C194.111 294.539 193.757 294.903 193.493 295.379C193.24 295.855 193.113 296.397 193.113 297.005C193.113 297.612 193.24 298.154 193.493 298.63C193.757 299.106 194.111 299.476 194.557 299.739C195.012 299.992 195.524 300.119 196.091 300.119ZM205.615 301.076C204.845 301.076 204.152 300.904 203.534 300.559C202.916 300.205 202.43 299.719 202.076 299.101C201.721 298.483 201.544 297.785 201.544 297.005C201.544 296.225 201.721 295.526 202.076 294.908C202.43 294.291 202.916 293.809 203.534 293.465C204.152 293.121 204.845 292.949 205.615 292.949C206.385 292.949 207.079 293.121 207.696 293.465C208.314 293.809 208.795 294.291 209.139 294.908C209.494 295.526 209.671 296.225 209.671 297.005C209.671 297.785 209.494 298.483 209.139 299.101C208.795 299.719 208.314 300.205 207.696 300.559C207.079 300.904 206.385 301.076 205.615 301.076ZM205.615 300.119C206.182 300.119 206.689 299.992 207.134 299.739C207.59 299.476 207.944 299.106 208.198 298.63C208.451 298.154 208.577 297.612 208.577 297.005C208.577 296.397 208.451 295.855 208.198 295.379C207.944 294.903 207.59 294.539 207.134 294.285C206.689 294.022 206.182 293.891 205.615 293.891C205.048 293.891 204.537 294.022 204.081 294.285C203.635 294.539 203.281 294.903 203.017 295.379C202.764 295.855 202.638 296.397 202.638 297.005C202.638 297.612 202.764 298.154 203.017 298.63C203.281 299.106 203.635 299.476 204.081 299.739C204.537 299.992 205.048 300.119 205.615 300.119ZM212.906 294.574C213.159 294.037 213.534 293.632 214.03 293.359C214.537 293.085 215.16 292.949 215.899 292.949V293.997L215.641 293.982C214.8 293.982 214.142 294.24 213.666 294.756C213.19 295.273 212.952 295.997 212.952 296.929V301H211.873V293.009H212.906V294.574ZM226.154 300.514C225.952 300.696 225.698 300.838 225.395 300.939C225.101 301.03 224.792 301.076 224.468 301.076C223.719 301.076 223.141 300.873 222.736 300.468C222.331 300.063 222.129 299.491 222.129 298.752V293.921H220.701V293.009H222.129V291.262H223.207V293.009H225.638V293.921H223.207V298.691C223.207 299.167 223.324 299.532 223.556 299.785C223.8 300.028 224.144 300.149 224.589 300.149C224.812 300.149 225.025 300.114 225.228 300.043C225.44 299.972 225.622 299.871 225.774 299.739L226.154 300.514ZM231.102 301.076C230.332 301.076 229.638 300.904 229.021 300.559C228.403 300.205 227.917 299.719 227.562 299.101C227.208 298.483 227.031 297.785 227.031 297.005C227.031 296.225 227.208 295.526 227.562 294.908C227.917 294.291 228.403 293.809 229.021 293.465C229.638 293.121 230.332 292.949 231.102 292.949C231.872 292.949 232.565 293.121 233.183 293.465C233.801 293.809 234.282 294.291 234.626 294.908C234.981 295.526 235.158 296.225 235.158 297.005C235.158 297.785 234.981 298.483 234.626 299.101C234.282 299.719 233.801 300.205 233.183 300.559C232.565 300.904 231.872 301.076 231.102 301.076ZM231.102 300.119C231.669 300.119 232.175 299.992 232.621 299.739C233.077 299.476 233.431 299.106 233.684 298.63C233.938 298.154 234.064 297.612 234.064 297.005C234.064 296.397 233.938 295.855 233.684 295.379C233.431 294.903 233.077 294.539 232.621 294.285C232.175 294.022 231.669 293.891 231.102 293.891C230.535 293.891 230.023 294.022 229.568 294.285C229.122 294.539 228.768 294.903 228.504 295.379C228.251 295.855 228.124 296.397 228.124 297.005C228.124 297.612 228.251 298.154 228.504 298.63C228.768 299.106 229.122 299.476 229.568 299.739C230.023 299.992 230.535 300.119 231.102 300.119ZM245.453 292.949C246.202 292.949 246.881 293.121 247.488 293.465C248.096 293.799 248.572 294.275 248.916 294.893C249.261 295.511 249.433 296.215 249.433 297.005C249.433 297.805 249.261 298.514 248.916 299.131C248.572 299.749 248.096 300.23 247.488 300.575C246.891 300.909 246.212 301.076 245.453 301.076C244.804 301.076 244.217 300.944 243.69 300.681C243.174 300.408 242.749 300.013 242.414 299.496V303.947H241.336V293.009H242.369V294.589C242.693 294.063 243.118 293.658 243.645 293.374C244.182 293.09 244.784 292.949 245.453 292.949ZM245.377 300.119C245.934 300.119 246.44 299.992 246.896 299.739C247.352 299.476 247.706 299.106 247.959 298.63C248.222 298.154 248.354 297.612 248.354 297.005C248.354 296.397 248.222 295.86 247.959 295.394C247.706 294.918 247.352 294.549 246.896 294.285C246.44 294.022 245.934 293.891 245.377 293.891C244.81 293.891 244.298 294.022 243.842 294.285C243.397 294.549 243.042 294.918 242.779 295.394C242.526 295.86 242.399 296.397 242.399 297.005C242.399 297.612 242.526 298.154 242.779 298.63C243.042 299.106 243.397 299.476 243.842 299.739C244.298 299.992 244.81 300.119 245.377 300.119ZM252.664 294.574C252.918 294.037 253.292 293.632 253.789 293.359C254.295 293.085 254.918 292.949 255.657 292.949V293.997L255.399 293.982C254.558 293.982 253.9 294.24 253.424 294.756C252.948 295.273 252.71 295.997 252.71 296.929V301H251.631V293.009H252.664V294.574ZM260.802 301.076C260.032 301.076 259.338 300.904 258.721 300.559C258.103 300.205 257.617 299.719 257.262 299.101C256.908 298.483 256.731 297.785 256.731 297.005C256.731 296.225 256.908 295.526 257.262 294.908C257.617 294.291 258.103 293.809 258.721 293.465C259.338 293.121 260.032 292.949 260.802 292.949C261.572 292.949 262.265 293.121 262.883 293.465C263.501 293.809 263.982 294.291 264.326 294.908C264.681 295.526 264.858 296.225 264.858 297.005C264.858 297.785 264.681 298.483 264.326 299.101C263.982 299.719 263.501 300.205 262.883 300.559C262.265 300.904 261.572 301.076 260.802 301.076ZM260.802 300.119C261.369 300.119 261.875 299.992 262.321 299.739C262.777 299.476 263.131 299.106 263.384 298.63C263.638 298.154 263.764 297.612 263.764 297.005C263.764 296.397 263.638 295.855 263.384 295.379C263.131 294.903 262.777 294.539 262.321 294.285C261.875 294.022 261.369 293.891 260.802 293.891C260.235 293.891 259.723 294.022 259.268 294.285C258.822 294.539 258.468 294.903 258.204 295.379C257.951 295.855 257.824 296.397 257.824 297.005C257.824 297.612 257.951 298.154 258.204 298.63C258.468 299.106 258.822 299.476 259.268 299.739C259.723 299.992 260.235 300.119 260.802 300.119ZM270.372 301.076C269.582 301.076 268.873 300.904 268.245 300.559C267.627 300.215 267.141 299.734 266.787 299.116C266.432 298.488 266.255 297.785 266.255 297.005C266.255 296.225 266.432 295.526 266.787 294.908C267.141 294.291 267.627 293.809 268.245 293.465C268.873 293.121 269.582 292.949 270.372 292.949C271.06 292.949 271.673 293.085 272.21 293.359C272.757 293.622 273.187 294.012 273.501 294.529L272.696 295.075C272.433 294.68 272.098 294.387 271.693 294.194C271.288 293.992 270.848 293.891 270.372 293.891C269.794 293.891 269.273 294.022 268.807 294.285C268.351 294.539 267.992 294.903 267.728 295.379C267.475 295.855 267.349 296.397 267.349 297.005C267.349 297.622 267.475 298.169 267.728 298.645C267.992 299.111 268.351 299.476 268.807 299.739C269.273 299.992 269.794 300.119 270.372 300.119C270.848 300.119 271.288 300.023 271.693 299.83C272.098 299.638 272.433 299.344 272.696 298.949L273.501 299.496C273.187 300.013 272.757 300.408 272.21 300.681C271.663 300.944 271.05 301.076 270.372 301.076ZM282.444 297.339H275.76C275.821 298.169 276.14 298.843 276.717 299.359C277.294 299.866 278.023 300.119 278.904 300.119C279.401 300.119 279.856 300.033 280.272 299.861C280.687 299.678 281.046 299.415 281.35 299.071L281.958 299.77C281.603 300.195 281.158 300.519 280.621 300.742C280.094 300.965 279.512 301.076 278.874 301.076C278.054 301.076 277.324 300.904 276.686 300.559C276.059 300.205 275.567 299.719 275.213 299.101C274.858 298.483 274.681 297.785 274.681 297.005C274.681 296.225 274.848 295.526 275.183 294.908C275.527 294.291 275.993 293.809 276.58 293.465C277.178 293.121 277.846 292.949 278.585 292.949C279.325 292.949 279.988 293.121 280.575 293.465C281.163 293.809 281.624 294.291 281.958 294.908C282.292 295.516 282.459 296.215 282.459 297.005L282.444 297.339ZM278.585 293.875C277.816 293.875 277.167 294.123 276.641 294.62C276.124 295.106 275.831 295.744 275.76 296.534H281.426C281.355 295.744 281.056 295.106 280.53 294.62C280.013 294.123 279.365 293.875 278.585 293.875ZM291.612 297.339H284.928C284.989 298.169 285.308 298.843 285.885 299.359C286.462 299.866 287.191 300.119 288.072 300.119C288.569 300.119 289.024 300.033 289.44 299.861C289.855 299.678 290.214 299.415 290.518 299.071L291.126 299.77C290.771 300.195 290.326 300.519 289.789 300.742C289.262 300.965 288.68 301.076 288.042 301.076C287.222 301.076 286.493 300.904 285.855 300.559C285.227 300.205 284.735 299.719 284.381 299.101C284.027 298.483 283.849 297.785 283.849 297.005C283.849 296.225 284.016 295.526 284.351 294.908C284.695 294.291 285.161 293.809 285.748 293.465C286.346 293.121 287.014 292.949 287.753 292.949C288.493 292.949 289.156 293.121 289.744 293.465C290.331 293.809 290.792 294.291 291.126 294.908C291.46 295.516 291.627 296.215 291.627 297.005L291.612 297.339ZM287.753 293.875C286.984 293.875 286.336 294.123 285.809 294.62C285.293 295.106 284.999 295.744 284.928 296.534H290.594C290.523 295.744 290.225 295.106 289.698 294.62C289.181 294.123 288.533 293.875 287.753 293.875ZM301.114 289.728V301H300.081V299.42C299.757 299.957 299.327 300.367 298.79 300.651C298.263 300.934 297.666 301.076 296.998 301.076C296.248 301.076 295.57 300.904 294.962 300.559C294.354 300.215 293.878 299.734 293.534 299.116C293.19 298.499 293.017 297.795 293.017 297.005C293.017 296.215 293.19 295.511 293.534 294.893C293.878 294.275 294.354 293.799 294.962 293.465C295.57 293.121 296.248 292.949 296.998 292.949C297.646 292.949 298.228 293.085 298.745 293.359C299.271 293.622 299.702 294.012 300.036 294.529V289.728H301.114ZM297.089 300.119C297.646 300.119 298.147 299.992 298.593 299.739C299.048 299.476 299.403 299.106 299.656 298.63C299.919 298.154 300.051 297.612 300.051 297.005C300.051 296.397 299.919 295.855 299.656 295.379C299.403 294.903 299.048 294.539 298.593 294.285C298.147 294.022 297.646 293.891 297.089 293.891C296.522 293.891 296.01 294.022 295.554 294.285C295.109 294.539 294.754 294.903 294.491 295.379C294.238 295.855 294.111 296.397 294.111 297.005C294.111 297.612 294.238 298.154 294.491 298.63C294.754 299.106 295.109 299.476 295.554 299.739C296.01 299.992 296.522 300.119 297.089 300.119Z" fill="white"/>
</g>
<defs>
<linearGradient id="paint0_linear_176_180" x1="194.5" y1="0" x2="194.5" y2="847" gradientUnits="userSpaceOnUse">
<stop stop-color="#8CD3FF"/>
<stop offset="1" stop-color="#8CD3FF" stop-opacity="0"/>
</linearGradient>
<linearGradient id="paint1_linear_176_180" x1="284.554" y1="470.204" x2="321.427" y2="487.399" gradientUnits="userSpaceOnUse">
<stop stop-color="white" stop-opacity="0.2"/>
<stop offset="1" stop-color="white" stop-opacity="0"/>
</linearGradient>
<clipPath id="clip0_176_180">
<rect width="390" height="846" fill="white"/>
</clipPath>
<clipPath id="clip1_176_180">
<rect width="126" height="51" fill="white" transform="matrix(-1 0 0 1 146 645)"/>
</clipPath>
<clipPath id="clip2_176_180">
<rect width="183" height="52" fill="white" transform="translate(187 738)"/>
</clipPath>
</defs>
</svg>
