<svg width="249" height="251" viewBox="0 0 249 251" fill="none" xmlns="http://www.w3.org/2000/svg">
<path d="M52.5543 231.934C52.5012 231.095 52.4422 230.29 52.3773 229.52C52.1755 227.234 51.9118 225.24 51.6144 223.509C51.5666 223.219 51.5152 222.938 51.4639 222.664C51.4126 222.39 51.3612 222.123 51.3099 221.863C51.2585 221.603 51.2037 221.35 51.1506 221.105C51.016 220.489 50.8803 219.917 50.7434 219.386C50.6319 218.96 50.5221 218.562 50.4124 218.189C50.3575 218.002 50.3026 217.822 50.2495 217.647C50.0583 217.037 49.8725 216.503 49.6954 216.038C49.6707 215.971 49.6459 215.907 49.6211 215.843C48.952 214.125 48.4421 213.432 48.4421 213.432C47.8597 213.51 47.1251 213.588 46.286 213.664C45.4469 213.74 44.5069 213.816 43.5138 213.886C39.5291 214.175 34.6999 214.417 32.2995 214.535C29.9009 214.422 25.0717 214.182 21.087 213.886C20.0939 213.816 19.1539 213.74 18.3166 213.664C17.4793 213.588 16.7428 213.51 16.1604 213.432C15.9649 213.721 15.7915 214.024 15.6418 214.339L15.5851 214.454C15.5462 214.533 15.5055 214.618 15.4648 214.709L15.401 214.846C15.1638 215.366 14.8877 216.045 14.5956 216.904L14.5159 217.143C14.4085 217.468 14.2999 217.817 14.1902 218.189C14.1619 218.283 14.1353 218.379 14.107 218.474C13.8875 219.247 13.6662 220.122 13.452 221.105C13.3989 221.352 13.3458 221.605 13.2927 221.865C12.7985 224.396 12.4439 226.953 12.2306 229.523C12.1598 230.292 12.1013 231.097 12.0535 231.934C11.7668 236.531 12.3545 243.314 13.2378 250.598H30.4479C31.0197 240.906 31.687 233.674 32.2977 233.411C32.9049 233.674 33.5776 240.906 34.1512 250.598H51.5666C52.3525 243.418 52.85 236.655 52.5543 231.934Z" fill="#333333"/>
<path d="M7.69169 233.98C6.15869 236.932 6.07548 239.925 5.61346 240.344C5.15143 240.763 4.523 241.009 4.18312 240.643C3.84324 240.277 3.73526 238.497 4.08045 237.814C4.42564 237.132 4.13179 235.709 3.98486 235.773C3.83793 235.836 2.51735 237.044 2.64834 238.2C2.77934 239.356 2.80058 240.174 2.8767 241.398C2.95282 242.621 4.40617 244.011 4.41148 244.789C4.41679 245.566 3.58656 245.943 3.06788 245.568C2.54921 245.193 0.368303 242.494 0.421409 241.559C0.474516 240.624 -0.22118 237.162 0.0726765 236.455C0.366533 235.748 2.41644 228.5 2.37396 226.928C2.37396 226.928 2.58108 223.652 2.94043 218.637L5.07354 219.266C5.07354 219.266 6.31269 224.206 7.15709 226.958C7.30756 227.481 7.48481 227.996 7.68815 228.501C8.37854 230.018 9.22824 231.026 7.69169 233.98Z" fill="#EBBE94"/>
<path d="M61.7276 226.18C61.694 227.499 63.7475 234.577 64.0431 235.274C64.3387 235.97 63.6377 239.435 63.689 240.374C63.7404 241.313 61.5648 244.018 61.0426 244.393C60.5204 244.767 59.6937 244.393 59.699 243.611C59.7043 242.83 61.1576 241.446 61.2338 240.22C61.3099 238.995 61.3329 238.18 61.4621 237.024C61.5913 235.868 60.2708 234.661 60.1256 234.595C59.9804 234.53 59.683 235.958 60.03 236.637C60.377 237.316 60.2654 239.091 59.9273 239.466C59.5892 239.84 58.9573 239.591 58.497 239.167C58.0367 238.742 57.9518 235.75 56.4188 232.803C54.8858 229.855 55.7319 228.846 56.4188 227.331C56.4908 227.081 56.5394 226.826 56.5639 226.567C56.7166 226.319 56.8469 226.059 56.9534 225.788C57.8013 223.035 59.0369 218.097 59.0369 218.097L61.17 217.468C61.2497 218.564 61.3205 219.577 61.3842 220.493C61.3842 220.571 61.3948 220.647 61.3984 220.723L61.7276 226.18Z" fill="#EBBE94"/>
<path d="M55.7726 154.02C55.2734 149.277 61.5789 144.233 58.5483 140.001C56.6701 137.377 54.2537 136.087 52.4977 133.822C49.7114 130.234 49.7415 125.625 47.6331 121.801C44.1192 115.437 24.7973 112.523 16.9588 121.801C13.9901 125.314 14.8806 130.228 12.0942 133.822C10.2532 136.195 7.77314 137.586 6.04363 140.001C3.00948 144.233 9.31854 149.277 8.81934 154.02C8.32013 158.804 2.82007 163.027 3.66269 167.788C3.99195 169.648 18.1448 190.365 32.296 190.365C46.4471 190.365 60.6 169.648 60.9292 167.788C61.7807 163.027 56.2771 158.804 55.7726 154.02Z" fill="#543B32"/>
<path d="M42.912 202.1H32.296H21.68L12.6129 167.137L18.4953 163.089H46.0966L52.6163 167.137L42.912 202.1Z" fill="#B8E3FB"/>
<path d="M42.912 202.1H32.296H21.68L12.6129 167.137L23.0306 160.968L41.5648 160.961L52.6163 167.137L42.912 202.1Z" fill="white"/>
<path d="M46.1142 163.089C46.1142 163.089 40.7558 160.669 37.141 158.867C36.9427 156.647 36.8153 153.364 37.4278 151.158C38.1359 148.626 34.5954 148.416 32.4145 148.518C30.2425 148.416 26.6949 148.619 27.4013 151.158C28.0138 153.371 27.8792 156.659 27.6827 158.88C24.2184 160.496 18.5148 163.089 18.5148 163.089" fill="#E8B382"/>
<path d="M46.1143 163.089H18.5166C18.5166 163.089 24.1069 160.547 27.573 158.929C29.0784 159.607 30.7125 159.953 32.3638 159.942C34.0151 159.931 35.6446 159.565 37.1411 158.867C40.7558 160.669 46.1143 163.089 46.1143 163.089Z" fill="white"/>
<path d="M20.6958 144.925C22.0292 144.81 22.9444 142.809 22.74 140.456C22.5355 138.103 21.2888 136.289 19.9554 136.405C18.622 136.52 17.7068 138.521 17.9113 140.874C18.1157 143.227 19.3624 145.041 20.6958 144.925Z" fill="#EBBE94"/>
<path d="M43.5049 136.934C42.2658 138.077 41.6869 140.673 42.218 142.732C42.749 144.792 44.1829 145.536 45.4238 144.394C46.6648 143.252 47.2418 140.655 46.7126 138.595C46.1833 136.536 44.7458 135.792 43.5049 136.934Z" fill="#EBBE94"/>
<path d="M45.5495 140.517C45.5495 148.787 36.5409 156.82 32.3826 156.82C28.998 156.82 19.2352 148.764 19.2423 140.494C19.2494 132.224 25.1442 125.524 32.4092 125.531C39.6742 125.538 45.5566 132.247 45.5495 140.517Z" fill="#EEC7A3"/>
<path d="M34.1122 144.741C34.1122 144.939 33.4501 145.886 32.6323 145.886C31.8145 145.886 31.1506 144.939 31.1506 144.741C31.1506 144.543 31.8145 144.387 32.6323 144.387C33.4501 144.387 34.1122 144.543 34.1122 144.741Z" fill="#F4DAC2"/>
<path d="M26.2046 142.962C27.0689 142.962 27.7695 142.015 27.7695 140.846C27.7695 139.677 27.0689 138.73 26.2046 138.73C25.3404 138.73 24.6398 139.677 24.6398 140.846C24.6398 142.015 25.3404 142.962 26.2046 142.962Z" fill="#1A1A1A"/>
<path d="M26.1994 138.546C27.6439 138.546 28.221 140.324 28.0209 140.369C27.8882 140.461 27.235 139.324 26.1994 139.372C25.1656 139.324 24.5124 140.461 24.3796 140.369C24.1831 140.324 24.762 138.544 26.1994 138.546Z" fill="#1A1A1A"/>
<path d="M24.7336 139.361C24.7336 139.361 24.3601 139.808 24.0768 139.753C23.7955 139.679 23.5408 139.527 23.3422 139.315C23.3203 139.51 23.3467 139.708 23.4193 139.89C23.4918 140.073 23.6082 140.235 23.7582 140.362C23.8537 140.448 23.9726 140.504 24.0999 140.523C24.4238 140.553 24.6663 140.241 24.838 139.967C24.8859 139.913 24.9193 139.847 24.9351 139.776C24.9509 139.705 24.9485 139.631 24.9283 139.561" fill="#1A1A1A"/>
<path d="M27.1747 140.692C27.3605 140.692 27.5111 140.542 27.5111 140.356C27.5111 140.171 27.3605 140.02 27.1747 140.02C26.989 140.02 26.8384 140.171 26.8384 140.356C26.8384 140.542 26.989 140.692 27.1747 140.692Z" fill="white"/>
<path d="M39.06 142.962C39.9242 142.962 40.6249 142.015 40.6249 140.846C40.6249 139.677 39.9242 138.73 39.06 138.73C38.1957 138.73 37.4951 139.677 37.4951 140.846C37.4951 142.015 38.1957 142.962 39.06 142.962Z" fill="#1A1A1A"/>
<path d="M39.0599 138.546C37.6154 138.546 37.0383 140.324 37.2384 140.369C37.3711 140.461 38.0244 139.324 39.0599 139.372C40.0937 139.324 40.7469 140.461 40.8797 140.369C41.0815 140.324 40.5027 138.544 39.0599 138.546Z" fill="#1A1A1A"/>
<path d="M40.5381 139.361C40.5381 139.361 40.9117 139.808 41.1949 139.753C41.4762 139.679 41.7309 139.527 41.9295 139.315C41.9515 139.51 41.925 139.708 41.8525 139.89C41.7799 140.073 41.6635 140.235 41.5135 140.362C41.4178 140.447 41.299 140.503 41.1719 140.523C40.8479 140.553 40.6054 140.241 40.4337 139.967C40.3558 139.844 40.2761 139.692 40.3434 139.561" fill="#1A1A1A"/>
<path d="M39.86 140.692C40.0458 140.692 40.1964 140.542 40.1964 140.356C40.1964 140.171 40.0458 140.02 39.86 140.02C39.6743 140.02 39.5237 140.171 39.5237 140.356C39.5237 140.542 39.6743 140.692 39.86 140.692Z" fill="white"/>
<g opacity="0.08">
<path opacity="0.08" d="M26.7817 147.673C28.0947 147.673 29.1591 147.138 29.1591 146.478C29.1591 145.818 28.0947 145.283 26.7817 145.283C25.4687 145.283 24.4043 145.818 24.4043 146.478C24.4043 147.138 25.4687 147.673 26.7817 147.673Z" fill="#ED1C24"/>
<path opacity="0.08" d="M38.7324 147.673C40.0454 147.673 41.1098 147.138 41.1098 146.478C41.1098 145.818 40.0454 145.283 38.7324 145.283C37.4194 145.283 36.355 145.818 36.355 146.478C36.355 147.138 37.4194 147.673 38.7324 147.673Z" fill="#ED1C24"/>
</g>
<path d="M20.4019 212.642C23.4466 205.04 21.0869 195.943 15.3992 190.367C16.7765 193.463 18.9397 200.187 18.7025 203.852C18.3927 208.788 9.43359 223.599 9.43359 223.599C9.43359 223.599 9.65487 224.108 11.048 224.738C14.8823 221.333 18.4245 217.666 20.4019 212.642Z" fill="#333333"/>
<path d="M61.4019 220.721C61.4019 220.645 61.393 220.569 61.3877 220.491C60.4884 206.027 57.9535 168.932 55.4681 167.443C52.3791 165.591 41.5648 160.968 41.5648 160.968L37.1393 158.873C36.9622 159.267 32.2942 181.678 32.2942 185.65C32.2942 181.68 27.7465 159.329 27.5712 158.935C27.5606 158.935 23.0253 160.968 23.0253 160.968C23.0253 160.968 12.2146 165.591 9.12557 167.44C6.77118 168.854 4.08753 202.62 2.9422 218.639C2.58816 223.654 2.37573 226.93 2.37573 226.93L7.15532 226.96C8.28649 221.722 13.8078 189.016 14.376 188.723C14.5371 188.642 14.9213 189.285 15.3992 190.358C21.0869 195.934 23.4484 205.031 20.4019 212.633C18.4245 217.657 14.8805 221.322 11.0463 224.725C12.5226 225.395 15.3089 226.196 20.5559 226.67C30.7523 227.596 32.2959 220.498 32.2959 220.498C32.2959 220.498 33.8413 227.596 44.036 226.67C49.2812 226.194 52.0693 225.394 53.5456 224.725C49.7113 221.322 46.1674 217.654 44.1918 212.633C41.1453 205.031 43.505 195.932 49.1927 190.358C49.6724 189.285 50.0548 188.642 50.2141 188.723C50.7876 189.009 55.438 221.315 56.5674 226.555L56.7125 226.544L61.7276 226.18L61.4019 220.721Z" fill="#444444"/>
<path d="M44.1901 212.642C41.1453 205.04 43.505 195.943 49.1927 190.367C47.8155 193.463 45.6611 200.187 45.8895 203.852C46.1993 208.788 55.1583 223.599 55.1583 223.599C55.1583 223.599 54.9371 224.108 53.5439 224.738C49.7096 221.333 46.1674 217.666 44.1901 212.642Z" fill="#333333"/>
<path d="M37.1393 158.862C36.9622 159.256 32.2959 181.667 32.2959 185.645C32.2959 181.674 27.7483 159.324 27.573 158.929C26.6082 159.969 16.8048 167.82 17.9289 170.067C19.168 172.542 24.7265 171.304 25.3443 174.078C25.9621 176.852 21.0197 179.323 25.3443 183.334C29.6689 187.346 32.2959 190.369 32.2959 190.369C32.2959 190.369 34.9229 187.346 39.2476 183.334C43.5722 179.323 38.6298 176.855 39.2476 174.078C39.8654 171.301 45.4274 172.535 46.663 170.067C47.796 167.82 38.1023 159.907 37.1393 158.862Z" fill="#333333"/>
<path d="M33.7406 195.918C34.3891 195.27 34.3891 194.22 33.7406 193.573C33.0922 192.925 32.0408 192.925 31.3924 193.573C30.7439 194.22 30.7439 195.27 31.3924 195.918C32.0408 196.565 33.0922 196.565 33.7406 195.918Z" fill="black"/>
<path d="M34.1826 204.386C34.3925 203.494 33.839 202.602 32.9462 202.392C32.0535 202.183 31.1597 202.735 30.9498 203.627C30.74 204.518 31.2935 205.411 32.1862 205.621C33.0789 205.83 33.9728 205.278 34.1826 204.386Z" fill="black"/>
<path d="M32.5667 214.917C33.4838 214.917 34.2272 214.175 34.2272 213.259C34.2272 212.343 33.4838 211.601 32.5667 211.601C31.6497 211.601 30.9062 212.343 30.9062 213.259C30.9062 214.175 31.6497 214.917 32.5667 214.917Z" fill="black"/>
<path d="M30.3735 128.65C28.86 132.551 24.9867 135.024 22.8182 138.604C20.4426 142.527 20.3293 147.414 20.9241 151.96C21.5189 156.507 22.7492 160.985 22.8147 165.573C22.8465 167.846 22.5562 170.224 21.287 172.114C20.0177 174.004 17.5536 175.222 15.401 174.481C17.4598 174.589 19.2955 172.842 19.8 170.846C20.3045 168.851 19.7451 166.724 18.8281 164.88C17.9112 163.036 16.6525 161.383 15.6417 159.585C11.1525 151.538 12.2659 141.148 16.9322 133.195C17.9554 131.452 19.168 129.765 20.8267 128.62C24.1388 126.343 28.0758 125.105 32.0233 124.345" fill="#543B32"/>
<path d="M49.0988 146.563C48.0227 149.581 46.4551 152.4 44.4591 154.907C42.6676 157.156 40.5292 159.15 39.1148 161.661C37.979 163.732 37.3045 166.023 37.1375 168.378C36.918 171.085 37.3145 173.935 38.8121 176.198C40.3097 178.461 43.0907 179.997 45.7673 179.512C46.7958 179.336 47.8544 178.765 48.2031 177.78C48.5518 176.795 47.7535 175.482 46.7232 175.644C47.2702 176.035 47.0241 176.981 46.4417 177.32C45.8593 177.66 45.1353 177.578 44.4679 177.486C43.3616 177.334 42.1295 177.11 41.4887 176.198C41.2066 175.762 41.051 175.258 41.039 174.739C40.9381 172.855 42.0587 171.099 43.4341 169.807C44.8096 168.515 46.4612 167.546 47.8791 166.299C49.4639 164.889 50.7291 163.156 51.5903 161.218C52.4514 159.281 52.8887 157.181 52.8729 155.061" fill="#543B32"/>
<path d="M17.7767 126.533C16.0985 129.933 15.417 133.897 12.9404 136.768C12.0925 137.75 10.9383 138.611 9.63898 138.585C8.63527 138.565 7.71652 138.016 6.95533 137.363C5.99056 136.538 5.18511 135.484 4.85585 134.257C4.45401 132.705 6.77831 131.268 6.37293 131.706C5.73742 132.396 5.88435 133.575 6.52871 134.259C7.17307 134.943 8.17147 135.189 9.10969 135.143C11.6712 135.03 13.953 132.763 14.0787 130.205" fill="#543B32"/>
<path d="M56.0753 144.067C54.7972 144.668 54.2413 146.188 54.1121 147.603C53.9481 149.433 54.2936 151.273 55.1105 152.92C55.5814 153.863 56.224 154.75 57.1215 155.303C58.019 155.857 59.1448 156.037 60.214 155.963C60.846 155.92 61.5523 155.744 61.8692 155.196C62.186 154.648 61.6922 153.742 61.0974 153.946C61.249 153.713 61.4846 153.547 61.7553 153.484C62.0259 153.42 62.3108 153.462 62.5507 153.603C62.7667 153.756 62.9428 153.959 63.0641 154.195C64.3209 156.366 63.2145 159.437 60.9912 160.603C58.7678 161.77 55.8575 161.134 54.0501 159.384C52.2427 157.633 51.5099 154.98 51.7488 152.489" fill="#543B32"/>
<path d="M35.9975 137.381C36.0239 137.257 36.0842 137.144 36.1718 137.052C36.2593 136.961 36.3706 136.896 36.4932 136.865C37.5553 136.573 40.5647 135.77 40.9736 135.905C41.4764 136.067 43.7334 137.54 43.7334 137.54C43.7334 137.54 41.7259 136.543 41.0568 136.714C40.3877 136.886 36.4542 137.952 36.1214 137.867C35.9533 137.825 35.955 137.597 35.9975 137.381Z" fill="#4E2217"/>
<path d="M29.2671 137.381C29.2404 137.258 29.1799 137.144 29.0924 137.053C29.0049 136.962 28.8938 136.897 28.7714 136.865C27.7093 136.573 24.6999 135.77 24.291 135.905C23.7883 136.067 21.5312 137.54 21.5312 137.54C21.5312 137.54 23.5387 136.543 24.2078 136.714C24.877 136.886 28.8104 137.952 29.1432 137.867C29.3114 137.825 29.3096 137.597 29.2671 137.381Z" fill="#4E2217"/>
<path d="M31.2214 123.719C30.642 124.78 30.0637 125.845 29.4866 126.915C28.6015 128.528 27.7164 130.165 27.2915 131.95C27.0632 132.892 26.9464 133.909 26.3586 134.681C29.0476 134.087 31.779 133.303 33.944 131.605C36.109 129.908 37.6013 127.101 37.0277 124.412" fill="#543B32"/>
<path d="M36.1214 124.168C35.6364 127.759 35.0097 131.543 32.6783 134.321C34.992 134.377 37.3871 134.321 39.4848 133.347C40.499 132.876 41.4084 132.207 42.1596 131.379C42.9067 130.553 43.5032 129.509 43.4661 128.398C43.4236 127.147 42.5809 126.033 41.5188 125.354C40.4567 124.675 39.2175 124.357 38.0067 124.064" fill="#543B32"/>
<path d="M43.6555 136.69C44.0821 138.021 43.8715 139.474 43.5033 140.823C43.2063 141.911 42.8111 142.97 42.3225 143.987C43.5577 142.529 44.4924 140.841 45.0729 139.021C45.6534 137.2 45.8683 135.284 45.7054 133.38C45.5726 131.922 43.59 126.519 41.5188 129.251C39.6424 131.72 42.958 134.503 43.6555 136.69Z" fill="#543B32"/>
<path d="M64.9917 129.785C67.7486 129.785 69.9835 127.55 69.9835 124.793C69.9835 122.037 67.7486 119.802 64.9917 119.802C62.2349 119.802 60 122.037 60 124.793C60 127.55 62.2349 129.785 64.9917 129.785Z" fill="#333333"/>
<path d="M88.0785 119.802C93.2476 119.802 97.438 115.611 97.438 110.442C97.438 105.273 93.2476 101.083 88.0785 101.083C82.9094 101.083 78.719 105.273 78.719 110.442C78.719 115.611 82.9094 119.802 88.0785 119.802Z" fill="#333333"/>
<path d="M172.938 151C214.635 151 248.438 117.197 248.438 75.5C248.438 33.8025 214.635 0 172.938 0C131.24 0 97.438 33.8025 97.438 75.5C97.438 117.197 131.24 151 172.938 151Z" fill="#333333"/>
<path d="M35.9355 149.685C35.9355 149.685 34.3175 149.498 33.8378 149.553C33.3581 149.607 32.5986 149.606 32.5845 149.606C32.5703 149.606 31.802 149.606 31.3294 149.553C30.8567 149.5 29.2317 149.685 29.2317 149.685C29.2317 149.685 32.5084 150.673 32.5827 150.673C32.6571 150.673 35.9355 149.685 35.9355 149.685Z" fill="#E38A76"/>
<path d="M32.7084 151.929C33.9883 151.886 35.9355 149.685 35.9355 149.685L32.8341 150.558C32.6674 150.544 32.4998 150.544 32.3331 150.558L29.2317 149.685C29.2317 149.685 31.1789 151.886 32.4659 151.929H32.7013H32.7084Z" fill="#D67B67"/>
<path d="M122.768 58.2992C122.09 58.2992 121.433 58.2029 120.796 58.0103C120.168 57.8178 119.67 57.5624 119.302 57.2443L119.867 55.976C120.227 56.2606 120.667 56.495 121.186 56.6792C121.713 56.855 122.24 56.9429 122.768 56.9429C123.421 56.9429 123.906 56.8383 124.225 56.629C124.551 56.4197 124.714 56.1434 124.714 55.8002C124.714 55.549 124.622 55.3439 124.438 55.1848C124.262 55.0174 124.036 54.8876 123.76 54.7956C123.484 54.7035 123.107 54.5988 122.63 54.4816C121.96 54.3225 121.416 54.1635 120.997 54.0044C120.587 53.8453 120.231 53.5984 119.93 53.2635C119.637 52.9203 119.49 52.4598 119.49 51.8822C119.49 51.3966 119.62 50.9571 119.88 50.5636C120.147 50.1617 120.545 49.8436 121.073 49.6092C121.608 49.3748 122.261 49.2576 123.032 49.2576C123.567 49.2576 124.095 49.3246 124.614 49.4585C125.133 49.5925 125.581 49.785 125.958 50.0362L125.443 51.3045C125.058 51.0785 124.656 50.9068 124.237 50.7896C123.819 50.6724 123.412 50.6138 123.019 50.6138C122.374 50.6138 121.893 50.7227 121.575 50.9403C121.265 51.158 121.11 51.4468 121.11 51.8068C121.11 52.058 121.198 52.2631 121.374 52.4221C121.558 52.5812 121.788 52.7068 122.065 52.7989C122.341 52.891 122.718 52.9956 123.195 53.1128C123.848 53.2635 124.384 53.4226 124.802 53.59C125.221 53.7491 125.577 53.996 125.87 54.3309C126.171 54.6658 126.322 55.1179 126.322 55.6872C126.322 56.1727 126.188 56.6122 125.92 57.0057C125.66 57.3992 125.263 57.7131 124.727 57.9475C124.191 58.182 123.538 58.2992 122.768 58.2992ZM134.094 54.8583C134.094 54.9672 134.085 55.1221 134.069 55.323H128.807C128.899 55.8169 129.138 56.2104 129.523 56.5034C129.916 56.788 130.402 56.9304 130.979 56.9304C131.716 56.9304 132.323 56.6876 132.8 56.202L133.642 57.169C133.34 57.529 132.959 57.801 132.499 57.9852C132.038 58.1694 131.519 58.2615 130.942 58.2615C130.205 58.2615 129.556 58.115 128.995 57.822C128.434 57.529 127.999 57.1229 127.689 56.6039C127.388 56.0764 127.237 55.482 127.237 54.8207C127.237 54.1677 127.384 53.5816 127.677 53.0626C127.978 52.5352 128.393 52.1249 128.92 51.8319C129.447 51.5389 130.042 51.3924 130.703 51.3924C131.356 51.3924 131.938 51.5389 132.449 51.8319C132.968 52.1166 133.37 52.5226 133.654 53.05C133.947 53.5691 134.094 54.1718 134.094 54.8583ZM130.703 52.6482C130.201 52.6482 129.774 52.7989 129.422 53.1003C129.079 53.3933 128.87 53.7867 128.794 54.2807H132.599C132.532 53.7951 132.327 53.4016 131.984 53.1003C131.641 52.7989 131.214 52.6482 130.703 52.6482ZM135.602 48.8557H137.171V58.1736H135.602V48.8557ZM145.536 54.8583C145.536 54.9672 145.527 55.1221 145.51 55.323H140.249C140.341 55.8169 140.579 56.2104 140.965 56.5034C141.358 56.788 141.844 56.9304 142.421 56.9304C143.158 56.9304 143.765 56.6876 144.242 56.202L145.083 57.169C144.782 57.529 144.401 57.801 143.941 57.9852C143.48 58.1694 142.961 58.2615 142.384 58.2615C141.647 58.2615 140.998 58.115 140.437 57.822C139.876 57.529 139.441 57.1229 139.131 56.6039C138.83 56.0764 138.679 55.482 138.679 54.8207C138.679 54.1677 138.826 53.5816 139.119 53.0626C139.42 52.5352 139.834 52.1249 140.362 51.8319C140.889 51.5389 141.484 51.3924 142.145 51.3924C142.798 51.3924 143.38 51.5389 143.89 51.8319C144.41 52.1166 144.811 52.5226 145.096 53.05C145.389 53.5691 145.536 54.1718 145.536 54.8583ZM142.145 52.6482C141.643 52.6482 141.216 52.7989 140.864 53.1003C140.521 53.3933 140.312 53.7867 140.236 54.2807H144.041C143.974 53.7951 143.769 53.4016 143.426 53.1003C143.083 52.7989 142.656 52.6482 142.145 52.6482ZM150.12 58.2615C149.425 58.2615 148.801 58.115 148.249 57.822C147.696 57.529 147.265 57.1229 146.955 56.6039C146.646 56.0764 146.491 55.482 146.491 54.8207C146.491 54.1593 146.646 53.5691 146.955 53.05C147.265 52.531 147.692 52.1249 148.236 51.8319C148.789 51.5389 149.417 51.3924 150.12 51.3924C150.781 51.3924 151.359 51.5264 151.853 51.7942C152.355 52.0621 152.732 52.4473 152.983 52.9496L151.778 53.6528C151.585 53.343 151.342 53.1128 151.049 52.9621C150.765 52.8031 150.451 52.7235 150.107 52.7235C149.521 52.7235 149.036 52.9161 148.651 53.3012C148.266 53.6779 148.073 54.1844 148.073 54.8207C148.073 55.4569 148.261 55.9676 148.638 56.3527C149.023 56.7294 149.513 56.9178 150.107 56.9178C150.451 56.9178 150.765 56.8425 151.049 56.6918C151.342 56.5327 151.585 56.2983 151.778 55.9885L152.983 56.6918C152.724 57.1941 152.343 57.5834 151.84 57.8596C151.346 58.1275 150.773 58.2615 150.12 58.2615ZM158.457 57.8094C158.273 57.9601 158.047 58.0731 157.779 58.1485C157.519 58.2238 157.243 58.2615 156.95 58.2615C156.213 58.2615 155.644 58.0689 155.242 57.6838C154.84 57.2987 154.639 56.7378 154.639 56.0011V52.7738H153.534V51.518H154.639V49.9859H156.209V51.518H158.005V52.7738H156.209V55.9634C156.209 56.2899 156.289 56.5411 156.448 56.7169C156.607 56.8843 156.837 56.968 157.138 56.968C157.49 56.968 157.783 56.876 158.017 56.6918L158.457 57.8094ZM165.781 51.3924C166.768 51.3924 167.522 51.631 168.041 52.1082C168.568 52.577 168.832 53.2886 168.832 54.243V58.1736H167.35V57.3573C167.158 57.6503 166.881 57.8764 166.521 58.0354C166.17 58.1861 165.743 58.2615 165.241 58.2615C164.738 58.2615 164.299 58.1778 163.922 58.0103C163.545 57.8345 163.252 57.5959 163.043 57.2945C162.842 56.9848 162.742 56.6374 162.742 56.2522C162.742 55.6495 162.963 55.1681 163.407 54.8081C163.859 54.4397 164.567 54.2556 165.529 54.2556H167.262V54.1551C167.262 53.6863 167.12 53.3263 166.835 53.0751C166.559 52.824 166.145 52.6984 165.592 52.6984C165.215 52.6984 164.843 52.757 164.475 52.8742C164.115 52.9914 163.809 53.1547 163.558 53.364L162.943 52.2212C163.294 51.9533 163.717 51.7482 164.211 51.6059C164.705 51.4636 165.228 51.3924 165.781 51.3924ZM165.567 57.1187C165.961 57.1187 166.308 57.0308 166.609 56.855C166.919 56.6708 167.137 56.4113 167.262 56.0764V55.2979H165.642C164.738 55.2979 164.286 55.5951 164.286 56.1895C164.286 56.4741 164.399 56.7001 164.625 56.8676C164.851 57.035 165.165 57.1187 165.567 57.1187ZM174.652 51.3924C175.497 51.3924 176.175 51.6394 176.686 52.1333C177.197 52.6272 177.452 53.3598 177.452 54.3309V58.1736H175.882V54.5318C175.882 53.9458 175.744 53.5063 175.468 53.2133C175.192 52.9119 174.798 52.7612 174.287 52.7612C173.71 52.7612 173.254 52.937 172.919 53.2886C172.584 53.6319 172.416 54.13 172.416 54.783V58.1736H170.847V51.4677H172.341V52.3342C172.601 52.0245 172.927 51.7901 173.321 51.631C173.714 51.4719 174.158 51.3924 174.652 51.3924ZM185.6 51.4677L182.46 58.7136C182.167 59.4419 181.811 59.9526 181.393 60.2456C180.974 60.547 180.468 60.6977 179.873 60.6977C179.538 60.6977 179.208 60.6433 178.881 60.5344C178.555 60.4256 178.287 60.2749 178.077 60.0824L178.705 58.927C178.856 59.0694 179.032 59.1824 179.233 59.2661C179.442 59.3498 179.651 59.3917 179.861 59.3917C180.137 59.3917 180.363 59.3205 180.539 59.1782C180.723 59.0359 180.89 58.7973 181.041 58.4624L181.154 58.1987L178.228 51.4677H179.861L181.97 56.4281L184.093 51.4677H185.6ZM193.065 58.2615C192.387 58.2615 191.776 58.115 191.232 57.822C190.687 57.529 190.26 57.1229 189.951 56.6039C189.649 56.0764 189.499 55.482 189.499 54.8207C189.499 54.1593 189.649 53.5691 189.951 53.05C190.26 52.531 190.687 52.1249 191.232 51.8319C191.776 51.5389 192.387 51.3924 193.065 51.3924C193.752 51.3924 194.367 51.5389 194.911 51.8319C195.455 52.1249 195.878 52.531 196.179 53.05C196.489 53.5691 196.644 54.1593 196.644 54.8207C196.644 55.482 196.489 56.0764 196.179 56.6039C195.878 57.1229 195.455 57.529 194.911 57.822C194.367 58.115 193.752 58.2615 193.065 58.2615ZM193.065 56.9178C193.643 56.9178 194.12 56.7253 194.497 56.3402C194.873 55.955 195.062 55.4486 195.062 54.8207C195.062 54.1928 194.873 53.6863 194.497 53.3012C194.12 52.9161 193.643 52.7235 193.065 52.7235C192.487 52.7235 192.01 52.9161 191.633 53.3012C191.265 53.6863 191.081 54.1928 191.081 54.8207C191.081 55.4486 191.265 55.955 191.633 56.3402C192.01 56.7253 192.487 56.9178 193.065 56.9178ZM200.87 50.0362C200.209 50.0362 199.878 50.3962 199.878 51.1161V51.518H201.724V52.7738H199.928V58.1736H198.359V52.7738H197.253V51.518H198.359V51.091C198.359 50.371 198.568 49.8059 198.986 49.3957C199.405 48.9771 199.995 48.7678 200.757 48.7678C201.36 48.7678 201.833 48.8892 202.176 49.132L201.737 50.3124C201.469 50.1283 201.18 50.0362 200.87 50.0362ZM210.282 57.8094C210.098 57.9601 209.872 58.0731 209.604 58.1485C209.345 58.2238 209.068 58.2615 208.775 58.2615C208.039 58.2615 207.469 58.0689 207.067 57.6838C206.666 57.2987 206.465 56.7378 206.465 56.0011V52.7738H205.36V51.518H206.465V49.9859H208.034V51.518H209.83V52.7738H208.034V55.9634C208.034 56.2899 208.114 56.5411 208.273 56.7169C208.432 56.8843 208.662 56.968 208.964 56.968C209.315 56.968 209.608 56.876 209.843 56.6918L210.282 57.8094ZM215.378 51.3924C216.224 51.3924 216.902 51.6394 217.413 52.1333C217.924 52.6272 218.179 53.3598 218.179 54.3309V58.1736H216.609V54.5318C216.609 53.9458 216.471 53.5063 216.195 53.2133C215.918 52.9119 215.525 52.7612 215.014 52.7612C214.437 52.7612 213.98 52.937 213.646 53.2886C213.311 53.6319 213.143 54.13 213.143 54.783V58.1736H211.573V48.8557H213.143V52.2463C213.403 51.9701 213.721 51.7608 214.098 51.6184C214.483 51.4677 214.91 51.3924 215.378 51.3924ZM226.535 54.8583C226.535 54.9672 226.527 55.1221 226.51 55.323H221.249C221.341 55.8169 221.579 56.2104 221.964 56.5034C222.358 56.788 222.843 56.9304 223.421 56.9304C224.158 56.9304 224.765 56.6876 225.242 56.202L226.083 57.169C225.782 57.529 225.401 57.801 224.941 57.9852C224.48 58.1694 223.961 58.2615 223.383 58.2615C222.647 58.2615 221.998 58.115 221.437 57.822C220.876 57.529 220.441 57.1229 220.131 56.6039C219.83 56.0764 219.679 55.482 219.679 54.8207C219.679 54.1677 219.825 53.5816 220.118 53.0626C220.42 52.5352 220.834 52.1249 221.362 51.8319C221.889 51.5389 222.483 51.3924 223.145 51.3924C223.798 51.3924 224.38 51.5389 224.89 51.8319C225.409 52.1166 225.811 52.5226 226.096 53.05C226.389 53.5691 226.535 54.1718 226.535 54.8583ZM223.145 52.6482C222.643 52.6482 222.216 52.7989 221.864 53.1003C221.521 53.3933 221.311 53.7867 221.236 54.2807H225.041C224.974 53.7951 224.769 53.4016 224.426 53.1003C224.082 52.7989 223.656 52.6482 223.145 52.6482ZM111.72 66.3924C112.373 66.3924 112.955 66.5347 113.465 66.8194C113.984 67.104 114.39 67.5059 114.683 68.0249C114.976 68.544 115.123 69.1425 115.123 69.8207C115.123 70.4988 114.976 71.1016 114.683 71.629C114.39 72.148 113.984 72.5499 113.465 72.8345C112.955 73.1192 112.373 73.2615 111.72 73.2615C110.816 73.2615 110.1 72.9601 109.572 72.3573V75.6098H108.003V66.4677H109.497V67.3468C109.757 67.0287 110.075 66.7901 110.451 66.631C110.837 66.4719 111.259 66.3924 111.72 66.3924ZM111.544 71.9178C112.122 71.9178 112.595 71.7253 112.963 71.3402C113.34 70.955 113.528 70.4486 113.528 69.8207C113.528 69.1928 113.34 68.6863 112.963 68.3012C112.595 67.9161 112.122 67.7235 111.544 67.7235C111.167 67.7235 110.828 67.8114 110.527 67.9872C110.225 68.1547 109.987 68.3975 109.811 68.7156C109.635 69.0337 109.547 69.4021 109.547 69.8207C109.547 70.2393 109.635 70.6076 109.811 70.9257C109.987 71.2439 110.225 71.4908 110.527 71.6667C110.828 71.8341 111.167 71.9178 111.544 71.9178ZM118.106 67.4473C118.558 66.744 119.353 66.3924 120.492 66.3924V67.8868C120.358 67.8617 120.237 67.8491 120.128 67.8491C119.517 67.8491 119.039 68.0291 118.696 68.3891C118.353 68.7407 118.181 69.2514 118.181 69.9211V73.1736H116.612V66.4677H118.106V67.4473ZM124.776 73.2615C124.098 73.2615 123.487 73.115 122.943 72.822C122.399 72.529 121.972 72.1229 121.662 71.6039C121.36 71.0764 121.21 70.482 121.21 69.8207C121.21 69.1593 121.36 68.5691 121.662 68.05C121.972 67.531 122.399 67.1249 122.943 66.8319C123.487 66.5389 124.098 66.3924 124.776 66.3924C125.463 66.3924 126.078 66.5389 126.622 66.8319C127.166 67.1249 127.589 67.531 127.89 68.05C128.2 68.5691 128.355 69.1593 128.355 69.8207C128.355 70.482 128.2 71.0764 127.89 71.6039C127.589 72.1229 127.166 72.529 126.622 72.822C126.078 73.115 125.463 73.2615 124.776 73.2615ZM124.776 71.9178C125.354 71.9178 125.831 71.7253 126.208 71.3402C126.584 70.955 126.773 70.4486 126.773 69.8207C126.773 69.1928 126.584 68.6863 126.208 68.3012C125.831 67.9161 125.354 67.7235 124.776 67.7235C124.198 67.7235 123.721 67.9161 123.345 68.3012C122.976 68.6863 122.792 69.1928 122.792 69.8207C122.792 70.4486 122.976 70.955 123.345 71.3402C123.721 71.7253 124.198 71.9178 124.776 71.9178ZM136.424 63.8557V73.1736H134.917V72.3071C134.657 72.6252 134.335 72.8638 133.95 73.0229C133.573 73.182 133.155 73.2615 132.694 73.2615C132.05 73.2615 131.468 73.1192 130.949 72.8345C130.438 72.5499 130.036 72.148 129.743 71.629C129.45 71.1016 129.304 70.4988 129.304 69.8207C129.304 69.1425 129.45 68.544 129.743 68.0249C130.036 67.5059 130.438 67.104 130.949 66.8194C131.468 66.5347 132.05 66.3924 132.694 66.3924C133.138 66.3924 133.544 66.4677 133.912 66.6184C134.281 66.7691 134.595 66.9952 134.854 67.2966V63.8557H136.424ZM132.883 71.9178C133.259 71.9178 133.598 71.8341 133.9 71.6667C134.201 71.4908 134.44 71.2439 134.616 70.9257C134.791 70.6076 134.879 70.2393 134.879 69.8207C134.879 69.4021 134.791 69.0337 134.616 68.7156C134.44 68.3975 134.201 68.1547 133.9 67.9872C133.598 67.8114 133.259 67.7235 132.883 67.7235C132.506 67.7235 132.167 67.8114 131.865 67.9872C131.564 68.1547 131.325 68.3975 131.15 68.7156C130.974 69.0337 130.886 69.4021 130.886 69.8207C130.886 70.2393 130.974 70.6076 131.15 70.9257C131.325 71.2439 131.564 71.4908 131.865 71.6667C132.167 71.8341 132.506 71.9178 132.883 71.9178ZM144.97 66.4677V73.1736H143.475V72.3197C143.224 72.621 142.91 72.8555 142.533 73.0229C142.157 73.182 141.751 73.2615 141.315 73.2615C140.42 73.2615 139.712 73.0145 139.193 72.5206C138.682 72.0183 138.427 71.2774 138.427 70.2979V66.4677H139.997V70.0844C139.997 70.6872 140.131 71.1392 140.399 71.4406C140.675 71.7336 141.064 71.8801 141.567 71.8801C142.127 71.8801 142.571 71.7085 142.898 71.3653C143.233 71.0137 143.4 70.5113 143.4 69.8583V66.4677H144.97ZM150.102 73.2615C149.407 73.2615 148.783 73.115 148.23 72.822C147.678 72.529 147.247 72.1229 146.937 71.6039C146.627 71.0764 146.472 70.482 146.472 69.8207C146.472 69.1593 146.627 68.5691 146.937 68.05C147.247 67.531 147.674 67.1249 148.218 66.8319C148.77 66.5389 149.398 66.3924 150.102 66.3924C150.763 66.3924 151.341 66.5264 151.835 66.7942C152.337 67.0621 152.714 67.4473 152.965 67.9496L151.759 68.6528C151.567 68.343 151.324 68.1128 151.031 67.9621C150.746 67.8031 150.432 67.7235 150.089 67.7235C149.503 67.7235 149.017 67.9161 148.632 68.3012C148.247 68.6779 148.055 69.1844 148.055 69.8207C148.055 70.4569 148.243 70.9676 148.62 71.3527C149.005 71.7294 149.495 71.9178 150.089 71.9178C150.432 71.9178 150.746 71.8425 151.031 71.6918C151.324 71.5327 151.567 71.2983 151.759 70.9885L152.965 71.6918C152.705 72.1941 152.324 72.5834 151.822 72.8596C151.328 73.1275 150.755 73.2615 150.102 73.2615ZM158.439 72.8094C158.254 72.9601 158.028 73.0731 157.76 73.1485C157.501 73.2238 157.225 73.2615 156.932 73.2615C156.195 73.2615 155.626 73.0689 155.224 72.6838C154.822 72.2987 154.621 71.7378 154.621 71.0011V67.7738H153.516V66.518H154.621V64.9859H156.191V66.518H157.986V67.7738H156.191V70.9634C156.191 71.2899 156.27 71.5411 156.429 71.7169C156.588 71.8843 156.819 71.968 157.12 71.968C157.472 71.968 157.765 71.876 157.999 71.6918L158.439 72.8094ZM169.479 66.4677L166.34 73.7136C166.047 74.4419 165.691 74.9526 165.272 75.2456C164.854 75.547 164.347 75.6977 163.753 75.6977C163.418 75.6977 163.087 75.6433 162.761 75.5344C162.434 75.4256 162.166 75.2749 161.957 75.0824L162.585 73.927C162.736 74.0694 162.912 74.1824 163.112 74.2661C163.322 74.3498 163.531 74.3917 163.74 74.3917C164.017 74.3917 164.243 74.3205 164.419 74.1782C164.603 74.0359 164.77 73.7973 164.921 73.4624L165.034 73.1987L162.108 66.4677H163.74L165.85 71.4281L167.972 66.4677H169.479ZM173.29 73.2615C172.612 73.2615 172.001 73.115 171.457 72.822C170.913 72.529 170.486 72.1229 170.176 71.6039C169.875 71.0764 169.724 70.482 169.724 69.8207C169.724 69.1593 169.875 68.5691 170.176 68.05C170.486 67.531 170.913 67.1249 171.457 66.8319C172.001 66.5389 172.612 66.3924 173.29 66.3924C173.977 66.3924 174.592 66.5389 175.136 66.8319C175.68 67.1249 176.103 67.531 176.405 68.05C176.714 68.5691 176.869 69.1593 176.869 69.8207C176.869 70.482 176.714 71.0764 176.405 71.6039C176.103 72.1229 175.68 72.529 175.136 72.822C174.592 73.115 173.977 73.2615 173.29 73.2615ZM173.29 71.9178C173.868 71.9178 174.345 71.7253 174.722 71.3402C175.099 70.955 175.287 70.4486 175.287 69.8207C175.287 69.1928 175.099 68.6863 174.722 68.3012C174.345 67.9161 173.868 67.7235 173.29 67.7235C172.713 67.7235 172.235 67.9161 171.859 68.3012C171.49 68.6863 171.306 69.1928 171.306 69.8207C171.306 70.4486 171.49 70.955 171.859 71.3402C172.235 71.7253 172.713 71.9178 173.29 71.9178ZM184.863 66.4677V73.1736H183.368V72.3197C183.117 72.621 182.803 72.8555 182.426 73.0229C182.05 73.182 181.644 73.2615 181.208 73.2615C180.313 73.2615 179.605 73.0145 179.086 72.5206C178.575 72.0183 178.32 71.2774 178.32 70.2979V66.4677H179.89V70.0844C179.89 70.6872 180.024 71.1392 180.292 71.4406C180.568 71.7336 180.957 71.8801 181.459 71.8801C182.02 71.8801 182.464 71.7085 182.791 71.3653C183.125 71.0137 183.293 70.5113 183.293 69.8583V66.4677H184.863ZM200.849 66.4677L198.375 73.1736H196.868L195.135 68.5523L193.377 73.1736H191.87L189.409 66.4677H190.891L192.661 71.4155L194.507 66.4677H195.826L197.634 71.4406L199.455 66.4677H200.849ZM204.282 66.3924C205.269 66.3924 206.023 66.631 206.542 67.1082C207.069 67.577 207.333 68.2886 207.333 69.243V73.1736H205.851V72.3573C205.659 72.6503 205.382 72.8764 205.023 73.0354C204.671 73.1861 204.244 73.2615 203.742 73.2615C203.239 73.2615 202.8 73.1778 202.423 73.0103C202.046 72.8345 201.753 72.5959 201.544 72.2945C201.343 71.9848 201.243 71.6374 201.243 71.2522C201.243 70.6495 201.464 70.1681 201.908 69.8081C202.36 69.4397 203.068 69.2556 204.03 69.2556H205.763V69.1551C205.763 68.6863 205.621 68.3263 205.336 68.0751C205.06 67.824 204.646 67.6984 204.093 67.6984C203.716 67.6984 203.344 67.757 202.976 67.8742C202.616 67.9914 202.31 68.1547 202.059 68.364L201.444 67.2212C201.795 66.9533 202.218 66.7482 202.712 66.6059C203.206 66.4636 203.729 66.3924 204.282 66.3924ZM204.068 72.1187C204.462 72.1187 204.809 72.0308 205.11 71.855C205.42 71.6708 205.638 71.4113 205.763 71.0764V70.2979H204.143C203.239 70.2979 202.787 70.5951 202.787 71.1895C202.787 71.4741 202.9 71.7001 203.126 71.8676C203.352 72.035 203.666 72.1187 204.068 72.1187ZM213.153 66.3924C213.998 66.3924 214.676 66.6394 215.187 67.1333C215.698 67.6272 215.953 68.3598 215.953 69.3309V73.1736H214.383V69.5318C214.383 68.9458 214.245 68.5063 213.969 68.2133C213.693 67.9119 213.299 67.7612 212.788 67.7612C212.211 67.7612 211.755 67.937 211.42 68.2886C211.085 68.6319 210.917 69.13 210.917 69.783V73.1736H209.348V66.4677H210.842V67.3342C211.102 67.0245 211.428 66.7901 211.822 66.631C212.215 66.4719 212.659 66.3924 213.153 66.3924ZM221.975 72.8094C221.791 72.9601 221.565 73.0731 221.297 73.1485C221.038 73.2238 220.761 73.2615 220.468 73.2615C219.732 73.2615 219.162 73.0689 218.761 72.6838C218.359 72.2987 218.158 71.7378 218.158 71.0011V67.7738H217.053V66.518H218.158V64.9859H219.728V66.518H221.523V67.7738H219.728V70.9634C219.728 71.2899 219.807 71.5411 219.966 71.7169C220.125 71.8843 220.355 71.968 220.657 71.968C221.008 71.968 221.301 71.876 221.536 71.6918L221.975 72.8094ZM230.768 72.8094C230.584 72.9601 230.358 73.0731 230.09 73.1485C229.831 73.2238 229.554 73.2615 229.261 73.2615C228.525 73.2615 227.955 73.0689 227.553 72.6838C227.152 72.2987 226.951 71.7378 226.951 71.0011V67.7738H225.846V66.518H226.951V64.9859H228.52V66.518H230.316V67.7738H228.52V70.9634C228.52 71.2899 228.6 71.5411 228.759 71.7169C228.918 71.8843 229.148 71.968 229.45 71.968C229.801 71.968 230.094 71.876 230.329 71.6918L230.768 72.8094ZM234.853 73.2615C234.175 73.2615 233.563 73.115 233.019 72.822C232.475 72.529 232.048 72.1229 231.738 71.6039C231.437 71.0764 231.286 70.482 231.286 69.8207C231.286 69.1593 231.437 68.5691 231.738 68.05C232.048 67.531 232.475 67.1249 233.019 66.8319C233.563 66.5389 234.175 66.3924 234.853 66.3924C235.539 66.3924 236.154 66.5389 236.699 66.8319C237.243 67.1249 237.666 67.531 237.967 68.05C238.277 68.5691 238.432 69.1593 238.432 69.8207C238.432 70.482 238.277 71.0764 237.967 71.6039C237.666 72.1229 237.243 72.529 236.699 72.822C236.154 73.115 235.539 73.2615 234.853 73.2615ZM234.853 71.9178C235.43 71.9178 235.907 71.7253 236.284 71.3402C236.661 70.955 236.849 70.4486 236.849 69.8207C236.849 69.1928 236.661 68.6863 236.284 68.3012C235.907 67.9161 235.43 67.7235 234.853 67.7235C234.275 67.7235 233.798 67.9161 233.421 68.3012C233.053 68.6863 232.869 69.1928 232.869 69.8207C232.869 70.4486 233.053 70.955 233.421 71.3402C233.798 71.7253 234.275 71.9178 234.853 71.9178ZM111.021 81.3924C111.674 81.3924 112.256 81.5347 112.766 81.8194C113.285 82.104 113.691 82.5059 113.984 83.0249C114.277 83.544 114.424 84.1425 114.424 84.8207C114.424 85.4988 114.277 86.1016 113.984 86.629C113.691 87.148 113.285 87.5499 112.766 87.8345C112.256 88.1192 111.674 88.2615 111.021 88.2615C110.117 88.2615 109.401 87.9601 108.873 87.3573V90.6098H107.304V81.4677H108.798V82.3468C109.058 82.0287 109.376 81.7901 109.752 81.631C110.138 81.4719 110.56 81.3924 111.021 81.3924ZM110.845 86.9178C111.423 86.9178 111.896 86.7253 112.264 86.3402C112.641 85.955 112.829 85.4486 112.829 84.8207C112.829 84.1928 112.641 83.6863 112.264 83.3012C111.896 82.9161 111.423 82.7235 110.845 82.7235C110.468 82.7235 110.129 82.8114 109.828 82.9872C109.526 83.1547 109.288 83.3975 109.112 83.7156C108.936 84.0337 108.848 84.4021 108.848 84.8207C108.848 85.2393 108.936 85.6076 109.112 85.9257C109.288 86.2439 109.526 86.4908 109.828 86.6667C110.129 86.8341 110.468 86.9178 110.845 86.9178ZM122.405 81.4677V88.1736H120.911V87.3197C120.659 87.621 120.346 87.8555 119.969 88.0229C119.592 88.182 119.186 88.2615 118.751 88.2615C117.855 88.2615 117.147 88.0145 116.628 87.5206C116.118 87.0183 115.862 86.2774 115.862 85.2979V81.4677H117.432V85.0844C117.432 85.6872 117.566 86.1392 117.834 86.4406C118.11 86.7336 118.5 86.8801 119.002 86.8801C119.563 86.8801 120.006 86.7085 120.333 86.3653C120.668 86.0137 120.835 85.5113 120.835 84.8583V81.4677H122.405ZM125.955 82.4473C126.407 81.744 127.202 81.3924 128.341 81.3924V82.8868C128.207 82.8617 128.085 82.8491 127.976 82.8491C127.365 82.8491 126.888 83.0291 126.545 83.3891C126.202 83.7407 126.03 84.2514 126.03 84.9211V88.1736H124.46V81.4677H125.955V82.4473ZM132.688 88.2615C131.993 88.2615 131.369 88.115 130.816 87.822C130.264 87.529 129.833 87.1229 129.523 86.6039C129.213 86.0764 129.058 85.482 129.058 84.8207C129.058 84.1593 129.213 83.5691 129.523 83.05C129.833 82.531 130.26 82.1249 130.804 81.8319C131.356 81.5389 131.984 81.3924 132.688 81.3924C133.349 81.3924 133.927 81.5264 134.421 81.7942C134.923 82.0621 135.3 82.4473 135.551 82.9496L134.345 83.6528C134.153 83.343 133.91 83.1128 133.617 82.9621C133.332 82.8031 133.018 82.7235 132.675 82.7235C132.089 82.7235 131.603 82.9161 131.218 83.3012C130.833 83.6779 130.641 84.1844 130.641 84.8207C130.641 85.4569 130.829 85.9676 131.206 86.3527C131.591 86.7294 132.081 86.9178 132.675 86.9178C133.018 86.9178 133.332 86.8425 133.617 86.6918C133.91 86.5327 134.153 86.2983 134.345 85.9885L135.551 86.6918C135.291 87.1941 134.91 87.5834 134.408 87.8596C133.914 88.1275 133.341 88.2615 132.688 88.2615ZM140.651 81.3924C141.497 81.3924 142.175 81.6394 142.686 82.1333C143.196 82.6272 143.452 83.3598 143.452 84.3309V88.1736H141.882V84.5318C141.882 83.9458 141.744 83.5063 141.468 83.2133C141.191 82.9119 140.798 82.7612 140.287 82.7612C139.709 82.7612 139.253 82.937 138.918 83.2886C138.583 83.6319 138.416 84.13 138.416 84.783V88.1736H136.846V78.8557H138.416V82.2463C138.676 81.9701 138.994 81.7608 139.37 81.6184C139.756 81.4677 140.182 81.3924 140.651 81.3924ZM148.005 81.3924C148.993 81.3924 149.746 81.631 150.265 82.1082C150.793 82.577 151.056 83.2886 151.056 84.243V88.1736H149.574V87.3573C149.382 87.6503 149.106 87.8764 148.746 88.0354C148.394 88.1861 147.967 88.2615 147.465 88.2615C146.962 88.2615 146.523 88.1778 146.146 88.0103C145.769 87.8345 145.476 87.5959 145.267 87.2945C145.066 86.9848 144.966 86.6374 144.966 86.2522C144.966 85.6495 145.188 85.1681 145.631 84.8081C146.083 84.4397 146.791 84.2556 147.754 84.2556H149.487V84.1551C149.487 83.6863 149.344 83.3263 149.06 83.0751C148.783 82.824 148.369 82.6984 147.816 82.6984C147.44 82.6984 147.067 82.757 146.699 82.8742C146.339 82.9914 146.033 83.1547 145.782 83.364L145.167 82.2212C145.518 81.9533 145.941 81.7482 146.435 81.6059C146.929 81.4636 147.452 81.3924 148.005 81.3924ZM147.791 87.1187C148.185 87.1187 148.532 87.0308 148.834 86.855C149.143 86.6708 149.361 86.4113 149.487 86.0764V85.2979H147.867C146.962 85.2979 146.51 85.5951 146.51 86.1895C146.51 86.4741 146.623 86.7001 146.849 86.8676C147.075 87.035 147.389 87.1187 147.791 87.1187ZM155.143 88.2615C154.599 88.2615 154.067 88.1903 153.548 88.048C153.029 87.9057 152.615 87.7257 152.305 87.508L152.908 86.315C153.209 86.516 153.569 86.6792 153.988 86.8048C154.414 86.922 154.833 86.9806 155.243 86.9806C156.181 86.9806 156.65 86.7336 156.65 86.2397C156.65 86.0053 156.528 85.842 156.286 85.7499C156.051 85.6578 155.67 85.5699 155.143 85.4862C154.59 85.4025 154.138 85.3062 153.787 85.1974C153.443 85.0886 153.142 84.9002 152.882 84.6323C152.631 84.356 152.506 83.9751 152.506 83.4895C152.506 82.8533 152.769 82.3468 153.297 81.9701C153.833 81.585 154.553 81.3924 155.457 81.3924C155.917 81.3924 156.378 81.4468 156.838 81.5557C157.299 81.6561 157.675 81.7942 157.968 81.9701L157.366 83.163C156.796 82.8282 156.156 82.6607 155.444 82.6607C154.984 82.6607 154.632 82.7319 154.389 82.8742C154.155 83.0082 154.038 83.1882 154.038 83.4142C154.038 83.6654 154.163 83.8453 154.414 83.9542C154.674 84.0546 155.072 84.1509 155.607 84.243C156.143 84.3267 156.583 84.423 156.926 84.5318C157.269 84.6407 157.562 84.8249 157.805 85.0844C158.056 85.3439 158.182 85.7123 158.182 86.1895C158.182 86.8173 157.91 87.3197 157.366 87.6964C156.821 88.0731 156.08 88.2615 155.143 88.2615ZM165.838 84.8583C165.838 84.9672 165.829 85.1221 165.813 85.323H160.551C160.643 85.8169 160.882 86.2104 161.267 86.5034C161.66 86.788 162.146 86.9304 162.723 86.9304C163.46 86.9304 164.067 86.6876 164.544 86.202L165.386 87.169C165.084 87.529 164.703 87.801 164.243 87.9852C163.782 88.1694 163.263 88.2615 162.686 88.2615C161.949 88.2615 161.3 88.115 160.739 87.822C160.178 87.529 159.743 87.1229 159.433 86.6039C159.132 86.0764 158.981 85.482 158.981 84.8207C158.981 84.1677 159.128 83.5816 159.421 83.0626C159.722 82.5352 160.136 82.1249 160.664 81.8319C161.191 81.5389 161.786 81.3924 162.447 81.3924C163.1 81.3924 163.682 81.5389 164.193 81.8319C164.712 82.1166 165.113 82.5226 165.398 83.05C165.691 83.5691 165.838 84.1718 165.838 84.8583ZM162.447 82.6482C161.945 82.6482 161.518 82.7989 161.166 83.1003C160.823 83.3933 160.614 83.7867 160.538 84.2807H164.343C164.276 83.7951 164.071 83.4016 163.728 83.1003C163.385 82.7989 162.958 82.6482 162.447 82.6482ZM174.533 81.3924C175.186 81.3924 175.768 81.5347 176.279 81.8194C176.798 82.104 177.204 82.5059 177.497 83.0249C177.79 83.544 177.936 84.1425 177.936 84.8207C177.936 85.4988 177.79 86.1016 177.497 86.629C177.204 87.148 176.798 87.5499 176.279 87.8345C175.768 88.1192 175.186 88.2615 174.533 88.2615C174.073 88.2615 173.65 88.182 173.265 88.0229C172.888 87.8638 172.57 87.6252 172.31 87.3071V88.1736H170.816V78.8557H172.386V82.284C172.654 81.991 172.968 81.7691 173.328 81.6184C173.696 81.4677 174.098 81.3924 174.533 81.3924ZM174.357 86.9178C174.935 86.9178 175.408 86.7253 175.776 86.3402C176.153 85.955 176.341 85.4486 176.341 84.8207C176.341 84.1928 176.153 83.6863 175.776 83.3012C175.408 82.9161 174.935 82.7235 174.357 82.7235C173.981 82.7235 173.641 82.8114 173.34 82.9872C173.039 83.1547 172.8 83.3975 172.624 83.7156C172.448 84.0337 172.361 84.4021 172.361 84.8207C172.361 85.2393 172.448 85.6076 172.624 85.9257C172.8 86.2439 173.039 86.4908 173.34 86.6667C173.641 86.8341 173.981 86.9178 174.357 86.9178ZM185.52 81.4677L182.38 88.7136C182.087 89.4419 181.732 89.9526 181.313 90.2456C180.894 90.547 180.388 90.6977 179.794 90.6977C179.459 90.6977 179.128 90.6433 178.801 90.5344C178.475 90.4256 178.207 90.2749 177.998 90.0824L178.626 88.927C178.776 89.0694 178.952 89.1824 179.153 89.2661C179.362 89.3498 179.572 89.3917 179.781 89.3917C180.057 89.3917 180.283 89.3205 180.459 89.1782C180.643 89.0359 180.811 88.7973 180.961 88.4624L181.074 88.1987L178.148 81.4677H179.781L181.891 86.4281L184.013 81.4677H185.52ZM193.048 88.2615C192.353 88.2615 191.73 88.115 191.177 87.822C190.624 87.529 190.193 87.1229 189.884 86.6039C189.574 86.0764 189.419 85.482 189.419 84.8207C189.419 84.1593 189.574 83.5691 189.884 83.05C190.193 82.531 190.62 82.1249 191.164 81.8319C191.717 81.5389 192.345 81.3924 193.048 81.3924C193.709 81.3924 194.287 81.5264 194.781 81.7942C195.283 82.0621 195.66 82.4473 195.911 82.9496L194.706 83.6528C194.513 83.343 194.27 83.1128 193.977 82.9621C193.693 82.8031 193.379 82.7235 193.036 82.7235C192.45 82.7235 191.964 82.9161 191.579 83.3012C191.194 83.6779 191.001 84.1844 191.001 84.8207C191.001 85.4569 191.19 85.9676 191.566 86.3527C191.951 86.7294 192.441 86.9178 193.036 86.9178C193.379 86.9178 193.693 86.8425 193.977 86.6918C194.27 86.5327 194.513 86.2983 194.706 85.9885L195.911 86.6918C195.652 87.1941 195.271 87.5834 194.769 87.8596C194.275 88.1275 193.701 88.2615 193.048 88.2615ZM197.207 78.8557H198.777V88.1736H197.207V78.8557ZM200.837 81.4677H202.407V88.1736H200.837V81.4677ZM201.628 80.3627C201.343 80.3627 201.105 80.2748 200.912 80.099C200.72 79.9148 200.623 79.6887 200.623 79.4208C200.623 79.1529 200.72 78.9311 200.912 78.7553C201.105 78.5711 201.343 78.479 201.628 78.479C201.913 78.479 202.151 78.5669 202.344 78.7427C202.536 78.9102 202.633 79.1236 202.633 79.3832C202.633 79.6594 202.536 79.8938 202.344 80.0864C202.16 80.2706 201.921 80.3627 201.628 80.3627ZM207.543 88.2615C206.849 88.2615 206.225 88.115 205.672 87.822C205.12 87.529 204.689 87.1229 204.379 86.6039C204.069 86.0764 203.914 85.482 203.914 84.8207C203.914 84.1593 204.069 83.5691 204.379 83.05C204.689 82.531 205.116 82.1249 205.66 81.8319C206.212 81.5389 206.84 81.3924 207.543 81.3924C208.205 81.3924 208.783 81.5264 209.276 81.7942C209.779 82.0621 210.155 82.4473 210.407 82.9496L209.201 83.6528C209.009 83.343 208.766 83.1128 208.473 82.9621C208.188 82.8031 207.874 82.7235 207.531 82.7235C206.945 82.7235 206.459 82.9161 206.074 83.3012C205.689 83.6779 205.497 84.1844 205.497 84.8207C205.497 85.4569 205.685 85.9676 206.062 86.3527C206.447 86.7294 206.937 86.9178 207.531 86.9178C207.874 86.9178 208.188 86.8425 208.473 86.6918C208.766 86.5327 209.009 86.2983 209.201 85.9885L210.407 86.6918C210.147 87.1941 209.766 87.5834 209.264 87.8596C208.77 88.1275 208.196 88.2615 207.543 88.2615ZM214.44 85.2979L213.272 86.4029V88.1736H211.702V78.8557H213.272V84.4816L216.524 81.4677H218.408L215.608 84.2807L218.672 88.1736H216.763L214.44 85.2979ZM219.624 81.4677H221.194V88.1736H219.624V81.4677ZM220.416 80.3627C220.131 80.3627 219.892 80.2748 219.7 80.099C219.507 79.9148 219.411 79.6887 219.411 79.4208C219.411 79.1529 219.507 78.9311 219.7 78.7553C219.892 78.5711 220.131 78.479 220.416 78.479C220.7 78.479 220.939 78.5669 221.131 78.7427C221.324 78.9102 221.42 79.1236 221.42 79.3832C221.42 79.6594 221.324 79.8938 221.131 80.0864C220.947 80.2706 220.709 80.3627 220.416 80.3627ZM227.059 81.3924C227.905 81.3924 228.583 81.6394 229.094 82.1333C229.604 82.6272 229.86 83.3598 229.86 84.3309V88.1736H228.29V84.5318C228.29 83.9458 228.152 83.5063 227.876 83.2133C227.599 82.9119 227.206 82.7612 226.695 82.7612C226.118 82.7612 225.661 82.937 225.326 83.2886C224.992 83.6319 224.824 84.13 224.824 84.783V88.1736H223.254V81.4677H224.749V82.3342C225.008 82.0245 225.335 81.7901 225.728 81.631C226.122 81.4719 226.565 81.3924 227.059 81.3924ZM238.568 81.4677V87.1564C238.568 89.5173 237.362 90.6977 234.951 90.6977C234.307 90.6977 233.696 90.614 233.118 90.4465C232.54 90.2875 232.063 90.0531 231.686 89.7433L232.39 88.5629C232.683 88.8057 233.051 88.9982 233.495 89.1405C233.947 89.2912 234.403 89.3666 234.863 89.3666C235.6 89.3666 236.14 89.1991 236.483 88.8643C236.827 88.5294 236.998 88.0187 236.998 87.3322V86.9806C236.73 87.2736 236.404 87.4955 236.019 87.6462C235.634 87.7969 235.211 87.8722 234.75 87.8722C234.114 87.8722 233.536 87.7382 233.017 87.4704C232.507 87.1941 232.101 86.809 231.799 86.315C231.506 85.8211 231.36 85.256 231.36 84.6197C231.36 83.9835 231.506 83.4226 231.799 82.937C232.101 82.4431 232.507 82.0621 233.017 81.7942C233.536 81.5264 234.114 81.3924 234.75 81.3924C235.236 81.3924 235.676 81.4719 236.069 81.631C236.471 81.7901 236.806 82.0328 237.074 82.3593V81.4677H238.568ZM234.989 86.5411C235.583 86.5411 236.069 86.3653 236.446 86.0137C236.831 85.6537 237.023 85.189 237.023 84.6197C237.023 84.0588 236.831 83.6026 236.446 83.2509C236.069 82.8993 235.583 82.7235 234.989 82.7235C234.386 82.7235 233.892 82.8993 233.507 83.2509C233.13 83.6026 232.942 84.0588 232.942 84.6197C232.942 85.189 233.13 85.6537 233.507 86.0137C233.892 86.3653 234.386 86.5411 234.989 86.5411ZM160.831 103.261C160.152 103.261 159.541 103.115 158.997 102.822C158.453 102.529 158.026 102.123 157.716 101.604C157.415 101.076 157.264 100.482 157.264 99.8207C157.264 99.1593 157.415 98.5691 157.716 98.05C158.026 97.531 158.453 97.1249 158.997 96.8319C159.541 96.5389 160.152 96.3924 160.831 96.3924C161.517 96.3924 162.132 96.5389 162.677 96.8319C163.221 97.1249 163.644 97.531 163.945 98.05C164.255 98.5691 164.41 99.1593 164.41 99.8207C164.41 100.482 164.255 101.076 163.945 101.604C163.644 102.123 163.221 102.529 162.677 102.822C162.132 103.115 161.517 103.261 160.831 103.261ZM160.831 101.918C161.408 101.918 161.885 101.725 162.262 101.34C162.639 100.955 162.827 100.449 162.827 99.8207C162.827 99.1928 162.639 98.6863 162.262 98.3012C161.885 97.9161 161.408 97.7235 160.831 97.7235C160.253 97.7235 159.776 97.9161 159.399 98.3012C159.031 98.6863 158.846 99.1928 158.846 99.8207C158.846 100.449 159.031 100.955 159.399 101.34C159.776 101.725 160.253 101.918 160.831 101.918ZM169.716 96.3924C170.561 96.3924 171.239 96.6394 171.75 97.1333C172.261 97.6272 172.516 98.3598 172.516 99.3309V103.174H170.946V99.5318C170.946 98.9458 170.808 98.5063 170.532 98.2133C170.256 97.9119 169.862 97.7612 169.351 97.7612C168.774 97.7612 168.318 97.937 167.983 98.2886C167.648 98.6319 167.48 99.13 167.48 99.783V103.174H165.911V96.4677H167.405V97.3342C167.665 97.0245 167.991 96.7901 168.384 96.631C168.778 96.4719 169.222 96.3924 169.716 96.3924ZM177.978 96.4677H179.548V103.174H177.978V96.4677ZM178.769 95.3627C178.484 95.3627 178.246 95.2748 178.053 95.099C177.861 94.9148 177.764 94.6887 177.764 94.4208C177.764 94.1529 177.861 93.9311 178.053 93.7553C178.246 93.5711 178.484 93.479 178.769 93.479C179.054 93.479 179.292 93.5669 179.485 93.7427C179.677 93.9102 179.774 94.1236 179.774 94.3832C179.774 94.6594 179.677 94.8938 179.485 95.0864C179.301 95.2706 179.062 95.3627 178.769 95.3627ZM185.639 102.809C185.455 102.96 185.229 103.073 184.961 103.148C184.701 103.224 184.425 103.261 184.132 103.261C183.395 103.261 182.826 103.069 182.424 102.684C182.022 102.299 181.821 101.738 181.821 101.001V97.7738H180.716V96.518H181.821V94.9859H183.391V96.518H185.187V97.7738H183.391V100.963C183.391 101.29 183.471 101.541 183.63 101.717C183.789 101.884 184.019 101.968 184.32 101.968C184.672 101.968 184.965 101.876 185.199 101.692L185.639 102.809ZM187.555 103.261C187.27 103.261 187.028 103.165 186.827 102.973C186.626 102.772 186.525 102.521 186.525 102.219C186.525 101.909 186.622 101.658 186.814 101.466C187.015 101.273 187.262 101.177 187.555 101.177C187.848 101.177 188.091 101.273 188.283 101.466C188.484 101.658 188.585 101.909 188.585 102.219C188.585 102.521 188.484 102.772 188.283 102.973C188.082 103.165 187.84 103.261 187.555 103.261Z" fill="white"/>
</svg>
