<svg width="222" height="37" viewBox="0 0 222 37" fill="none" xmlns="http://www.w3.org/2000/svg">
<path d="M46.8709 36.1932H5.18044C2.39961 36.1932 0.144043 33.9356 0.144043 31.1522C0.144043 28.3687 2.39961 26.1111 5.18044 26.1111H46.8709C49.6517 26.1111 51.9073 28.3687 51.9073 31.1522C51.9073 33.9356 49.6517 36.1932 46.8709 36.1932Z" fill="#005DAB"/>
<path d="M46.8709 26.9947H5.18044C2.39961 26.9947 0.144043 24.7371 0.144043 21.9537C0.144043 19.1703 2.39961 16.9126 5.18044 16.9126H46.8709C49.6517 16.9126 51.9073 19.1703 51.9073 21.9537C51.9073 24.7371 49.6517 26.9947 46.8709 26.9947Z" fill="#005DAB"/>
<path d="M51.3335 10.4312L1.22998 9.64034L5.44537 3.92771C7.00794 1.48007 9.70932 0 12.6137 0H39.4422C42.3422 0 45.048 1.48007 46.6105 3.92771L51.338 10.4356L51.3335 10.4312Z" fill="#1291FC"/>
<path d="M46.8709 17.8007H5.18044C2.39961 17.8007 0.144043 15.543 0.144043 12.7596C0.144043 9.97616 2.39961 7.71851 5.18044 7.71851H46.8709C49.6517 7.71851 51.9073 9.97616 51.9073 12.7596C51.9073 15.543 49.6517 17.8007 46.8709 17.8007Z" fill="#005DAB"/>
<path d="M2.89404 17.3588C2.89404 17.3588 13.2493 16.2234 26.0235 16.2234C38.7977 16.2234 49.153 17.3588 49.153 17.3588C49.153 17.3588 38.7977 18.4943 26.0235 18.4943C13.2493 18.4943 2.89404 17.3588 2.89404 17.3588Z" fill="#093B63"/>
<path d="M3.12793 26.5484C3.12793 26.5484 13.3817 25.413 26.0279 25.413C38.6741 25.413 48.9278 26.5484 48.9278 26.5484C48.9278 26.5484 38.6741 27.6839 26.0279 27.6839C13.3817 27.6839 3.12793 26.5484 3.12793 26.5484Z" fill="#093B63"/>
<path d="M216.727 36.1932H175.036C172.256 36.1932 170 33.9356 170 31.1522C170 28.3687 172.256 26.1111 175.036 26.1111H216.727C219.508 26.1111 221.763 28.3687 221.763 31.1522C221.763 33.9356 219.508 36.1932 216.727 36.1932Z" fill="#0D7AB8"/>
<path d="M216.727 26.9947H175.036C172.256 26.9947 170 24.7371 170 21.9537C170 19.1703 172.256 16.9126 175.036 16.9126H216.727C219.508 16.9126 221.763 19.1703 221.763 21.9537C221.763 24.7371 219.508 26.9947 216.727 26.9947Z" fill="#0D7AB8"/>
<path d="M221.189 10.4312L171.086 9.64034L175.301 3.92771C176.864 1.48007 179.565 0 182.47 0H209.298C212.198 0 214.904 1.48007 216.466 3.92771L221.194 10.4356L221.189 10.4312Z" fill="#12ABFF"/>
<path d="M216.727 17.8007H175.036C172.256 17.8007 170 15.543 170 12.7596C170 9.97616 172.256 7.71851 175.036 7.71851H216.727C219.508 7.71851 221.763 9.97616 221.763 12.7596C221.763 15.543 219.508 17.8007 216.727 17.8007Z" fill="#0D7AB8"/>
<path d="M172.75 17.3588C172.75 17.3588 183.105 16.2234 195.879 16.2234C208.654 16.2234 219.009 17.3588 219.009 17.3588C219.009 17.3588 208.654 18.4943 195.879 18.4943C183.105 18.4943 172.75 17.3588 172.75 17.3588V17.3588Z" fill="#08486B"/>
<path d="M172.984 26.5484C172.984 26.5484 183.238 25.413 195.884 25.413C208.53 25.413 218.784 26.5484 218.784 26.5484C218.784 26.5484 208.53 27.6839 195.884 27.6839C183.238 27.6839 172.984 26.5484 172.984 26.5484V26.5484Z" fill="#08486B"/>
<path d="M131.727 36.1932H90.0364C87.2556 36.1932 85 33.9356 85 31.1522C85 28.3687 87.2556 26.1111 90.0364 26.1111H131.727C134.508 26.1111 136.763 28.3687 136.763 31.1522C136.763 33.9356 134.508 36.1932 131.727 36.1932Z" fill="#0D7AB8"/>
<path d="M131.727 26.9947H90.0364C87.2556 26.9947 85 24.7371 85 21.9537C85 19.1703 87.2556 16.9126 90.0364 16.9126H131.727C134.508 16.9126 136.763 19.1703 136.763 21.9537C136.763 24.7371 134.508 26.9947 131.727 26.9947Z" fill="#0D7AB8"/>
<path d="M136.189 10.4312L86.0858 9.64034L90.3012 3.92771C91.8638 1.48007 94.5652 0 97.4696 0H124.298C127.198 0 129.904 1.48007 131.466 3.92771L136.194 10.4356L136.189 10.4312Z" fill="#12ABFF"/>
<path d="M131.727 17.8007H90.0364C87.2556 17.8007 85 15.543 85 12.7596C85 9.97616 87.2556 7.71851 90.0364 7.71851H131.727C134.508 7.71851 136.763 9.97616 136.763 12.7596C136.763 15.543 134.508 17.8007 131.727 17.8007Z" fill="#0D7AB8"/>
<path d="M87.75 17.3588C87.75 17.3588 98.1053 16.2234 110.879 16.2234C123.654 16.2234 134.009 17.3588 134.009 17.3588C134.009 17.3588 123.654 18.4943 110.879 18.4943C98.1053 18.4943 87.75 17.3588 87.75 17.3588V17.3588Z" fill="#08486B"/>
<path d="M87.9839 26.5484C87.9839 26.5484 98.2377 25.413 110.884 25.413C123.53 25.413 133.784 26.5484 133.784 26.5484C133.784 26.5484 123.53 27.6839 110.884 27.6839C98.2377 27.6839 87.9839 26.5484 87.9839 26.5484V26.5484Z" fill="#08486B"/>
</svg>
