<svg width="342" height="189" viewBox="0 0 342 189" fill="none" xmlns="http://www.w3.org/2000/svg">
<path d="M73.8819 13.2797C73.8819 14.796 73.2228 15.4433 72.3137 16.3396C71.2137 17.4214 69.8501 18.7657 69.8501 21.6853V23.6453C69.8501 24.2926 70.3774 24.8176 71.0274 24.8176C71.6774 24.8176 72.2046 24.2926 72.2046 23.6453V21.6853C72.2046 19.7435 72.9819 18.9785 73.9728 18.0053C74.9683 17.0231 76.2046 15.8009 76.2365 13.3747L73.8865 13.2797H73.8819Z" fill="white"/>
<path d="M37.9364 43.2086C37.4228 43.2086 37.0046 42.7922 37.0046 42.2807V42.2309C36.9273 39.8681 38.0046 38.139 40.0501 36.7358C40.8864 36.1609 63.7864 23.1066 70.8773 23.1066C77.9683 23.1066 100.796 36.1383 101.659 36.7358C103.7 38.139 104.782 39.8681 104.7 42.2309V42.2807C104.7 42.7922 104.282 43.2086 103.768 43.2086H37.9364ZM70.8546 30.7835C68.9546 30.7835 67.0637 31.0279 65.2273 31.5122C55.0592 34.1828 43.0683 37.7814 40.6046 39.2525C39.7183 39.7821 39.4319 40.1171 39.2001 40.8277L39.0501 41.2758H102.655L102.505 40.8277C102.273 40.1216 101.986 39.7821 101.1 39.2525C98.6364 37.7814 86.6455 34.1828 76.4773 31.5122C74.641 31.0279 72.7501 30.7835 70.8501 30.7835H70.8546Z" fill="white"/>
<path d="M71.1135 3C69.8908 3 68.8999 3.98677 68.8999 5.20439V24.279H73.3272V5.20439C73.3272 3.98677 72.3363 3 71.1135 3V3Z" fill="#8C857F"/>
<path d="M74.6365 22.654C73.6547 21.717 72.3865 21.2145 71.0275 21.2145C70.9593 21.2145 70.8911 21.21 70.8184 21.2145C68.0729 21.3232 65.8275 23.6362 65.8184 26.3747C65.8184 27.0808 65.9547 27.7689 66.2275 28.4162C66.482 29.0137 67.1684 29.2898 67.7684 29.0408C68.3684 28.7873 68.6456 28.1038 68.3956 27.5063C68.2456 27.1533 68.1684 26.773 68.1729 26.3838C68.1775 24.881 69.4093 23.6136 70.9138 23.5547C70.9547 23.5547 70.9911 23.5547 71.0275 23.5547C71.7729 23.5547 72.4684 23.8308 73.0093 24.3469C73.5729 24.89 73.8865 25.6188 73.8865 26.3973C73.8865 27.9047 73.2274 28.5565 72.3184 29.4527C71.2184 30.5345 69.8547 31.8789 69.8547 34.7985V36.7584C69.8547 37.4057 70.382 37.9308 71.032 37.9308C71.682 37.9308 72.2093 37.4057 72.2093 36.7584V34.7985C72.2093 32.8566 72.9865 32.0917 73.9774 31.1185C74.9865 30.1226 76.2456 28.8824 76.2456 26.3973C76.2456 24.9715 75.6774 23.6453 74.6456 22.6585L74.6365 22.654Z" fill="white"/>
<path d="M71.571 29.1064C77.6833 29.1064 80.4024 26.623 80.4024 26.623L95.9302 32.0431L96.0417 32.1611L113.158 50.1971L100.47 64.272L95.1137 59.8328L95.1028 107.363H48.0548L48.0455 59.8328L42.6893 64.272L30 50.1971L47.1158 32.1611L47.2274 32.0431L62.7428 26.6199C62.7428 26.6199 65.4681 29.1033 71.5741 29.1033" fill="#414042"/>
<path d="M71.571 29.1064C77.6833 29.1064 80.4024 26.623 80.4024 26.623L95.9302 32.0431L96.0417 32.1611L113.158 50.1971L100.47 64.272L95.1137 59.8328L95.1028 107.363H48.0548L48.0455 59.8328L42.6893 64.272L30 50.1971L47.1158 32.1611L47.2274 32.0431L62.7428 26.6199C62.7428 26.6199 65.4681 29.1033 71.5741 29.1033" stroke="#231F20" stroke-width="3.62" stroke-linejoin="round"/>
<path d="M79.8572 29.5504C78.9121 32.2217 76.7011 35.7792 71.6161 35.7792C66.6271 35.7792 64.362 32.2543 63.3657 29.5799C65.0948 30.46 67.7241 31.2624 71.5774 31.2624C75.4942 31.2624 78.142 30.4445 79.8572 29.5504Z" fill="#58595B" stroke="#231F20" stroke-width="2.11" stroke-miterlimit="10"/>
<path d="M79.8569 29.5504C80.1935 28.6156 80.4202 27.6446 80.5324 26.6572L82.6411 27.4333C82.6008 27.9502 81.6479 38.0686 71.6158 38.0686C61.3234 38.0686 60.5068 27.4504 60.5068 27.4504L62.6186 26.6401C62.7546 27.6456 63.0057 28.632 63.367 29.5799C64.3632 32.2543 66.6206 35.7792 71.6173 35.7792C76.7008 35.7792 78.9118 32.2217 79.8569 29.5504Z" fill="#414042"/>
<path d="M80.5262 26.6572C80.414 27.6446 80.1873 28.6156 79.8507 29.5504C78.1356 30.4445 75.4877 31.2578 71.574 31.2578C67.7176 31.2578 65.0883 30.4553 63.3623 29.5753C63.003 28.6287 62.7534 27.6438 62.6187 26.6401C62.6187 26.6401 65.2092 29.1236 71.5817 29.1236C77.8303 29.1251 80.3728 26.8047 80.5262 26.6572Z" fill="#414042"/>
<path d="M82.6441 27.396C82.6441 27.396 81.9098 38.05 71.6173 38.05C61.3249 38.05 60.5068 27.4332 60.5068 27.4332" stroke="#000200" stroke-width="1.58" stroke-linejoin="round"/>
<path d="M83.0207 27.4224C83.0207 27.4224 82.1391 38.4271 71.6173 38.4271C61.0972 38.4271 60.1396 27.4627 60.1396 27.4627" stroke="#000200" stroke-width="1.05" stroke-linejoin="round" stroke-dasharray="4.22 2.11"/>
<path d="M60.3984 27.4627L62.6187 26.6199C62.6187 26.6199 63.5839 35.7589 71.6174 35.7589C79.7577 35.7589 80.5324 26.6354 80.5324 26.6354L82.7403 27.4441" stroke="#000200" stroke-width="2.11" stroke-linejoin="round"/>
<path d="M62.6187 26.6199C62.6187 26.6199 65.2092 29.1033 71.5802 29.1033C78.0349 29.1033 80.534 26.6276 80.534 26.6276" stroke="#000200" stroke-width="1.58" stroke-linejoin="round"/>
<path d="M79.8741 29.5239C78.1574 30.4164 75.5095 31.2406 71.5788 31.2406C67.724 31.2406 65.0932 30.4397 63.3672 29.5612" stroke="#000200" stroke-width="1.05" stroke-linejoin="round"/>
<path d="M63.4834 29.9601C65.1614 30.8075 67.8015 31.5743 71.6207 31.5743C75.7823 31.5743 78.5727 30.6027 79.8323 29.8933" stroke="#000200" stroke-width="1.05" stroke-linejoin="round" stroke-dasharray="4.22 2.11"/>
<path d="M47.2275 32.0431C47.2275 32.0431 51.1753 53.0794 48.0208 55.1701L48.0456 59.8266" stroke="#231F20" stroke-width="1.36" stroke-miterlimit="10"/>
<path d="M30.7451 49.3838L30.9667 49.6259" stroke="#231F20" stroke-width="1.05" stroke-miterlimit="10"/>
<path d="M31.1929 49.8711L43.3043 63.0489" stroke="#231F20" stroke-width="1.05" stroke-miterlimit="10" stroke-dasharray="4.31 2.16"/>
<path d="M43.4175 63.1715L43.639 63.4121" stroke="#231F20" stroke-width="1.05" stroke-miterlimit="10"/>
<path d="M31.2581 48.9491L31.4796 49.1897" stroke="#231F20" stroke-width="1.05" stroke-miterlimit="10"/>
<path d="M31.7058 49.4365L43.8172 62.6127" stroke="#231F20" stroke-width="1.05" stroke-miterlimit="10" stroke-dasharray="4.31 2.16"/>
<path d="M43.9319 62.7369L44.1519 62.9775" stroke="#231F20" stroke-width="1.05" stroke-miterlimit="10"/>
<path d="M95.9301 32.0431C95.9301 32.0431 91.9823 53.0794 95.1368 55.1701L95.1136 59.8266" stroke="#231F20" stroke-width="1.36" stroke-miterlimit="10"/>
<path d="M95.0965 106.213H71.5756H48.0547" stroke="#231F20" stroke-width="1.05" stroke-miterlimit="10" stroke-dasharray="4.22 2.11"/>
<path d="M95.0964 105.454H94.7695" stroke="#231F20" stroke-width="1.05" stroke-miterlimit="10"/>
<path d="M94.4428 105.454H71.8313H71.32H48.5459" stroke="#231F20" stroke-width="1.05" stroke-miterlimit="10" stroke-dasharray="4.22 2.11"/>
<path d="M48.3816 105.454H48.0547" stroke="#231F20" stroke-width="1.05" stroke-miterlimit="10"/>
<path d="M112.406 49.3838L112.186 49.6259" stroke="#231F20" stroke-width="1.05" stroke-miterlimit="10"/>
<path d="M111.96 49.8711L99.8469 63.0489" stroke="#231F20" stroke-width="1.05" stroke-miterlimit="10" stroke-dasharray="4.31 2.16"/>
<path d="M99.7338 63.1715L99.5122 63.4121" stroke="#231F20" stroke-width="1.05" stroke-miterlimit="10"/>
<path d="M111.893 48.9491L111.672 49.1897" stroke="#231F20" stroke-width="1.05" stroke-miterlimit="10"/>
<path d="M111.445 49.4365L99.334 62.6127" stroke="#231F20" stroke-width="1.05" stroke-miterlimit="10" stroke-dasharray="4.31 2.16"/>
<path d="M99.2211 62.7369L98.9995 62.9775" stroke="#231F20" stroke-width="1.05" stroke-miterlimit="10"/>
<path d="M71.0684 30.1407C73.1394 30.1407 74.8184 28.4688 74.8184 26.4063C74.8184 24.3439 73.1394 22.672 71.0684 22.672C68.9973 22.672 67.3184 24.3439 67.3184 26.4063C67.3184 28.4688 68.9973 30.1407 71.0684 30.1407Z" fill="#635E59"/>
<path d="M76.2319 13.2842C76.2319 11.8583 75.6637 10.5321 74.6319 9.54531C73.6501 8.60833 72.3819 8.10589 71.0228 8.10589C70.9546 8.10589 70.8864 8.10137 70.8137 8.10589C68.0683 8.21453 65.8228 10.5276 65.8137 13.2661C65.8137 13.9722 65.9501 14.6602 66.2228 15.3075C66.4774 15.905 67.1637 16.1811 67.7637 15.9322C68.3637 15.6787 68.641 14.9952 68.391 14.3977C68.241 14.0446 68.1637 13.6644 68.1683 13.2751C68.1728 11.7723 69.4046 10.5049 70.9092 10.4461C70.9501 10.4461 70.9864 10.4461 71.0228 10.4461C71.7683 10.4461 72.4637 10.7222 73.0046 11.2382C73.5683 11.7769 73.8774 12.5056 73.8819 13.2842L74.8228 14.3796L76.2319 13.3792C76.2319 13.3476 76.2319 13.3204 76.2319 13.2887V13.2842Z" fill="white"/>
<path d="M66.468 1.57443C67.0124 0.666773 67.9878 0.0431232 69.1175 0.00213212C70.3317 -0.0417869 71.4119 0.596502 72 1.57443H70.2006C69.8949 1.39583 69.5426 1.29335 69.1641 1.30799C68.838 1.3197 68.5381 1.41925 68.2731 1.57443C67.6763 1.92286 67.2774 2.57578 67.3036 3.31948C67.3123 3.58299 67.3735 3.8348 67.4812 4.06903C67.6326 4.39696 67.4928 4.78344 67.1667 4.93863C66.8377 5.09088 66.4534 4.95034 66.302 4.62241C66.1186 4.22714 66.0196 3.80552 66.0021 3.36633C65.9788 2.7134 66.1506 2.09853 66.465 1.57443H66.468Z" fill="white"/>
<path d="M263.882 13.2797C263.882 14.796 263.223 15.4433 262.314 16.3396C261.214 17.4214 259.85 18.7657 259.85 21.6853V23.6453C259.85 24.2926 260.377 24.8176 261.027 24.8176C261.677 24.8176 262.205 24.2926 262.205 23.6453V21.6853C262.205 19.7435 262.982 18.9785 263.973 18.0053C264.968 17.0231 266.205 15.8009 266.236 13.3747L263.886 13.2797H263.882Z" fill="white"/>
<path d="M227.936 43.2086C227.423 43.2086 227.005 42.7922 227.005 42.2807V42.2309C226.927 39.8681 228.005 38.139 230.05 36.7358C230.886 36.1609 253.786 23.1066 260.877 23.1066C267.968 23.1066 290.796 36.1383 291.659 36.7358C293.7 38.139 294.782 39.8681 294.7 42.2309V42.2807C294.7 42.7922 294.282 43.2086 293.768 43.2086H227.936ZM260.855 30.7835C258.955 30.7835 257.064 31.0279 255.227 31.5122C245.059 34.1828 233.068 37.7814 230.605 39.2525C229.718 39.7821 229.432 40.1171 229.2 40.8277L229.05 41.2758H292.655L292.505 40.8277C292.273 40.1216 291.986 39.7821 291.1 39.2525C288.636 37.7814 276.646 34.1828 266.477 31.5122C264.641 31.0279 262.75 30.7835 260.85 30.7835H260.855Z" fill="white"/>
<path d="M261.114 3C259.891 3 258.9 3.98677 258.9 5.20439V24.279H263.327V5.20439C263.327 3.98677 262.336 3 261.114 3V3Z" fill="#8C857F"/>
<path d="M264.637 22.654C263.655 21.717 262.387 21.2145 261.027 21.2145C260.959 21.2145 260.891 21.21 260.818 21.2145C258.073 21.3232 255.827 23.6362 255.818 26.3747C255.818 27.0808 255.955 27.7689 256.227 28.4162C256.482 29.0137 257.168 29.2898 257.768 29.0408C258.368 28.7873 258.646 28.1038 258.396 27.5063C258.246 27.1533 258.168 26.773 258.173 26.3838C258.177 24.881 259.409 23.6136 260.914 23.5547C260.955 23.5547 260.991 23.5547 261.027 23.5547C261.773 23.5547 262.468 23.8308 263.009 24.3469C263.573 24.89 263.887 25.6188 263.887 26.3973C263.887 27.9047 263.227 28.5565 262.318 29.4527C261.218 30.5345 259.855 31.8789 259.855 34.7985V36.7584C259.855 37.4057 260.382 37.9308 261.032 37.9308C261.682 37.9308 262.209 37.4057 262.209 36.7584V34.7985C262.209 32.8566 262.987 32.0917 263.977 31.1185C264.987 30.1226 266.246 28.8824 266.246 26.3973C266.246 24.9715 265.677 23.6453 264.646 22.6585L264.637 22.654Z" fill="white"/>
<path d="M261.571 29.1064C267.683 29.1064 270.402 26.623 270.402 26.623L285.93 32.0431L286.042 32.1611L303.158 50.1971L290.47 64.272L285.114 59.8328L285.103 107.363H238.055L238.045 59.8328L232.689 64.272L220 50.1971L237.116 32.1611L237.227 32.0431L252.743 26.6199C252.743 26.6199 255.468 29.1033 261.574 29.1033" fill="#49DEFF"/>
<path d="M261.571 29.1064C267.683 29.1064 270.402 26.623 270.402 26.623L285.93 32.0431L286.042 32.1611L303.158 50.1971L290.47 64.272L285.114 59.8328L285.103 107.363H238.055L238.045 59.8328L232.689 64.272L220 50.1971L237.116 32.1611L237.227 32.0431L252.743 26.6199C252.743 26.6199 255.468 29.1033 261.574 29.1033" stroke="#006981" stroke-width="3.62" stroke-linejoin="round"/>
<path d="M269.857 29.5504C268.912 32.2217 266.701 35.7792 261.616 35.7792C256.627 35.7792 254.362 32.2543 253.366 29.5799C255.095 30.46 257.724 31.2624 261.577 31.2624C265.494 31.2624 268.142 30.4445 269.857 29.5504Z" fill="#006981" stroke="#231F20" stroke-width="2.11" stroke-miterlimit="10"/>
<path d="M269.857 29.5504C270.193 28.6156 270.42 27.6446 270.532 26.6572L272.641 27.4333C272.601 27.9502 271.648 38.0686 261.616 38.0686C251.323 38.0686 250.507 27.4504 250.507 27.4504L252.619 26.6401C252.755 27.6456 253.006 28.632 253.367 29.5799C254.363 32.2543 256.621 35.7792 261.617 35.7792C266.701 35.7792 268.912 32.2217 269.857 29.5504Z" fill="#414042"/>
<path d="M270.526 26.6572C270.414 27.6446 270.187 28.6156 269.851 29.5504C268.136 30.4445 265.488 31.2578 261.574 31.2578C257.718 31.2578 255.088 30.4553 253.362 29.5753C253.003 28.6287 252.753 27.6438 252.619 26.6401C252.619 26.6401 255.209 29.1236 261.582 29.1236C267.83 29.1251 270.373 26.8047 270.526 26.6572Z" fill="#414042"/>
<path d="M272.644 27.396C272.644 27.396 271.91 38.05 261.617 38.05C251.325 38.05 250.507 27.4332 250.507 27.4332" stroke="#000200" stroke-width="1.58" stroke-linejoin="round"/>
<path d="M273.021 27.4224C273.021 27.4224 272.139 38.4271 261.617 38.4271C251.097 38.4271 250.14 27.4627 250.14 27.4627" stroke="#2FD8FF" stroke-width="1.05" stroke-linejoin="round" stroke-dasharray="4.22 2.11"/>
<path d="M250.398 27.4627L252.619 26.6199C252.619 26.6199 253.584 35.7589 261.617 35.7589C269.758 35.7589 270.532 26.6354 270.532 26.6354L272.74 27.4441" stroke="#2FD8FF" stroke-width="2.11" stroke-linejoin="round"/>
<path d="M252.619 26.6199C252.619 26.6199 255.209 29.1033 261.58 29.1033C268.035 29.1033 270.534 26.6276 270.534 26.6276" stroke="#000200" stroke-width="1.58" stroke-linejoin="round"/>
<path d="M269.874 29.5239C268.157 30.4164 265.51 31.2406 261.579 31.2406C257.724 31.2406 255.093 30.4397 253.367 29.5612" stroke="#000200" stroke-width="1.05" stroke-linejoin="round"/>
<path d="M253.483 29.9601C255.161 30.8075 257.801 31.5743 261.621 31.5743C265.782 31.5743 268.573 30.6027 269.832 29.8933" stroke="#000200" stroke-width="1.05" stroke-linejoin="round" stroke-dasharray="4.22 2.11"/>
<path d="M237.228 32.0431C237.228 32.0431 241.175 53.0794 238.021 55.1701L238.046 59.8266" stroke="#006981" stroke-width="1.36" stroke-miterlimit="10"/>
<path d="M220.745 49.3838L220.967 49.6259" stroke="#231F20" stroke-width="1.05" stroke-miterlimit="10"/>
<path d="M221.193 49.8711L233.304 63.0489" stroke="#231F20" stroke-width="1.05" stroke-miterlimit="10" stroke-dasharray="4.31 2.16"/>
<path d="M233.417 63.1715L233.639 63.4121" stroke="#231F20" stroke-width="1.05" stroke-miterlimit="10"/>
<path d="M221.258 48.9491L221.48 49.1897" stroke="#231F20" stroke-width="1.05" stroke-miterlimit="10"/>
<path d="M221.706 49.4365L233.817 62.6127" stroke="#231F20" stroke-width="1.05" stroke-miterlimit="10" stroke-dasharray="4.31 2.16"/>
<path d="M233.932 62.7369L234.152 62.9775" stroke="#231F20" stroke-width="1.05" stroke-miterlimit="10"/>
<path d="M285.93 32.0431C285.93 32.0431 281.982 53.0794 285.137 55.1701L285.114 59.8266" stroke="#006981" stroke-width="1.36" stroke-miterlimit="10"/>
<path d="M285.097 106.213H261.576H238.055" stroke="#72B9CA" stroke-width="1.05" stroke-miterlimit="10" stroke-dasharray="4.22 2.11"/>
<path d="M285.096 105.454H284.77" stroke="#72B9CA" stroke-width="1.05" stroke-miterlimit="10"/>
<path d="M284.443 105.454H261.831H261.32H238.546" stroke="#72B9CA" stroke-width="1.05" stroke-miterlimit="10" stroke-dasharray="4.22 2.11"/>
<path d="M238.382 105.454H238.055" stroke="#72B9CA" stroke-width="1.05" stroke-miterlimit="10"/>
<path d="M302.406 49.3838L302.186 49.6259" stroke="#231F20" stroke-width="1.05" stroke-miterlimit="10"/>
<path d="M301.96 49.8711L289.847 63.0489" stroke="#231F20" stroke-width="1.05" stroke-miterlimit="10" stroke-dasharray="4.31 2.16"/>
<path d="M289.734 63.1715L289.512 63.4121" stroke="#231F20" stroke-width="1.05" stroke-miterlimit="10"/>
<path d="M301.893 48.9491L301.672 49.1897" stroke="#231F20" stroke-width="1.05" stroke-miterlimit="10"/>
<path d="M301.445 49.4365L289.334 62.6127" stroke="#231F20" stroke-width="1.05" stroke-miterlimit="10" stroke-dasharray="4.31 2.16"/>
<path d="M289.221 62.7369L289 62.9775" stroke="#231F20" stroke-width="1.05" stroke-miterlimit="10"/>
<path d="M261.068 30.1407C263.139 30.1407 264.818 28.4688 264.818 26.4063C264.818 24.3439 263.139 22.672 261.068 22.672C258.997 22.672 257.318 24.3439 257.318 26.4063C257.318 28.4688 258.997 30.1407 261.068 30.1407Z" fill="#635E59"/>
<path d="M266.232 13.2842C266.232 11.8583 265.664 10.5321 264.632 9.54531C263.65 8.60833 262.382 8.10589 261.023 8.10589C260.955 8.10589 260.886 8.10137 260.814 8.10589C258.068 8.21453 255.823 10.5276 255.814 13.2661C255.814 13.9722 255.95 14.6602 256.223 15.3075C256.477 15.905 257.164 16.1811 257.764 15.9322C258.364 15.6787 258.641 14.9952 258.391 14.3977C258.241 14.0446 258.164 13.6644 258.168 13.2751C258.173 11.7723 259.405 10.5049 260.909 10.4461C260.95 10.4461 260.986 10.4461 261.023 10.4461C261.768 10.4461 262.464 10.7222 263.005 11.2382C263.568 11.7769 263.877 12.5056 263.882 13.2842L264.823 14.3796L266.232 13.3792C266.232 13.3476 266.232 13.3204 266.232 13.2887V13.2842Z" fill="white"/>
<path d="M256.468 1.57443C257.012 0.666773 257.988 0.0431232 259.118 0.00213212C260.332 -0.0417869 261.412 0.596502 262 1.57443H260.201C259.895 1.39583 259.543 1.29335 259.164 1.30799C258.838 1.3197 258.538 1.41925 258.273 1.57443C257.676 1.92286 257.277 2.57578 257.304 3.31948C257.312 3.58299 257.373 3.8348 257.481 4.06903C257.633 4.39696 257.493 4.78344 257.167 4.93863C256.838 5.09088 256.453 4.95034 256.302 4.62241C256.119 4.22714 256.02 3.80552 256.002 3.36633C255.979 2.7134 256.151 2.09853 256.465 1.57443H256.468Z" fill="white"/>
<path d="M339.671 2.40063V188.495C339.671 188.495 338.932 189 336.666 189C334.399 189 333.806 188.495 333.806 188.495V2.40063H339.671Z" fill="#8F8E94"/>
<path d="M336.085 2.40063H334.656V188.495H336.085V2.40063Z" fill="#C9C8C8"/>
<path d="M339.092 0H334.381C332.777 0 331.477 0.745325 331.477 1.66473V11.9043C331.477 12.8237 332.777 13.5691 334.381 13.5691H339.092C340.695 13.5691 341.996 12.8237 341.996 11.9043V1.66473C341.996 0.745325 340.695 0 339.092 0Z" fill="#5C5C5C"/>
<path d="M338.219 5.56264H1.54053V2.2002H336.086C338.759 2.2002 338.215 5.56264 338.215 5.56264H338.219Z" fill="#8F8E94"/>
<path d="M337.507 2.68994H1.54053V3.50962H338.042C337.927 3.20509 337.759 2.9158 337.507 2.68994Z" fill="#C9C8C8"/>
<path d="M8.1944 2.40063V188.244C8.1944 188.244 7.45509 188.749 5.18846 188.749C2.92183 188.749 2.32861 188.244 2.32861 188.244V2.40063H8.1944Z" fill="#8F8E94"/>
<path d="M3.17871 188.564C3.51959 188.64 3.98885 188.708 4.60863 188.734V3.47668H3.17871V188.564Z" fill="#C9C8C8"/>
<path d="M7.61446 0H2.90412C1.30022 0 0 0.745325 0 1.66473V11.9043C0 12.8237 1.30022 13.5691 2.90412 13.5691H7.61446C9.21836 13.5691 10.5186 12.8237 10.5186 11.9043V1.66473C10.5186 0.745325 9.21836 0 7.61446 0Z" fill="#5C5C5C"/>
</svg>
