<svg width="127" height="123" viewBox="0 0 127 123" fill="none" xmlns="http://www.w3.org/2000/svg">
<path d="M63.6009 6.03501C72.5498 6.03501 76.5309 2.40736 76.5309 2.40736L99.2649 10.3247L99.4282 10.497L124.487 36.8428L105.911 57.4025L98.0694 50.9181L98.0535 120.347H29.171L29.1574 50.9181L21.3155 57.4025L2.73724 36.8428L27.7964 10.497L27.9597 10.3247L50.6755 2.40283C50.6755 2.40283 54.6657 6.03048 63.6055 6.03048" fill="#414042"/>
<path d="M63.6009 6.03501C72.5498 6.03501 76.5309 2.40736 76.5309 2.40736L99.2649 10.3247L99.4282 10.497L124.487 36.8428L105.911 57.4025L98.0694 50.9181L98.0535 120.347H29.171L29.1574 50.9181L21.3155 57.4025L2.73724 36.8428L27.7964 10.497L27.9597 10.3247L50.6755 2.40283C50.6755 2.40283 54.6657 6.03048 63.6055 6.03048" stroke="#231F20" stroke-width="3.62" stroke-linejoin="round"/>
</svg>
